<svg width="763" height="469" viewBox="0 0 763 469" fill="none" xmlns="http://www.w3.org/2000/svg">
<path d="M332 318.333C327.417 318.333 323.493 316.701 320.229 313.437C316.965 310.174 315.333 306.25 315.333 301.667V218.333C315.333 213.75 316.965 209.826 320.229 206.562C323.493 203.299 327.417 201.667 332 201.667H340.333V185C340.333 173.472 344.396 163.646 352.521 155.521C360.646 147.396 370.472 143.333 382 143.333C393.528 143.333 403.354 147.396 411.479 155.521C419.604 163.646 423.667 173.472 423.667 185V201.667H432C436.583 201.667 440.507 203.299 443.771 206.562C447.035 209.826 448.667 213.75 448.667 218.333V301.667C448.667 306.25 447.035 310.174 443.771 313.437C440.507 316.701 436.583 318.333 432 318.333H332ZM382 276.667C386.583 276.667 390.507 275.035 393.771 271.771C397.035 268.507 398.667 264.583 398.667 260C398.667 255.417 397.035 251.493 393.771 248.229C390.507 244.965 386.583 243.333 382 243.333C377.417 243.333 373.493 244.965 370.229 248.229C366.965 251.493 365.333 255.417 365.333 260C365.333 264.583 366.965 268.507 370.229 271.771C373.493 275.035 377.417 276.667 382 276.667ZM357 201.667H407V185C407 178.056 404.57 172.153 399.708 167.292C394.847 162.431 388.945 160 382 160C375.056 160 369.153 162.431 364.292 167.292C359.431 172.153 357 178.056 357 185V201.667Z" fill="url(#paint0_linear_403_10654)"/>
<defs>
<linearGradient id="paint0_linear_403_10654" x1="298.5" y1="264" x2="468" y2="262.5" gradientUnits="userSpaceOnUse">
<stop stop-color="#5BCBA9"/>
<stop offset="1" stop-color="#54A2BA"/>
</linearGradient>
</defs>
</svg>
