<svg width="763" height="469" viewBox="0 0 763 469" fill="none" xmlns="http://www.w3.org/2000/svg">
<path d="M305.391 211.75C307.5 211.828 309.297 212.609 310.781 214.094C312.266 215.5 313.047 217.258 313.125 219.367V249.719H319.805C321.992 249.797 323.789 250.617 325.195 252.18C326.68 253.742 327.422 255.617 327.422 257.805C327.344 259.914 326.562 261.711 325.078 263.195C323.672 264.602 321.914 265.344 319.805 265.422H313.125V276.789C312.656 281.477 310.078 284.016 305.391 284.406C303.203 284.406 301.289 283.703 299.648 282.297C298.086 280.812 297.305 278.977 297.305 276.789V265.422H272.461C266.992 265.109 262.461 263.273 258.867 259.914C255.352 256.477 252.812 252.297 251.25 247.375C249.766 242.453 248.984 237.219 248.906 231.672V219.367C248.984 217.258 249.766 215.5 251.25 214.094C252.734 212.609 254.531 211.828 256.641 211.75C258.828 211.75 260.703 212.492 262.266 213.977C263.828 215.383 264.648 217.18 264.727 219.367V230.266C264.648 233.469 264.844 236.438 265.312 239.172C265.859 241.828 267.109 244.211 269.062 246.32C271.016 248.43 273.477 249.562 276.445 249.719H297.305V219.367C297.383 217.18 298.203 215.383 299.766 213.977C301.328 212.492 303.203 211.75 305.391 211.75ZM399.141 213.625C403.125 213.703 406.68 214.953 409.805 217.375C412.93 219.797 415.43 222.688 417.305 226.047C419.258 229.406 420.703 232.961 421.641 236.711C422.578 240.461 423.047 244.289 423.047 248.195C423.047 253.352 422.227 258.43 420.586 263.43C419.023 268.352 416.406 272.727 412.734 276.555C409.141 280.383 404.609 282.453 399.141 282.766H361.992C356.523 282.531 351.953 280.5 348.281 276.672C344.609 272.844 341.992 268.43 340.43 263.43C338.945 258.43 338.203 253.352 338.203 248.195C338.203 243.039 338.984 238 340.547 233.078C342.109 228.078 344.688 223.664 348.281 219.836C351.953 215.93 356.523 213.859 361.992 213.625H364.219H396.914H399.141ZM395.156 267.062C398.125 266.906 400.586 265.812 402.539 263.781C404.57 261.672 406.016 259.25 406.875 256.516C407.734 253.781 408.164 251.008 408.164 248.195C408.164 245.383 407.695 242.648 406.758 239.992C405.898 237.258 404.492 234.836 402.539 232.727C400.586 230.617 398.125 229.484 395.156 229.328H365.625C362.656 229.484 360.195 230.617 358.242 232.727C356.289 234.836 354.844 237.258 353.906 239.992C353.047 242.648 352.617 245.383 352.617 248.195C352.617 251.008 353.047 253.781 353.906 256.516C354.766 259.25 356.172 261.672 358.125 263.781C360.156 265.812 362.656 266.906 365.625 267.062H395.156ZM492.891 211.75C495 211.828 496.797 212.609 498.281 214.094C499.766 215.5 500.547 217.258 500.625 219.367V249.719H507.305C509.492 249.797 511.289 250.617 512.695 252.18C514.18 253.742 514.922 255.617 514.922 257.805C514.844 259.914 514.062 261.711 512.578 263.195C511.172 264.602 509.414 265.344 507.305 265.422H500.625V276.789C500.156 281.477 497.578 284.016 492.891 284.406C490.703 284.406 488.789 283.703 487.148 282.297C485.586 280.812 484.805 278.977 484.805 276.789V265.422H459.961C454.492 265.109 449.961 263.273 446.367 259.914C442.852 256.477 440.312 252.297 438.75 247.375C437.266 242.453 436.484 237.219 436.406 231.672V219.367C436.484 217.258 437.266 215.5 438.75 214.094C440.234 212.609 442.031 211.828 444.141 211.75C446.328 211.75 448.203 212.492 449.766 213.977C451.328 215.383 452.148 217.18 452.227 219.367V230.266C452.148 233.469 452.344 236.438 452.812 239.172C453.359 241.828 454.609 244.211 456.562 246.32C458.516 248.43 460.977 249.562 463.945 249.719H484.805V219.367C484.883 217.18 485.703 215.383 487.266 213.977C488.828 212.492 490.703 211.75 492.891 211.75Z" fill="url(#paint0_linear_403_10650)"/>
<defs>
<linearGradient id="paint0_linear_403_10650" x1="240" y1="258.5" x2="524" y2="259.5" gradientUnits="userSpaceOnUse">
<stop stop-color="#5BCBA9"/>
<stop offset="1" stop-color="#54A2BA"/>
</linearGradient>
</defs>
</svg>
