<svg width="351" height="209" viewBox="0 0 351 209" fill="none" xmlns="http://www.w3.org/2000/svg">
<rect x="2.5" y="206.5" width="204" height="346" rx="14.5" transform="rotate(-90 2.5 206.5)" stroke="#C0C0C0" stroke-width="5"/>
<circle cx="179" cy="14" r="4" fill="#C0C0C0"/>
<path d="M31.8107 35.5283L32.6177 36.9293H31.0037L31.8107 35.5283Z" fill="white"/>
<path d="M28.7757 15.9126C29.8475 13.5866 33.1531 13.5866 34.2249 15.9126L43.5269 36.0982C44.4429 38.0859 42.9909 40.3538 40.8023 40.3538H31.5003H22.1984C20.0098 40.3538 18.5578 38.0859 19.4737 36.0982L28.7757 15.9126Z" fill="#C0C0C0"/>
<g style="mix-blend-mode:hard-light">
<path d="M30.5748 18.6126C30.9292 17.8182 32.0588 17.8237 32.4053 18.6216L42.3854 41.6016C42.6722 42.262 42.1882 43 41.4682 43H31.5003H21.2383C20.514 43 20.03 42.2541 20.325 41.5926L30.5748 18.6126Z" fill="#CED8FF"/>
</g>
<rect x="30.2578" y="27.434" width="2.48485" height="12.4528" rx="1.24242" fill="url(#paint0_linear_200_377)"/>
<path d="M37.7124 26.1887V26.1887C37.7124 27.2203 36.8761 28.0566 35.8445 28.0566H27.1561C26.1245 28.0566 25.2882 27.2203 25.2882 26.1887V26.1887L37.7124 26.1887Z" fill="#C0C0C0"/>
<rect x="35.2275" y="22.4529" width="2.49057" height="7.45454" transform="rotate(90 35.2275 22.4529)" fill="url(#paint1_linear_200_377)"/>
<path d="M36.3624 24.295L36.9175 24.295L36.64 24.7769L36.3624 24.295Z" fill="#61ABB5"/>
<path d="M26.0636 24.2521L26.6187 24.2521L26.3411 24.7339L26.0636 24.2521Z" fill="#5BCBA9"/>
<ellipse cx="4.80905" cy="6.26211" rx="4.80905" ry="6.26211" transform="matrix(0.926884 -0.375347 0.373867 0.927482 38.4028 16.1801)" fill="#C0C0C0"/>
<ellipse cx="4.80905" cy="6.26211" rx="4.80905" ry="6.26211" transform="matrix(0.926884 -0.375347 0.373867 0.927482 37.2808 16.1801)" fill="white"/>
<ellipse cx="4.80905" cy="6.26211" rx="4.80905" ry="6.26211" transform="matrix(0.926884 -0.375347 0.373867 0.927482 37.2808 16.1801)" fill="white"/>
<ellipse cx="3.38736" cy="4.64584" rx="3.38736" ry="4.64584" transform="matrix(0.916902 -0.399113 0.351134 0.936325 38.2231 17.8436)" fill="#5BCBA9"/>
<ellipse cx="3.38736" cy="4.64584" rx="3.38736" ry="4.64584" transform="matrix(0.916902 -0.399113 0.351134 0.936325 37.4414 17.8436)" fill="white"/>
<ellipse cx="3.38736" cy="4.64584" rx="3.38736" ry="4.64584" transform="matrix(0.916902 -0.399113 0.351134 0.936325 38.2231 17.8436)" fill="#54A2BA"/>
<ellipse cx="3.38736" cy="4.64584" rx="3.38736" ry="4.64584" transform="matrix(0.916902 -0.399113 0.351134 0.936325 37.4414 17.8436)" fill="white"/>
<ellipse cx="4.80905" cy="6.26211" rx="4.80905" ry="6.26211" transform="matrix(-0.926884 -0.375347 -0.373867 0.927482 24.5972 16.1801)" fill="#C0C0C0"/>
<ellipse cx="4.80905" cy="6.26211" rx="4.80905" ry="6.26211" transform="matrix(-0.926884 -0.375347 -0.373867 0.927482 25.7192 16.1801)" fill="white"/>
<ellipse cx="4.80905" cy="6.26211" rx="4.80905" ry="6.26211" transform="matrix(-0.926884 -0.375347 -0.373867 0.927482 25.7192 16.1801)" fill="white"/>
<ellipse cx="3.38736" cy="4.64584" rx="3.38736" ry="4.64584" transform="matrix(-0.916902 -0.399113 -0.351134 0.936325 24.7773 17.8436)" fill="#5BCBA9"/>
<ellipse cx="3.38736" cy="4.64584" rx="3.38736" ry="4.64584" transform="matrix(-0.916902 -0.399113 -0.351134 0.936325 25.5586 17.8436)" fill="white"/>
<ellipse cx="3.38736" cy="4.64584" rx="3.38736" ry="4.64584" transform="matrix(-0.916902 -0.399113 -0.351134 0.936325 25.5586 17.8436)" fill="white"/>
<path d="M31.8107 35.5283L32.6177 36.9293H31.0037L31.8107 35.5283Z" fill="white"/>
<rect x="30.2578" y="27.434" width="2.48485" height="12.4528" rx="1.24242" fill="url(#paint2_linear_200_377)"/>
<rect x="35.2275" y="22.4529" width="2.49057" height="7.45454" transform="rotate(90 35.2275 22.4529)" fill="url(#paint3_linear_200_377)"/>
<path d="M36.3624 24.295L36.9175 24.295L36.64 24.7769L36.3624 24.295Z" fill="#61ABB5"/>
<path d="M26.0636 24.2521L26.6187 24.2521L26.3411 24.7339L26.0636 24.2521Z" fill="#5BCBA9"/>
<ellipse cx="4.80905" cy="6.26211" rx="4.80905" ry="6.26211" transform="matrix(0.926884 -0.375347 0.373867 0.927482 37.2808 16.1801)" fill="white"/>
<ellipse cx="4.80905" cy="6.26211" rx="4.80905" ry="6.26211" transform="matrix(0.926884 -0.375347 0.373867 0.927482 37.2808 16.1801)" fill="white"/>
<ellipse cx="3.38736" cy="4.64584" rx="3.38736" ry="4.64584" transform="matrix(0.916902 -0.399113 0.351134 0.936325 38.2231 17.8436)" fill="#5BCBA9"/>
<ellipse cx="3.38736" cy="4.64584" rx="3.38736" ry="4.64584" transform="matrix(0.916902 -0.399113 0.351134 0.936325 37.4414 17.8436)" fill="white"/>
<ellipse cx="3.38736" cy="4.64584" rx="3.38736" ry="4.64584" transform="matrix(0.916902 -0.399113 0.351134 0.936325 38.2231 17.8436)" fill="#54A2BA"/>
<ellipse cx="3.38736" cy="4.64584" rx="3.38736" ry="4.64584" transform="matrix(0.916902 -0.399113 0.351134 0.936325 37.4414 17.8436)" fill="white"/>
<ellipse cx="4.80905" cy="6.26211" rx="4.80905" ry="6.26211" transform="matrix(-0.926884 -0.375347 -0.373867 0.927482 25.7192 16.1801)" fill="white"/>
<ellipse cx="4.80905" cy="6.26211" rx="4.80905" ry="6.26211" transform="matrix(-0.926884 -0.375347 -0.373867 0.927482 25.7192 16.1801)" fill="white"/>
<ellipse cx="3.38736" cy="4.64584" rx="3.38736" ry="4.64584" transform="matrix(-0.916902 -0.399113 -0.351134 0.936325 24.7773 17.8436)" fill="#5BCBA9"/>
<ellipse cx="3.38736" cy="4.64584" rx="3.38736" ry="4.64584" transform="matrix(-0.916902 -0.399113 -0.351134 0.936325 25.5586 17.8436)" fill="white"/>
<ellipse cx="3.38736" cy="4.64584" rx="3.38736" ry="4.64584" transform="matrix(-0.916902 -0.399113 -0.351134 0.936325 25.5586 17.8436)" fill="white"/>
<path d="M31.8107 35.5283L32.6177 36.9293H31.0037L31.8107 35.5283Z" fill="white"/>
<rect x="30.2578" y="27.434" width="2.48485" height="12.4528" rx="1.24242" fill="url(#paint4_linear_200_377)"/>
<rect x="35.2275" y="22.4529" width="2.49057" height="7.45454" transform="rotate(90 35.2275 22.4529)" fill="url(#paint5_linear_200_377)"/>
<path d="M36.3624 24.295L36.9175 24.295L36.64 24.7769L36.3624 24.295Z" fill="#61ABB5"/>
<path d="M26.0636 24.2521L26.6187 24.2521L26.3411 24.7339L26.0636 24.2521Z" fill="#5BCBA9"/>
<ellipse cx="4.80905" cy="6.26211" rx="4.80905" ry="6.26211" transform="matrix(0.926884 -0.375347 0.373867 0.927482 37.2808 16.1801)" fill="white"/>
<ellipse cx="4.80905" cy="6.26211" rx="4.80905" ry="6.26211" transform="matrix(0.926884 -0.375347 0.373867 0.927482 37.2808 16.1801)" fill="white"/>
<ellipse cx="3.38736" cy="4.64584" rx="3.38736" ry="4.64584" transform="matrix(0.916902 -0.399113 0.351134 0.936325 38.2231 17.8436)" fill="#5BCBA9"/>
<ellipse cx="3.38736" cy="4.64584" rx="3.38736" ry="4.64584" transform="matrix(0.916902 -0.399113 0.351134 0.936325 37.4414 17.8436)" fill="white"/>
<ellipse cx="3.38736" cy="4.64584" rx="3.38736" ry="4.64584" transform="matrix(0.916902 -0.399113 0.351134 0.936325 38.2231 17.8436)" fill="#54A2BA"/>
<ellipse cx="3.38736" cy="4.64584" rx="3.38736" ry="4.64584" transform="matrix(0.916902 -0.399113 0.351134 0.936325 37.4414 17.8436)" fill="white"/>
<ellipse cx="4.80905" cy="6.26211" rx="4.80905" ry="6.26211" transform="matrix(-0.926884 -0.375347 -0.373867 0.927482 25.7192 16.1801)" fill="white"/>
<ellipse cx="4.80905" cy="6.26211" rx="4.80905" ry="6.26211" transform="matrix(-0.926884 -0.375347 -0.373867 0.927482 25.7192 16.1801)" fill="white"/>
<ellipse cx="3.38736" cy="4.64584" rx="3.38736" ry="4.64584" transform="matrix(-0.916902 -0.399113 -0.351134 0.936325 24.7773 17.8436)" fill="#5BCBA9"/>
<ellipse cx="3.38736" cy="4.64584" rx="3.38736" ry="4.64584" transform="matrix(-0.916902 -0.399113 -0.351134 0.936325 25.5586 17.8436)" fill="white"/>
<ellipse cx="3.38736" cy="4.64584" rx="3.38736" ry="4.64584" transform="matrix(-0.916902 -0.399113 -0.351134 0.936325 25.5586 17.8436)" fill="white"/>
<path d="M31.8107 35.5283L32.6177 36.9293H31.0037L31.8107 35.5283Z" fill="white"/>
<rect x="30.2578" y="26.8113" width="2.48485" height="13.6981" rx="1.24242" fill="#C0C0C0"/>
<path d="M35.7124 23.6981C36.817 23.6981 37.7124 24.5936 37.7124 25.6981V26.1887H25.2882V25.6981C25.2882 24.5936 26.1836 23.6981 27.2882 23.6981H35.7124Z" fill="#C0C0C0"/>
<rect x="35.2275" y="22.4529" width="2.49057" height="7.45454" transform="rotate(90 35.2275 22.4529)" fill="#C0C0C0"/>
<path d="M25.9092 24.942C25.9092 24.5989 26.1873 24.3208 26.5304 24.3208V24.3208V26.8114V26.8114C26.1873 26.8114 25.9092 26.5332 25.9092 26.1902V24.942Z" fill="#E7ECFF"/>
<rect x="27.1514" y="24.3208" width="1.24242" height="2.49057" fill="#E7ECFF"/>
<rect x="29.0151" y="24.3208" width="1.86364" height="2.49057" fill="#E7ECFF"/>
<rect x="34.606" y="24.3208" width="1.24242" height="2.49057" fill="#E7ECFF"/>
<rect x="32.1211" y="24.3208" width="1.86364" height="2.49057" fill="#E7ECFF"/>
<path d="M36.4697 24.3208V24.3208C36.8128 24.3208 37.0909 24.5989 37.0909 24.942V26.1902C37.0909 26.5332 36.8128 26.8114 36.4697 26.8114V26.8114V24.3208Z" fill="#E7ECFF"/>
<ellipse cx="4.80905" cy="6.26211" rx="4.80905" ry="6.26211" transform="matrix(0.926884 -0.375347 0.373867 0.927482 37.2808 16.1801)" fill="white"/>
<ellipse cx="4.80905" cy="6.26211" rx="4.80905" ry="6.26211" transform="matrix(0.926884 -0.375347 0.373867 0.927482 37.2808 16.1801)" fill="#E7ECFF"/>
<ellipse cx="3.38736" cy="4.64584" rx="3.38736" ry="4.64584" transform="matrix(0.916902 -0.399113 0.351134 0.936325 38.2231 17.8436)" fill="#C0C0C0"/>
<ellipse cx="3.38736" cy="4.64584" rx="3.38736" ry="4.64584" transform="matrix(0.916902 -0.399113 0.351134 0.936325 37.4414 17.8436)" fill="white"/>
<ellipse cx="3.38736" cy="4.64584" rx="3.38736" ry="4.64584" transform="matrix(0.916902 -0.399113 0.351134 0.936325 37.4414 17.8436)" fill="#E7ECFF"/>
<ellipse cx="4.80905" cy="6.26211" rx="4.80905" ry="6.26211" transform="matrix(-0.926884 -0.375347 -0.373867 0.927482 25.7192 16.1801)" fill="white"/>
<ellipse cx="4.80905" cy="6.26211" rx="4.80905" ry="6.26211" transform="matrix(-0.926884 -0.375347 -0.373867 0.927482 25.7192 16.1801)" fill="#E7ECFF"/>
<ellipse cx="3.38736" cy="4.64584" rx="3.38736" ry="4.64584" transform="matrix(-0.916902 -0.399113 -0.351134 0.936325 24.7773 17.8436)" fill="#C0C0C0"/>
<ellipse cx="3.38736" cy="4.64584" rx="3.38736" ry="4.64584" transform="matrix(-0.916902 -0.399113 -0.351134 0.936325 25.5586 17.8436)" fill="white"/>
<ellipse cx="3.38736" cy="4.64584" rx="3.38736" ry="4.64584" transform="matrix(-0.916902 -0.399113 -0.351134 0.936325 25.5586 17.8436)" fill="#E7ECFF"/>
<rect x="20" y="40" width="23" height="3" fill="#E7ECFF"/>
<rect x="261" y="56" width="57" height="57" rx="5" fill="#C0C0C0"/>
<rect x="33" y="54" width="57" height="57" rx="5" fill="#C0C0C0"/>
<rect x="109" y="54" width="57" height="57" rx="5" fill="#C0C0C0"/>
<rect x="185" y="55" width="57" height="57" rx="5" fill="#C0C0C0"/>
<rect x="185" y="55" width="57" height="57" rx="5" fill="#C0C0C0"/>
<rect x="109" y="54" width="57" height="57" rx="5" fill="#C0C0C0"/>
<rect x="33" y="54" width="57" height="57" rx="5" fill="#C0C0C0"/>
<rect x="261" y="56" width="57" height="57" rx="5" fill="#C0C0C0"/>
<rect x="261" y="56" width="57" height="57" rx="5" fill="#C0C0C0"/>
<rect x="33" y="54" width="57" height="57" rx="5" fill="#C0C0C0"/>
<rect x="185" y="55" width="57" height="57" rx="5" fill="#C0C0C0"/>
<rect x="109" y="54" width="57" height="57" rx="5" fill="#C0C0C0"/>
<rect x="185" y="55" width="57" height="57" rx="5" fill="#C0C0C0"/>
<rect x="109" y="54" width="57" height="57" rx="5" fill="#C0C0C0"/>
<rect x="33" y="54" width="133" height="57" rx="5" fill="#C0C0C0"/>
<rect x="261" y="56" width="57" height="126" rx="5" fill="#C0C0C0"/>
<rect x="33" y="125" width="57" height="57" rx="5" fill="#C0C0C0"/>
<rect x="33" y="125" width="57" height="57" rx="5" fill="#C0C0C0"/>
<rect x="33" y="125" width="57" height="57" rx="5" fill="#C0C0C0"/>
<rect x="33" y="125" width="57" height="57" rx="5" fill="#C0C0C0"/>
<path d="M52.6668 157.333C53.1391 157.333 53.5349 157.174 53.8543 156.854C54.1738 156.535 54.3335 156.139 54.3335 155.667C54.3335 155.194 54.1738 154.799 53.8543 154.479C53.5349 154.16 53.1391 154 52.6668 154C52.1946 154 51.7988 154.16 51.4793 154.479C51.1599 154.799 51.0002 155.194 51.0002 155.667C51.0002 156.139 51.1599 156.535 51.4793 156.854C51.7988 157.174 52.1946 157.333 52.6668 157.333ZM52.6668 150.667C53.1391 150.667 53.5349 150.507 53.8543 150.188C54.1738 149.868 54.3335 149.472 54.3335 149C54.3335 148.528 54.1738 148.132 53.8543 147.813C53.5349 147.493 53.1391 147.333 52.6668 147.333C52.1946 147.333 51.7988 147.493 51.4793 147.813C51.1599 148.132 51.0002 148.528 51.0002 149C51.0002 149.472 51.1599 149.868 51.4793 150.188C51.7988 150.507 52.1946 150.667 52.6668 150.667ZM56.0002 157.333H71.0002V154H56.0002V157.333ZM56.0002 150.667H71.0002V147.333H56.0002V150.667ZM54.3335 169V165.667H47.6668C46.7502 165.667 45.9654 165.34 45.3127 164.688C44.6599 164.035 44.3335 163.25 44.3335 162.333V142.333C44.3335 141.417 44.6599 140.632 45.3127 139.979C45.9654 139.326 46.7502 139 47.6668 139H74.3335C75.2502 139 76.0349 139.326 76.6877 139.979C77.3404 140.632 77.6668 141.417 77.6668 142.333V162.333C77.6668 163.25 77.3404 164.035 76.6877 164.688C76.0349 165.34 75.2502 165.667 74.3335 165.667H67.6668V169H54.3335ZM47.6668 162.333H74.3335V142.333H47.6668V162.333Z" fill="#E7ECFF"/>
<path d="M52.6668 157.333C53.1391 157.333 53.5349 157.174 53.8543 156.854C54.1738 156.535 54.3335 156.139 54.3335 155.667C54.3335 155.194 54.1738 154.799 53.8543 154.479C53.5349 154.16 53.1391 154 52.6668 154C52.1946 154 51.7988 154.16 51.4793 154.479C51.1599 154.799 51.0002 155.194 51.0002 155.667C51.0002 156.139 51.1599 156.535 51.4793 156.854C51.7988 157.174 52.1946 157.333 52.6668 157.333ZM52.6668 150.667C53.1391 150.667 53.5349 150.507 53.8543 150.188C54.1738 149.868 54.3335 149.472 54.3335 149C54.3335 148.528 54.1738 148.132 53.8543 147.813C53.5349 147.493 53.1391 147.333 52.6668 147.333C52.1946 147.333 51.7988 147.493 51.4793 147.813C51.1599 148.132 51.0002 148.528 51.0002 149C51.0002 149.472 51.1599 149.868 51.4793 150.188C51.7988 150.507 52.1946 150.667 52.6668 150.667ZM56.0002 157.333H71.0002V154H56.0002V157.333ZM56.0002 150.667H71.0002V147.333H56.0002V150.667ZM54.3335 169V165.667H47.6668C46.7502 165.667 45.9654 165.34 45.3127 164.688C44.6599 164.035 44.3335 163.25 44.3335 162.333V142.333C44.3335 141.417 44.6599 140.632 45.3127 139.979C45.9654 139.326 46.7502 139 47.6668 139H74.3335C75.2502 139 76.0349 139.326 76.6877 139.979C77.3404 140.632 77.6668 141.417 77.6668 142.333V162.333C77.6668 163.25 77.3404 164.035 76.6877 164.688C76.0349 165.34 75.2502 165.667 74.3335 165.667H67.6668V169H54.3335ZM47.6668 162.333H74.3335V142.333H47.6668V162.333Z" fill="#E7ECFF"/>
<path d="M52.6668 157.333C53.1391 157.333 53.5349 157.174 53.8543 156.854C54.1738 156.535 54.3335 156.139 54.3335 155.667C54.3335 155.194 54.1738 154.799 53.8543 154.479C53.5349 154.16 53.1391 154 52.6668 154C52.1946 154 51.7988 154.16 51.4793 154.479C51.1599 154.799 51.0002 155.194 51.0002 155.667C51.0002 156.139 51.1599 156.535 51.4793 156.854C51.7988 157.174 52.1946 157.333 52.6668 157.333ZM52.6668 150.667C53.1391 150.667 53.5349 150.507 53.8543 150.188C54.1738 149.868 54.3335 149.472 54.3335 149C54.3335 148.528 54.1738 148.132 53.8543 147.813C53.5349 147.493 53.1391 147.333 52.6668 147.333C52.1946 147.333 51.7988 147.493 51.4793 147.813C51.1599 148.132 51.0002 148.528 51.0002 149C51.0002 149.472 51.1599 149.868 51.4793 150.188C51.7988 150.507 52.1946 150.667 52.6668 150.667ZM56.0002 157.333H71.0002V154H56.0002V157.333ZM56.0002 150.667H71.0002V147.333H56.0002V150.667ZM54.3335 169V165.667H47.6668C46.7502 165.667 45.9654 165.34 45.3127 164.688C44.6599 164.035 44.3335 163.25 44.3335 162.333V142.333C44.3335 141.417 44.6599 140.632 45.3127 139.979C45.9654 139.326 46.7502 139 47.6668 139H74.3335C75.2502 139 76.0349 139.326 76.6877 139.979C77.3404 140.632 77.6668 141.417 77.6668 142.333V162.333C77.6668 163.25 77.3404 164.035 76.6877 164.688C76.0349 165.34 75.2502 165.667 74.3335 165.667H67.6668V169H54.3335ZM47.6668 162.333H74.3335V142.333H47.6668V162.333Z" fill="#E7ECFF"/>
<path d="M52.6668 157.333C53.1391 157.333 53.5349 157.174 53.8543 156.854C54.1738 156.535 54.3335 156.139 54.3335 155.667C54.3335 155.194 54.1738 154.799 53.8543 154.479C53.5349 154.16 53.1391 154 52.6668 154C52.1946 154 51.7988 154.16 51.4793 154.479C51.1599 154.799 51.0002 155.194 51.0002 155.667C51.0002 156.139 51.1599 156.535 51.4793 156.854C51.7988 157.174 52.1946 157.333 52.6668 157.333ZM52.6668 150.667C53.1391 150.667 53.5349 150.507 53.8543 150.188C54.1738 149.868 54.3335 149.472 54.3335 149C54.3335 148.528 54.1738 148.132 53.8543 147.813C53.5349 147.493 53.1391 147.333 52.6668 147.333C52.1946 147.333 51.7988 147.493 51.4793 147.813C51.1599 148.132 51.0002 148.528 51.0002 149C51.0002 149.472 51.1599 149.868 51.4793 150.188C51.7988 150.507 52.1946 150.667 52.6668 150.667ZM56.0002 157.333H71.0002V154H56.0002V157.333ZM56.0002 150.667H71.0002V147.333H56.0002V150.667ZM54.3335 169V165.667H47.6668C46.7502 165.667 45.9654 165.34 45.3127 164.688C44.6599 164.035 44.3335 163.25 44.3335 162.333V142.333C44.3335 141.417 44.6599 140.632 45.3127 139.979C45.9654 139.326 46.7502 139 47.6668 139H74.3335C75.2502 139 76.0349 139.326 76.6877 139.979C77.3404 140.632 77.6668 141.417 77.6668 142.333V162.333C77.6668 163.25 77.3404 164.035 76.6877 164.688C76.0349 165.34 75.2502 165.667 74.3335 165.667H67.6668V169H54.3335ZM47.6668 162.333H74.3335V142.333H47.6668V162.333Z" fill="#E7ECFF"/>
<path d="M204.25 94.2917V74.25L199.625 68.0834H222.75V72.7084H225.833C226.681 72.7084 227.407 73.0103 228.011 73.6141C228.615 74.2179 228.917 74.9438 228.917 75.7917V83.5C228.917 84.348 228.615 85.0738 228.011 85.6776C227.407 86.2815 226.681 86.5834 225.833 86.5834H222.75V94.2917H204.25ZM207.333 91.2084H219.667V71.1667H205.792L207.333 73.1709V91.2084ZM222.75 83.5H225.833V75.7917H222.75V83.5ZM213.5 89.6667H218.125V72.7084H213.5V89.6667ZM199.625 98.9167V95.8334H227.375V98.9167H199.625Z" fill="#E7ECFF"/>
<path d="M204.25 94.2917V74.25L199.625 68.0834H222.75V72.7084H225.833C226.681 72.7084 227.407 73.0103 228.011 73.6141C228.615 74.2179 228.917 74.9438 228.917 75.7917V83.5C228.917 84.348 228.615 85.0738 228.011 85.6776C227.407 86.2815 226.681 86.5834 225.833 86.5834H222.75V94.2917H204.25ZM207.333 91.2084H219.667V71.1667H205.792L207.333 73.1709V91.2084ZM222.75 83.5H225.833V75.7917H222.75V83.5ZM213.5 89.6667H218.125V72.7084H213.5V89.6667ZM199.625 98.9167V95.8334H227.375V98.9167H199.625Z" fill="#E7ECFF"/>
<path d="M204.25 94.2917V74.25L199.625 68.0834H222.75V72.7084H225.833C226.681 72.7084 227.407 73.0103 228.011 73.6141C228.615 74.2179 228.917 74.9438 228.917 75.7917V83.5C228.917 84.348 228.615 85.0738 228.011 85.6776C227.407 86.2815 226.681 86.5834 225.833 86.5834H222.75V94.2917H204.25ZM207.333 91.2084H219.667V71.1667H205.792L207.333 73.1709V91.2084ZM222.75 83.5H225.833V75.7917H222.75V83.5ZM213.5 89.6667H218.125V72.7084H213.5V89.6667ZM199.625 98.9167V95.8334H227.375V98.9167H199.625Z" fill="#E7ECFF"/>
<path d="M204.25 94.2917V74.25L199.625 68.0834H222.75V72.7084H225.833C226.681 72.7084 227.407 73.0103 228.011 73.6141C228.615 74.2179 228.917 74.9438 228.917 75.7917V83.5C228.917 84.348 228.615 85.0738 228.011 85.6776C227.407 86.2815 226.681 86.5834 225.833 86.5834H222.75V94.2917H204.25ZM207.333 91.2084H219.667V71.1667H205.792L207.333 73.1709V91.2084ZM222.75 83.5H225.833V75.7917H222.75V83.5ZM213.5 89.6667H218.125V72.7084H213.5V89.6667ZM199.625 98.9167V95.8334H227.375V98.9167H199.625Z" fill="#E7ECFF"/>
<rect x="109" y="125" width="57" height="57" rx="5" fill="#C0C0C0"/>
<rect x="109" y="125" width="57" height="57" rx="5" fill="#C0C0C0"/>
<rect x="109" y="125" width="57" height="57" rx="5" fill="#C0C0C0"/>
<rect x="109" y="125" width="57" height="57" rx="5" fill="#C0C0C0"/>
<path d="M126.5 171.5C125.537 171.5 124.714 171.157 124.028 170.472C123.343 169.786 123 168.962 123 168V140C123 139.037 123.343 138.214 124.028 137.528C124.714 136.843 125.537 136.5 126.5 136.5H147.5C148.462 136.5 149.286 136.843 149.972 137.528C150.657 138.214 151 139.037 151 140V168C151 168.962 150.657 169.786 149.972 170.472C149.286 171.157 148.462 171.5 147.5 171.5H126.5ZM126.5 168H147.5V140H126.5V168ZM137 166.25C139.421 166.25 141.484 165.397 143.191 163.691C144.897 161.984 145.75 159.921 145.75 157.5C145.75 155.079 144.897 153.016 143.191 151.309C141.484 149.603 139.421 148.75 137 148.75C134.579 148.75 132.516 149.603 130.809 151.309C129.103 153.016 128.25 155.079 128.25 157.5C128.25 159.921 129.103 161.984 130.809 163.691C132.516 165.397 134.579 166.25 137 166.25ZM137 163.275C136.242 163.275 135.505 163.136 134.791 162.859C134.076 162.582 133.442 162.167 132.887 161.612L141.112 153.387C141.667 153.942 142.082 154.576 142.359 155.291C142.636 156.005 142.775 156.742 142.775 157.5C142.775 159.104 142.214 160.468 141.091 161.591C139.968 162.714 138.604 163.275 137 163.275ZM130 145.25C130.496 145.25 130.911 145.082 131.247 144.747C131.582 144.411 131.75 143.996 131.75 143.5C131.75 143.004 131.582 142.589 131.247 142.253C130.911 141.918 130.496 141.75 130 141.75C129.504 141.75 129.089 141.918 128.753 142.253C128.418 142.589 128.25 143.004 128.25 143.5C128.25 143.996 128.418 144.411 128.753 144.747C129.089 145.082 129.504 145.25 130 145.25ZM135.25 145.25C135.746 145.25 136.161 145.082 136.497 144.747C136.832 144.411 137 143.996 137 143.5C137 143.004 136.832 142.589 136.497 142.253C136.161 141.918 135.746 141.75 135.25 141.75C134.754 141.75 134.339 141.918 134.003 142.253C133.668 142.589 133.5 143.004 133.5 143.5C133.5 143.996 133.668 144.411 134.003 144.747C134.339 145.082 134.754 145.25 135.25 145.25Z" fill="#E7ECFF"/>
<path d="M126.5 171.5C125.537 171.5 124.714 171.157 124.028 170.472C123.343 169.786 123 168.962 123 168V140C123 139.037 123.343 138.214 124.028 137.528C124.714 136.843 125.537 136.5 126.5 136.5H147.5C148.462 136.5 149.286 136.843 149.972 137.528C150.657 138.214 151 139.037 151 140V168C151 168.962 150.657 169.786 149.972 170.472C149.286 171.157 148.462 171.5 147.5 171.5H126.5ZM126.5 168H147.5V140H126.5V168ZM137 166.25C139.421 166.25 141.484 165.397 143.191 163.691C144.897 161.984 145.75 159.921 145.75 157.5C145.75 155.079 144.897 153.016 143.191 151.309C141.484 149.603 139.421 148.75 137 148.75C134.579 148.75 132.516 149.603 130.809 151.309C129.103 153.016 128.25 155.079 128.25 157.5C128.25 159.921 129.103 161.984 130.809 163.691C132.516 165.397 134.579 166.25 137 166.25ZM137 163.275C136.242 163.275 135.505 163.136 134.791 162.859C134.076 162.582 133.442 162.167 132.887 161.612L141.112 153.387C141.667 153.942 142.082 154.576 142.359 155.291C142.636 156.005 142.775 156.742 142.775 157.5C142.775 159.104 142.214 160.468 141.091 161.591C139.968 162.714 138.604 163.275 137 163.275ZM130 145.25C130.496 145.25 130.911 145.082 131.247 144.747C131.582 144.411 131.75 143.996 131.75 143.5C131.75 143.004 131.582 142.589 131.247 142.253C130.911 141.918 130.496 141.75 130 141.75C129.504 141.75 129.089 141.918 128.753 142.253C128.418 142.589 128.25 143.004 128.25 143.5C128.25 143.996 128.418 144.411 128.753 144.747C129.089 145.082 129.504 145.25 130 145.25ZM135.25 145.25C135.746 145.25 136.161 145.082 136.497 144.747C136.832 144.411 137 143.996 137 143.5C137 143.004 136.832 142.589 136.497 142.253C136.161 141.918 135.746 141.75 135.25 141.75C134.754 141.75 134.339 141.918 134.003 142.253C133.668 142.589 133.5 143.004 133.5 143.5C133.5 143.996 133.668 144.411 134.003 144.747C134.339 145.082 134.754 145.25 135.25 145.25Z" fill="#E7ECFF"/>
<path d="M126.5 171.5C125.537 171.5 124.714 171.157 124.028 170.472C123.343 169.786 123 168.962 123 168V140C123 139.037 123.343 138.214 124.028 137.528C124.714 136.843 125.537 136.5 126.5 136.5H147.5C148.462 136.5 149.286 136.843 149.972 137.528C150.657 138.214 151 139.037 151 140V168C151 168.962 150.657 169.786 149.972 170.472C149.286 171.157 148.462 171.5 147.5 171.5H126.5ZM126.5 168H147.5V140H126.5V168ZM137 166.25C139.421 166.25 141.484 165.397 143.191 163.691C144.897 161.984 145.75 159.921 145.75 157.5C145.75 155.079 144.897 153.016 143.191 151.309C141.484 149.603 139.421 148.75 137 148.75C134.579 148.75 132.516 149.603 130.809 151.309C129.103 153.016 128.25 155.079 128.25 157.5C128.25 159.921 129.103 161.984 130.809 163.691C132.516 165.397 134.579 166.25 137 166.25ZM137 163.275C136.242 163.275 135.505 163.136 134.791 162.859C134.076 162.582 133.442 162.167 132.887 161.612L141.112 153.387C141.667 153.942 142.082 154.576 142.359 155.291C142.636 156.005 142.775 156.742 142.775 157.5C142.775 159.104 142.214 160.468 141.091 161.591C139.968 162.714 138.604 163.275 137 163.275ZM130 145.25C130.496 145.25 130.911 145.082 131.247 144.747C131.582 144.411 131.75 143.996 131.75 143.5C131.75 143.004 131.582 142.589 131.247 142.253C130.911 141.918 130.496 141.75 130 141.75C129.504 141.75 129.089 141.918 128.753 142.253C128.418 142.589 128.25 143.004 128.25 143.5C128.25 143.996 128.418 144.411 128.753 144.747C129.089 145.082 129.504 145.25 130 145.25ZM135.25 145.25C135.746 145.25 136.161 145.082 136.497 144.747C136.832 144.411 137 143.996 137 143.5C137 143.004 136.832 142.589 136.497 142.253C136.161 141.918 135.746 141.75 135.25 141.75C134.754 141.75 134.339 141.918 134.003 142.253C133.668 142.589 133.5 143.004 133.5 143.5C133.5 143.996 133.668 144.411 134.003 144.747C134.339 145.082 134.754 145.25 135.25 145.25Z" fill="#E7ECFF"/>
<path d="M126.5 171.5C125.537 171.5 124.714 171.157 124.028 170.472C123.343 169.786 123 168.962 123 168V140C123 139.037 123.343 138.214 124.028 137.528C124.714 136.843 125.537 136.5 126.5 136.5H147.5C148.462 136.5 149.286 136.843 149.972 137.528C150.657 138.214 151 139.037 151 140V168C151 168.962 150.657 169.786 149.972 170.472C149.286 171.157 148.462 171.5 147.5 171.5H126.5ZM126.5 168H147.5V140H126.5V168ZM137 166.25C139.421 166.25 141.484 165.397 143.191 163.691C144.897 161.984 145.75 159.921 145.75 157.5C145.75 155.079 144.897 153.016 143.191 151.309C141.484 149.603 139.421 148.75 137 148.75C134.579 148.75 132.516 149.603 130.809 151.309C129.103 153.016 128.25 155.079 128.25 157.5C128.25 159.921 129.103 161.984 130.809 163.691C132.516 165.397 134.579 166.25 137 166.25ZM137 163.275C136.242 163.275 135.505 163.136 134.791 162.859C134.076 162.582 133.442 162.167 132.887 161.612L141.112 153.387C141.667 153.942 142.082 154.576 142.359 155.291C142.636 156.005 142.775 156.742 142.775 157.5C142.775 159.104 142.214 160.468 141.091 161.591C139.968 162.714 138.604 163.275 137 163.275ZM130 145.25C130.496 145.25 130.911 145.082 131.247 144.747C131.582 144.411 131.75 143.996 131.75 143.5C131.75 143.004 131.582 142.589 131.247 142.253C130.911 141.918 130.496 141.75 130 141.75C129.504 141.75 129.089 141.918 128.753 142.253C128.418 142.589 128.25 143.004 128.25 143.5C128.25 143.996 128.418 144.411 128.753 144.747C129.089 145.082 129.504 145.25 130 145.25ZM135.25 145.25C135.746 145.25 136.161 145.082 136.497 144.747C136.832 144.411 137 143.996 137 143.5C137 143.004 136.832 142.589 136.497 142.253C136.161 141.918 135.746 141.75 135.25 141.75C134.754 141.75 134.339 141.918 134.003 142.253C133.668 142.589 133.5 143.004 133.5 143.5C133.5 143.996 133.668 144.411 134.003 144.747C134.339 145.082 134.754 145.25 135.25 145.25Z" fill="#E7ECFF"/>
<rect x="185" y="125" width="57" height="57" rx="5" fill="#C0C0C0"/>
<rect x="185" y="125" width="57" height="57" rx="5" fill="#C0C0C0"/>
<rect x="185" y="125" width="57" height="57" rx="5" fill="#C0C0C0"/>
<rect x="185" y="125" width="57" height="57" rx="5" fill="#C0C0C0"/>
<path d="M201.542 168.875C200.602 168.875 199.798 168.54 199.129 167.871C198.46 167.202 198.125 166.398 198.125 165.458V141.542C198.125 140.602 198.46 139.798 199.129 139.129C199.798 138.46 200.602 138.125 201.542 138.125H225.458C226.398 138.125 227.202 138.46 227.871 139.129C228.54 139.798 228.875 140.602 228.875 141.542V165.458C228.875 166.398 228.54 167.202 227.871 167.871C227.202 168.54 226.398 168.875 225.458 168.875H201.542ZM201.542 153.5V165.458H225.458V153.5H222.042V162.042H204.958V153.5H201.542ZM208.375 158.625H218.625V153.5H208.375V158.625ZM201.542 150.083H225.458V141.542H201.542V150.083ZM206.667 146.667C206.183 146.667 205.777 146.503 205.449 146.176C205.122 145.848 204.958 145.442 204.958 144.958C204.958 144.474 205.122 144.069 205.449 143.741C205.777 143.414 206.183 143.25 206.667 143.25C207.151 143.25 207.556 143.414 207.884 143.741C208.211 144.069 208.375 144.474 208.375 144.958C208.375 145.442 208.211 145.848 207.884 146.176C207.556 146.503 207.151 146.667 206.667 146.667ZM213.5 146.667C213.016 146.667 212.61 146.503 212.283 146.176C211.955 145.848 211.792 145.442 211.792 144.958C211.792 144.474 211.955 144.069 212.283 143.741C212.61 143.414 213.016 143.25 213.5 143.25C213.984 143.25 214.39 143.414 214.717 143.741C215.045 144.069 215.208 144.474 215.208 144.958C215.208 145.442 215.045 145.848 214.717 146.176C214.39 146.503 213.984 146.667 213.5 146.667ZM220.333 146.667C219.849 146.667 219.444 146.503 219.116 146.176C218.789 145.848 218.625 145.442 218.625 144.958C218.625 144.474 218.789 144.069 219.116 143.741C219.444 143.414 219.849 143.25 220.333 143.25C220.817 143.25 221.223 143.414 221.551 143.741C221.878 144.069 222.042 144.474 222.042 144.958C222.042 145.442 221.878 145.848 221.551 146.176C221.223 146.503 220.817 146.667 220.333 146.667Z" fill="#E7ECFF"/>
<path d="M201.542 168.875C200.602 168.875 199.798 168.54 199.129 167.871C198.46 167.202 198.125 166.398 198.125 165.458V141.542C198.125 140.602 198.46 139.798 199.129 139.129C199.798 138.46 200.602 138.125 201.542 138.125H225.458C226.398 138.125 227.202 138.46 227.871 139.129C228.54 139.798 228.875 140.602 228.875 141.542V165.458C228.875 166.398 228.54 167.202 227.871 167.871C227.202 168.54 226.398 168.875 225.458 168.875H201.542ZM201.542 153.5V165.458H225.458V153.5H222.042V162.042H204.958V153.5H201.542ZM208.375 158.625H218.625V153.5H208.375V158.625ZM201.542 150.083H225.458V141.542H201.542V150.083ZM206.667 146.667C206.183 146.667 205.777 146.503 205.449 146.176C205.122 145.848 204.958 145.442 204.958 144.958C204.958 144.474 205.122 144.069 205.449 143.741C205.777 143.414 206.183 143.25 206.667 143.25C207.151 143.25 207.556 143.414 207.884 143.741C208.211 144.069 208.375 144.474 208.375 144.958C208.375 145.442 208.211 145.848 207.884 146.176C207.556 146.503 207.151 146.667 206.667 146.667ZM213.5 146.667C213.016 146.667 212.61 146.503 212.283 146.176C211.955 145.848 211.792 145.442 211.792 144.958C211.792 144.474 211.955 144.069 212.283 143.741C212.61 143.414 213.016 143.25 213.5 143.25C213.984 143.25 214.39 143.414 214.717 143.741C215.045 144.069 215.208 144.474 215.208 144.958C215.208 145.442 215.045 145.848 214.717 146.176C214.39 146.503 213.984 146.667 213.5 146.667ZM220.333 146.667C219.849 146.667 219.444 146.503 219.116 146.176C218.789 145.848 218.625 145.442 218.625 144.958C218.625 144.474 218.789 144.069 219.116 143.741C219.444 143.414 219.849 143.25 220.333 143.25C220.817 143.25 221.223 143.414 221.551 143.741C221.878 144.069 222.042 144.474 222.042 144.958C222.042 145.442 221.878 145.848 221.551 146.176C221.223 146.503 220.817 146.667 220.333 146.667Z" fill="#E7ECFF"/>
<path d="M201.542 168.875C200.602 168.875 199.798 168.54 199.129 167.871C198.46 167.202 198.125 166.398 198.125 165.458V141.542C198.125 140.602 198.46 139.798 199.129 139.129C199.798 138.46 200.602 138.125 201.542 138.125H225.458C226.398 138.125 227.202 138.46 227.871 139.129C228.54 139.798 228.875 140.602 228.875 141.542V165.458C228.875 166.398 228.54 167.202 227.871 167.871C227.202 168.54 226.398 168.875 225.458 168.875H201.542ZM201.542 153.5V165.458H225.458V153.5H222.042V162.042H204.958V153.5H201.542ZM208.375 158.625H218.625V153.5H208.375V158.625ZM201.542 150.083H225.458V141.542H201.542V150.083ZM206.667 146.667C206.183 146.667 205.777 146.503 205.449 146.176C205.122 145.848 204.958 145.442 204.958 144.958C204.958 144.474 205.122 144.069 205.449 143.741C205.777 143.414 206.183 143.25 206.667 143.25C207.151 143.25 207.556 143.414 207.884 143.741C208.211 144.069 208.375 144.474 208.375 144.958C208.375 145.442 208.211 145.848 207.884 146.176C207.556 146.503 207.151 146.667 206.667 146.667ZM213.5 146.667C213.016 146.667 212.61 146.503 212.283 146.176C211.955 145.848 211.792 145.442 211.792 144.958C211.792 144.474 211.955 144.069 212.283 143.741C212.61 143.414 213.016 143.25 213.5 143.25C213.984 143.25 214.39 143.414 214.717 143.741C215.045 144.069 215.208 144.474 215.208 144.958C215.208 145.442 215.045 145.848 214.717 146.176C214.39 146.503 213.984 146.667 213.5 146.667ZM220.333 146.667C219.849 146.667 219.444 146.503 219.116 146.176C218.789 145.848 218.625 145.442 218.625 144.958C218.625 144.474 218.789 144.069 219.116 143.741C219.444 143.414 219.849 143.25 220.333 143.25C220.817 143.25 221.223 143.414 221.551 143.741C221.878 144.069 222.042 144.474 222.042 144.958C222.042 145.442 221.878 145.848 221.551 146.176C221.223 146.503 220.817 146.667 220.333 146.667Z" fill="#E7ECFF"/>
<path d="M201.542 168.875C200.602 168.875 199.798 168.54 199.129 167.871C198.46 167.202 198.125 166.398 198.125 165.458V141.542C198.125 140.602 198.46 139.798 199.129 139.129C199.798 138.46 200.602 138.125 201.542 138.125H225.458C226.398 138.125 227.202 138.46 227.871 139.129C228.54 139.798 228.875 140.602 228.875 141.542V165.458C228.875 166.398 228.54 167.202 227.871 167.871C227.202 168.54 226.398 168.875 225.458 168.875H201.542ZM201.542 153.5V165.458H225.458V153.5H222.042V162.042H204.958V153.5H201.542ZM208.375 158.625H218.625V153.5H208.375V158.625ZM201.542 150.083H225.458V141.542H201.542V150.083ZM206.667 146.667C206.183 146.667 205.777 146.503 205.449 146.176C205.122 145.848 204.958 145.442 204.958 144.958C204.958 144.474 205.122 144.069 205.449 143.741C205.777 143.414 206.183 143.25 206.667 143.25C207.151 143.25 207.556 143.414 207.884 143.741C208.211 144.069 208.375 144.474 208.375 144.958C208.375 145.442 208.211 145.848 207.884 146.176C207.556 146.503 207.151 146.667 206.667 146.667ZM213.5 146.667C213.016 146.667 212.61 146.503 212.283 146.176C211.955 145.848 211.792 145.442 211.792 144.958C211.792 144.474 211.955 144.069 212.283 143.741C212.61 143.414 213.016 143.25 213.5 143.25C213.984 143.25 214.39 143.414 214.717 143.741C215.045 144.069 215.208 144.474 215.208 144.958C215.208 145.442 215.045 145.848 214.717 146.176C214.39 146.503 213.984 146.667 213.5 146.667ZM220.333 146.667C219.849 146.667 219.444 146.503 219.116 146.176C218.789 145.848 218.625 145.442 218.625 144.958C218.625 144.474 218.789 144.069 219.116 143.741C219.444 143.414 219.849 143.25 220.333 143.25C220.817 143.25 221.223 143.414 221.551 143.741C221.878 144.069 222.042 144.474 222.042 144.958C222.042 145.442 221.878 145.848 221.551 146.176C221.223 146.503 220.817 146.667 220.333 146.667Z" fill="#E7ECFF"/>
<path d="M137 84C136.504 84 136.089 83.8323 135.753 83.4969C135.418 83.1615 135.25 82.7458 135.25 82.25V68.25C135.25 67.7542 135.418 67.3385 135.753 67.0031C136.089 66.6677 136.504 66.5 137 66.5C137.496 66.5 137.911 66.6677 138.247 67.0031C138.582 67.3385 138.75 67.7542 138.75 68.25V82.25C138.75 82.7458 138.582 83.1615 138.247 83.4969C137.911 83.8323 137.496 84 137 84ZM137 99.75C134.812 99.75 132.764 99.3344 130.853 98.5031C128.943 97.6719 127.28 96.549 125.866 95.1344C124.451 93.7198 123.328 92.0573 122.497 90.1469C121.666 88.2365 121.25 86.1875 121.25 84C121.25 82.2208 121.542 80.4927 122.125 78.8156C122.708 77.1385 123.554 75.6 124.662 74.2C124.983 73.7917 125.392 73.5948 125.887 73.6094C126.383 73.624 126.821 73.8208 127.2 74.2C127.521 74.5208 127.667 74.9146 127.637 75.3812C127.608 75.8479 127.448 76.2854 127.156 76.6937C126.369 77.7437 125.771 78.8958 125.362 80.15C124.954 81.4042 124.75 82.6875 124.75 84C124.75 87.4125 125.939 90.3073 128.316 92.6844C130.693 95.0615 133.587 96.25 137 96.25C140.412 96.25 143.307 95.0615 145.684 92.6844C148.061 90.3073 149.25 87.4125 149.25 84C149.25 82.6583 149.053 81.3531 148.659 80.0844C148.266 78.8156 147.646 77.6562 146.8 76.6062C146.508 76.2271 146.348 75.8115 146.319 75.3594C146.29 74.9073 146.435 74.5208 146.756 74.2C147.106 73.85 147.529 73.6677 148.025 73.6531C148.521 73.6385 148.929 73.8208 149.25 74.2C150.387 75.6 151.255 77.1312 151.853 78.7937C152.451 80.4562 152.75 82.1917 152.75 84C152.75 86.1875 152.334 88.2365 151.503 90.1469C150.672 92.0573 149.549 93.7198 148.134 95.1344C146.72 96.549 145.057 97.6719 143.147 98.5031C141.236 99.3344 139.187 99.75 137 99.75Z" fill="#E7ECFF"/>
<path d="M69.6665 94.8333V82.2916H76.8332V94.8333H69.6665ZM58.9165 94.8333V66.1666H66.0832V94.8333H58.9165ZM48.1665 94.8333V75.125H55.3332V94.8333H48.1665Z" fill="#E7ECFF"/>
<path d="M290 100C288.167 100 286.597 99.3472 285.292 98.0417C283.986 96.7361 283.333 95.1667 283.333 93.3333H278.333C277.417 93.3333 276.632 93.0069 275.979 92.3542C275.326 91.7014 275 90.9167 275 90C275 86.1111 276.278 82.7569 278.833 79.9375C281.389 77.1181 284.556 75.5 288.333 75.0833V70H291.667V75.0833C295.444 75.5 298.611 77.1181 301.167 79.9375C303.722 82.7569 305 86.1111 305 90C305 90.9167 304.674 91.7014 304.021 92.3542C303.368 93.0069 302.583 93.3333 301.667 93.3333H296.667C296.667 95.1667 296.014 96.7361 294.708 98.0417C293.403 99.3472 291.833 100 290 100ZM278.333 90H301.667C301.667 86.7778 300.528 84.0278 298.25 81.75C295.972 79.4722 293.222 78.3333 290 78.3333C286.778 78.3333 284.028 79.4722 281.75 81.75C279.472 84.0278 278.333 86.7778 278.333 90ZM290 96.6667C290.917 96.6667 291.701 96.3403 292.354 95.6875C293.007 95.0347 293.333 94.25 293.333 93.3333H286.667C286.667 94.25 286.993 95.0347 287.646 95.6875C288.299 96.3403 289.083 96.6667 290 96.6667Z" fill="#E7ECFF"/>
<path d="M275.645 165.355C273.882 163.593 272.487 161.52 271.459 159.137C270.431 156.755 269.917 154.209 269.917 151.5C269.917 148.791 270.431 146.245 271.459 143.862C272.487 141.48 273.882 139.407 275.645 137.645L277.75 139.75C276.216 141.284 275.016 143.047 274.151 145.037C273.286 147.028 272.854 149.183 272.854 151.5C272.854 153.817 273.286 155.972 274.151 157.962C275.016 159.953 276.216 161.716 277.75 163.25L275.645 165.355ZM279.806 161.194C278.566 159.953 277.587 158.501 276.869 156.836C276.151 155.172 275.792 153.393 275.792 151.5C275.792 149.607 276.151 147.828 276.869 146.164C277.587 144.499 278.566 143.047 279.806 141.806L281.862 143.862C280.883 144.842 280.116 145.984 279.561 147.29C279.006 148.595 278.729 149.999 278.729 151.5C278.729 153.001 279.006 154.405 279.561 155.71C280.116 157.016 280.883 158.158 281.862 159.137L279.806 161.194ZM287.542 160.312C287.542 159.562 287.289 158.819 286.783 158.085C286.277 157.351 285.714 156.583 285.094 155.784C284.473 154.984 283.91 154.152 283.405 153.287C282.899 152.422 282.646 151.5 282.646 150.521C282.646 148.628 283.315 147.012 284.653 145.674C285.991 144.336 287.607 143.667 289.5 143.667C291.393 143.667 293.009 144.336 294.347 145.674C295.685 147.012 296.354 148.628 296.354 150.521C296.354 151.5 296.101 152.422 295.595 153.287C295.089 154.152 294.526 154.984 293.906 155.784C293.286 156.583 292.723 157.351 292.217 158.085C291.711 158.819 291.458 159.562 291.458 160.312H287.542ZM287.542 165.208V162.271H291.458V165.208H287.542ZM299.194 161.194L297.137 159.137C298.117 158.158 298.884 157.016 299.438 155.71C299.993 154.405 300.271 153.001 300.271 151.5C300.271 149.999 299.993 148.595 299.438 147.29C298.884 145.984 298.117 144.842 297.137 143.862L299.194 141.806C300.434 143.047 301.413 144.499 302.131 146.164C302.849 147.828 303.208 149.607 303.208 151.5C303.208 153.393 302.849 155.172 302.131 156.836C301.413 158.501 300.434 159.953 299.194 161.194ZM303.355 165.355L301.25 163.25C302.784 161.716 303.983 159.953 304.848 157.962C305.713 155.972 306.146 153.817 306.146 151.5C306.146 149.183 305.713 147.028 304.848 145.037C303.983 143.047 302.784 141.284 301.25 139.75L303.355 137.645C305.118 139.407 306.513 141.48 307.541 143.862C308.569 146.245 309.083 148.791 309.083 151.5C309.083 154.209 308.569 156.755 307.541 159.137C306.513 161.52 305.118 163.593 303.355 165.355Z" fill="#E7ECFF"/>
<defs>
<linearGradient id="paint0_linear_200_377" x1="24.8444" y1="28.8349" x2="43.7465" y2="28.6325" gradientUnits="userSpaceOnUse">
<stop stop-color="#5BCBA9"/>
<stop offset="1" stop-color="#54A2BA"/>
</linearGradient>
<linearGradient id="paint1_linear_200_377" x1="35.6723" y1="32.364" x2="35.2689" y2="17.115" gradientUnits="userSpaceOnUse">
<stop stop-color="#5BCBA9"/>
<stop offset="1" stop-color="#54A2BA"/>
</linearGradient>
<linearGradient id="paint2_linear_200_377" x1="24.8444" y1="28.8349" x2="43.7465" y2="28.6325" gradientUnits="userSpaceOnUse">
<stop stop-color="#5BCBA9"/>
<stop offset="1" stop-color="#54A2BA"/>
</linearGradient>
<linearGradient id="paint3_linear_200_377" x1="35.6723" y1="32.364" x2="35.2689" y2="17.115" gradientUnits="userSpaceOnUse">
<stop stop-color="#5BCBA9"/>
<stop offset="1" stop-color="#54A2BA"/>
</linearGradient>
<linearGradient id="paint4_linear_200_377" x1="24.8444" y1="28.8349" x2="43.7465" y2="28.6325" gradientUnits="userSpaceOnUse">
<stop stop-color="#5BCBA9"/>
<stop offset="1" stop-color="#54A2BA"/>
</linearGradient>
<linearGradient id="paint5_linear_200_377" x1="35.6723" y1="32.364" x2="35.2689" y2="17.115" gradientUnits="userSpaceOnUse">
<stop stop-color="#5BCBA9"/>
<stop offset="1" stop-color="#54A2BA"/>
</linearGradient>
</defs>
</svg>
