<svg width="61" height="45" viewBox="0 0 61 45" fill="none" xmlns="http://www.w3.org/2000/svg">
<path d="M30.6626 36.8455L31.9616 39.0955H29.3636L30.6626 36.8455Z" fill="white"/>
<path fill-rule="evenodd" clip-rule="evenodd" d="M32.8861 1.74206C31.8132 -0.580684 28.5118 -0.580688 27.439 1.74206L9.61253 40.3375C8.69435 42.3255 10.1463 44.5955 12.3361 44.5955H13.0625L29.2374 8.41481C29.5921 7.62139 30.7203 7.62695 31.0672 8.42382L46.8125 44.5955H47.989C50.1788 44.5955 51.6307 42.3255 50.7125 40.3375L32.8861 1.74206Z" fill="url(#paint0_linear_438_9652)"/>
<rect x="28.1626" y="23.8455" width="4" height="20" rx="2" fill="url(#paint1_linear_438_9652)"/>
<path d="M40.1626 21.8455V21.8455C40.1626 23.5023 38.8195 24.8455 37.1626 24.8455L23.1626 24.8455C21.5057 24.8455 20.1626 23.5023 20.1626 21.8455V21.8455L40.1626 21.8455Z" fill="url(#paint2_linear_438_9652)"/>
<rect x="36.1626" y="15.8455" width="4" height="12" transform="rotate(90 36.1626 15.8455)" fill="url(#paint3_linear_438_9652)"/>
<path d="M21.6626 21.8455L22.0956 22.5955H21.2296L21.6626 21.8455Z" fill="#5BCBA9"/>
<path d="M38.6626 21.8455L39.0956 22.5955H38.2296L38.6626 21.8455Z" fill="#55ABB1"/>
<path d="M37.9899 18.8042L38.8835 18.8042L38.4367 19.5781L37.9899 18.8042Z" fill="#61ABB5"/>
<path d="M21.4113 18.7351L22.3049 18.7351L21.8581 19.509L21.4113 18.7351Z" fill="#5BCBA9"/>
<path fill-rule="evenodd" clip-rule="evenodd" d="M54.1813 21.5279C58.1441 19.9268 59.6693 14.4526 57.5879 9.30087C56.0475 5.48813 52.9633 2.9206 49.8577 2.49256C53.5091 1.96763 57.5533 4.74549 59.3938 9.30087C61.4753 14.4526 59.9501 19.9268 55.9872 21.5279C54.9572 21.944 53.864 22.0576 52.7733 21.9073C53.2513 21.8386 53.7226 21.7132 54.1813 21.5279Z" fill="#54A2BA"/>
<path fill-rule="evenodd" clip-rule="evenodd" d="M49.9785 20.2443C52.7397 19.0451 53.8025 14.9451 52.3522 11.0866C51.2788 8.23099 49.1298 6.30797 46.9658 5.98739C49.5101 5.59425 52.328 7.67478 53.6105 11.0866C55.0608 14.9451 53.998 19.0451 51.2368 20.2443C50.5191 20.556 49.7573 20.641 48.9974 20.5285C49.3305 20.477 49.6588 20.3831 49.9785 20.2443Z" fill="#54A2BA"/>
<path fill-rule="evenodd" clip-rule="evenodd" d="M9.08892 20.2443C6.32766 19.0451 5.26493 14.9451 6.71524 11.0866C7.99764 7.67483 10.8155 5.59432 13.3598 5.98737C11.1958 6.3079 9.04668 8.23093 7.97329 11.0866C6.52298 14.9451 7.58572 19.0451 10.347 20.2443C10.6666 20.3831 10.9951 20.477 11.3282 20.5285C10.5683 20.641 9.80655 20.556 9.08892 20.2443Z" fill="#5BCBA9"/>
<path d="M22.2904 17.9806L20.5814 18.9548L20.4624 17.2537L22.2904 17.9806Z" fill="#ABAAAA"/>
<path d="M26.1595 16.1749L24.4505 17.1492L24.3315 15.448L26.1595 16.1749Z" fill="#A6A6A6"/>
<path d="M34.3781 16.1749L36.0871 17.1492L36.2061 15.448L34.3781 16.1749Z" fill="#9D9999"/>
<path d="M30.6626 36.8455L31.9616 39.0955H29.3636L30.6626 36.8455Z" fill="white"/>
<rect x="28.1626" y="23.8455" width="4" height="20" rx="2" fill="url(#paint4_linear_438_9652)"/>
<rect x="36.1626" y="15.8455" width="4" height="12" transform="rotate(90 36.1626 15.8455)" fill="url(#paint5_linear_438_9652)"/>
<path d="M21.6626 21.8455L22.0956 22.5955H21.2296L21.6626 21.8455Z" fill="#5BCBA9"/>
<path d="M38.6626 21.8455L39.0956 22.5955H38.2296L38.6626 21.8455Z" fill="#55ABB1"/>
<path d="M37.9899 18.8042L38.8835 18.8042L38.4367 19.5781L37.9899 18.8042Z" fill="#61ABB5"/>
<path d="M21.4113 18.7351L22.3049 18.7351L21.8581 19.509L21.4113 18.7351Z" fill="#5BCBA9"/>
<path d="M22.2904 17.9806L20.5814 18.9548L20.4624 17.2537L22.2904 17.9806Z" fill="#ABAAAA"/>
<path d="M26.1595 16.1749L24.4505 17.1492L24.3315 15.448L26.1595 16.1749Z" fill="#A6A6A6"/>
<path d="M34.3781 16.1749L36.0871 17.1492L36.2061 15.448L34.3781 16.1749Z" fill="#9D9999"/>
<path d="M30.6626 36.8455L31.9616 39.0955H29.3636L30.6626 36.8455Z" fill="white"/>
<rect x="28.1626" y="23.8455" width="4" height="20" rx="2" fill="url(#paint6_linear_438_9652)"/>
<rect x="36.1626" y="15.8455" width="4" height="12" transform="rotate(90 36.1626 15.8455)" fill="url(#paint7_linear_438_9652)"/>
<path d="M21.6626 21.8455L22.0956 22.5955H21.2296L21.6626 21.8455Z" fill="#5BCBA9"/>
<path d="M38.6626 21.8455L39.0956 22.5955H38.2296L38.6626 21.8455Z" fill="#55ABB1"/>
<path d="M37.9899 18.8042L38.8835 18.8042L38.4367 19.5781L37.9899 18.8042Z" fill="#61ABB5"/>
<path d="M21.4113 18.7351L22.3049 18.7351L21.8581 19.509L21.4113 18.7351Z" fill="#5BCBA9"/>
<path d="M22.2904 17.9806L20.5814 18.9548L20.4624 17.2537L22.2904 17.9806Z" fill="#ABAAAA"/>
<path d="M26.1595 16.1749L24.4505 17.1492L24.3315 15.448L26.1595 16.1749Z" fill="#A6A6A6"/>
<path d="M34.3781 16.1749L36.0871 17.1492L36.2061 15.448L34.3781 16.1749Z" fill="#9D9999"/>
<path d="M30.6626 36.8455L31.9616 39.0955H29.3636L30.6626 36.8455Z" fill="white"/>
<rect x="28.1626" y="22.8455" width="4" height="22" rx="2" fill="url(#paint8_linear_438_9652)"/>
<path d="M38.1626 17.8455C39.2672 17.8455 40.1626 18.7409 40.1626 19.8455V21.8455L20.1626 21.8455V19.8455C20.1626 18.7409 21.058 17.8455 22.1626 17.8455L38.1626 17.8455Z" fill="url(#paint9_linear_438_9652)"/>
<rect x="36.1626" y="15.8455" width="4" height="12" transform="rotate(90 36.1626 15.8455)" fill="url(#paint10_linear_438_9652)"/>
<path d="M21.1626 19.8455C21.1626 19.2932 21.6103 18.8455 22.1626 18.8455V18.8455V22.8455V22.8455C21.6103 22.8455 21.1626 22.3977 21.1626 21.8455V19.8455Z" fill="white"/>
<rect x="23.1626" y="18.8455" width="2" height="4" fill="white"/>
<rect x="26.1626" y="18.8455" width="3" height="4" fill="white"/>
<rect x="35.1626" y="18.8455" width="2" height="4" fill="white"/>
<rect x="31.1626" y="18.8455" width="3" height="4" fill="white"/>
<path d="M38.1626 18.8455V18.8455C38.7149 18.8455 39.1626 19.2932 39.1626 19.8455V21.8455C39.1626 22.3977 38.7149 22.8455 38.1626 22.8455V22.8455V18.8455Z" fill="white"/>
<path fill-rule="evenodd" clip-rule="evenodd" d="M0.931175 9.30087C-1.15025 14.4526 0.374948 19.9268 4.3378 21.5279C5.36778 21.944 6.46105 22.0576 7.55168 21.9073C7.07369 21.8386 6.60242 21.7132 6.14371 21.5279C2.18086 19.9268 0.655657 14.4526 2.73708 9.30087C4.27753 5.48813 7.36174 2.9206 10.4673 2.49256C6.81588 1.96763 2.77167 4.74549 0.931175 9.30087Z" fill="#5BCBA9"/>
<path d="M25.5892 15.8276L23.8802 16.8019L23.7612 15.1007L25.5892 15.8276Z" fill="#A6A6A6"/>
<path d="M35.2314 15.8276L36.9404 16.8019L37.0593 15.1007L35.2314 15.8276Z" fill="#9D9999"/>
<defs>
<linearGradient id="paint0_linear_438_9652" x1="18.2026" y1="0.765777" x2="83.7782" y2="27.4921" gradientUnits="userSpaceOnUse">
<stop stop-color="#B8B8B8"/>
<stop offset="1" stop-color="#525252"/>
</linearGradient>
<linearGradient id="paint1_linear_438_9652" x1="19.4483" y1="26.0955" x2="49.8761" y2="25.7689" gradientUnits="userSpaceOnUse">
<stop stop-color="#5BCBA9"/>
<stop offset="1" stop-color="#54A2BA"/>
</linearGradient>
<linearGradient id="paint2_linear_438_9652" x1="20.8383" y1="24.8455" x2="46.9194" y2="24.8455" gradientUnits="userSpaceOnUse">
<stop stop-color="#5BCBA9"/>
<stop offset="1" stop-color="#54A2BA"/>
</linearGradient>
<linearGradient id="paint3_linear_438_9652" x1="36.8769" y1="31.8" x2="36.226" y2="7.25287" gradientUnits="userSpaceOnUse">
<stop stop-color="#5BCBA9"/>
<stop offset="1" stop-color="#54A2BA"/>
</linearGradient>
<linearGradient id="paint4_linear_438_9652" x1="19.4483" y1="26.0955" x2="49.8761" y2="25.7689" gradientUnits="userSpaceOnUse">
<stop stop-color="#5BCBA9"/>
<stop offset="1" stop-color="#54A2BA"/>
</linearGradient>
<linearGradient id="paint5_linear_438_9652" x1="36.8769" y1="31.8" x2="36.226" y2="7.25287" gradientUnits="userSpaceOnUse">
<stop stop-color="#5BCBA9"/>
<stop offset="1" stop-color="#54A2BA"/>
</linearGradient>
<linearGradient id="paint6_linear_438_9652" x1="19.4483" y1="26.0955" x2="49.8761" y2="25.7689" gradientUnits="userSpaceOnUse">
<stop stop-color="#5BCBA9"/>
<stop offset="1" stop-color="#54A2BA"/>
</linearGradient>
<linearGradient id="paint7_linear_438_9652" x1="36.8769" y1="31.8" x2="36.226" y2="7.25287" gradientUnits="userSpaceOnUse">
<stop stop-color="#5BCBA9"/>
<stop offset="1" stop-color="#54A2BA"/>
</linearGradient>
<linearGradient id="paint8_linear_438_9652" x1="19.4483" y1="25.3205" x2="49.8767" y2="25.0236" gradientUnits="userSpaceOnUse">
<stop stop-color="#5BCBA9"/>
<stop offset="1" stop-color="#54A2BA"/>
</linearGradient>
<linearGradient id="paint9_linear_438_9652" x1="18.6761" y1="20.4169" x2="45.434" y2="19.9055" gradientUnits="userSpaceOnUse">
<stop stop-color="#5BCBA9"/>
<stop offset="1" stop-color="#54A2BA"/>
</linearGradient>
<linearGradient id="paint10_linear_438_9652" x1="36.8769" y1="31.8" x2="36.226" y2="7.25287" gradientUnits="userSpaceOnUse">
<stop stop-color="#5BCBA9"/>
<stop offset="1" stop-color="#54A2BA"/>
</linearGradient>
</defs>
</svg>
