<svg width="151" height="45" viewBox="0 0 151 45" fill="none" xmlns="http://www.w3.org/2000/svg">
<path d="M30.6626 36.8455L31.9616 39.0955H29.3636L30.6626 36.8455Z" fill="white"/>
<path fill-rule="evenodd" clip-rule="evenodd" d="M32.8861 1.74206C31.8132 -0.580684 28.5118 -0.580688 27.439 1.74206L9.61253 40.3375C8.69435 42.3255 10.1463 44.5955 12.3361 44.5955H13.0625L29.2374 8.41481C29.5921 7.62139 30.7203 7.62695 31.0672 8.42382L46.8125 44.5955H47.989C50.1788 44.5955 51.6307 42.3255 50.7125 40.3375L32.8861 1.74206Z" fill="url(#paint0_linear_437_9478)"/>
<rect x="28.1626" y="23.8455" width="4" height="20" rx="2" fill="url(#paint1_linear_437_9478)"/>
<path d="M40.1626 21.8455V21.8455C40.1626 23.5023 38.8195 24.8455 37.1626 24.8455L23.1626 24.8455C21.5057 24.8455 20.1626 23.5023 20.1626 21.8455V21.8455L40.1626 21.8455Z" fill="url(#paint2_linear_437_9478)"/>
<rect x="36.1626" y="15.8455" width="4" height="12" transform="rotate(90 36.1626 15.8455)" fill="url(#paint3_linear_437_9478)"/>
<path d="M21.6626 21.8455L22.0956 22.5955H21.2296L21.6626 21.8455Z" fill="#5BCBA9"/>
<path d="M38.6626 21.8455L39.0956 22.5955H38.2296L38.6626 21.8455Z" fill="#55ABB1"/>
<path d="M37.9899 18.8042L38.8835 18.8042L38.4367 19.5781L37.9899 18.8042Z" fill="#61ABB5"/>
<path d="M21.411 18.7351L22.3047 18.7351L21.8578 19.509L21.411 18.7351Z" fill="#5BCBA9"/>
<path fill-rule="evenodd" clip-rule="evenodd" d="M54.1813 21.5279C58.1441 19.9268 59.6693 14.4526 57.5879 9.30087C56.0475 5.48813 52.9633 2.9206 49.8577 2.49256C53.5091 1.96763 57.5533 4.74549 59.3938 9.30087C61.4753 14.4526 59.9501 19.9268 55.9872 21.5279C54.9572 21.944 53.864 22.0576 52.7733 21.9073C53.2513 21.8386 53.7226 21.7132 54.1813 21.5279Z" fill="#54A2BA"/>
<path fill-rule="evenodd" clip-rule="evenodd" d="M49.9785 20.2443C52.7397 19.0451 53.8025 14.9451 52.3522 11.0866C51.2788 8.23099 49.1298 6.30797 46.9658 5.98739C49.5101 5.59425 52.328 7.67478 53.6105 11.0866C55.0608 14.9451 53.998 19.0451 51.2368 20.2443C50.5191 20.556 49.7573 20.641 48.9974 20.5285C49.3305 20.477 49.6588 20.3831 49.9785 20.2443Z" fill="#54A2BA"/>
<path fill-rule="evenodd" clip-rule="evenodd" d="M9.08892 20.2443C6.32766 19.0451 5.26493 14.9451 6.71524 11.0866C7.99764 7.67483 10.8155 5.59432 13.3598 5.98737C11.1958 6.3079 9.04668 8.23093 7.97329 11.0866C6.52298 14.9451 7.58572 19.0451 10.347 20.2443C10.6666 20.3831 10.9951 20.477 11.3282 20.5285C10.5683 20.641 9.80655 20.556 9.08892 20.2443Z" fill="#5BCBA9"/>
<path d="M22.2901 17.9806L20.5811 18.9548L20.4622 17.2537L22.2901 17.9806Z" fill="#ABAAAA"/>
<path d="M26.1595 16.1749L24.4505 17.1492L24.3315 15.448L26.1595 16.1749Z" fill="#A6A6A6"/>
<path d="M34.3781 16.1749L36.0871 17.1492L36.2061 15.448L34.3781 16.1749Z" fill="#9D9999"/>
<path d="M30.6626 36.8455L31.9616 39.0955H29.3636L30.6626 36.8455Z" fill="white"/>
<rect x="28.1626" y="23.8455" width="4" height="20" rx="2" fill="url(#paint4_linear_437_9478)"/>
<rect x="36.1626" y="15.8455" width="4" height="12" transform="rotate(90 36.1626 15.8455)" fill="url(#paint5_linear_437_9478)"/>
<path d="M21.6626 21.8455L22.0956 22.5955H21.2296L21.6626 21.8455Z" fill="#5BCBA9"/>
<path d="M38.6626 21.8455L39.0956 22.5955H38.2296L38.6626 21.8455Z" fill="#55ABB1"/>
<path d="M37.9899 18.8042L38.8835 18.8042L38.4367 19.5781L37.9899 18.8042Z" fill="#61ABB5"/>
<path d="M21.411 18.7351L22.3047 18.7351L21.8578 19.509L21.411 18.7351Z" fill="#5BCBA9"/>
<path d="M22.2901 17.9806L20.5811 18.9548L20.4622 17.2537L22.2901 17.9806Z" fill="#ABAAAA"/>
<path d="M26.1595 16.1749L24.4505 17.1492L24.3315 15.448L26.1595 16.1749Z" fill="#A6A6A6"/>
<path d="M34.3781 16.1749L36.0871 17.1492L36.2061 15.448L34.3781 16.1749Z" fill="#9D9999"/>
<path d="M30.6626 36.8455L31.9616 39.0955H29.3636L30.6626 36.8455Z" fill="white"/>
<rect x="28.1626" y="23.8455" width="4" height="20" rx="2" fill="url(#paint6_linear_437_9478)"/>
<rect x="36.1626" y="15.8455" width="4" height="12" transform="rotate(90 36.1626 15.8455)" fill="url(#paint7_linear_437_9478)"/>
<path d="M21.6626 21.8455L22.0956 22.5955H21.2296L21.6626 21.8455Z" fill="#5BCBA9"/>
<path d="M38.6626 21.8455L39.0956 22.5955H38.2296L38.6626 21.8455Z" fill="#55ABB1"/>
<path d="M37.9899 18.8042L38.8835 18.8042L38.4367 19.5781L37.9899 18.8042Z" fill="#61ABB5"/>
<path d="M21.411 18.7351L22.3047 18.7351L21.8578 19.509L21.411 18.7351Z" fill="#5BCBA9"/>
<path d="M22.2901 17.9806L20.5811 18.9548L20.4622 17.2537L22.2901 17.9806Z" fill="#ABAAAA"/>
<path d="M26.1595 16.1749L24.4505 17.1492L24.3315 15.448L26.1595 16.1749Z" fill="#A6A6A6"/>
<path d="M34.3781 16.1749L36.0871 17.1492L36.2061 15.448L34.3781 16.1749Z" fill="#9D9999"/>
<path d="M73.7876 16.7791C73.7876 16.4145 73.9113 16.1085 74.1587 15.8611C74.4191 15.6007 74.7316 15.4705 75.0962 15.4705H78.0845L77.5767 14.0251C77.3683 13.4913 77.16 12.99 76.9517 12.5212C76.7563 12.0395 76.5285 11.6033 76.2681 11.2126C76.0337 10.822 75.7668 10.6137 75.4673 10.5876C75.1548 10.6137 74.8748 10.822 74.6274 11.2126C74.38 11.6033 74.1522 12.0395 73.9438 12.5212C73.7485 12.99 73.5467 13.4913 73.3384 14.0251L71.4829 19.1033C71.3527 19.3767 71.1834 19.6046 70.9751 19.7869C70.7798 19.9561 70.4803 20.0408 70.0767 20.0408C69.6991 20.0408 69.3866 19.9106 69.1392 19.6501C68.9048 19.3897 68.8006 19.0772 68.8267 18.7126C68.8397 18.5434 68.8787 18.3871 68.9438 18.2439L71.0923 12.697C71.6912 11.2387 72.2902 10.0603 72.8892 9.16187C73.4751 8.27645 74.3345 7.82723 75.4673 7.81421C76.5871 7.82723 77.4399 8.27645 78.0259 9.16187C78.6248 10.0343 79.2238 11.2126 79.8228 12.697L81.9712 18.2439C82.0363 18.3871 82.0754 18.5434 82.0884 18.7126C82.1144 19.0772 82.0037 19.3897 81.7563 19.6501C81.522 19.9106 81.216 20.0408 80.8384 20.0408C80.4087 20.0408 80.0897 19.9561 79.8813 19.7869C79.686 19.6046 79.5233 19.3767 79.3931 19.1033L79.022 18.0876H75.0962C74.7316 18.0876 74.4256 17.9574 74.1782 17.697C73.9178 17.4496 73.7876 17.1436 73.7876 16.7791ZM90.272 20.2556C89.5949 20.2556 88.9243 20.1775 88.2603 20.0212C87.6092 19.865 86.9842 19.6371 86.3853 19.3376C85.7863 19.0251 85.259 18.615 84.8032 18.1072C84.3475 17.5994 84.1001 16.9939 84.061 16.2908V15.4705V9.23999C84.061 8.87541 84.1912 8.57593 84.4517 8.34155C84.7251 8.09416 85.0441 7.97046 85.4087 7.97046C86.1899 8.03556 86.6131 8.45874 86.6782 9.23999V15.6853C86.7043 16.0889 86.854 16.4275 87.1274 16.7009C87.4139 16.9613 87.7264 17.1697 88.0649 17.3259C88.4165 17.4822 88.7746 17.5994 89.1392 17.6775C89.5168 17.7556 89.8944 17.7947 90.272 17.7947C90.6496 17.7947 91.0207 17.7556 91.3853 17.6775C91.7629 17.5994 92.1209 17.4822 92.4595 17.3259C92.811 17.1697 93.1235 16.9613 93.397 16.7009C93.6834 16.4275 93.8397 16.0889 93.8657 15.6853V9.23999C93.8657 8.87541 93.9959 8.57593 94.2563 8.34155C94.5298 8.09416 94.8488 7.97046 95.2134 7.97046C95.9946 8.03556 96.4243 8.45874 96.5024 9.23999V15.4705V16.2908C96.4634 16.9939 96.2095 17.5994 95.7407 18.1072C95.285 18.615 94.7576 19.0251 94.1587 19.3376C93.5597 19.6371 92.9282 19.865 92.2642 20.0212C91.6131 20.1775 90.9491 20.2556 90.272 20.2556ZM101.737 18.8103C101.659 19.5916 101.229 20.0147 100.448 20.0798C100.083 20.0798 99.7642 19.9626 99.4907 19.7283C99.2303 19.4809 99.1001 19.1749 99.1001 18.8103V9.55249C99.1131 9.18791 99.2498 8.88843 99.5103 8.65405C99.7707 8.40666 100.083 8.28296 100.448 8.28296H101.405H103.807H108.631C108.709 8.28296 108.788 8.28947 108.866 8.30249H108.983C109.894 8.32853 110.643 8.53687 111.229 8.92749C111.815 9.31812 112.238 9.76733 112.499 10.2751C112.759 10.7699 112.889 11.2712 112.889 11.7791C112.889 12.2999 112.759 12.8142 112.499 13.322C112.251 13.8168 111.828 14.2595 111.229 14.6501C110.643 15.0408 109.894 15.2491 108.983 15.2751H105.545C105.65 15.9262 105.864 16.408 106.19 16.7205C106.502 17.033 106.9 17.1892 107.381 17.1892H111.6C111.965 17.2022 112.264 17.3389 112.499 17.5994C112.746 17.8598 112.87 18.1723 112.87 18.5369C112.857 18.8884 112.726 19.1879 112.479 19.4353C112.245 19.6697 111.952 19.7934 111.6 19.8064H107.03C106.066 19.8194 105.194 19.4418 104.413 18.6736C103.631 17.9054 103.156 16.9939 102.987 15.9392C102.752 14.7673 102.635 14.1098 102.635 13.9666C102.635 13.602 102.759 13.296 103.006 13.0486C103.267 12.7882 103.579 12.658 103.944 12.658H109.1C109.347 12.6449 109.549 12.5929 109.706 12.5017C109.875 12.3975 109.999 12.2869 110.077 12.1697C110.155 12.0395 110.194 11.9093 110.194 11.7791C110.194 11.6488 110.155 11.5251 110.077 11.408C109.999 11.2778 109.875 11.1671 109.706 11.0759C109.549 10.9718 109.347 10.9132 109.1 10.9001H103.807H102.245C101.906 10.9132 101.737 11.0824 101.737 11.408V18.8103ZM119.393 16.7791C119.393 16.4145 119.517 16.1085 119.764 15.8611C120.025 15.6007 120.337 15.4705 120.702 15.4705H123.69L123.182 14.0251C122.974 13.4913 122.765 12.99 122.557 12.5212C122.362 12.0395 122.134 11.6033 121.874 11.2126C121.639 10.822 121.372 10.6137 121.073 10.5876C120.76 10.6137 120.48 10.822 120.233 11.2126C119.986 11.6033 119.758 12.0395 119.549 12.5212C119.354 12.99 119.152 13.4913 118.944 14.0251L117.088 19.1033C116.958 19.3767 116.789 19.6046 116.581 19.7869C116.385 19.9561 116.086 20.0408 115.682 20.0408C115.305 20.0408 114.992 19.9106 114.745 19.6501C114.51 19.3897 114.406 19.0772 114.432 18.7126C114.445 18.5434 114.484 18.3871 114.549 18.2439L116.698 12.697C117.297 11.2387 117.896 10.0603 118.495 9.16187C119.081 8.27645 119.94 7.82723 121.073 7.81421C122.193 7.82723 123.045 8.27645 123.631 9.16187C124.23 10.0343 124.829 11.2126 125.428 12.697L127.577 18.2439C127.642 18.3871 127.681 18.5434 127.694 18.7126C127.72 19.0772 127.609 19.3897 127.362 19.6501C127.127 19.9106 126.821 20.0408 126.444 20.0408C126.014 20.0408 125.695 19.9561 125.487 19.7869C125.292 19.6046 125.129 19.3767 124.999 19.1033L124.627 18.0876H120.702C120.337 18.0876 120.031 17.9574 119.784 17.697C119.523 17.4496 119.393 17.1436 119.393 16.7791Z" fill="url(#paint8_linear_437_9478)"/>
<path d="M30.6626 36.8455L31.9616 39.0955H29.3636L30.6626 36.8455Z" fill="white"/>
<rect x="28.1626" y="22.8455" width="4" height="22" rx="2" fill="url(#paint9_linear_437_9478)"/>
<path d="M38.1626 17.8455C39.2672 17.8455 40.1626 18.7409 40.1626 19.8455V21.8455L20.1626 21.8455V19.8455C20.1626 18.7409 21.058 17.8455 22.1626 17.8455L38.1626 17.8455Z" fill="url(#paint10_linear_437_9478)"/>
<rect x="36.1626" y="15.8455" width="4" height="12" transform="rotate(90 36.1626 15.8455)" fill="url(#paint11_linear_437_9478)"/>
<path d="M21.1626 19.8455C21.1626 19.2932 21.6103 18.8455 22.1626 18.8455V18.8455V22.8455V22.8455C21.6103 22.8455 21.1626 22.3977 21.1626 21.8455V19.8455Z" fill="white"/>
<rect x="23.1626" y="18.8455" width="2" height="4" fill="white"/>
<rect x="26.1626" y="18.8455" width="3" height="4" fill="white"/>
<rect x="35.1626" y="18.8455" width="2" height="4" fill="white"/>
<rect x="31.1626" y="18.8455" width="3" height="4" fill="white"/>
<path d="M38.1626 18.8455V18.8455C38.7149 18.8455 39.1626 19.2932 39.1626 19.8455V21.8455C39.1626 22.3977 38.7149 22.8455 38.1626 22.8455V22.8455V18.8455Z" fill="white"/>
<path d="M69.022 27.5916C69.022 27.227 69.1457 26.921 69.3931 26.6736C69.6535 26.4132 69.966 26.283 70.3306 26.283H81.6978C82.0623 26.283 82.3748 26.4067 82.6353 26.6541C82.8826 26.9145 83.0063 27.227 83.0063 27.5916C83.0063 27.9561 82.8761 28.2686 82.6157 28.5291C82.3683 28.7764 82.0623 28.9001 81.6978 28.9001H77.3423V36.8103C77.2642 37.5916 76.8345 38.0147 76.0532 38.0798C75.6886 38.0798 75.3696 37.9626 75.0962 37.7283C74.8358 37.4809 74.7056 37.1749 74.7056 36.8103V28.9001H70.3306C69.966 28.9001 69.66 28.7699 69.4126 28.5095C69.1522 28.2621 69.022 27.9561 69.022 27.5916ZM95.5454 26.283C96.2095 26.296 96.8019 26.5043 97.3228 26.908C97.8436 27.3116 98.2603 27.7934 98.5728 28.3533C98.8983 28.9132 99.1392 29.5056 99.2954 30.1306C99.4517 30.7556 99.5298 31.3936 99.5298 32.0447C99.5298 32.9041 99.3931 33.7504 99.1196 34.5837C98.8592 35.4041 98.423 36.1332 97.811 36.7712C97.2121 37.4093 96.4569 37.7543 95.5454 37.8064H88.729C87.8175 37.7673 87.0558 37.4288 86.4438 36.7908C85.8319 36.1528 85.3957 35.4171 85.1353 34.5837C84.8879 33.7504 84.7642 32.9041 84.7642 32.0447C84.7642 31.1853 84.8944 30.3455 85.1548 29.5251C85.4152 28.6918 85.8449 27.9561 86.4438 27.3181C87.0558 26.6671 87.8175 26.322 88.729 26.283H89.1001H95.1743H95.5454ZM94.8813 35.1892C95.3761 35.1632 95.7863 34.9809 96.1118 34.6423C96.4504 34.2908 96.6912 33.8871 96.8345 33.4314C96.9777 32.9757 97.0493 32.5134 97.0493 32.0447C97.0493 31.5759 96.9712 31.1202 96.8149 30.6775C96.6717 30.2218 96.4373 29.8181 96.1118 29.4666C95.7863 29.115 95.3761 28.9262 94.8813 28.9001H89.3345C88.8397 28.9262 88.4295 29.115 88.104 29.4666C87.7785 29.8181 87.5376 30.2218 87.3813 30.6775C87.2381 31.1202 87.1665 31.5759 87.1665 32.0447C87.1665 32.5134 87.2381 32.9757 87.3813 33.4314C87.5246 33.8871 87.759 34.2908 88.0845 34.6423C88.423 34.9809 88.8397 35.1632 89.3345 35.1892H94.8813ZM105.799 38.2556C105.357 38.2556 104.914 38.1775 104.471 38.0212C104.042 37.865 103.625 37.6371 103.221 37.3376C102.818 37.0251 102.466 36.615 102.167 36.1072C101.867 35.5994 101.704 34.9939 101.678 34.2908V27.24C101.678 26.8754 101.808 26.5759 102.069 26.3416C102.342 26.0942 102.661 25.9705 103.026 25.9705C103.807 26.0356 104.23 26.4587 104.295 27.24V34.1345C104.308 34.447 104.374 34.7139 104.491 34.9353C104.608 35.1436 104.738 35.3129 104.881 35.4431C105.025 35.5603 105.168 35.6514 105.311 35.7166C105.467 35.7686 105.624 35.7947 105.78 35.7947C105.936 35.7947 106.092 35.7686 106.249 35.7166C106.405 35.6514 106.555 35.5603 106.698 35.4431C106.841 35.3129 106.971 35.1436 107.088 34.9353C107.206 34.7139 107.264 34.447 107.264 34.1345V27.24C107.264 26.8754 107.394 26.5759 107.655 26.3416C107.928 26.0942 108.247 25.9705 108.612 25.9705C109.393 26.0356 109.823 26.4587 109.901 27.24V34.1345C109.914 34.447 109.979 34.7074 110.096 34.9158C110.213 35.1371 110.344 35.3129 110.487 35.4431C110.63 35.5603 110.773 35.6514 110.917 35.7166C111.073 35.7686 111.229 35.7947 111.385 35.7947C111.542 35.7947 111.698 35.7686 111.854 35.7166C112.01 35.6514 112.16 35.5603 112.303 35.4431C112.446 35.3129 112.577 35.1436 112.694 34.9353C112.811 34.7139 112.87 34.447 112.87 34.1345V27.24C112.87 26.8754 113 26.5759 113.26 26.3416C113.534 26.0942 113.853 25.9705 114.217 25.9705C114.999 26.0356 115.428 26.4587 115.506 27.24V34.2908C115.506 34.9939 115.35 35.5994 115.038 36.1072C114.738 36.615 114.387 37.0251 113.983 37.3376C113.592 37.6371 113.176 37.865 112.733 38.0212C112.303 38.1775 111.861 38.2556 111.405 38.2556C110.962 38.2556 110.519 38.1775 110.077 38.0212C109.647 37.865 109.23 37.6306 108.827 37.3181C108.749 37.266 108.677 37.2074 108.612 37.1423C108.534 37.2074 108.462 37.266 108.397 37.3181C107.993 37.6306 107.57 37.865 107.127 38.0212C106.698 38.1775 106.255 38.2556 105.799 38.2556ZM121.698 26.283H122.596H129.237C129.601 26.296 129.901 26.4327 130.135 26.6931C130.383 26.9535 130.506 27.266 130.506 27.6306C130.441 28.4119 130.018 28.835 129.237 28.9001H122.362C121.867 28.9262 121.457 29.115 121.131 29.4666C120.806 29.8181 120.565 30.2218 120.409 30.6775C120.265 31.1202 120.194 31.5759 120.194 32.0447C120.194 32.5134 120.265 32.9757 120.409 33.4314C120.565 33.8741 120.806 34.2712 121.131 34.6228C121.457 34.9744 121.867 35.1632 122.362 35.1892H129.237C129.601 35.2022 129.901 35.3389 130.135 35.5994C130.383 35.8598 130.506 36.1723 130.506 36.5369C130.493 36.8884 130.363 37.1879 130.116 37.4353C129.881 37.6697 129.588 37.7934 129.237 37.8064H122.069H121.698C120.786 37.7543 120.031 37.4093 119.432 36.7712C118.846 36.1202 118.423 35.3845 118.163 34.5642C117.915 33.7439 117.792 32.9041 117.792 32.0447C117.792 31.1853 117.922 30.3455 118.182 29.5251C118.443 28.7048 118.866 27.9757 119.452 27.3376C120.038 26.6866 120.786 26.335 121.698 26.283ZM130.467 31.9666C130.467 32.3311 130.337 32.6371 130.077 32.8845C129.829 33.1449 129.523 33.2751 129.159 33.2751H123.26C122.896 33.2751 122.583 33.1514 122.323 32.9041C122.075 32.6436 121.952 32.3311 121.952 31.9666C121.952 31.602 122.075 31.2895 122.323 31.0291C122.583 30.7817 122.896 30.658 123.26 30.658H129.159C129.523 30.658 129.829 30.7882 130.077 31.0486C130.337 31.296 130.467 31.602 130.467 31.9666ZM135.096 36.8103C135.018 37.5916 134.588 38.0147 133.807 38.0798C133.443 38.0798 133.124 37.9626 132.85 37.7283C132.59 37.4809 132.459 37.1749 132.459 36.8103V27.5525C132.472 27.1879 132.609 26.8884 132.87 26.6541C133.13 26.4067 133.443 26.283 133.807 26.283H134.764H137.167H141.991C142.069 26.283 142.147 26.2895 142.225 26.3025H142.342C143.254 26.3285 144.002 26.5369 144.588 26.9275C145.174 27.3181 145.597 27.7673 145.858 28.2751C146.118 28.7699 146.249 29.2712 146.249 29.7791C146.249 30.2999 146.118 30.8142 145.858 31.322C145.611 31.8168 145.187 32.2595 144.588 32.6501C144.002 33.0408 143.254 33.2491 142.342 33.2751H138.905C139.009 33.9262 139.224 34.408 139.549 34.7205C139.862 35.033 140.259 35.1892 140.741 35.1892H144.959C145.324 35.2022 145.624 35.3389 145.858 35.5994C146.105 35.8598 146.229 36.1723 146.229 36.5369C146.216 36.8884 146.086 37.1879 145.838 37.4353C145.604 37.6697 145.311 37.7934 144.959 37.8064H140.389C139.426 37.8194 138.553 37.4418 137.772 36.6736C136.991 35.9054 136.515 34.9939 136.346 33.9392C136.112 32.7673 135.995 32.1098 135.995 31.9666C135.995 31.602 136.118 31.296 136.366 31.0486C136.626 30.7882 136.939 30.658 137.303 30.658H142.459C142.707 30.6449 142.909 30.5929 143.065 30.5017C143.234 30.3975 143.358 30.2869 143.436 30.1697C143.514 30.0395 143.553 29.9093 143.553 29.7791C143.553 29.6488 143.514 29.5251 143.436 29.408C143.358 29.2778 143.234 29.1671 143.065 29.0759C142.909 28.9718 142.707 28.9132 142.459 28.9001H137.167H135.604C135.265 28.9132 135.096 29.0824 135.096 29.408V36.8103Z" fill="url(#paint12_linear_437_9478)"/>
<path fill-rule="evenodd" clip-rule="evenodd" d="M0.931175 9.30087C-1.15025 14.4526 0.374948 19.9268 4.3378 21.5279C5.36778 21.944 6.46105 22.0576 7.55168 21.9073C7.07369 21.8386 6.60242 21.7132 6.14371 21.5279C2.18086 19.9268 0.655657 14.4526 2.73708 9.30087C4.27753 5.48813 7.36174 2.9206 10.4673 2.49256C6.81588 1.96763 2.77167 4.74549 0.931175 9.30087Z" fill="#5BCBA9"/>
<path d="M25.5892 15.8276L23.8802 16.8019L23.7612 15.1007L25.5892 15.8276Z" fill="#A6A6A6"/>
<path d="M35.2314 15.8276L36.9404 16.8019L37.0593 15.1007L35.2314 15.8276Z" fill="#9D9999"/>
<defs>
<linearGradient id="paint0_linear_437_9478" x1="18.2026" y1="0.765777" x2="83.7782" y2="27.4921" gradientUnits="userSpaceOnUse">
<stop stop-color="#B8B8B8"/>
<stop offset="1" stop-color="#525252"/>
</linearGradient>
<linearGradient id="paint1_linear_437_9478" x1="19.4483" y1="26.0955" x2="49.8761" y2="25.7689" gradientUnits="userSpaceOnUse">
<stop stop-color="#5BCBA9"/>
<stop offset="1" stop-color="#54A2BA"/>
</linearGradient>
<linearGradient id="paint2_linear_437_9478" x1="20.8383" y1="24.8455" x2="46.9194" y2="24.8455" gradientUnits="userSpaceOnUse">
<stop stop-color="#5BCBA9"/>
<stop offset="1" stop-color="#54A2BA"/>
</linearGradient>
<linearGradient id="paint3_linear_437_9478" x1="36.8769" y1="31.8" x2="36.226" y2="7.25287" gradientUnits="userSpaceOnUse">
<stop stop-color="#5BCBA9"/>
<stop offset="1" stop-color="#54A2BA"/>
</linearGradient>
<linearGradient id="paint4_linear_437_9478" x1="19.4483" y1="26.0955" x2="49.8761" y2="25.7689" gradientUnits="userSpaceOnUse">
<stop stop-color="#5BCBA9"/>
<stop offset="1" stop-color="#54A2BA"/>
</linearGradient>
<linearGradient id="paint5_linear_437_9478" x1="36.8769" y1="31.8" x2="36.226" y2="7.25287" gradientUnits="userSpaceOnUse">
<stop stop-color="#5BCBA9"/>
<stop offset="1" stop-color="#54A2BA"/>
</linearGradient>
<linearGradient id="paint6_linear_437_9478" x1="19.4483" y1="26.0955" x2="49.8761" y2="25.7689" gradientUnits="userSpaceOnUse">
<stop stop-color="#5BCBA9"/>
<stop offset="1" stop-color="#54A2BA"/>
</linearGradient>
<linearGradient id="paint7_linear_437_9478" x1="36.8769" y1="31.8" x2="36.226" y2="7.25287" gradientUnits="userSpaceOnUse">
<stop stop-color="#5BCBA9"/>
<stop offset="1" stop-color="#54A2BA"/>
</linearGradient>
<linearGradient id="paint8_linear_437_9478" x1="68.1626" y1="13.8455" x2="115.119" y2="13.831" gradientUnits="userSpaceOnUse">
<stop stop-color="#B8B8B8"/>
<stop offset="1" stop-color="#494848"/>
</linearGradient>
<linearGradient id="paint9_linear_437_9478" x1="19.4483" y1="25.3205" x2="49.8767" y2="25.0236" gradientUnits="userSpaceOnUse">
<stop stop-color="#5BCBA9"/>
<stop offset="1" stop-color="#54A2BA"/>
</linearGradient>
<linearGradient id="paint10_linear_437_9478" x1="18.6761" y1="20.4169" x2="45.434" y2="19.9055" gradientUnits="userSpaceOnUse">
<stop stop-color="#5BCBA9"/>
<stop offset="1" stop-color="#54A2BA"/>
</linearGradient>
<linearGradient id="paint11_linear_437_9478" x1="36.8769" y1="31.8" x2="36.226" y2="7.25287" gradientUnits="userSpaceOnUse">
<stop stop-color="#5BCBA9"/>
<stop offset="1" stop-color="#54A2BA"/>
</linearGradient>
<linearGradient id="paint12_linear_437_9478" x1="68.1626" y1="31.3455" x2="150.163" y2="31.3455" gradientUnits="userSpaceOnUse">
<stop stop-color="#5BCBA9"/>
<stop offset="1" stop-color="#54A2BA"/>
</linearGradient>
</defs>
</svg>
