<svg width="62" height="50" viewBox="0 0 62 50" fill="none" xmlns="http://www.w3.org/2000/svg">
<path d="M31.4699 38.6792L32.6902 40.8018H30.2496L31.4699 38.6792Z" fill="white"/>
<path d="M28.2746 5.92613C29.3456 3.59752 32.6547 3.59752 33.7257 5.92614L50.1959 41.737C51.11 43.7245 49.658 45.9906 47.4703 45.9906H31.0001H14.53C12.3423 45.9906 10.8903 43.7245 11.8044 41.737L28.2746 5.92613Z" fill="url(#paint0_linear_97_107)"/>
<g style="mix-blend-mode:hard-light">
<path d="M30.0743 11.9853C30.4284 11.1899 31.5592 11.1955 31.9054 11.9943L47.7731 48.6023C48.0593 49.2626 47.5752 50 46.8555 50H31.0001H14.6914C13.9675 50 13.4834 49.2546 13.7778 48.5933L30.0743 11.9853Z" fill="white"/>
</g>
<rect x="29.1213" y="26.415" width="3.75758" height="18.8679" rx="1.87879" fill="url(#paint1_linear_97_107)"/>
<path d="M40.394 24.5283V24.5283C40.394 26.0914 39.1269 27.3585 37.5639 27.3585L24.4363 27.3585C22.8733 27.3585 21.6062 26.0914 21.6062 24.5283V24.5283L40.394 24.5283Z" fill="url(#paint2_linear_97_107)"/>
<rect x="36.6365" y="18.8679" width="3.77358" height="11.2727" transform="rotate(90 36.6365 18.8679)" fill="url(#paint3_linear_97_107)"/>
<path d="M23.0154 24.5283L23.4221 25.2359H22.6086L23.0154 24.5283Z" fill="#5BCBA9"/>
<path d="M38.9848 24.5283L39.3916 25.2359H38.5781L38.9848 24.5283Z" fill="#55ABB1"/>
<path d="M38.3529 21.6592L39.1924 21.6592L38.7727 22.3893L38.3529 21.6592Z" fill="#61ABB5"/>
<path d="M22.779 21.594L23.6184 21.594L23.1987 22.3241L22.779 21.594Z" fill="#5BCBA9"/>
<ellipse cx="7.27423" cy="9.48546" rx="7.27423" ry="9.48546" transform="matrix(0.926629 -0.375977 0.373239 0.927735 41.4385 9.36377)" fill="#5BCBA9"/>
<ellipse cx="7.27423" cy="9.48546" rx="7.27423" ry="9.48546" transform="matrix(0.926629 -0.375977 0.373239 0.927735 39.7419 9.36377)" fill="white"/>
<ellipse cx="7.27423" cy="9.48546" rx="7.27423" ry="9.48546" transform="matrix(0.926629 -0.375977 0.373239 0.927735 41.4385 9.36377)" fill="#54A2BA"/>
<ellipse cx="7.27423" cy="9.48546" rx="7.27423" ry="9.48546" transform="matrix(0.926629 -0.375977 0.373239 0.927735 39.7419 9.36377)" fill="white"/>
<ellipse cx="5.12395" cy="7.03747" rx="5.12395" ry="7.03747" transform="matrix(0.916616 -0.399769 0.350533 0.93655 41.1665 11.8844)" fill="#5BCBA9"/>
<ellipse cx="5.12395" cy="7.03747" rx="5.12395" ry="7.03747" transform="matrix(0.916616 -0.399769 0.350533 0.93655 39.9844 11.8844)" fill="white"/>
<ellipse cx="5.12395" cy="7.03747" rx="5.12395" ry="7.03747" transform="matrix(0.916616 -0.399769 0.350533 0.93655 41.1665 11.8844)" fill="#54A2BA"/>
<ellipse cx="5.12395" cy="7.03747" rx="5.12395" ry="7.03747" transform="matrix(0.916616 -0.399769 0.350533 0.93655 39.9844 11.8844)" fill="white"/>
<ellipse cx="7.27423" cy="9.48546" rx="7.27423" ry="9.48546" transform="matrix(-0.926629 -0.375977 -0.373239 0.927735 20.5618 9.36377)" fill="#5BCBA9"/>
<ellipse cx="7.27423" cy="9.48546" rx="7.27423" ry="9.48546" transform="matrix(-0.926629 -0.375977 -0.373239 0.927735 22.2581 9.36377)" fill="white"/>
<ellipse cx="7.27423" cy="9.48546" rx="7.27423" ry="9.48546" transform="matrix(-0.926629 -0.375977 -0.373239 0.927735 20.5618 9.36377)" fill="#5BCBA9"/>
<ellipse cx="7.27423" cy="9.48546" rx="7.27423" ry="9.48546" transform="matrix(-0.926629 -0.375977 -0.373239 0.927735 22.2581 9.36377)" fill="white"/>
<ellipse cx="5.12395" cy="7.03747" rx="5.12395" ry="7.03747" transform="matrix(-0.916616 -0.399769 -0.350533 0.93655 20.834 11.8844)" fill="#5BCBA9"/>
<ellipse cx="5.12395" cy="7.03747" rx="5.12395" ry="7.03747" transform="matrix(-0.916616 -0.399769 -0.350533 0.93655 22.0159 11.8844)" fill="white"/>
<ellipse cx="5.12395" cy="7.03747" rx="5.12395" ry="7.03747" transform="matrix(-0.916616 -0.399769 -0.350533 0.93655 22.0159 11.8844)" fill="white"/>
<path d="M23.6048 20.8821L21.9994 21.8012L21.8876 20.1964L23.6048 20.8821Z" fill="#ABAAAA"/>
<path d="M27.2396 19.1788L25.6341 20.0979L25.5224 18.493L27.2396 19.1788Z" fill="#A6A6A6"/>
<path d="M34.9601 19.1788L36.5656 20.0979L36.6773 18.493L34.9601 19.1788Z" fill="#9D9999"/>
<path d="M31.4699 38.6792L32.6902 40.8018H30.2496L31.4699 38.6792Z" fill="white"/>
<rect x="29.1213" y="26.415" width="3.75758" height="18.8679" rx="1.87879" fill="url(#paint4_linear_97_107)"/>
<rect x="36.6365" y="18.8679" width="3.77358" height="11.2727" transform="rotate(90 36.6365 18.8679)" fill="url(#paint5_linear_97_107)"/>
<path d="M23.0154 24.5283L23.4221 25.2359H22.6086L23.0154 24.5283Z" fill="#5BCBA9"/>
<path d="M38.9848 24.5283L39.3916 25.2359H38.5781L38.9848 24.5283Z" fill="#55ABB1"/>
<path d="M38.3529 21.6592L39.1924 21.6592L38.7727 22.3893L38.3529 21.6592Z" fill="#61ABB5"/>
<path d="M22.779 21.594L23.6184 21.594L23.1987 22.3241L22.779 21.594Z" fill="#5BCBA9"/>
<ellipse cx="7.27423" cy="9.48546" rx="7.27423" ry="9.48546" transform="matrix(0.926629 -0.375977 0.373239 0.927735 41.4385 9.36377)" fill="#5BCBA9"/>
<ellipse cx="7.27423" cy="9.48546" rx="7.27423" ry="9.48546" transform="matrix(0.926629 -0.375977 0.373239 0.927735 39.7419 9.36377)" fill="white"/>
<ellipse cx="7.27423" cy="9.48546" rx="7.27423" ry="9.48546" transform="matrix(0.926629 -0.375977 0.373239 0.927735 41.4385 9.36377)" fill="#54A2BA"/>
<ellipse cx="7.27423" cy="9.48546" rx="7.27423" ry="9.48546" transform="matrix(0.926629 -0.375977 0.373239 0.927735 39.7419 9.36377)" fill="white"/>
<ellipse cx="5.12395" cy="7.03747" rx="5.12395" ry="7.03747" transform="matrix(0.916616 -0.399769 0.350533 0.93655 41.1665 11.8844)" fill="#5BCBA9"/>
<ellipse cx="5.12395" cy="7.03747" rx="5.12395" ry="7.03747" transform="matrix(0.916616 -0.399769 0.350533 0.93655 39.9844 11.8844)" fill="white"/>
<ellipse cx="5.12395" cy="7.03747" rx="5.12395" ry="7.03747" transform="matrix(0.916616 -0.399769 0.350533 0.93655 41.1665 11.8844)" fill="#54A2BA"/>
<ellipse cx="5.12395" cy="7.03747" rx="5.12395" ry="7.03747" transform="matrix(0.916616 -0.399769 0.350533 0.93655 39.9844 11.8844)" fill="white"/>
<ellipse cx="7.27423" cy="9.48546" rx="7.27423" ry="9.48546" transform="matrix(-0.926629 -0.375977 -0.373239 0.927735 20.5618 9.36377)" fill="#5BCBA9"/>
<ellipse cx="7.27423" cy="9.48546" rx="7.27423" ry="9.48546" transform="matrix(-0.926629 -0.375977 -0.373239 0.927735 22.2581 9.36377)" fill="white"/>
<ellipse cx="7.27423" cy="9.48546" rx="7.27423" ry="9.48546" transform="matrix(-0.926629 -0.375977 -0.373239 0.927735 20.5618 9.36377)" fill="#5BCBA9"/>
<ellipse cx="7.27423" cy="9.48546" rx="7.27423" ry="9.48546" transform="matrix(-0.926629 -0.375977 -0.373239 0.927735 22.2581 9.36377)" fill="white"/>
<ellipse cx="5.12395" cy="7.03747" rx="5.12395" ry="7.03747" transform="matrix(-0.916616 -0.399769 -0.350533 0.93655 20.834 11.8844)" fill="#5BCBA9"/>
<ellipse cx="5.12395" cy="7.03747" rx="5.12395" ry="7.03747" transform="matrix(-0.916616 -0.399769 -0.350533 0.93655 22.0159 11.8844)" fill="white"/>
<ellipse cx="5.12395" cy="7.03747" rx="5.12395" ry="7.03747" transform="matrix(-0.916616 -0.399769 -0.350533 0.93655 22.0159 11.8844)" fill="white"/>
<path d="M23.6048 20.8821L21.9994 21.8012L21.8876 20.1964L23.6048 20.8821Z" fill="#ABAAAA"/>
<path d="M27.2396 19.1788L25.6341 20.0979L25.5224 18.493L27.2396 19.1788Z" fill="#A6A6A6"/>
<path d="M34.9601 19.1788L36.5656 20.0979L36.6773 18.493L34.9601 19.1788Z" fill="#9D9999"/>
<path d="M31.4699 38.6792L32.6902 40.8018H30.2496L31.4699 38.6792Z" fill="white"/>
<rect x="29.1213" y="26.415" width="3.75758" height="18.8679" rx="1.87879" fill="url(#paint6_linear_97_107)"/>
<rect x="36.6365" y="18.8679" width="3.77358" height="11.2727" transform="rotate(90 36.6365 18.8679)" fill="url(#paint7_linear_97_107)"/>
<path d="M23.0154 24.5283L23.4221 25.2359H22.6086L23.0154 24.5283Z" fill="#5BCBA9"/>
<path d="M38.9848 24.5283L39.3916 25.2359H38.5781L38.9848 24.5283Z" fill="#55ABB1"/>
<path d="M38.3529 21.6592L39.1924 21.6592L38.7727 22.3893L38.3529 21.6592Z" fill="#61ABB5"/>
<path d="M22.779 21.594L23.6184 21.594L23.1987 22.3241L22.779 21.594Z" fill="#5BCBA9"/>
<ellipse cx="7.27423" cy="9.48546" rx="7.27423" ry="9.48546" transform="matrix(0.926629 -0.375977 0.373239 0.927735 41.4385 9.36377)" fill="#5BCBA9"/>
<ellipse cx="7.27423" cy="9.48546" rx="7.27423" ry="9.48546" transform="matrix(0.926629 -0.375977 0.373239 0.927735 39.7419 9.36377)" fill="white"/>
<ellipse cx="7.27423" cy="9.48546" rx="7.27423" ry="9.48546" transform="matrix(0.926629 -0.375977 0.373239 0.927735 41.4385 9.36377)" fill="#54A2BA"/>
<ellipse cx="7.27423" cy="9.48546" rx="7.27423" ry="9.48546" transform="matrix(0.926629 -0.375977 0.373239 0.927735 39.7419 9.36377)" fill="white"/>
<ellipse cx="5.12395" cy="7.03747" rx="5.12395" ry="7.03747" transform="matrix(0.916616 -0.399769 0.350533 0.93655 41.1665 11.8844)" fill="#5BCBA9"/>
<ellipse cx="5.12395" cy="7.03747" rx="5.12395" ry="7.03747" transform="matrix(0.916616 -0.399769 0.350533 0.93655 39.9844 11.8844)" fill="white"/>
<ellipse cx="5.12395" cy="7.03747" rx="5.12395" ry="7.03747" transform="matrix(0.916616 -0.399769 0.350533 0.93655 41.1665 11.8844)" fill="#54A2BA"/>
<ellipse cx="5.12395" cy="7.03747" rx="5.12395" ry="7.03747" transform="matrix(0.916616 -0.399769 0.350533 0.93655 39.9844 11.8844)" fill="white"/>
<ellipse cx="7.27423" cy="9.48546" rx="7.27423" ry="9.48546" transform="matrix(-0.926629 -0.375977 -0.373239 0.927735 20.5618 9.36377)" fill="#5BCBA9"/>
<ellipse cx="7.27423" cy="9.48546" rx="7.27423" ry="9.48546" transform="matrix(-0.926629 -0.375977 -0.373239 0.927735 22.2581 9.36377)" fill="white"/>
<ellipse cx="7.27423" cy="9.48546" rx="7.27423" ry="9.48546" transform="matrix(-0.926629 -0.375977 -0.373239 0.927735 20.5618 9.36377)" fill="#5BCBA9"/>
<ellipse cx="7.27423" cy="9.48546" rx="7.27423" ry="9.48546" transform="matrix(-0.926629 -0.375977 -0.373239 0.927735 22.2581 9.36377)" fill="white"/>
<ellipse cx="5.12395" cy="7.03747" rx="5.12395" ry="7.03747" transform="matrix(-0.916616 -0.399769 -0.350533 0.93655 20.834 11.8844)" fill="#5BCBA9"/>
<ellipse cx="5.12395" cy="7.03747" rx="5.12395" ry="7.03747" transform="matrix(-0.916616 -0.399769 -0.350533 0.93655 22.0159 11.8844)" fill="white"/>
<ellipse cx="5.12395" cy="7.03747" rx="5.12395" ry="7.03747" transform="matrix(-0.916616 -0.399769 -0.350533 0.93655 22.0159 11.8844)" fill="white"/>
<path d="M23.6048 20.8821L21.9994 21.8012L21.8876 20.1964L23.6048 20.8821Z" fill="#ABAAAA"/>
<path d="M27.2396 19.1788L25.6341 20.0979L25.5224 18.493L27.2396 19.1788Z" fill="#A6A6A6"/>
<path d="M34.9601 19.1788L36.5656 20.0979L36.6773 18.493L34.9601 19.1788Z" fill="#9D9999"/>
<path d="M31.4699 38.6792L32.6902 40.8018H30.2496L31.4699 38.6792Z" fill="white"/>
<rect x="29.1213" y="25.4717" width="3.75758" height="20.7547" rx="1.87879" fill="url(#paint8_linear_97_107)"/>
<path d="M38.394 20.7548C39.4986 20.7548 40.394 21.6502 40.394 22.7548V24.5283L21.6062 24.5283V22.7548C21.6062 21.6502 22.5016 20.7548 23.6062 20.7548L38.394 20.7548Z" fill="url(#paint9_linear_97_107)"/>
<rect x="36.6365" y="18.8679" width="3.77358" height="11.2727" transform="rotate(90 36.6365 18.8679)" fill="url(#paint10_linear_97_107)"/>
<path d="M22.5457 22.6375C22.5457 22.1187 22.9662 21.6981 23.485 21.6981V21.6981V25.4717V25.4717C22.9662 25.4717 22.5457 25.0511 22.5457 24.5323V22.6375Z" fill="white"/>
<rect x="24.4243" y="21.6981" width="1.87879" height="3.77358" fill="white"/>
<rect x="27.2424" y="21.6981" width="2.81818" height="3.77358" fill="white"/>
<rect x="35.697" y="21.6981" width="1.87879" height="3.77358" fill="white"/>
<rect x="31.9395" y="21.6981" width="2.81818" height="3.77358" fill="white"/>
<path d="M38.5151 21.6981V21.6981C39.0339 21.6981 39.4545 22.1187 39.4545 22.6375V24.5323C39.4545 25.0511 39.0339 25.4717 38.5151 25.4717V25.4717V21.6981Z" fill="white"/>
<ellipse cx="7.27423" cy="9.48546" rx="7.27423" ry="9.48546" transform="matrix(0.926629 -0.375977 0.373239 0.927735 41.4385 9.36377)" fill="#5BCBA9"/>
<ellipse cx="7.27423" cy="9.48546" rx="7.27423" ry="9.48546" transform="matrix(0.926629 -0.375977 0.373239 0.927735 39.7419 9.36377)" fill="white"/>
<ellipse cx="7.27423" cy="9.48546" rx="7.27423" ry="9.48546" transform="matrix(0.926629 -0.375977 0.373239 0.927735 41.4385 9.36377)" fill="#54A2BA"/>
<ellipse cx="7.27423" cy="9.48546" rx="7.27423" ry="9.48546" transform="matrix(0.926629 -0.375977 0.373239 0.927735 39.7419 9.36377)" fill="white"/>
<ellipse cx="5.12395" cy="7.03747" rx="5.12395" ry="7.03747" transform="matrix(0.916616 -0.399769 0.350533 0.93655 41.1665 11.8844)" fill="#5BCBA9"/>
<ellipse cx="5.12395" cy="7.03747" rx="5.12395" ry="7.03747" transform="matrix(0.916616 -0.399769 0.350533 0.93655 39.9844 11.8844)" fill="white"/>
<ellipse cx="5.12395" cy="7.03747" rx="5.12395" ry="7.03747" transform="matrix(0.916616 -0.399769 0.350533 0.93655 41.1665 11.8844)" fill="#54A2BA"/>
<ellipse cx="5.12395" cy="7.03747" rx="5.12395" ry="7.03747" transform="matrix(0.916616 -0.399769 0.350533 0.93655 39.9844 11.8844)" fill="white"/>
<ellipse cx="7.27423" cy="9.48546" rx="7.27423" ry="9.48546" transform="matrix(-0.926629 -0.375977 -0.373239 0.927735 20.5618 9.36377)" fill="#5BCBA9"/>
<ellipse cx="7.27423" cy="9.48546" rx="7.27423" ry="9.48546" transform="matrix(-0.926629 -0.375977 -0.373239 0.927735 22.2581 9.36377)" fill="white"/>
<ellipse cx="7.27423" cy="9.48546" rx="7.27423" ry="9.48546" transform="matrix(-0.926629 -0.375977 -0.373239 0.927735 20.5618 9.36377)" fill="#5BCBA9"/>
<ellipse cx="7.27423" cy="9.48546" rx="7.27423" ry="9.48546" transform="matrix(-0.926629 -0.375977 -0.373239 0.927735 22.2581 9.36377)" fill="white"/>
<ellipse cx="5.12395" cy="7.03747" rx="5.12395" ry="7.03747" transform="matrix(-0.916616 -0.399769 -0.350533 0.93655 20.834 11.8844)" fill="#5BCBA9"/>
<ellipse cx="5.12395" cy="7.03747" rx="5.12395" ry="7.03747" transform="matrix(-0.916616 -0.399769 -0.350533 0.93655 22.0159 11.8844)" fill="white"/>
<ellipse cx="5.12395" cy="7.03747" rx="5.12395" ry="7.03747" transform="matrix(-0.916616 -0.399769 -0.350533 0.93655 22.0159 11.8844)" fill="white"/>
<path d="M26.7039 18.8511L25.0985 19.7702L24.9867 18.1654L26.7039 18.8511Z" fill="#A6A6A6"/>
<path d="M35.7617 18.8511L37.3671 19.7702L37.4788 18.1654L35.7617 18.8511Z" fill="#9D9999"/>
<defs>
<linearGradient id="paint0_linear_97_107" x1="19.765" y1="4.64181" x2="81.4407" y2="29.672" gradientUnits="userSpaceOnUse">
<stop stop-color="#B8B8B8"/>
<stop offset="1" stop-color="#525252"/>
</linearGradient>
<linearGradient id="paint1_linear_97_107" x1="20.9352" y1="28.5377" x2="49.5189" y2="28.2322" gradientUnits="userSpaceOnUse">
<stop stop-color="#5BCBA9"/>
<stop offset="1" stop-color="#54A2BA"/>
</linearGradient>
<linearGradient id="paint2_linear_97_107" x1="22.2409" y1="27.3585" x2="46.7413" y2="27.3585" gradientUnits="userSpaceOnUse">
<stop stop-color="#5BCBA9"/>
<stop offset="1" stop-color="#54A2BA"/>
</linearGradient>
<linearGradient id="paint3_linear_97_107" x1="37.3103" y1="33.8555" x2="36.7015" y2="10.796" gradientUnits="userSpaceOnUse">
<stop stop-color="#5BCBA9"/>
<stop offset="1" stop-color="#54A2BA"/>
</linearGradient>
<linearGradient id="paint4_linear_97_107" x1="20.9352" y1="28.5377" x2="49.5189" y2="28.2322" gradientUnits="userSpaceOnUse">
<stop stop-color="#5BCBA9"/>
<stop offset="1" stop-color="#54A2BA"/>
</linearGradient>
<linearGradient id="paint5_linear_97_107" x1="37.3103" y1="33.8555" x2="36.7015" y2="10.796" gradientUnits="userSpaceOnUse">
<stop stop-color="#5BCBA9"/>
<stop offset="1" stop-color="#54A2BA"/>
</linearGradient>
<linearGradient id="paint6_linear_97_107" x1="20.9352" y1="28.5377" x2="49.5189" y2="28.2322" gradientUnits="userSpaceOnUse">
<stop stop-color="#5BCBA9"/>
<stop offset="1" stop-color="#54A2BA"/>
</linearGradient>
<linearGradient id="paint7_linear_97_107" x1="37.3103" y1="33.8555" x2="36.7015" y2="10.796" gradientUnits="userSpaceOnUse">
<stop stop-color="#5BCBA9"/>
<stop offset="1" stop-color="#54A2BA"/>
</linearGradient>
<linearGradient id="paint8_linear_97_107" x1="20.9352" y1="27.8066" x2="49.5194" y2="27.5289" gradientUnits="userSpaceOnUse">
<stop stop-color="#5BCBA9"/>
<stop offset="1" stop-color="#54A2BA"/>
</linearGradient>
<linearGradient id="paint9_linear_97_107" x1="20.2098" y1="23.1806" x2="45.3461" y2="22.7023" gradientUnits="userSpaceOnUse">
<stop stop-color="#5BCBA9"/>
<stop offset="1" stop-color="#54A2BA"/>
</linearGradient>
<linearGradient id="paint10_linear_97_107" x1="37.3103" y1="33.8555" x2="36.7015" y2="10.796" gradientUnits="userSpaceOnUse">
<stop stop-color="#5BCBA9"/>
<stop offset="1" stop-color="#54A2BA"/>
</linearGradient>
</defs>
</svg>
