<svg width="153" height="53" viewBox="0 0 153 53" fill="none" xmlns="http://www.w3.org/2000/svg">
<path d="M33.5 41L34.799 43.25H32.201L33.5 41Z" fill="white"/>
<path d="M30.2765 5.8966C31.3494 3.57385 34.6508 3.57386 35.7236 5.8966L53.5501 44.4921C54.4683 46.48 53.0163 48.75 50.8265 48.75H33H15.1736C12.9838 48.75 11.5319 46.48 12.4501 44.4921L30.2765 5.8966Z" fill="url(#paint0_linear_72_346)"/>
<g style="mix-blend-mode:hard-light">
<path d="M32.0749 12.5694C32.4296 11.7759 33.5578 11.7815 33.9047 12.5784L50.891 51.6009C51.1785 52.2614 50.6944 53 49.9741 53H33H15.5424C14.8178 53 14.3338 52.2534 14.6295 51.5919L32.0749 12.5694Z" fill="white"/>
</g>
<rect x="31" y="28" width="4" height="20" rx="2" fill="url(#paint1_linear_72_346)"/>
<path d="M43 26V26C43 27.6569 41.6569 29 40 29L26 29C24.3431 29 23 27.6569 23 26V26L43 26Z" fill="url(#paint2_linear_72_346)"/>
<rect x="39" y="20" width="4" height="12" transform="rotate(90 39 20)" fill="url(#paint3_linear_72_346)"/>
<path d="M24.5 26L24.933 26.75H24.067L24.5 26Z" fill="#5BCBA9"/>
<path d="M41.5 26L41.933 26.75H41.067L41.5 26Z" fill="#55ABB1"/>
<path d="M40.8273 22.9587L41.7209 22.9587L41.2741 23.7326L40.8273 22.9587Z" fill="#61ABB5"/>
<path d="M24.2484 22.8896L25.1421 22.8896L24.6952 23.6635L24.2484 22.8896Z" fill="#5BCBA9"/>
<ellipse cx="55.056" cy="16.3545" rx="7.7389" ry="10.0606" transform="rotate(-22 55.056 16.3545)" fill="#5BCBA9"/>
<ellipse cx="53.25" cy="16.3545" rx="7.7389" ry="10.0606" transform="rotate(-22 53.25 16.3545)" fill="white"/>
<ellipse cx="55.056" cy="16.3545" rx="7.7389" ry="10.0606" transform="rotate(-22 55.056 16.3545)" fill="#54A2BA"/>
<ellipse cx="53.25" cy="16.3545" rx="7.7389" ry="10.0606" transform="rotate(-22 53.25 16.3545)" fill="white"/>
<ellipse cx="5.45083" cy="7.46363" rx="5.45083" ry="7.46363" transform="matrix(0.917237 -0.398343 0.351842 0.936059 43.8223 12.5974)" fill="#5BCBA9"/>
<ellipse cx="5.45083" cy="7.46363" rx="5.45083" ry="7.46363" transform="matrix(0.917237 -0.398343 0.351842 0.936059 42.564 12.5974)" fill="white"/>
<ellipse cx="5.45083" cy="7.46363" rx="5.45083" ry="7.46363" transform="matrix(0.917237 -0.398343 0.351842 0.936059 43.8223 12.5974)" fill="#54A2BA"/>
<ellipse cx="5.45083" cy="7.46363" rx="5.45083" ry="7.46363" transform="matrix(0.917237 -0.398343 0.351842 0.936059 42.564 12.5974)" fill="white"/>
<ellipse cx="7.7389" cy="10.0606" rx="7.7389" ry="10.0606" transform="matrix(-0.927184 -0.374607 -0.374607 0.927184 21.8882 9.92554)" fill="#5BCBA9"/>
<ellipse cx="7.7389" cy="10.0606" rx="7.7389" ry="10.0606" transform="matrix(-0.927184 -0.374607 -0.374607 0.927184 23.6941 9.92554)" fill="white"/>
<ellipse cx="7.7389" cy="10.0606" rx="7.7389" ry="10.0606" transform="matrix(-0.927184 -0.374607 -0.374607 0.927184 21.8882 9.92554)" fill="#5BCBA9"/>
<ellipse cx="7.7389" cy="10.0606" rx="7.7389" ry="10.0606" transform="matrix(-0.927184 -0.374607 -0.374607 0.927184 23.6941 9.92554)" fill="white"/>
<ellipse cx="5.45083" cy="7.46363" rx="5.45083" ry="7.46363" transform="matrix(-0.917237 -0.398343 -0.351842 0.936059 22.178 12.5974)" fill="#5BCBA9"/>
<ellipse cx="5.45083" cy="7.46363" rx="5.45083" ry="7.46363" transform="matrix(-0.917237 -0.398343 -0.351842 0.936059 23.436 12.5974)" fill="white"/>
<ellipse cx="5.45083" cy="7.46363" rx="5.45083" ry="7.46363" transform="matrix(-0.917237 -0.398343 -0.351842 0.936059 23.436 12.5974)" fill="white"/>
<path d="M25.1275 22.1351L23.4185 23.1094L23.2996 21.4082L25.1275 22.1351Z" fill="#ABAAAA"/>
<path d="M28.9969 20.3295L27.2879 21.3037L27.1689 19.6025L28.9969 20.3295Z" fill="#A6A6A6"/>
<path d="M37.2155 20.3295L38.9245 21.3037L39.0435 19.6025L37.2155 20.3295Z" fill="#9D9999"/>
<path d="M33.5 41L34.799 43.25H32.201L33.5 41Z" fill="white"/>
<rect x="31" y="28" width="4" height="20" rx="2" fill="url(#paint4_linear_72_346)"/>
<rect x="39" y="20" width="4" height="12" transform="rotate(90 39 20)" fill="url(#paint5_linear_72_346)"/>
<path d="M24.5 26L24.933 26.75H24.067L24.5 26Z" fill="#5BCBA9"/>
<path d="M41.5 26L41.933 26.75H41.067L41.5 26Z" fill="#55ABB1"/>
<path d="M40.8273 22.9587L41.7209 22.9587L41.2741 23.7326L40.8273 22.9587Z" fill="#61ABB5"/>
<path d="M24.2484 22.8896L25.1421 22.8896L24.6952 23.6635L24.2484 22.8896Z" fill="#5BCBA9"/>
<ellipse cx="55.056" cy="16.3545" rx="7.7389" ry="10.0606" transform="rotate(-22 55.056 16.3545)" fill="#5BCBA9"/>
<ellipse cx="53.25" cy="16.3545" rx="7.7389" ry="10.0606" transform="rotate(-22 53.25 16.3545)" fill="white"/>
<ellipse cx="55.056" cy="16.3545" rx="7.7389" ry="10.0606" transform="rotate(-22 55.056 16.3545)" fill="#54A2BA"/>
<ellipse cx="53.25" cy="16.3545" rx="7.7389" ry="10.0606" transform="rotate(-22 53.25 16.3545)" fill="white"/>
<ellipse cx="5.45083" cy="7.46363" rx="5.45083" ry="7.46363" transform="matrix(0.917237 -0.398343 0.351842 0.936059 43.8223 12.5974)" fill="#5BCBA9"/>
<ellipse cx="5.45083" cy="7.46363" rx="5.45083" ry="7.46363" transform="matrix(0.917237 -0.398343 0.351842 0.936059 42.564 12.5974)" fill="white"/>
<ellipse cx="5.45083" cy="7.46363" rx="5.45083" ry="7.46363" transform="matrix(0.917237 -0.398343 0.351842 0.936059 43.8223 12.5974)" fill="#54A2BA"/>
<ellipse cx="5.45083" cy="7.46363" rx="5.45083" ry="7.46363" transform="matrix(0.917237 -0.398343 0.351842 0.936059 42.564 12.5974)" fill="white"/>
<ellipse cx="7.7389" cy="10.0606" rx="7.7389" ry="10.0606" transform="matrix(-0.927184 -0.374607 -0.374607 0.927184 21.8882 9.92554)" fill="#5BCBA9"/>
<ellipse cx="7.7389" cy="10.0606" rx="7.7389" ry="10.0606" transform="matrix(-0.927184 -0.374607 -0.374607 0.927184 23.6941 9.92554)" fill="white"/>
<ellipse cx="7.7389" cy="10.0606" rx="7.7389" ry="10.0606" transform="matrix(-0.927184 -0.374607 -0.374607 0.927184 21.8882 9.92554)" fill="#5BCBA9"/>
<ellipse cx="7.7389" cy="10.0606" rx="7.7389" ry="10.0606" transform="matrix(-0.927184 -0.374607 -0.374607 0.927184 23.6941 9.92554)" fill="white"/>
<ellipse cx="5.45083" cy="7.46363" rx="5.45083" ry="7.46363" transform="matrix(-0.917237 -0.398343 -0.351842 0.936059 22.178 12.5974)" fill="#5BCBA9"/>
<ellipse cx="5.45083" cy="7.46363" rx="5.45083" ry="7.46363" transform="matrix(-0.917237 -0.398343 -0.351842 0.936059 23.436 12.5974)" fill="white"/>
<ellipse cx="5.45083" cy="7.46363" rx="5.45083" ry="7.46363" transform="matrix(-0.917237 -0.398343 -0.351842 0.936059 23.436 12.5974)" fill="white"/>
<path d="M25.1275 22.1351L23.4185 23.1094L23.2996 21.4082L25.1275 22.1351Z" fill="#ABAAAA"/>
<path d="M28.9969 20.3295L27.2879 21.3037L27.1689 19.6025L28.9969 20.3295Z" fill="#A6A6A6"/>
<path d="M37.2155 20.3295L38.9245 21.3037L39.0435 19.6025L37.2155 20.3295Z" fill="#9D9999"/>
<path d="M33.5 41L34.799 43.25H32.201L33.5 41Z" fill="white"/>
<rect x="31" y="28" width="4" height="20" rx="2" fill="url(#paint6_linear_72_346)"/>
<rect x="39" y="20" width="4" height="12" transform="rotate(90 39 20)" fill="url(#paint7_linear_72_346)"/>
<path d="M24.5 26L24.933 26.75H24.067L24.5 26Z" fill="#5BCBA9"/>
<path d="M41.5 26L41.933 26.75H41.067L41.5 26Z" fill="#55ABB1"/>
<path d="M40.8273 22.9587L41.7209 22.9587L41.2741 23.7326L40.8273 22.9587Z" fill="#61ABB5"/>
<path d="M24.2484 22.8896L25.1421 22.8896L24.6952 23.6635L24.2484 22.8896Z" fill="#5BCBA9"/>
<ellipse cx="55.056" cy="16.3545" rx="7.7389" ry="10.0606" transform="rotate(-22 55.056 16.3545)" fill="#5BCBA9"/>
<ellipse cx="53.25" cy="16.3545" rx="7.7389" ry="10.0606" transform="rotate(-22 53.25 16.3545)" fill="white"/>
<ellipse cx="55.056" cy="16.3545" rx="7.7389" ry="10.0606" transform="rotate(-22 55.056 16.3545)" fill="#54A2BA"/>
<ellipse cx="53.25" cy="16.3545" rx="7.7389" ry="10.0606" transform="rotate(-22 53.25 16.3545)" fill="white"/>
<ellipse cx="5.45083" cy="7.46363" rx="5.45083" ry="7.46363" transform="matrix(0.917237 -0.398343 0.351842 0.936059 43.8223 12.5974)" fill="#5BCBA9"/>
<ellipse cx="5.45083" cy="7.46363" rx="5.45083" ry="7.46363" transform="matrix(0.917237 -0.398343 0.351842 0.936059 42.564 12.5974)" fill="white"/>
<ellipse cx="5.45083" cy="7.46363" rx="5.45083" ry="7.46363" transform="matrix(0.917237 -0.398343 0.351842 0.936059 43.8223 12.5974)" fill="#54A2BA"/>
<ellipse cx="5.45083" cy="7.46363" rx="5.45083" ry="7.46363" transform="matrix(0.917237 -0.398343 0.351842 0.936059 42.564 12.5974)" fill="white"/>
<ellipse cx="7.7389" cy="10.0606" rx="7.7389" ry="10.0606" transform="matrix(-0.927184 -0.374607 -0.374607 0.927184 21.8882 9.92554)" fill="#5BCBA9"/>
<ellipse cx="7.7389" cy="10.0606" rx="7.7389" ry="10.0606" transform="matrix(-0.927184 -0.374607 -0.374607 0.927184 23.6941 9.92554)" fill="white"/>
<ellipse cx="7.7389" cy="10.0606" rx="7.7389" ry="10.0606" transform="matrix(-0.927184 -0.374607 -0.374607 0.927184 21.8882 9.92554)" fill="#5BCBA9"/>
<ellipse cx="7.7389" cy="10.0606" rx="7.7389" ry="10.0606" transform="matrix(-0.927184 -0.374607 -0.374607 0.927184 23.6941 9.92554)" fill="white"/>
<ellipse cx="5.45083" cy="7.46363" rx="5.45083" ry="7.46363" transform="matrix(-0.917237 -0.398343 -0.351842 0.936059 22.178 12.5974)" fill="#5BCBA9"/>
<ellipse cx="5.45083" cy="7.46363" rx="5.45083" ry="7.46363" transform="matrix(-0.917237 -0.398343 -0.351842 0.936059 23.436 12.5974)" fill="white"/>
<ellipse cx="5.45083" cy="7.46363" rx="5.45083" ry="7.46363" transform="matrix(-0.917237 -0.398343 -0.351842 0.936059 23.436 12.5974)" fill="white"/>
<path d="M25.1275 22.1351L23.4185 23.1094L23.2996 21.4082L25.1275 22.1351Z" fill="#ABAAAA"/>
<path d="M28.9969 20.3295L27.2879 21.3037L27.1689 19.6025L28.9969 20.3295Z" fill="#A6A6A6"/>
<path d="M37.2155 20.3295L38.9245 21.3037L39.0435 19.6025L37.2155 20.3295Z" fill="#9D9999"/>
<path d="M76.625 20.9336C76.625 20.569 76.7487 20.263 76.9961 20.0156C77.2565 19.7552 77.569 19.625 77.9336 19.625H80.9219L80.4141 18.1797C80.2057 17.6458 79.9974 17.1445 79.7891 16.6758C79.5938 16.194 79.3659 15.7578 79.1055 15.3672C78.8711 14.9766 78.6042 14.7682 78.3047 14.7422C77.9922 14.7682 77.7122 14.9766 77.4648 15.3672C77.2174 15.7578 76.9896 16.194 76.7812 16.6758C76.5859 17.1445 76.3841 17.6458 76.1758 18.1797L74.3203 23.2578C74.1901 23.5312 74.0208 23.7591 73.8125 23.9414C73.6172 24.1107 73.3177 24.1953 72.9141 24.1953C72.5365 24.1953 72.224 24.0651 71.9766 23.8047C71.7422 23.5443 71.638 23.2318 71.6641 22.8672C71.6771 22.6979 71.7161 22.5417 71.7812 22.3984L73.9297 16.8516C74.5286 15.3932 75.1276 14.2148 75.7266 13.3164C76.3125 12.431 77.1719 11.9818 78.3047 11.9688C79.4245 11.9818 80.2773 12.431 80.8633 13.3164C81.4622 14.1888 82.0612 15.3672 82.6602 16.8516L84.8086 22.3984C84.8737 22.5417 84.9128 22.6979 84.9258 22.8672C84.9518 23.2318 84.8411 23.5443 84.5938 23.8047C84.3594 24.0651 84.0534 24.1953 83.6758 24.1953C83.2461 24.1953 82.9271 24.1107 82.7188 23.9414C82.5234 23.7591 82.3607 23.5312 82.2305 23.2578L81.8594 22.2422H77.9336C77.569 22.2422 77.263 22.112 77.0156 21.8516C76.7552 21.6042 76.625 21.2982 76.625 20.9336ZM93.1094 24.4102C92.4323 24.4102 91.7617 24.332 91.0977 24.1758C90.4466 24.0195 89.8216 23.7917 89.2227 23.4922C88.6237 23.1797 88.0964 22.7695 87.6406 22.2617C87.1849 21.7539 86.9375 21.1484 86.8984 20.4453V19.625V13.3945C86.8984 13.0299 87.0286 12.7305 87.2891 12.4961C87.5625 12.2487 87.8815 12.125 88.2461 12.125C89.0273 12.1901 89.4505 12.6133 89.5156 13.3945V19.8398C89.5417 20.2435 89.6914 20.582 89.9648 20.8555C90.2513 21.1159 90.5638 21.3242 90.9023 21.4805C91.2539 21.6367 91.612 21.7539 91.9766 21.832C92.3542 21.9102 92.7318 21.9492 93.1094 21.9492C93.487 21.9492 93.8581 21.9102 94.2227 21.832C94.6003 21.7539 94.9583 21.6367 95.2969 21.4805C95.6484 21.3242 95.9609 21.1159 96.2344 20.8555C96.5208 20.582 96.6771 20.2435 96.7031 19.8398V13.3945C96.7031 13.0299 96.8333 12.7305 97.0938 12.4961C97.3672 12.2487 97.6862 12.125 98.0508 12.125C98.832 12.1901 99.2617 12.6133 99.3398 13.3945V19.625V20.4453C99.3008 21.1484 99.0469 21.7539 98.5781 22.2617C98.1224 22.7695 97.5951 23.1797 96.9961 23.4922C96.3971 23.7917 95.7656 24.0195 95.1016 24.1758C94.4505 24.332 93.7865 24.4102 93.1094 24.4102ZM104.574 22.9648C104.496 23.7461 104.066 24.1693 103.285 24.2344C102.921 24.2344 102.602 24.1172 102.328 23.8828C102.068 23.6354 101.938 23.3294 101.938 22.9648V13.707C101.951 13.3424 102.087 13.043 102.348 12.8086C102.608 12.5612 102.921 12.4375 103.285 12.4375H104.242H106.645H111.469C111.547 12.4375 111.625 12.444 111.703 12.457H111.82C112.732 12.4831 113.48 12.6914 114.066 13.082C114.652 13.4727 115.076 13.9219 115.336 14.4297C115.596 14.9245 115.727 15.4258 115.727 15.9336C115.727 16.4544 115.596 16.9688 115.336 17.4766C115.089 17.9714 114.665 18.4141 114.066 18.8047C113.48 19.1953 112.732 19.4036 111.82 19.4297H108.383C108.487 20.0807 108.702 20.5625 109.027 20.875C109.34 21.1875 109.737 21.3438 110.219 21.3438H114.438C114.802 21.3568 115.102 21.4935 115.336 21.7539C115.583 22.0143 115.707 22.3268 115.707 22.6914C115.694 23.043 115.564 23.3424 115.316 23.5898C115.082 23.8242 114.789 23.9479 114.438 23.9609H109.867C108.904 23.974 108.031 23.5964 107.25 22.8281C106.469 22.0599 105.993 21.1484 105.824 20.0938C105.59 18.9219 105.473 18.2643 105.473 18.1211C105.473 17.7565 105.596 17.4505 105.844 17.2031C106.104 16.9427 106.417 16.8125 106.781 16.8125H111.938C112.185 16.7995 112.387 16.7474 112.543 16.6562C112.712 16.5521 112.836 16.4414 112.914 16.3242C112.992 16.194 113.031 16.0638 113.031 15.9336C113.031 15.8034 112.992 15.6797 112.914 15.5625C112.836 15.4323 112.712 15.3216 112.543 15.2305C112.387 15.1263 112.185 15.0677 111.938 15.0547H106.645H105.082C104.743 15.0677 104.574 15.237 104.574 15.5625V22.9648ZM122.23 20.9336C122.23 20.569 122.354 20.263 122.602 20.0156C122.862 19.7552 123.174 19.625 123.539 19.625H126.527L126.02 18.1797C125.811 17.6458 125.603 17.1445 125.395 16.6758C125.199 16.194 124.971 15.7578 124.711 15.3672C124.477 14.9766 124.21 14.7682 123.91 14.7422C123.598 14.7682 123.318 14.9766 123.07 15.3672C122.823 15.7578 122.595 16.194 122.387 16.6758C122.191 17.1445 121.99 17.6458 121.781 18.1797L119.926 23.2578C119.796 23.5312 119.626 23.7591 119.418 23.9414C119.223 24.1107 118.923 24.1953 118.52 24.1953C118.142 24.1953 117.829 24.0651 117.582 23.8047C117.348 23.5443 117.243 23.2318 117.27 22.8672C117.283 22.6979 117.322 22.5417 117.387 22.3984L119.535 16.8516C120.134 15.3932 120.733 14.2148 121.332 13.3164C121.918 12.431 122.777 11.9818 123.91 11.9688C125.03 11.9818 125.883 12.431 126.469 13.3164C127.068 14.1888 127.667 15.3672 128.266 16.8516L130.414 22.3984C130.479 22.5417 130.518 22.6979 130.531 22.8672C130.557 23.2318 130.447 23.5443 130.199 23.8047C129.965 24.0651 129.659 24.1953 129.281 24.1953C128.852 24.1953 128.533 24.1107 128.324 23.9414C128.129 23.7591 127.966 23.5312 127.836 23.2578L127.465 22.2422H123.539C123.174 22.2422 122.868 22.112 122.621 21.8516C122.361 21.6042 122.23 21.2982 122.23 20.9336Z" fill="url(#paint8_linear_72_346)"/>
<path d="M33.5 41L34.799 43.25H32.201L33.5 41Z" fill="white"/>
<rect x="31" y="27" width="4" height="22" rx="2" fill="url(#paint9_linear_72_346)"/>
<path d="M41 22C42.1046 22 43 22.8954 43 24V26L23 26V24C23 22.8954 23.8954 22 25 22L41 22Z" fill="url(#paint10_linear_72_346)"/>
<rect x="39" y="20" width="4" height="12" transform="rotate(90 39 20)" fill="url(#paint11_linear_72_346)"/>
<path d="M24 24C24 23.4477 24.4477 23 25 23V23V27V27C24.4477 27 24 26.5523 24 26V24Z" fill="white"/>
<rect x="26" y="23" width="2" height="4" fill="white"/>
<rect x="29" y="23" width="3" height="4" fill="white"/>
<rect x="38" y="23" width="2" height="4" fill="white"/>
<rect x="34" y="23" width="3" height="4" fill="white"/>
<path d="M41 23V23C41.5523 23 42 23.4477 42 24V26C42 26.5523 41.5523 27 41 27V27V23Z" fill="white"/>
<path d="M71.8594 31.7461C71.8594 31.3815 71.9831 31.0755 72.2305 30.8281C72.4909 30.5677 72.8034 30.4375 73.168 30.4375H84.5352C84.8997 30.4375 85.2122 30.5612 85.4727 30.8086C85.7201 31.069 85.8438 31.3815 85.8438 31.7461C85.8438 32.1107 85.7135 32.4232 85.4531 32.6836C85.2057 32.931 84.8997 33.0547 84.5352 33.0547H80.1797V40.9648C80.1016 41.7461 79.6719 42.1693 78.8906 42.2344C78.526 42.2344 78.207 42.1172 77.9336 41.8828C77.6732 41.6354 77.543 41.3294 77.543 40.9648V33.0547H73.168C72.8034 33.0547 72.4974 32.9245 72.25 32.6641C71.9896 32.4167 71.8594 32.1107 71.8594 31.7461ZM98.3828 30.4375C99.0469 30.4505 99.6393 30.6589 100.16 31.0625C100.681 31.4661 101.098 31.9479 101.41 32.5078C101.736 33.0677 101.977 33.6602 102.133 34.2852C102.289 34.9102 102.367 35.5482 102.367 36.1992C102.367 37.0586 102.23 37.9049 101.957 38.7383C101.697 39.5586 101.26 40.2878 100.648 40.9258C100.049 41.5638 99.2943 41.9089 98.3828 41.9609H91.5664C90.6549 41.9219 89.8932 41.5833 89.2812 40.9453C88.6693 40.3073 88.2331 39.5716 87.9727 38.7383C87.7253 37.9049 87.6016 37.0586 87.6016 36.1992C87.6016 35.3398 87.7318 34.5 87.9922 33.6797C88.2526 32.8464 88.6823 32.1107 89.2812 31.4727C89.8932 30.8216 90.6549 30.4766 91.5664 30.4375H91.9375H98.0117H98.3828ZM97.7188 39.3438C98.2135 39.3177 98.6237 39.1354 98.9492 38.7969C99.2878 38.4453 99.5286 38.0417 99.6719 37.5859C99.8151 37.1302 99.8867 36.668 99.8867 36.1992C99.8867 35.7305 99.8086 35.2747 99.6523 34.832C99.5091 34.3763 99.2747 33.9727 98.9492 33.6211C98.6237 33.2695 98.2135 33.0807 97.7188 33.0547H92.1719C91.6771 33.0807 91.2669 33.2695 90.9414 33.6211C90.6159 33.9727 90.375 34.3763 90.2188 34.832C90.0755 35.2747 90.0039 35.7305 90.0039 36.1992C90.0039 36.668 90.0755 37.1302 90.2188 37.5859C90.362 38.0417 90.5964 38.4453 90.9219 38.7969C91.2604 39.1354 91.6771 39.3177 92.1719 39.3438H97.7188ZM108.637 42.4102C108.194 42.4102 107.751 42.332 107.309 42.1758C106.879 42.0195 106.462 41.7917 106.059 41.4922C105.655 41.1797 105.303 40.7695 105.004 40.2617C104.704 39.7539 104.542 39.1484 104.516 38.4453V31.3945C104.516 31.0299 104.646 30.7305 104.906 30.4961C105.18 30.2487 105.499 30.125 105.863 30.125C106.645 30.1901 107.068 30.6133 107.133 31.3945V38.2891C107.146 38.6016 107.211 38.8685 107.328 39.0898C107.445 39.2982 107.576 39.4674 107.719 39.5977C107.862 39.7148 108.005 39.806 108.148 39.8711C108.305 39.9232 108.461 39.9492 108.617 39.9492C108.773 39.9492 108.93 39.9232 109.086 39.8711C109.242 39.806 109.392 39.7148 109.535 39.5977C109.678 39.4674 109.809 39.2982 109.926 39.0898C110.043 38.8685 110.102 38.6016 110.102 38.2891V31.3945C110.102 31.0299 110.232 30.7305 110.492 30.4961C110.766 30.2487 111.085 30.125 111.449 30.125C112.23 30.1901 112.66 30.6133 112.738 31.3945V38.2891C112.751 38.6016 112.816 38.862 112.934 39.0703C113.051 39.2917 113.181 39.4674 113.324 39.5977C113.467 39.7148 113.611 39.806 113.754 39.8711C113.91 39.9232 114.066 39.9492 114.223 39.9492C114.379 39.9492 114.535 39.9232 114.691 39.8711C114.848 39.806 114.997 39.7148 115.141 39.5977C115.284 39.4674 115.414 39.2982 115.531 39.0898C115.648 38.8685 115.707 38.6016 115.707 38.2891V31.3945C115.707 31.0299 115.837 30.7305 116.098 30.4961C116.371 30.2487 116.69 30.125 117.055 30.125C117.836 30.1901 118.266 30.6133 118.344 31.3945V38.4453C118.344 39.1484 118.188 39.7539 117.875 40.2617C117.576 40.7695 117.224 41.1797 116.82 41.4922C116.43 41.7917 116.013 42.0195 115.57 42.1758C115.141 42.332 114.698 42.4102 114.242 42.4102C113.799 42.4102 113.357 42.332 112.914 42.1758C112.484 42.0195 112.068 41.7852 111.664 41.4727C111.586 41.4206 111.514 41.362 111.449 41.2969C111.371 41.362 111.299 41.4206 111.234 41.4727C110.831 41.7852 110.408 42.0195 109.965 42.1758C109.535 42.332 109.092 42.4102 108.637 42.4102ZM124.535 30.4375H125.434H132.074C132.439 30.4505 132.738 30.5872 132.973 30.8477C133.22 31.1081 133.344 31.4206 133.344 31.7852C133.279 32.5664 132.855 32.9896 132.074 33.0547H125.199C124.704 33.0807 124.294 33.2695 123.969 33.6211C123.643 33.9727 123.402 34.3763 123.246 34.832C123.103 35.2747 123.031 35.7305 123.031 36.1992C123.031 36.668 123.103 37.1302 123.246 37.5859C123.402 38.0286 123.643 38.4258 123.969 38.7773C124.294 39.1289 124.704 39.3177 125.199 39.3438H132.074C132.439 39.3568 132.738 39.4935 132.973 39.7539C133.22 40.0143 133.344 40.3268 133.344 40.6914C133.331 41.043 133.201 41.3424 132.953 41.5898C132.719 41.8242 132.426 41.9479 132.074 41.9609H124.906H124.535C123.624 41.9089 122.868 41.5638 122.27 40.9258C121.684 40.2747 121.26 39.5391 121 38.7188C120.753 37.8984 120.629 37.0586 120.629 36.1992C120.629 35.3398 120.759 34.5 121.02 33.6797C121.28 32.8594 121.703 32.1302 122.289 31.4922C122.875 30.8411 123.624 30.4896 124.535 30.4375ZM133.305 36.1211C133.305 36.4857 133.174 36.7917 132.914 37.0391C132.667 37.2995 132.361 37.4297 131.996 37.4297H126.098C125.733 37.4297 125.421 37.306 125.16 37.0586C124.913 36.7982 124.789 36.4857 124.789 36.1211C124.789 35.7565 124.913 35.444 125.16 35.1836C125.421 34.9362 125.733 34.8125 126.098 34.8125H131.996C132.361 34.8125 132.667 34.9427 132.914 35.2031C133.174 35.4505 133.305 35.7565 133.305 36.1211ZM137.934 40.9648C137.855 41.7461 137.426 42.1693 136.645 42.2344C136.28 42.2344 135.961 42.1172 135.688 41.8828C135.427 41.6354 135.297 41.3294 135.297 40.9648V31.707C135.31 31.3424 135.447 31.043 135.707 30.8086C135.967 30.5612 136.28 30.4375 136.645 30.4375H137.602H140.004H144.828C144.906 30.4375 144.984 30.444 145.062 30.457H145.18C146.091 30.4831 146.84 30.6914 147.426 31.082C148.012 31.4727 148.435 31.9219 148.695 32.4297C148.956 32.9245 149.086 33.4258 149.086 33.9336C149.086 34.4544 148.956 34.9688 148.695 35.4766C148.448 35.9714 148.025 36.4141 147.426 36.8047C146.84 37.1953 146.091 37.4036 145.18 37.4297H141.742C141.846 38.0807 142.061 38.5625 142.387 38.875C142.699 39.1875 143.096 39.3438 143.578 39.3438H147.797C148.161 39.3568 148.461 39.4935 148.695 39.7539C148.943 40.0143 149.066 40.3268 149.066 40.6914C149.053 41.043 148.923 41.3424 148.676 41.5898C148.441 41.8242 148.148 41.9479 147.797 41.9609H143.227C142.263 41.974 141.391 41.5964 140.609 40.8281C139.828 40.0599 139.353 39.1484 139.184 38.0938C138.949 36.9219 138.832 36.2643 138.832 36.1211C138.832 35.7565 138.956 35.4505 139.203 35.2031C139.464 34.9427 139.776 34.8125 140.141 34.8125H145.297C145.544 34.7995 145.746 34.7474 145.902 34.6562C146.072 34.5521 146.195 34.4414 146.273 34.3242C146.352 34.194 146.391 34.0638 146.391 33.9336C146.391 33.8034 146.352 33.6797 146.273 33.5625C146.195 33.4323 146.072 33.3216 145.902 33.2305C145.746 33.1263 145.544 33.0677 145.297 33.0547H140.004H138.441C138.103 33.0677 137.934 33.237 137.934 33.5625V40.9648Z" fill="url(#paint12_linear_72_346)"/>
<ellipse cx="55.056" cy="16.3545" rx="7.7389" ry="10.0606" transform="rotate(-22 55.056 16.3545)" fill="#5BCBA9"/>
<ellipse cx="53.25" cy="16.3545" rx="7.7389" ry="10.0606" transform="rotate(-22 53.25 16.3545)" fill="white"/>
<ellipse cx="55.056" cy="16.3545" rx="7.7389" ry="10.0606" transform="rotate(-22 55.056 16.3545)" fill="#54A2BA"/>
<ellipse cx="53.25" cy="16.3545" rx="7.7389" ry="10.0606" transform="rotate(-22 53.25 16.3545)" fill="white"/>
<ellipse cx="5.45083" cy="7.46363" rx="5.45083" ry="7.46363" transform="matrix(0.917237 -0.398343 0.351842 0.936059 43.8223 12.5974)" fill="#5BCBA9"/>
<ellipse cx="5.45083" cy="7.46363" rx="5.45083" ry="7.46363" transform="matrix(0.917237 -0.398343 0.351842 0.936059 42.564 12.5974)" fill="white"/>
<ellipse cx="5.45083" cy="7.46363" rx="5.45083" ry="7.46363" transform="matrix(0.917237 -0.398343 0.351842 0.936059 43.8223 12.5974)" fill="#54A2BA"/>
<ellipse cx="5.45083" cy="7.46363" rx="5.45083" ry="7.46363" transform="matrix(0.917237 -0.398343 0.351842 0.936059 42.564 12.5974)" fill="white"/>
<ellipse cx="7.7389" cy="10.0606" rx="7.7389" ry="10.0606" transform="matrix(-0.927184 -0.374607 -0.374607 0.927184 21.8882 9.92554)" fill="#5BCBA9"/>
<ellipse cx="7.7389" cy="10.0606" rx="7.7389" ry="10.0606" transform="matrix(-0.927184 -0.374607 -0.374607 0.927184 23.6941 9.92554)" fill="white"/>
<ellipse cx="7.7389" cy="10.0606" rx="7.7389" ry="10.0606" transform="matrix(-0.927184 -0.374607 -0.374607 0.927184 21.8882 9.92554)" fill="#5BCBA9"/>
<ellipse cx="7.7389" cy="10.0606" rx="7.7389" ry="10.0606" transform="matrix(-0.927184 -0.374607 -0.374607 0.927184 23.6941 9.92554)" fill="white"/>
<ellipse cx="5.45083" cy="7.46363" rx="5.45083" ry="7.46363" transform="matrix(-0.917237 -0.398343 -0.351842 0.936059 22.178 12.5974)" fill="#5BCBA9"/>
<ellipse cx="5.45083" cy="7.46363" rx="5.45083" ry="7.46363" transform="matrix(-0.917237 -0.398343 -0.351842 0.936059 23.436 12.5974)" fill="white"/>
<ellipse cx="5.45083" cy="7.46363" rx="5.45083" ry="7.46363" transform="matrix(-0.917237 -0.398343 -0.351842 0.936059 23.436 12.5974)" fill="white"/>
<path d="M28.4266 19.9822L26.7176 20.9564L26.5986 19.2553L28.4266 19.9822Z" fill="#A6A6A6"/>
<path d="M38.0688 19.9822L39.7778 20.9564L39.8967 19.2553L38.0688 19.9822Z" fill="#9D9999"/>
<defs>
<linearGradient id="paint0_linear_72_346" x1="21.04" y1="4.92032" x2="86.6156" y2="31.6466" gradientUnits="userSpaceOnUse">
<stop stop-color="#B8B8B8"/>
<stop offset="1" stop-color="#525252"/>
</linearGradient>
<linearGradient id="paint1_linear_72_346" x1="22.2857" y1="30.25" x2="52.7135" y2="29.9235" gradientUnits="userSpaceOnUse">
<stop stop-color="#5BCBA9"/>
<stop offset="1" stop-color="#54A2BA"/>
</linearGradient>
<linearGradient id="paint2_linear_72_346" x1="23.6757" y1="29" x2="49.7568" y2="29" gradientUnits="userSpaceOnUse">
<stop stop-color="#5BCBA9"/>
<stop offset="1" stop-color="#54A2BA"/>
</linearGradient>
<linearGradient id="paint3_linear_72_346" x1="39.7143" y1="35.9545" x2="39.0634" y2="11.4074" gradientUnits="userSpaceOnUse">
<stop stop-color="#5BCBA9"/>
<stop offset="1" stop-color="#54A2BA"/>
</linearGradient>
<linearGradient id="paint4_linear_72_346" x1="22.2857" y1="30.25" x2="52.7135" y2="29.9235" gradientUnits="userSpaceOnUse">
<stop stop-color="#5BCBA9"/>
<stop offset="1" stop-color="#54A2BA"/>
</linearGradient>
<linearGradient id="paint5_linear_72_346" x1="39.7143" y1="35.9545" x2="39.0634" y2="11.4074" gradientUnits="userSpaceOnUse">
<stop stop-color="#5BCBA9"/>
<stop offset="1" stop-color="#54A2BA"/>
</linearGradient>
<linearGradient id="paint6_linear_72_346" x1="22.2857" y1="30.25" x2="52.7135" y2="29.9235" gradientUnits="userSpaceOnUse">
<stop stop-color="#5BCBA9"/>
<stop offset="1" stop-color="#54A2BA"/>
</linearGradient>
<linearGradient id="paint7_linear_72_346" x1="39.7143" y1="35.9545" x2="39.0634" y2="11.4074" gradientUnits="userSpaceOnUse">
<stop stop-color="#5BCBA9"/>
<stop offset="1" stop-color="#54A2BA"/>
</linearGradient>
<linearGradient id="paint8_linear_72_346" x1="71" y1="18" x2="117.956" y2="17.9855" gradientUnits="userSpaceOnUse">
<stop stop-color="#B8B8B8"/>
<stop offset="1" stop-color="#494848"/>
</linearGradient>
<linearGradient id="paint9_linear_72_346" x1="22.2857" y1="29.475" x2="52.7141" y2="29.1782" gradientUnits="userSpaceOnUse">
<stop stop-color="#5BCBA9"/>
<stop offset="1" stop-color="#54A2BA"/>
</linearGradient>
<linearGradient id="paint10_linear_72_346" x1="21.5135" y1="24.5714" x2="48.2714" y2="24.0601" gradientUnits="userSpaceOnUse">
<stop stop-color="#5BCBA9"/>
<stop offset="1" stop-color="#54A2BA"/>
</linearGradient>
<linearGradient id="paint11_linear_72_346" x1="39.7143" y1="35.9545" x2="39.0634" y2="11.4074" gradientUnits="userSpaceOnUse">
<stop stop-color="#5BCBA9"/>
<stop offset="1" stop-color="#54A2BA"/>
</linearGradient>
<linearGradient id="paint12_linear_72_346" x1="71" y1="35.5" x2="153" y2="35.5" gradientUnits="userSpaceOnUse">
<stop stop-color="#5BCBA9"/>
<stop offset="1" stop-color="#54A2BA"/>
</linearGradient>
</defs>
</svg>
