<svg width="763" height="469" viewBox="0 0 763 469" fill="none" xmlns="http://www.w3.org/2000/svg">
<path d="M153.5 323L246.5 263L293 291M497.5 158.5L404.5 218.5L471 257M214 83L340 166M526.5 441L619.5 381M356 332.5L473 254.5M415.5 365.5L533 441" stroke="#9DE8D2" stroke-width="12"/>
<path d="M154 323L200.5 293L247 263L293.5 291M498 158.5L405 218.5L471.5 257M214.5 83L353 173M527 441L620 381M356.5 332.5L473.5 254.5M416 365.5L533.5 441M319 257L272 228L356.5 173" stroke="#9DE8D2" stroke-width="12"/>
<path fill-rule="evenodd" clip-rule="evenodd" d="M349.817 168.395C351.982 164.212 358.668 168.072 360.832 174.754L426.37 377.094C428.218 382.798 425.284 386.392 420.863 383.84L410.803 378.031L360.832 223.754C358.668 217.072 351.982 213.212 349.817 217.395L299.847 313.971L289.787 308.162C285.366 305.61 282.432 298.628 284.279 295.057L349.817 168.395Z" fill="url(#paint0_linear_395_11916)"/>
<rect width="14" height="74" transform="matrix(-2.20305e-08 1 -0.866026 -0.5 387.368 276.251)" fill="url(#paint1_linear_395_11916)"/>
<rect width="14" height="74" transform="matrix(-2.20305e-08 1 -0.866026 -0.5 387.368 262.251)" fill="url(#paint2_linear_395_11916)"/>
<rect width="14" height="44" transform="matrix(-2.20305e-08 1 -0.866026 -0.5 374.377 247.751)" fill="url(#paint3_linear_395_11916)"/>
<rect width="5" height="16" transform="matrix(0.866025 0.5 -2.20305e-08 1 327.612 230.751)" fill="white"/>
<rect width="7" height="16" transform="matrix(0.866025 0.5 -2.20305e-08 1 334.541 234.751)" fill="white"/>
<rect width="9" height="16" transform="matrix(0.866025 0.5 -2.20305e-08 1 343.201 239.751)" fill="white"/>
<rect width="7" height="16" transform="matrix(0.866025 0.5 -2.20305e-08 1 370.047 255.251)" fill="white"/>
<rect width="9" height="16" transform="matrix(0.866025 0.5 -2.20305e-08 1 359.655 249.251)" fill="white"/>
<rect width="5" height="16" transform="matrix(0.866025 0.5 -2.20305e-08 1 378.708 260.251)" fill="white"/>
<path d="M327.612 243.751L329.112 247.617L326.112 245.885L327.612 243.751Z" fill="#5BCBA9"/>
<path d="M383.038 275.751L384.538 279.617L381.538 277.885L383.038 275.751Z" fill="#55ABB1"/>
<path d="M381.538 261.885L384.538 263.617L383.038 265.751L381.538 261.885Z" fill="#61ABB5"/>
<path d="M325.88 229.483L328.88 231.215L327.38 233.349L325.88 229.483Z" fill="#5BCBA9"/>
<path d="M323.282 246.251L327.032 255.916L319.532 251.586L323.282 246.251Z" fill="#AAA9A9"/>
<path d="M387.368 283.251L383.618 288.586L391.118 292.916L387.368 283.251Z" fill="url(#paint4_linear_395_11916)"/>
<path d="M328.831 228.262L323.093 228.726L322.694 221.901L328.831 228.262Z" fill="#ABAAAA"/>
<path d="M341.821 228.762L336.084 229.226L335.684 222.401L341.821 228.762Z" fill="#A6A6A6"/>
<path d="M369.412 244.692L375.149 251.781L375.549 245.417L369.412 244.692Z" fill="#9D9999"/>
<rect width="14" height="74" transform="matrix(-2.20305e-08 1 -0.866026 -0.5 387.368 276.251)" fill="url(#paint5_linear_395_11916)"/>
<rect width="14" height="74" transform="matrix(-2.20305e-08 1 -0.866026 -0.5 387.368 262.251)" fill="url(#paint6_linear_395_11916)"/>
<rect width="14" height="44" transform="matrix(-2.20305e-08 1 -0.866026 -0.5 374.377 247.751)" fill="url(#paint7_linear_395_11916)"/>
<rect width="5" height="16" transform="matrix(0.866025 0.5 -2.20305e-08 1 327.612 230.751)" fill="white"/>
<rect width="7" height="16" transform="matrix(0.866025 0.5 -2.20305e-08 1 334.541 234.751)" fill="white"/>
<rect width="9" height="16" transform="matrix(0.866025 0.5 -2.20305e-08 1 343.201 239.751)" fill="white"/>
<rect width="7" height="16" transform="matrix(0.866025 0.5 -2.20305e-08 1 370.047 255.251)" fill="white"/>
<rect width="9" height="16" transform="matrix(0.866025 0.5 -2.20305e-08 1 359.655 249.251)" fill="white"/>
<rect width="5" height="16" transform="matrix(0.866025 0.5 -2.20305e-08 1 378.708 260.251)" fill="white"/>
<path d="M327.612 243.751L329.112 247.617L326.112 245.885L327.612 243.751Z" fill="#5BCBA9"/>
<path d="M383.038 275.751L384.538 279.617L381.538 277.885L383.038 275.751Z" fill="#55ABB1"/>
<path d="M381.538 261.885L384.538 263.617L383.038 265.751L381.538 261.885Z" fill="#61ABB5"/>
<path d="M325.88 229.483L328.88 231.215L327.38 233.349L325.88 229.483Z" fill="#5BCBA9"/>
<path d="M323.282 246.251L327.032 255.916L319.532 251.586L323.282 246.251Z" fill="#AAA9A9"/>
<path d="M387.368 283.251L383.618 288.586L391.118 292.916L387.368 283.251Z" fill="url(#paint8_linear_395_11916)"/>
<path d="M328.831 228.262L323.093 228.726L322.694 221.901L328.831 228.262Z" fill="#ABAAAA"/>
<path d="M341.821 228.762L336.084 229.226L335.684 222.401L341.821 228.762Z" fill="#A6A6A6"/>
<path d="M369.412 244.692L375.149 251.781L375.549 245.417L369.412 244.692Z" fill="#9D9999"/>
<rect width="14" height="74" transform="matrix(-2.20305e-08 1 -0.866026 -0.5 387.368 276.251)" fill="url(#paint9_linear_395_11916)"/>
<rect width="14" height="74" transform="matrix(-2.20305e-08 1 -0.866026 -0.5 387.368 262.251)" fill="url(#paint10_linear_395_11916)"/>
<rect width="14" height="44" transform="matrix(-2.20305e-08 1 -0.866026 -0.5 374.377 247.751)" fill="url(#paint11_linear_395_11916)"/>
<rect width="5" height="16" transform="matrix(0.866025 0.5 -2.20305e-08 1 327.612 230.751)" fill="white"/>
<rect width="7" height="16" transform="matrix(0.866025 0.5 -2.20305e-08 1 334.541 234.751)" fill="white"/>
<rect width="9" height="16" transform="matrix(0.866025 0.5 -2.20305e-08 1 343.201 239.751)" fill="white"/>
<rect width="7" height="16" transform="matrix(0.866025 0.5 -2.20305e-08 1 370.047 255.251)" fill="white"/>
<rect width="9" height="16" transform="matrix(0.866025 0.5 -2.20305e-08 1 359.655 249.251)" fill="white"/>
<rect width="5" height="16" transform="matrix(0.866025 0.5 -2.20305e-08 1 378.708 260.251)" fill="white"/>
<path d="M327.612 243.751L329.112 247.617L326.112 245.885L327.612 243.751Z" fill="#5BCBA9"/>
<path d="M383.038 275.751L384.538 279.617L381.538 277.885L383.038 275.751Z" fill="#55ABB1"/>
<path d="M381.538 261.885L384.538 263.617L383.038 265.751L381.538 261.885Z" fill="#61ABB5"/>
<path d="M325.88 229.483L328.88 231.215L327.38 233.349L325.88 229.483Z" fill="#5BCBA9"/>
<path d="M323.282 246.251L327.032 255.916L319.532 251.586L323.282 246.251Z" fill="#AAA9A9"/>
<path d="M387.368 283.251L383.618 288.586L391.118 292.916L387.368 283.251Z" fill="url(#paint12_linear_395_11916)"/>
<path d="M328.831 228.262L323.093 228.726L322.694 221.901L328.831 228.262Z" fill="#ABAAAA"/>
<path d="M341.821 228.762L336.084 229.226L335.684 222.401L341.821 228.762Z" fill="#A6A6A6"/>
<path d="M369.412 244.692L375.149 251.781L375.549 245.417L369.412 244.692Z" fill="#9D9999"/>
<rect width="14" height="80" rx="7" transform="matrix(0.866025 0.5 -2.20305e-08 1 349.263 262.251)" fill="url(#paint13_linear_395_11916)"/>
<rect width="14" height="74" transform="matrix(-2.20305e-08 1 -0.866026 -0.5 387.368 276.251)" fill="url(#paint14_linear_395_11916)"/>
<rect width="14" height="74" transform="matrix(-2.20305e-08 1 -0.866026 -0.5 387.368 262.251)" fill="url(#paint15_linear_395_11916)"/>
<rect width="14" height="44" transform="matrix(-2.20305e-08 1 -0.866026 -0.5 374.377 247.751)" fill="url(#paint16_linear_395_11916)"/>
<rect width="5" height="16" transform="matrix(0.866025 0.5 -2.20305e-08 1 327.612 230.751)" fill="white"/>
<rect width="7" height="16" transform="matrix(0.866025 0.5 -2.20305e-08 1 334.541 234.751)" fill="white"/>
<rect width="9" height="16" transform="matrix(0.866025 0.5 -2.20305e-08 1 343.201 239.751)" fill="white"/>
<rect width="7" height="16" transform="matrix(0.866025 0.5 -2.20305e-08 1 370.047 255.251)" fill="white"/>
<rect width="9" height="16" transform="matrix(0.866025 0.5 -2.20305e-08 1 359.655 249.251)" fill="white"/>
<rect width="5" height="16" transform="matrix(0.866025 0.5 -2.20305e-08 1 378.708 260.251)" fill="white"/>
<path d="M327.612 243.751L329.112 247.617L326.112 245.885L327.612 243.751Z" fill="#5BCBA9"/>
<path d="M383.038 275.751L384.538 279.617L381.538 277.885L383.038 275.751Z" fill="#55ABB1"/>
<path d="M381.538 261.885L384.538 263.617L383.038 265.751L381.538 261.885Z" fill="#61ABB5"/>
<path d="M325.88 229.483L328.88 231.215L327.38 233.349L325.88 229.483Z" fill="#5BCBA9"/>
<path d="M323.282 246.251L327.032 255.916L319.532 251.586L323.282 246.251Z" fill="#5BCBA9"/>
<path d="M387.368 283.251L383.618 288.586L391.118 292.916L387.368 283.251Z" fill="#54AEBA"/>
<path d="M328.831 228.262L323.093 228.726L322.694 221.901L328.831 228.262Z" fill="#5BCBA9"/>
<path d="M382.39 259.387L387.719 266.031L388.097 260.007L382.39 259.387Z" fill="#54AEBA"/>
<path d="M341.821 228.762L336.084 229.226L335.684 222.401L341.821 228.762Z" fill="#5BC6A6"/>
<path d="M369.412 244.692L375.149 251.781L375.549 245.417L369.412 244.692Z" fill="#54B4BA"/>
<g clip-path="url(#clip0_395_11916)">
<path d="M434.025 415.062L439.582 418.271L439.582 405.437L450.696 411.854L450.696 405.437L439.582 399.021L439.582 386.187L434.025 382.979L434.025 395.812L422.911 389.396L422.911 395.812L434.025 402.229L434.025 415.062ZM436.804 432.708C432.96 430.489 429.348 427.562 425.967 423.926C422.587 420.289 419.646 416.306 417.146 411.974C414.645 407.643 412.665 403.105 411.207 398.359C409.748 393.613 409.019 389.022 409.019 384.583C409.019 380.145 409.748 376.395 411.207 373.334C412.665 370.273 414.645 368.02 417.146 366.577C419.646 365.133 422.587 364.545 425.967 364.812C429.348 365.079 432.96 366.323 436.804 368.542C440.647 370.761 444.259 373.688 447.64 377.324C451.02 380.961 453.961 384.944 456.461 389.276C458.962 393.607 460.942 398.145 462.4 402.891C463.859 407.637 464.589 412.228 464.589 416.667C464.589 421.105 463.859 424.855 462.4 427.916C460.942 430.977 458.962 433.23 456.461 434.673C453.961 436.117 451.02 436.705 447.64 436.438C444.259 436.171 440.647 434.927 436.804 432.708Z" fill="#C2C2C2"/>
</g>
<path fill-rule="evenodd" clip-rule="evenodd" d="M168.117 40.1712C170.277 35.9702 176.98 39.8406 179.141 46.5358L202.732 119.655C204.454 124.992 201.988 128.474 198.04 126.798L179.141 68.222C176.98 61.5267 170.277 57.6564 168.117 61.8573L149.218 98.6109C145.269 95.7277 142.804 89.3987 144.526 86.0498L168.117 40.1712Z" fill="url(#paint17_linear_395_11916)"/>
<rect width="6.19604" height="32.5935" transform="matrix(-2.20305e-08 1 -0.866025 -0.5 187.742 81.8576)" fill="url(#paint18_linear_395_11916)"/>
<rect width="6.19604" height="32.5935" transform="matrix(-2.20305e-08 1 -0.866025 -0.5 187.742 75.6616)" fill="url(#paint19_linear_395_11916)"/>
<rect width="6.19604" height="19.3799" transform="matrix(-2.20305e-08 1 -0.866025 -0.5 182.021 69.2602)" fill="url(#paint20_linear_395_11916)"/>
<rect width="2.20226" height="7.08119" transform="matrix(0.866025 0.5 -2.20305e-08 1 161.423 61.7937)" fill="white"/>
<rect width="3.08317" height="7.08119" transform="matrix(0.866025 0.5 -2.20305e-08 1 164.474 63.5555)" fill="white"/>
<rect width="3.96407" height="7.08119" transform="matrix(0.866025 0.5 -2.20305e-08 1 168.289 65.7578)" fill="white"/>
<rect width="3.08317" height="7.08119" transform="matrix(0.866025 0.5 -2.20305e-08 1 180.113 72.5848)" fill="white"/>
<rect width="3.96407" height="7.08119" transform="matrix(0.866025 0.5 -2.20305e-08 1 175.536 69.9421)" fill="white"/>
<rect width="2.20226" height="7.08119" transform="matrix(0.866025 0.5 -2.20305e-08 1 183.928 74.787)" fill="white"/>
<path d="M161.423 67.5472L162.083 69.2563L160.762 68.4935L161.423 67.5472Z" fill="#5BCBA9"/>
<path d="M185.835 81.6417L186.496 83.3508L185.174 82.5879L185.835 81.6417Z" fill="#55ABB1"/>
<path d="M185.174 75.5067L186.496 76.2696L185.835 77.2159L185.174 75.5067Z" fill="#61ABB5"/>
<path d="M160.66 61.2347L161.981 61.9976L161.32 62.9438L160.66 61.2347Z" fill="#5BCBA9"/>
<path d="M159.516 68.6589L161.167 72.9318L157.864 71.0246L159.516 68.6589Z" fill="#AAA9A9"/>
<path d="M187.742 84.9557L186.091 87.3214L189.394 89.2286L187.742 84.9557Z" fill="url(#paint21_linear_395_11916)"/>
<path d="M161.959 60.6906L159.432 60.9031L159.257 57.8829L161.959 60.6906Z" fill="#ABAAAA"/>
<path d="M167.681 60.896L165.154 61.1084L164.978 58.0883L167.681 60.896Z" fill="#A6A6A6"/>
<path d="M179.834 67.9122L182.361 71.0427L182.536 68.2256L179.834 67.9122Z" fill="#9D9999"/>
<rect width="6.19604" height="32.5935" transform="matrix(-2.20305e-08 1 -0.866025 -0.5 187.742 81.8576)" fill="url(#paint22_linear_395_11916)"/>
<rect width="6.19604" height="32.5935" transform="matrix(-2.20305e-08 1 -0.866025 -0.5 187.742 75.6616)" fill="url(#paint23_linear_395_11916)"/>
<rect width="6.19604" height="19.3799" transform="matrix(-2.20305e-08 1 -0.866025 -0.5 182.021 69.2602)" fill="url(#paint24_linear_395_11916)"/>
<rect width="2.20226" height="7.08119" transform="matrix(0.866025 0.5 -2.20305e-08 1 161.423 61.7937)" fill="white"/>
<rect width="3.08317" height="7.08119" transform="matrix(0.866025 0.5 -2.20305e-08 1 164.474 63.5555)" fill="white"/>
<rect width="3.96407" height="7.08119" transform="matrix(0.866025 0.5 -2.20305e-08 1 168.289 65.7578)" fill="white"/>
<rect width="3.08317" height="7.08119" transform="matrix(0.866025 0.5 -2.20305e-08 1 180.113 72.5848)" fill="white"/>
<rect width="3.96407" height="7.08119" transform="matrix(0.866025 0.5 -2.20305e-08 1 175.536 69.9421)" fill="white"/>
<rect width="2.20226" height="7.08119" transform="matrix(0.866025 0.5 -2.20305e-08 1 183.928 74.787)" fill="white"/>
<path d="M161.423 67.5472L162.083 69.2563L160.762 68.4935L161.423 67.5472Z" fill="#5BCBA9"/>
<path d="M185.835 81.6417L186.496 83.3508L185.174 82.5879L185.835 81.6417Z" fill="#55ABB1"/>
<path d="M185.174 75.5067L186.496 76.2696L185.835 77.2159L185.174 75.5067Z" fill="#61ABB5"/>
<path d="M160.66 61.2347L161.981 61.9976L161.32 62.9438L160.66 61.2347Z" fill="#5BCBA9"/>
<path d="M159.516 68.6589L161.167 72.9318L157.864 71.0246L159.516 68.6589Z" fill="#AAA9A9"/>
<path d="M187.742 84.9557L186.091 87.3214L189.394 89.2286L187.742 84.9557Z" fill="url(#paint25_linear_395_11916)"/>
<path d="M161.959 60.6906L159.432 60.9031L159.257 57.8829L161.959 60.6906Z" fill="#ABAAAA"/>
<path d="M167.681 60.896L165.154 61.1084L164.978 58.0883L167.681 60.896Z" fill="#A6A6A6"/>
<path d="M179.834 67.9122L182.361 71.0427L182.536 68.2256L179.834 67.9122Z" fill="#9D9999"/>
<rect width="6.19604" height="32.5935" transform="matrix(-2.20305e-08 1 -0.866025 -0.5 187.742 81.8576)" fill="url(#paint26_linear_395_11916)"/>
<rect width="6.19604" height="32.5935" transform="matrix(-2.20305e-08 1 -0.866025 -0.5 187.742 75.6616)" fill="url(#paint27_linear_395_11916)"/>
<rect width="6.19604" height="19.3799" transform="matrix(-2.20305e-08 1 -0.866025 -0.5 182.021 69.2602)" fill="url(#paint28_linear_395_11916)"/>
<rect width="2.20226" height="7.08119" transform="matrix(0.866025 0.5 -2.20305e-08 1 161.423 61.7937)" fill="white"/>
<rect width="3.08317" height="7.08119" transform="matrix(0.866025 0.5 -2.20305e-08 1 164.474 63.5555)" fill="white"/>
<rect width="3.96407" height="7.08119" transform="matrix(0.866025 0.5 -2.20305e-08 1 168.289 65.7578)" fill="white"/>
<rect width="3.08317" height="7.08119" transform="matrix(0.866025 0.5 -2.20305e-08 1 180.113 72.5848)" fill="white"/>
<rect width="3.96407" height="7.08119" transform="matrix(0.866025 0.5 -2.20305e-08 1 175.536 69.9421)" fill="white"/>
<rect width="2.20226" height="7.08119" transform="matrix(0.866025 0.5 -2.20305e-08 1 183.928 74.787)" fill="white"/>
<path d="M161.423 67.5472L162.083 69.2563L160.762 68.4935L161.423 67.5472Z" fill="#5BCBA9"/>
<path d="M185.835 81.6417L186.496 83.3508L185.174 82.5879L185.835 81.6417Z" fill="#55ABB1"/>
<path d="M185.174 75.5067L186.496 76.2696L185.835 77.2159L185.174 75.5067Z" fill="#61ABB5"/>
<path d="M160.66 61.2347L161.981 61.9976L161.32 62.9438L160.66 61.2347Z" fill="#5BCBA9"/>
<path d="M159.516 68.6589L161.167 72.9318L157.864 71.0246L159.516 68.6589Z" fill="#AAA9A9"/>
<path d="M187.742 84.9557L186.091 87.3214L189.394 89.2286L187.742 84.9557Z" fill="url(#paint29_linear_395_11916)"/>
<path d="M161.959 60.6906L159.432 60.9031L159.257 57.8829L161.959 60.6906Z" fill="#ABAAAA"/>
<path d="M167.681 60.896L165.154 61.1084L164.978 58.0883L167.681 60.896Z" fill="#A6A6A6"/>
<path d="M179.834 67.9122L182.361 71.0427L182.536 68.2256L179.834 67.9122Z" fill="#9D9999"/>
<rect width="6.16634" height="35.406" rx="3.08317" transform="matrix(0.866025 0.5 -2.20305e-08 1 170.958 75.7083)" fill="url(#paint30_linear_395_11916)"/>
<rect width="6.19604" height="32.5935" transform="matrix(-2.20305e-08 1 -0.866025 -0.5 187.742 81.8576)" fill="url(#paint31_linear_395_11916)"/>
<rect width="6.19604" height="32.5935" transform="matrix(-2.20305e-08 1 -0.866025 -0.5 187.742 75.6616)" fill="url(#paint32_linear_395_11916)"/>
<rect width="6.19604" height="19.3799" transform="matrix(-2.20305e-08 1 -0.866025 -0.5 182.021 69.2602)" fill="url(#paint33_linear_395_11916)"/>
<rect width="2.20226" height="7.08119" transform="matrix(0.866025 0.5 -2.20305e-08 1 161.423 61.7937)" fill="white"/>
<rect width="3.08317" height="7.08119" transform="matrix(0.866025 0.5 -2.20305e-08 1 164.474 63.5555)" fill="white"/>
<rect width="3.96407" height="7.08119" transform="matrix(0.866025 0.5 -2.20305e-08 1 168.289 65.7578)" fill="white"/>
<rect width="3.08317" height="7.08119" transform="matrix(0.866025 0.5 -2.20305e-08 1 180.113 72.5848)" fill="white"/>
<rect width="3.96407" height="7.08119" transform="matrix(0.866025 0.5 -2.20305e-08 1 175.536 69.9421)" fill="white"/>
<rect width="2.20226" height="7.08119" transform="matrix(0.866025 0.5 -2.20305e-08 1 183.928 74.787)" fill="white"/>
<path d="M161.423 67.5472L162.083 69.2563L160.762 68.4935L161.423 67.5472Z" fill="#5BCBA9"/>
<path d="M185.835 81.6417L186.496 83.3508L185.174 82.5879L185.835 81.6417Z" fill="#55ABB1"/>
<path d="M185.174 75.5067L186.496 76.2696L185.835 77.2159L185.174 75.5067Z" fill="#61ABB5"/>
<path d="M160.66 61.2347L161.981 61.9976L161.32 62.9438L160.66 61.2347Z" fill="#5BCBA9"/>
<path d="M159.516 68.6589L161.167 72.9318L157.864 71.0246L159.516 68.6589Z" fill="#5BCBA9"/>
<path d="M187.742 84.9557L186.091 87.3214L189.394 89.2286L187.742 84.9557Z" fill="#54AEBA"/>
<path d="M161.959 60.6906L159.432 60.9031L159.257 57.8829L161.959 60.6906Z" fill="#5BCBA9"/>
<path d="M185.55 74.4003L187.897 77.3343L188.064 74.6674L185.55 74.4003Z" fill="#54AEBA"/>
<path d="M167.681 60.896L165.154 61.1084L164.978 58.0883L167.681 60.896Z" fill="#5BC6A6"/>
<path d="M179.834 67.9122L182.361 71.0427L182.536 68.2256L179.834 67.9122Z" fill="#54B4BA"/>
<path d="M173.6 25.75L131.598 29.9179L131.598 86.7537L173.6 137.75L215.603 135.254L215.603 78.4179L173.6 25.75Z" stroke="url(#paint34_linear_395_11916)" stroke-width="12"/>
<path fill-rule="evenodd" clip-rule="evenodd" d="M102.117 285.171C104.277 280.97 110.981 284.841 113.141 291.536L136.732 364.655C138.454 369.992 135.988 373.474 132.04 371.798L113.141 313.222C110.981 306.527 104.277 302.656 102.117 306.857L83.218 343.611C79.2694 340.728 76.8038 334.399 78.5258 331.05L102.117 285.171Z" fill="url(#paint35_linear_395_11916)"/>
<rect width="6.19604" height="32.5935" transform="matrix(-2.20305e-08 1 -0.866025 -0.5 121.742 326.858)" fill="url(#paint36_linear_395_11916)"/>
<rect width="6.19604" height="32.5935" transform="matrix(-2.20305e-08 1 -0.866025 -0.5 121.742 320.662)" fill="url(#paint37_linear_395_11916)"/>
<rect width="6.19604" height="19.3799" transform="matrix(-2.20305e-08 1 -0.866025 -0.5 116.021 314.26)" fill="url(#paint38_linear_395_11916)"/>
<rect width="2.20226" height="7.08119" transform="matrix(0.866025 0.5 -2.20305e-08 1 95.4226 306.794)" fill="white"/>
<rect width="3.08317" height="7.08119" transform="matrix(0.866025 0.5 -2.20305e-08 1 98.4741 308.556)" fill="white"/>
<rect width="3.96407" height="7.08119" transform="matrix(0.866025 0.5 -2.20305e-08 1 102.289 310.758)" fill="white"/>
<rect width="3.08317" height="7.08119" transform="matrix(0.866025 0.5 -2.20305e-08 1 114.113 317.585)" fill="white"/>
<rect width="3.96407" height="7.08119" transform="matrix(0.866025 0.5 -2.20305e-08 1 109.536 314.942)" fill="white"/>
<rect width="2.20226" height="7.08119" transform="matrix(0.866025 0.5 -2.20305e-08 1 117.928 319.787)" fill="white"/>
<path d="M95.4226 312.547L96.0832 314.256L94.7619 313.493L95.4226 312.547Z" fill="#5BCBA9"/>
<path d="M119.835 326.642L120.496 328.351L119.174 327.588L119.835 326.642Z" fill="#55ABB1"/>
<path d="M119.174 320.507L120.496 321.27L119.835 322.216L119.174 320.507Z" fill="#61ABB5"/>
<path d="M94.6598 306.235L95.9811 306.998L95.3204 307.944L94.6598 306.235Z" fill="#5BCBA9"/>
<path d="M93.5154 313.659L95.1671 317.932L91.8637 316.025L93.5154 313.659Z" fill="#AAA9A9"/>
<path d="M121.742 329.956L120.091 332.321L123.394 334.229L121.742 329.956Z" fill="url(#paint39_linear_395_11916)"/>
<path d="M95.9592 305.691L93.4322 305.903L93.2563 302.883L95.9592 305.691Z" fill="#ABAAAA"/>
<path d="M101.681 305.896L99.1538 306.108L98.978 303.088L101.681 305.896Z" fill="#A6A6A6"/>
<path d="M113.834 312.912L116.361 316.043L116.536 313.226L113.834 312.912Z" fill="#9D9999"/>
<rect width="6.19604" height="32.5935" transform="matrix(-2.20305e-08 1 -0.866025 -0.5 121.742 326.858)" fill="url(#paint40_linear_395_11916)"/>
<rect width="6.19604" height="32.5935" transform="matrix(-2.20305e-08 1 -0.866025 -0.5 121.742 320.662)" fill="url(#paint41_linear_395_11916)"/>
<rect width="6.19604" height="19.3799" transform="matrix(-2.20305e-08 1 -0.866025 -0.5 116.021 314.26)" fill="url(#paint42_linear_395_11916)"/>
<rect width="2.20226" height="7.08119" transform="matrix(0.866025 0.5 -2.20305e-08 1 95.4226 306.794)" fill="white"/>
<rect width="3.08317" height="7.08119" transform="matrix(0.866025 0.5 -2.20305e-08 1 98.4741 308.556)" fill="white"/>
<rect width="3.96407" height="7.08119" transform="matrix(0.866025 0.5 -2.20305e-08 1 102.289 310.758)" fill="white"/>
<rect width="3.08317" height="7.08119" transform="matrix(0.866025 0.5 -2.20305e-08 1 114.113 317.585)" fill="white"/>
<rect width="3.96407" height="7.08119" transform="matrix(0.866025 0.5 -2.20305e-08 1 109.536 314.942)" fill="white"/>
<rect width="2.20226" height="7.08119" transform="matrix(0.866025 0.5 -2.20305e-08 1 117.928 319.787)" fill="white"/>
<path d="M95.4226 312.547L96.0832 314.256L94.7619 313.493L95.4226 312.547Z" fill="#5BCBA9"/>
<path d="M119.835 326.642L120.496 328.351L119.174 327.588L119.835 326.642Z" fill="#55ABB1"/>
<path d="M119.174 320.507L120.496 321.27L119.835 322.216L119.174 320.507Z" fill="#61ABB5"/>
<path d="M94.6598 306.235L95.9811 306.998L95.3204 307.944L94.6598 306.235Z" fill="#5BCBA9"/>
<path d="M93.5154 313.659L95.1671 317.932L91.8637 316.025L93.5154 313.659Z" fill="#AAA9A9"/>
<path d="M121.742 329.956L120.091 332.321L123.394 334.229L121.742 329.956Z" fill="url(#paint43_linear_395_11916)"/>
<path d="M95.9592 305.691L93.4322 305.903L93.2563 302.883L95.9592 305.691Z" fill="#ABAAAA"/>
<path d="M101.681 305.896L99.1538 306.108L98.978 303.088L101.681 305.896Z" fill="#A6A6A6"/>
<path d="M113.834 312.912L116.361 316.043L116.536 313.226L113.834 312.912Z" fill="#9D9999"/>
<rect width="6.19604" height="32.5935" transform="matrix(-2.20305e-08 1 -0.866025 -0.5 121.742 326.858)" fill="url(#paint44_linear_395_11916)"/>
<rect width="6.19604" height="32.5935" transform="matrix(-2.20305e-08 1 -0.866025 -0.5 121.742 320.662)" fill="url(#paint45_linear_395_11916)"/>
<rect width="6.19604" height="19.3799" transform="matrix(-2.20305e-08 1 -0.866025 -0.5 116.021 314.26)" fill="url(#paint46_linear_395_11916)"/>
<rect width="2.20226" height="7.08119" transform="matrix(0.866025 0.5 -2.20305e-08 1 95.4226 306.794)" fill="white"/>
<rect width="3.08317" height="7.08119" transform="matrix(0.866025 0.5 -2.20305e-08 1 98.4741 308.556)" fill="white"/>
<rect width="3.96407" height="7.08119" transform="matrix(0.866025 0.5 -2.20305e-08 1 102.289 310.758)" fill="white"/>
<rect width="3.08317" height="7.08119" transform="matrix(0.866025 0.5 -2.20305e-08 1 114.113 317.585)" fill="white"/>
<rect width="3.96407" height="7.08119" transform="matrix(0.866025 0.5 -2.20305e-08 1 109.536 314.942)" fill="white"/>
<rect width="2.20226" height="7.08119" transform="matrix(0.866025 0.5 -2.20305e-08 1 117.928 319.787)" fill="white"/>
<path d="M95.4226 312.547L96.0832 314.256L94.7619 313.493L95.4226 312.547Z" fill="#5BCBA9"/>
<path d="M119.835 326.642L120.496 328.351L119.174 327.588L119.835 326.642Z" fill="#55ABB1"/>
<path d="M119.174 320.507L120.496 321.27L119.835 322.216L119.174 320.507Z" fill="#61ABB5"/>
<path d="M94.6598 306.235L95.9811 306.998L95.3204 307.944L94.6598 306.235Z" fill="#5BCBA9"/>
<path d="M93.5154 313.659L95.1671 317.932L91.8637 316.025L93.5154 313.659Z" fill="#AAA9A9"/>
<path d="M121.742 329.956L120.091 332.321L123.394 334.229L121.742 329.956Z" fill="url(#paint47_linear_395_11916)"/>
<path d="M95.9592 305.691L93.4322 305.903L93.2563 302.883L95.9592 305.691Z" fill="#ABAAAA"/>
<path d="M101.681 305.896L99.1538 306.108L98.978 303.088L101.681 305.896Z" fill="#A6A6A6"/>
<path d="M113.834 312.912L116.361 316.043L116.536 313.226L113.834 312.912Z" fill="#9D9999"/>
<rect width="6.16634" height="35.406" rx="3.08317" transform="matrix(0.866025 0.5 -2.20305e-08 1 104.959 320.708)" fill="url(#paint48_linear_395_11916)"/>
<rect width="6.19604" height="32.5935" transform="matrix(-2.20305e-08 1 -0.866025 -0.5 121.742 326.858)" fill="url(#paint49_linear_395_11916)"/>
<rect width="6.19604" height="32.5935" transform="matrix(-2.20305e-08 1 -0.866025 -0.5 121.742 320.662)" fill="url(#paint50_linear_395_11916)"/>
<rect width="6.19604" height="19.3799" transform="matrix(-2.20305e-08 1 -0.866025 -0.5 116.021 314.26)" fill="url(#paint51_linear_395_11916)"/>
<rect width="2.20226" height="7.08119" transform="matrix(0.866025 0.5 -2.20305e-08 1 95.4226 306.794)" fill="white"/>
<rect width="3.08317" height="7.08119" transform="matrix(0.866025 0.5 -2.20305e-08 1 98.4741 308.556)" fill="white"/>
<rect width="3.96407" height="7.08119" transform="matrix(0.866025 0.5 -2.20305e-08 1 102.289 310.758)" fill="white"/>
<rect width="3.08317" height="7.08119" transform="matrix(0.866025 0.5 -2.20305e-08 1 114.113 317.585)" fill="white"/>
<rect width="3.96407" height="7.08119" transform="matrix(0.866025 0.5 -2.20305e-08 1 109.536 314.942)" fill="white"/>
<rect width="2.20226" height="7.08119" transform="matrix(0.866025 0.5 -2.20305e-08 1 117.928 319.787)" fill="white"/>
<path d="M95.4226 312.547L96.0832 314.256L94.7619 313.493L95.4226 312.547Z" fill="#5BCBA9"/>
<path d="M119.835 326.642L120.496 328.351L119.174 327.588L119.835 326.642Z" fill="#55ABB1"/>
<path d="M119.174 320.507L120.496 321.27L119.835 322.216L119.174 320.507Z" fill="#61ABB5"/>
<path d="M94.6598 306.235L95.9811 306.998L95.3204 307.944L94.6598 306.235Z" fill="#5BCBA9"/>
<path d="M93.5154 313.659L95.1671 317.932L91.8637 316.025L93.5154 313.659Z" fill="#5BCBA9"/>
<path d="M121.742 329.956L120.091 332.321L123.394 334.229L121.742 329.956Z" fill="#54AEBA"/>
<path d="M95.9592 305.691L93.4322 305.903L93.2563 302.883L95.9592 305.691Z" fill="#5BCBA9"/>
<path d="M119.55 319.4L121.897 322.334L122.063 319.667L119.55 319.4Z" fill="#54AEBA"/>
<path d="M101.681 305.896L99.1538 306.108L98.978 303.088L101.681 305.896Z" fill="#5BC6A6"/>
<path d="M113.834 312.912L116.361 316.043L116.536 313.226L113.834 312.912Z" fill="#54B4BA"/>
<path d="M107.6 270.75L65.5981 274.918L65.5981 331.754L107.6 382.75L149.603 380.254L149.603 323.418L107.6 270.75Z" stroke="url(#paint52_linear_395_11916)" stroke-width="12"/>
<path fill-rule="evenodd" clip-rule="evenodd" d="M610.117 285.171C612.277 280.97 618.98 284.841 621.141 291.536L644.732 364.655C646.454 369.992 643.988 373.474 640.04 371.798L621.141 313.222C618.98 306.527 612.277 302.656 610.117 306.857L591.218 343.611C587.269 340.728 584.804 334.399 586.526 331.05L610.117 285.171Z" fill="url(#paint53_linear_395_11916)"/>
<rect width="6.19604" height="32.5935" transform="matrix(-2.20305e-08 1 -0.866025 -0.5 629.742 326.858)" fill="url(#paint54_linear_395_11916)"/>
<rect width="6.19604" height="32.5935" transform="matrix(-2.20305e-08 1 -0.866025 -0.5 629.742 320.662)" fill="url(#paint55_linear_395_11916)"/>
<rect width="6.19604" height="19.3799" transform="matrix(-2.20305e-08 1 -0.866025 -0.5 624.021 314.26)" fill="url(#paint56_linear_395_11916)"/>
<rect width="2.20226" height="7.08119" transform="matrix(0.866025 0.5 -2.20305e-08 1 603.423 306.794)" fill="white"/>
<rect width="3.08317" height="7.08119" transform="matrix(0.866025 0.5 -2.20305e-08 1 606.474 308.556)" fill="white"/>
<rect width="3.96407" height="7.08119" transform="matrix(0.866025 0.5 -2.20305e-08 1 610.289 310.758)" fill="white"/>
<rect width="3.08317" height="7.08119" transform="matrix(0.866025 0.5 -2.20305e-08 1 622.113 317.585)" fill="white"/>
<rect width="3.96407" height="7.08119" transform="matrix(0.866025 0.5 -2.20305e-08 1 617.536 314.942)" fill="white"/>
<rect width="2.20226" height="7.08119" transform="matrix(0.866025 0.5 -2.20305e-08 1 625.928 319.787)" fill="white"/>
<path d="M603.423 312.547L604.083 314.256L602.762 313.493L603.423 312.547Z" fill="#5BCBA9"/>
<path d="M627.835 326.642L628.496 328.351L627.174 327.588L627.835 326.642Z" fill="#55ABB1"/>
<path d="M627.174 320.507L628.496 321.27L627.835 322.216L627.174 320.507Z" fill="#61ABB5"/>
<path d="M602.66 306.235L603.981 306.998L603.32 307.944L602.66 306.235Z" fill="#5BCBA9"/>
<path d="M601.516 313.659L603.167 317.932L599.864 316.025L601.516 313.659Z" fill="#AAA9A9"/>
<path d="M629.742 329.956L628.091 332.321L631.394 334.229L629.742 329.956Z" fill="url(#paint57_linear_395_11916)"/>
<path d="M603.959 305.691L601.432 305.903L601.257 302.883L603.959 305.691Z" fill="#ABAAAA"/>
<path d="M609.681 305.896L607.154 306.108L606.978 303.088L609.681 305.896Z" fill="#A6A6A6"/>
<path d="M621.834 312.912L624.361 316.043L624.536 313.226L621.834 312.912Z" fill="#9D9999"/>
<rect width="6.19604" height="32.5935" transform="matrix(-2.20305e-08 1 -0.866025 -0.5 629.742 326.858)" fill="url(#paint58_linear_395_11916)"/>
<rect width="6.19604" height="32.5935" transform="matrix(-2.20305e-08 1 -0.866025 -0.5 629.742 320.662)" fill="url(#paint59_linear_395_11916)"/>
<rect width="6.19604" height="19.3799" transform="matrix(-2.20305e-08 1 -0.866025 -0.5 624.021 314.26)" fill="url(#paint60_linear_395_11916)"/>
<rect width="2.20226" height="7.08119" transform="matrix(0.866025 0.5 -2.20305e-08 1 603.423 306.794)" fill="white"/>
<rect width="3.08317" height="7.08119" transform="matrix(0.866025 0.5 -2.20305e-08 1 606.474 308.556)" fill="white"/>
<rect width="3.96407" height="7.08119" transform="matrix(0.866025 0.5 -2.20305e-08 1 610.289 310.758)" fill="white"/>
<rect width="3.08317" height="7.08119" transform="matrix(0.866025 0.5 -2.20305e-08 1 622.113 317.585)" fill="white"/>
<rect width="3.96407" height="7.08119" transform="matrix(0.866025 0.5 -2.20305e-08 1 617.536 314.942)" fill="white"/>
<rect width="2.20226" height="7.08119" transform="matrix(0.866025 0.5 -2.20305e-08 1 625.928 319.787)" fill="white"/>
<path d="M603.423 312.547L604.083 314.256L602.762 313.493L603.423 312.547Z" fill="#5BCBA9"/>
<path d="M627.835 326.642L628.496 328.351L627.174 327.588L627.835 326.642Z" fill="#55ABB1"/>
<path d="M627.174 320.507L628.496 321.27L627.835 322.216L627.174 320.507Z" fill="#61ABB5"/>
<path d="M602.66 306.235L603.981 306.998L603.32 307.944L602.66 306.235Z" fill="#5BCBA9"/>
<path d="M601.516 313.659L603.167 317.932L599.864 316.025L601.516 313.659Z" fill="#AAA9A9"/>
<path d="M629.742 329.956L628.091 332.321L631.394 334.229L629.742 329.956Z" fill="url(#paint61_linear_395_11916)"/>
<path d="M603.959 305.691L601.432 305.903L601.257 302.883L603.959 305.691Z" fill="#ABAAAA"/>
<path d="M609.681 305.896L607.154 306.108L606.978 303.088L609.681 305.896Z" fill="#A6A6A6"/>
<path d="M621.834 312.912L624.361 316.043L624.536 313.226L621.834 312.912Z" fill="#9D9999"/>
<rect width="6.19604" height="32.5935" transform="matrix(-2.20305e-08 1 -0.866025 -0.5 629.742 326.858)" fill="url(#paint62_linear_395_11916)"/>
<rect width="6.19604" height="32.5935" transform="matrix(-2.20305e-08 1 -0.866025 -0.5 629.742 320.662)" fill="url(#paint63_linear_395_11916)"/>
<rect width="6.19604" height="19.3799" transform="matrix(-2.20305e-08 1 -0.866025 -0.5 624.021 314.26)" fill="url(#paint64_linear_395_11916)"/>
<rect width="2.20226" height="7.08119" transform="matrix(0.866025 0.5 -2.20305e-08 1 603.423 306.794)" fill="white"/>
<rect width="3.08317" height="7.08119" transform="matrix(0.866025 0.5 -2.20305e-08 1 606.474 308.556)" fill="white"/>
<rect width="3.96407" height="7.08119" transform="matrix(0.866025 0.5 -2.20305e-08 1 610.289 310.758)" fill="white"/>
<rect width="3.08317" height="7.08119" transform="matrix(0.866025 0.5 -2.20305e-08 1 622.113 317.585)" fill="white"/>
<rect width="3.96407" height="7.08119" transform="matrix(0.866025 0.5 -2.20305e-08 1 617.536 314.942)" fill="white"/>
<rect width="2.20226" height="7.08119" transform="matrix(0.866025 0.5 -2.20305e-08 1 625.928 319.787)" fill="white"/>
<path d="M603.423 312.547L604.083 314.256L602.762 313.493L603.423 312.547Z" fill="#5BCBA9"/>
<path d="M627.835 326.642L628.496 328.351L627.174 327.588L627.835 326.642Z" fill="#55ABB1"/>
<path d="M627.174 320.507L628.496 321.27L627.835 322.216L627.174 320.507Z" fill="#61ABB5"/>
<path d="M602.66 306.235L603.981 306.998L603.32 307.944L602.66 306.235Z" fill="#5BCBA9"/>
<path d="M601.516 313.659L603.167 317.932L599.864 316.025L601.516 313.659Z" fill="#AAA9A9"/>
<path d="M629.742 329.956L628.091 332.321L631.394 334.229L629.742 329.956Z" fill="url(#paint65_linear_395_11916)"/>
<path d="M603.959 305.691L601.432 305.903L601.257 302.883L603.959 305.691Z" fill="#ABAAAA"/>
<path d="M609.681 305.896L607.154 306.108L606.978 303.088L609.681 305.896Z" fill="#A6A6A6"/>
<path d="M621.834 312.912L624.361 316.043L624.536 313.226L621.834 312.912Z" fill="#9D9999"/>
<rect width="6.16634" height="35.406" rx="3.08317" transform="matrix(0.866025 0.5 -2.20305e-08 1 612.958 320.708)" fill="url(#paint66_linear_395_11916)"/>
<rect width="6.19604" height="32.5935" transform="matrix(-2.20305e-08 1 -0.866025 -0.5 629.742 326.858)" fill="url(#paint67_linear_395_11916)"/>
<rect width="6.19604" height="32.5935" transform="matrix(-2.20305e-08 1 -0.866025 -0.5 629.742 320.662)" fill="url(#paint68_linear_395_11916)"/>
<rect width="6.19604" height="19.3799" transform="matrix(-2.20305e-08 1 -0.866025 -0.5 624.021 314.26)" fill="url(#paint69_linear_395_11916)"/>
<rect width="2.20226" height="7.08119" transform="matrix(0.866025 0.5 -2.20305e-08 1 603.423 306.794)" fill="white"/>
<rect width="3.08317" height="7.08119" transform="matrix(0.866025 0.5 -2.20305e-08 1 606.474 308.556)" fill="white"/>
<rect width="3.96407" height="7.08119" transform="matrix(0.866025 0.5 -2.20305e-08 1 610.289 310.758)" fill="white"/>
<rect width="3.08317" height="7.08119" transform="matrix(0.866025 0.5 -2.20305e-08 1 622.113 317.585)" fill="white"/>
<rect width="3.96407" height="7.08119" transform="matrix(0.866025 0.5 -2.20305e-08 1 617.536 314.942)" fill="white"/>
<rect width="2.20226" height="7.08119" transform="matrix(0.866025 0.5 -2.20305e-08 1 625.928 319.787)" fill="white"/>
<path d="M603.423 312.547L604.083 314.256L602.762 313.493L603.423 312.547Z" fill="#5BCBA9"/>
<path d="M627.835 326.642L628.496 328.351L627.174 327.588L627.835 326.642Z" fill="#55ABB1"/>
<path d="M627.174 320.507L628.496 321.27L627.835 322.216L627.174 320.507Z" fill="#61ABB5"/>
<path d="M602.66 306.235L603.981 306.998L603.32 307.944L602.66 306.235Z" fill="#5BCBA9"/>
<path d="M601.516 313.659L603.167 317.932L599.864 316.025L601.516 313.659Z" fill="#5BCBA9"/>
<path d="M629.742 329.956L628.091 332.321L631.394 334.229L629.742 329.956Z" fill="#54AEBA"/>
<path d="M603.959 305.691L601.432 305.903L601.257 302.883L603.959 305.691Z" fill="#5BCBA9"/>
<path d="M627.55 319.4L629.897 322.334L630.064 319.667L627.55 319.4Z" fill="#54AEBA"/>
<path d="M609.681 305.896L607.154 306.108L606.978 303.088L609.681 305.896Z" fill="#5BC6A6"/>
<path d="M621.834 312.912L624.361 316.043L624.536 313.226L621.834 312.912Z" fill="#54B4BA"/>
<path d="M615.6 270.75L573.598 274.918L573.598 331.754L615.6 382.75L657.603 380.254L657.603 323.418L615.6 270.75Z" stroke="url(#paint70_linear_395_11916)" stroke-width="12"/>
<path fill-rule="evenodd" clip-rule="evenodd" d="M491.117 61.1712C493.277 56.9702 499.98 60.8406 502.141 67.5358L525.732 140.655C527.454 145.992 524.988 149.474 521.04 147.798L502.141 89.222C499.98 82.5267 493.277 78.6564 491.117 82.8573L472.218 119.611C468.269 116.728 465.804 110.399 467.526 107.05L491.117 61.1712Z" fill="url(#paint71_linear_395_11916)"/>
<rect width="6.19604" height="32.5935" transform="matrix(-2.20305e-08 1 -0.866025 -0.5 510.742 102.858)" fill="url(#paint72_linear_395_11916)"/>
<rect width="6.19604" height="32.5935" transform="matrix(-2.20305e-08 1 -0.866025 -0.5 510.742 96.6616)" fill="url(#paint73_linear_395_11916)"/>
<rect width="6.19604" height="19.3799" transform="matrix(-2.20305e-08 1 -0.866025 -0.5 505.021 90.2602)" fill="url(#paint74_linear_395_11916)"/>
<rect width="2.20226" height="7.08119" transform="matrix(0.866025 0.5 -2.20305e-08 1 484.423 82.7937)" fill="white"/>
<rect width="3.08317" height="7.08119" transform="matrix(0.866025 0.5 -2.20305e-08 1 487.474 84.5555)" fill="white"/>
<rect width="3.96407" height="7.08119" transform="matrix(0.866025 0.5 -2.20305e-08 1 491.289 86.7578)" fill="white"/>
<rect width="3.08317" height="7.08119" transform="matrix(0.866025 0.5 -2.20305e-08 1 503.113 93.5848)" fill="white"/>
<rect width="3.96407" height="7.08119" transform="matrix(0.866025 0.5 -2.20305e-08 1 498.536 90.9421)" fill="white"/>
<rect width="2.20226" height="7.08119" transform="matrix(0.866025 0.5 -2.20305e-08 1 506.928 95.787)" fill="white"/>
<path d="M484.423 88.5472L485.083 90.2563L483.762 89.4935L484.423 88.5472Z" fill="#5BCBA9"/>
<path d="M508.835 102.642L509.496 104.351L508.174 103.588L508.835 102.642Z" fill="#55ABB1"/>
<path d="M508.174 96.5067L509.496 97.2696L508.835 98.2159L508.174 96.5067Z" fill="#61ABB5"/>
<path d="M483.66 82.2347L484.981 82.9976L484.32 83.9438L483.66 82.2347Z" fill="#5BCBA9"/>
<path d="M482.516 89.6589L484.167 93.9318L480.864 92.0246L482.516 89.6589Z" fill="#AAA9A9"/>
<path d="M510.742 105.956L509.091 108.321L512.394 110.229L510.742 105.956Z" fill="url(#paint75_linear_395_11916)"/>
<path d="M484.959 81.6906L482.432 81.9031L482.257 78.8829L484.959 81.6906Z" fill="#ABAAAA"/>
<path d="M490.681 81.896L488.154 82.1084L487.978 79.0883L490.681 81.896Z" fill="#A6A6A6"/>
<path d="M502.834 88.9122L505.361 92.0427L505.536 89.2256L502.834 88.9122Z" fill="#9D9999"/>
<rect width="6.19604" height="32.5935" transform="matrix(-2.20305e-08 1 -0.866025 -0.5 510.742 102.858)" fill="url(#paint76_linear_395_11916)"/>
<rect width="6.19604" height="32.5935" transform="matrix(-2.20305e-08 1 -0.866025 -0.5 510.742 96.6616)" fill="url(#paint77_linear_395_11916)"/>
<rect width="6.19604" height="19.3799" transform="matrix(-2.20305e-08 1 -0.866025 -0.5 505.021 90.2602)" fill="url(#paint78_linear_395_11916)"/>
<rect width="2.20226" height="7.08119" transform="matrix(0.866025 0.5 -2.20305e-08 1 484.423 82.7937)" fill="white"/>
<rect width="3.08317" height="7.08119" transform="matrix(0.866025 0.5 -2.20305e-08 1 487.474 84.5555)" fill="white"/>
<rect width="3.96407" height="7.08119" transform="matrix(0.866025 0.5 -2.20305e-08 1 491.289 86.7578)" fill="white"/>
<rect width="3.08317" height="7.08119" transform="matrix(0.866025 0.5 -2.20305e-08 1 503.113 93.5848)" fill="white"/>
<rect width="3.96407" height="7.08119" transform="matrix(0.866025 0.5 -2.20305e-08 1 498.536 90.9421)" fill="white"/>
<rect width="2.20226" height="7.08119" transform="matrix(0.866025 0.5 -2.20305e-08 1 506.928 95.787)" fill="white"/>
<path d="M484.423 88.5472L485.083 90.2563L483.762 89.4935L484.423 88.5472Z" fill="#5BCBA9"/>
<path d="M508.835 102.642L509.496 104.351L508.174 103.588L508.835 102.642Z" fill="#55ABB1"/>
<path d="M508.174 96.5067L509.496 97.2696L508.835 98.2159L508.174 96.5067Z" fill="#61ABB5"/>
<path d="M483.66 82.2347L484.981 82.9976L484.32 83.9438L483.66 82.2347Z" fill="#5BCBA9"/>
<path d="M482.516 89.6589L484.167 93.9318L480.864 92.0246L482.516 89.6589Z" fill="#AAA9A9"/>
<path d="M510.742 105.956L509.091 108.321L512.394 110.229L510.742 105.956Z" fill="url(#paint79_linear_395_11916)"/>
<path d="M484.959 81.6906L482.432 81.9031L482.257 78.8829L484.959 81.6906Z" fill="#ABAAAA"/>
<path d="M490.681 81.896L488.154 82.1084L487.978 79.0883L490.681 81.896Z" fill="#A6A6A6"/>
<path d="M502.834 88.9122L505.361 92.0427L505.536 89.2256L502.834 88.9122Z" fill="#9D9999"/>
<rect width="6.19604" height="32.5935" transform="matrix(-2.20305e-08 1 -0.866025 -0.5 510.742 102.858)" fill="url(#paint80_linear_395_11916)"/>
<rect width="6.19604" height="32.5935" transform="matrix(-2.20305e-08 1 -0.866025 -0.5 510.742 96.6616)" fill="url(#paint81_linear_395_11916)"/>
<rect width="6.19604" height="19.3799" transform="matrix(-2.20305e-08 1 -0.866025 -0.5 505.021 90.2602)" fill="url(#paint82_linear_395_11916)"/>
<rect width="2.20226" height="7.08119" transform="matrix(0.866025 0.5 -2.20305e-08 1 484.423 82.7937)" fill="white"/>
<rect width="3.08317" height="7.08119" transform="matrix(0.866025 0.5 -2.20305e-08 1 487.474 84.5555)" fill="white"/>
<rect width="3.96407" height="7.08119" transform="matrix(0.866025 0.5 -2.20305e-08 1 491.289 86.7578)" fill="white"/>
<rect width="3.08317" height="7.08119" transform="matrix(0.866025 0.5 -2.20305e-08 1 503.113 93.5848)" fill="white"/>
<rect width="3.96407" height="7.08119" transform="matrix(0.866025 0.5 -2.20305e-08 1 498.536 90.9421)" fill="white"/>
<rect width="2.20226" height="7.08119" transform="matrix(0.866025 0.5 -2.20305e-08 1 506.928 95.787)" fill="white"/>
<path d="M484.423 88.5472L485.083 90.2563L483.762 89.4935L484.423 88.5472Z" fill="#5BCBA9"/>
<path d="M508.835 102.642L509.496 104.351L508.174 103.588L508.835 102.642Z" fill="#55ABB1"/>
<path d="M508.174 96.5067L509.496 97.2696L508.835 98.2159L508.174 96.5067Z" fill="#61ABB5"/>
<path d="M483.66 82.2347L484.981 82.9976L484.32 83.9438L483.66 82.2347Z" fill="#5BCBA9"/>
<path d="M482.516 89.6589L484.167 93.9318L480.864 92.0246L482.516 89.6589Z" fill="#AAA9A9"/>
<path d="M510.742 105.956L509.091 108.321L512.394 110.229L510.742 105.956Z" fill="url(#paint83_linear_395_11916)"/>
<path d="M484.959 81.6906L482.432 81.9031L482.257 78.8829L484.959 81.6906Z" fill="#ABAAAA"/>
<path d="M490.681 81.896L488.154 82.1084L487.978 79.0883L490.681 81.896Z" fill="#A6A6A6"/>
<path d="M502.834 88.9122L505.361 92.0427L505.536 89.2256L502.834 88.9122Z" fill="#9D9999"/>
<rect width="6.16634" height="35.406" rx="3.08317" transform="matrix(0.866025 0.5 -2.20305e-08 1 493.958 96.7083)" fill="url(#paint84_linear_395_11916)"/>
<rect width="6.19604" height="32.5935" transform="matrix(-2.20305e-08 1 -0.866025 -0.5 510.742 102.858)" fill="url(#paint85_linear_395_11916)"/>
<rect width="6.19604" height="32.5935" transform="matrix(-2.20305e-08 1 -0.866025 -0.5 510.742 96.6616)" fill="url(#paint86_linear_395_11916)"/>
<rect width="6.19604" height="19.3799" transform="matrix(-2.20305e-08 1 -0.866025 -0.5 505.021 90.2602)" fill="url(#paint87_linear_395_11916)"/>
<rect width="2.20226" height="7.08119" transform="matrix(0.866025 0.5 -2.20305e-08 1 484.423 82.7937)" fill="white"/>
<rect width="3.08317" height="7.08119" transform="matrix(0.866025 0.5 -2.20305e-08 1 487.474 84.5555)" fill="white"/>
<rect width="3.96407" height="7.08119" transform="matrix(0.866025 0.5 -2.20305e-08 1 491.289 86.7578)" fill="white"/>
<rect width="3.08317" height="7.08119" transform="matrix(0.866025 0.5 -2.20305e-08 1 503.113 93.5848)" fill="white"/>
<rect width="3.96407" height="7.08119" transform="matrix(0.866025 0.5 -2.20305e-08 1 498.536 90.9421)" fill="white"/>
<rect width="2.20226" height="7.08119" transform="matrix(0.866025 0.5 -2.20305e-08 1 506.928 95.787)" fill="white"/>
<path d="M484.423 88.5472L485.083 90.2563L483.762 89.4935L484.423 88.5472Z" fill="#5BCBA9"/>
<path d="M508.835 102.642L509.496 104.351L508.174 103.588L508.835 102.642Z" fill="#55ABB1"/>
<path d="M508.174 96.5067L509.496 97.2696L508.835 98.2159L508.174 96.5067Z" fill="#61ABB5"/>
<path d="M483.66 82.2347L484.981 82.9976L484.32 83.9438L483.66 82.2347Z" fill="#5BCBA9"/>
<path d="M482.516 89.6589L484.167 93.9318L480.864 92.0246L482.516 89.6589Z" fill="#5BCBA9"/>
<path d="M510.742 105.956L509.091 108.321L512.394 110.229L510.742 105.956Z" fill="#54AEBA"/>
<path d="M484.959 81.6906L482.432 81.9031L482.257 78.8829L484.959 81.6906Z" fill="#5BCBA9"/>
<path d="M508.55 95.4003L510.897 98.3343L511.064 95.6674L508.55 95.4003Z" fill="#54AEBA"/>
<path d="M490.681 81.896L488.154 82.1084L487.978 79.0883L490.681 81.896Z" fill="#5BC6A6"/>
<path d="M502.834 88.9122L505.361 92.0427L505.536 89.2256L502.834 88.9122Z" fill="#54B4BA"/>
<path d="M496.6 46.75L454.598 50.9179L454.598 107.754L496.6 158.75L538.603 156.254L538.603 99.4179L496.6 46.75Z" stroke="url(#paint88_linear_395_11916)" stroke-width="12"/>
<g clip-path="url(#clip1_395_11916)">
<path d="M130.825 359L130.825 352.75L174.126 377.75L174.126 384L130.825 359ZM130.825 402.75L130.825 384L128.119 382.438L128.119 376.188L130.825 362.125L174.126 387.125L176.833 404.312L176.833 410.562L174.126 409L174.126 427.75L168.714 424.625L168.714 405.875L157.889 399.625L157.889 418.375L130.825 402.75ZM136.238 399.625L152.476 409L152.476 396.5L136.238 387.125L136.238 399.625Z" fill="#B8B8B8"/>
</g>
<g clip-path="url(#clip2_395_11916)">
<path d="M192.532 159.312L192.532 130.719L184.954 133.062L181.707 126.188L211.476 117.125L222.301 132.906L222.301 126.5L230.42 131.188L230.42 144.781L241.246 160.562L237.998 163.688L230.42 152.594L230.42 181.188L216.889 173.375L216.889 154.625L206.064 148.375L206.064 167.125L192.532 159.312ZM206.064 135.953L216.889 142.203C216.889 140.536 216.348 138.857 215.265 137.164C214.182 135.471 212.92 134.208 211.476 133.375C210.033 132.542 208.77 132.346 207.687 132.789C206.605 133.232 206.064 134.286 206.064 135.953Z" fill="#B8B8B8"/>
</g>
<g clip-path="url(#clip3_395_11916)">
<path d="M517.119 179.312L517.119 135.562L527.944 141.812L527.944 129.312L555.008 144.938L555.008 169.938L565.833 176.188L565.833 207.438L544.182 194.938L544.182 182.438L538.77 179.312L538.77 191.812L517.119 179.312ZM522.532 176.188L527.944 179.312L527.944 173.062L522.532 169.938L522.532 176.188ZM522.532 163.688L527.944 166.812L527.944 160.562L522.532 157.438L522.532 163.688ZM522.532 151.188L527.944 154.312L527.944 148.062L522.532 144.938L522.532 151.188ZM533.357 169.938L538.77 173.062L538.77 166.812L533.357 163.688L533.357 169.938ZM533.357 157.438L538.77 160.562L538.77 154.312L533.357 151.188L533.357 157.438ZM533.357 144.938L538.77 148.062L538.77 141.812L533.357 138.688L533.357 144.938ZM544.182 176.188L549.595 179.312L549.595 173.062L544.182 169.938L544.182 176.188ZM544.182 163.688L549.595 166.812L549.595 160.562L544.182 157.438L544.182 163.688ZM544.182 151.188L549.595 154.312L549.595 148.062L544.182 144.938L544.182 151.188ZM555.008 194.938L560.42 198.062L560.42 191.812L555.008 188.688L555.008 194.938ZM555.008 182.438L560.42 185.562L560.42 179.312L555.008 176.188L555.008 182.438Z" fill="#B8B8B8"/>
</g>
<g clip-path="url(#clip4_395_11916)">
<path d="M642.413 405.875L642.413 368.297L661.357 369.938L661.357 376.188L674.889 377.75L674.889 387.125L696.539 399.625L696.539 437.125L642.413 405.875ZM666.77 407.438L672.182 410.562L672.182 398.062L666.77 394.938L666.77 407.438ZM655.944 401.188L661.357 404.312L661.357 391.812L655.944 388.688L655.944 401.188ZM677.595 413.688L683.008 416.812L683.008 404.312L677.595 401.188L677.595 413.688ZM695.998 394.625L683.481 387.398L685.782 368.414L693.833 373.062L695.998 394.625Z" fill="#B8B8B8"/>
</g>
<defs>
<linearGradient id="paint0_linear_395_11916" x1="325.447" y1="264.75" x2="407.965" y2="262.922" gradientUnits="userSpaceOnUse">
<stop stop-color="#5BCBA9"/>
<stop offset="1" stop-color="#54A2BA"/>
</linearGradient>
<linearGradient id="paint1_linear_395_11916" x1="14" y1="71.5" x2="14" y2="-25" gradientUnits="userSpaceOnUse">
<stop stop-color="#5BCBA9"/>
<stop offset="1" stop-color="#54A2BA"/>
</linearGradient>
<linearGradient id="paint2_linear_395_11916" x1="9" y1="79.5" x2="7" y2="-19.5" gradientUnits="userSpaceOnUse">
<stop stop-color="#5BCBA9"/>
<stop offset="1" stop-color="#54A2BA"/>
</linearGradient>
<linearGradient id="paint3_linear_395_11916" x1="2.49999" y1="58.5" x2="-1.14654e-05" y2="-31.5" gradientUnits="userSpaceOnUse">
<stop stop-color="#5BCBA9"/>
<stop offset="1" stop-color="#54A2BA"/>
</linearGradient>
<linearGradient id="paint4_linear_395_11916" x1="387.368" y1="283.251" x2="391.172" y2="294.233" gradientUnits="userSpaceOnUse">
<stop stop-color="#928F8F"/>
<stop offset="1" stop-color="#8C8C8C"/>
</linearGradient>
<linearGradient id="paint5_linear_395_11916" x1="14" y1="71.5" x2="14" y2="-25" gradientUnits="userSpaceOnUse">
<stop stop-color="#5BCBA9"/>
<stop offset="1" stop-color="#54A2BA"/>
</linearGradient>
<linearGradient id="paint6_linear_395_11916" x1="9" y1="79.5" x2="7" y2="-19.5" gradientUnits="userSpaceOnUse">
<stop stop-color="#5BCBA9"/>
<stop offset="1" stop-color="#54A2BA"/>
</linearGradient>
<linearGradient id="paint7_linear_395_11916" x1="2.49999" y1="58.5" x2="-1.14654e-05" y2="-31.5" gradientUnits="userSpaceOnUse">
<stop stop-color="#5BCBA9"/>
<stop offset="1" stop-color="#54A2BA"/>
</linearGradient>
<linearGradient id="paint8_linear_395_11916" x1="387.368" y1="283.251" x2="391.172" y2="294.233" gradientUnits="userSpaceOnUse">
<stop stop-color="#928F8F"/>
<stop offset="1" stop-color="#8C8C8C"/>
</linearGradient>
<linearGradient id="paint9_linear_395_11916" x1="14" y1="71.5" x2="14" y2="-25" gradientUnits="userSpaceOnUse">
<stop stop-color="#5BCBA9"/>
<stop offset="1" stop-color="#54A2BA"/>
</linearGradient>
<linearGradient id="paint10_linear_395_11916" x1="9" y1="79.5" x2="7" y2="-19.5" gradientUnits="userSpaceOnUse">
<stop stop-color="#5BCBA9"/>
<stop offset="1" stop-color="#54A2BA"/>
</linearGradient>
<linearGradient id="paint11_linear_395_11916" x1="2.49999" y1="58.5" x2="-1.14654e-05" y2="-31.5" gradientUnits="userSpaceOnUse">
<stop stop-color="#5BCBA9"/>
<stop offset="1" stop-color="#54A2BA"/>
</linearGradient>
<linearGradient id="paint12_linear_395_11916" x1="387.368" y1="283.251" x2="391.172" y2="294.233" gradientUnits="userSpaceOnUse">
<stop stop-color="#928F8F"/>
<stop offset="1" stop-color="#8C8C8C"/>
</linearGradient>
<linearGradient id="paint13_linear_395_11916" x1="-30.5" y1="9" x2="76" y2="8" gradientUnits="userSpaceOnUse">
<stop stop-color="#5BCBA9"/>
<stop offset="1" stop-color="#54A2BA"/>
</linearGradient>
<linearGradient id="paint14_linear_395_11916" x1="14" y1="71.5" x2="14" y2="-25" gradientUnits="userSpaceOnUse">
<stop stop-color="#5BCBA9"/>
<stop offset="1" stop-color="#54A2BA"/>
</linearGradient>
<linearGradient id="paint15_linear_395_11916" x1="9" y1="79.5" x2="7" y2="-19.5" gradientUnits="userSpaceOnUse">
<stop stop-color="#5BCBA9"/>
<stop offset="1" stop-color="#54A2BA"/>
</linearGradient>
<linearGradient id="paint16_linear_395_11916" x1="2.49999" y1="58.5" x2="-1.14654e-05" y2="-31.5" gradientUnits="userSpaceOnUse">
<stop stop-color="#5BCBA9"/>
<stop offset="1" stop-color="#54A2BA"/>
</linearGradient>
<linearGradient id="paint17_linear_395_11916" x1="161.253" y1="79.2289" x2="195.429" y2="78.4668" gradientUnits="userSpaceOnUse">
<stop stop-color="#5BCBA9"/>
<stop offset="1" stop-color="#54A2BA"/>
</linearGradient>
<linearGradient id="paint18_linear_395_11916" x1="6.19604" y1="31.4924" x2="6.19604" y2="-11.0113" gradientUnits="userSpaceOnUse">
<stop stop-color="#5BCBA9"/>
<stop offset="1" stop-color="#54A2BA"/>
</linearGradient>
<linearGradient id="paint19_linear_395_11916" x1="3.98317" y1="35.016" x2="3.10649" y2="-8.58899" gradientUnits="userSpaceOnUse">
<stop stop-color="#5BCBA9"/>
<stop offset="1" stop-color="#54A2BA"/>
</linearGradient>
<linearGradient id="paint20_linear_395_11916" x1="1.10643" y1="25.7665" x2="0.0105727" y2="-13.8745" gradientUnits="userSpaceOnUse">
<stop stop-color="#5BCBA9"/>
<stop offset="1" stop-color="#54A2BA"/>
</linearGradient>
<linearGradient id="paint21_linear_395_11916" x1="187.742" y1="84.9557" x2="189.443" y2="89.8026" gradientUnits="userSpaceOnUse">
<stop stop-color="#928F8F"/>
<stop offset="1" stop-color="#8C8C8C"/>
</linearGradient>
<linearGradient id="paint22_linear_395_11916" x1="6.19604" y1="31.4924" x2="6.19604" y2="-11.0113" gradientUnits="userSpaceOnUse">
<stop stop-color="#5BCBA9"/>
<stop offset="1" stop-color="#54A2BA"/>
</linearGradient>
<linearGradient id="paint23_linear_395_11916" x1="3.98317" y1="35.016" x2="3.10649" y2="-8.58899" gradientUnits="userSpaceOnUse">
<stop stop-color="#5BCBA9"/>
<stop offset="1" stop-color="#54A2BA"/>
</linearGradient>
<linearGradient id="paint24_linear_395_11916" x1="1.10643" y1="25.7665" x2="0.0105727" y2="-13.8745" gradientUnits="userSpaceOnUse">
<stop stop-color="#5BCBA9"/>
<stop offset="1" stop-color="#54A2BA"/>
</linearGradient>
<linearGradient id="paint25_linear_395_11916" x1="187.742" y1="84.9557" x2="189.443" y2="89.8026" gradientUnits="userSpaceOnUse">
<stop stop-color="#928F8F"/>
<stop offset="1" stop-color="#8C8C8C"/>
</linearGradient>
<linearGradient id="paint26_linear_395_11916" x1="6.19604" y1="31.4924" x2="6.19604" y2="-11.0113" gradientUnits="userSpaceOnUse">
<stop stop-color="#5BCBA9"/>
<stop offset="1" stop-color="#54A2BA"/>
</linearGradient>
<linearGradient id="paint27_linear_395_11916" x1="3.98317" y1="35.016" x2="3.10649" y2="-8.58899" gradientUnits="userSpaceOnUse">
<stop stop-color="#5BCBA9"/>
<stop offset="1" stop-color="#54A2BA"/>
</linearGradient>
<linearGradient id="paint28_linear_395_11916" x1="1.10643" y1="25.7665" x2="0.0105727" y2="-13.8745" gradientUnits="userSpaceOnUse">
<stop stop-color="#5BCBA9"/>
<stop offset="1" stop-color="#54A2BA"/>
</linearGradient>
<linearGradient id="paint29_linear_395_11916" x1="187.742" y1="84.9557" x2="189.443" y2="89.8026" gradientUnits="userSpaceOnUse">
<stop stop-color="#928F8F"/>
<stop offset="1" stop-color="#8C8C8C"/>
</linearGradient>
<linearGradient id="paint30_linear_395_11916" x1="-13.4338" y1="3.98317" x2="33.4744" y2="3.54483" gradientUnits="userSpaceOnUse">
<stop stop-color="#5BCBA9"/>
<stop offset="1" stop-color="#54A2BA"/>
</linearGradient>
<linearGradient id="paint31_linear_395_11916" x1="6.19604" y1="31.4924" x2="6.19604" y2="-11.0113" gradientUnits="userSpaceOnUse">
<stop stop-color="#5BCBA9"/>
<stop offset="1" stop-color="#54A2BA"/>
</linearGradient>
<linearGradient id="paint32_linear_395_11916" x1="3.98317" y1="35.016" x2="3.10649" y2="-8.58899" gradientUnits="userSpaceOnUse">
<stop stop-color="#5BCBA9"/>
<stop offset="1" stop-color="#54A2BA"/>
</linearGradient>
<linearGradient id="paint33_linear_395_11916" x1="1.10643" y1="25.7665" x2="0.0105727" y2="-13.8745" gradientUnits="userSpaceOnUse">
<stop stop-color="#5BCBA9"/>
<stop offset="1" stop-color="#54A2BA"/>
</linearGradient>
<linearGradient id="paint34_linear_395_11916" x1="125.536" y1="54" x2="222.964" y2="54" gradientUnits="userSpaceOnUse">
<stop stop-color="#5BCBA9"/>
<stop offset="1" stop-color="#54A2BA"/>
</linearGradient>
<linearGradient id="paint35_linear_395_11916" x1="95.2533" y1="324.229" x2="129.43" y2="323.467" gradientUnits="userSpaceOnUse">
<stop stop-color="#5BCBA9"/>
<stop offset="1" stop-color="#54A2BA"/>
</linearGradient>
<linearGradient id="paint36_linear_395_11916" x1="6.19604" y1="31.4924" x2="6.19604" y2="-11.0113" gradientUnits="userSpaceOnUse">
<stop stop-color="#5BCBA9"/>
<stop offset="1" stop-color="#54A2BA"/>
</linearGradient>
<linearGradient id="paint37_linear_395_11916" x1="3.98317" y1="35.016" x2="3.10649" y2="-8.58899" gradientUnits="userSpaceOnUse">
<stop stop-color="#5BCBA9"/>
<stop offset="1" stop-color="#54A2BA"/>
</linearGradient>
<linearGradient id="paint38_linear_395_11916" x1="1.10643" y1="25.7665" x2="0.0105727" y2="-13.8745" gradientUnits="userSpaceOnUse">
<stop stop-color="#5BCBA9"/>
<stop offset="1" stop-color="#54A2BA"/>
</linearGradient>
<linearGradient id="paint39_linear_395_11916" x1="121.742" y1="329.956" x2="123.443" y2="334.803" gradientUnits="userSpaceOnUse">
<stop stop-color="#928F8F"/>
<stop offset="1" stop-color="#8C8C8C"/>
</linearGradient>
<linearGradient id="paint40_linear_395_11916" x1="6.19604" y1="31.4924" x2="6.19604" y2="-11.0113" gradientUnits="userSpaceOnUse">
<stop stop-color="#5BCBA9"/>
<stop offset="1" stop-color="#54A2BA"/>
</linearGradient>
<linearGradient id="paint41_linear_395_11916" x1="3.98317" y1="35.016" x2="3.10649" y2="-8.58899" gradientUnits="userSpaceOnUse">
<stop stop-color="#5BCBA9"/>
<stop offset="1" stop-color="#54A2BA"/>
</linearGradient>
<linearGradient id="paint42_linear_395_11916" x1="1.10643" y1="25.7665" x2="0.0105727" y2="-13.8745" gradientUnits="userSpaceOnUse">
<stop stop-color="#5BCBA9"/>
<stop offset="1" stop-color="#54A2BA"/>
</linearGradient>
<linearGradient id="paint43_linear_395_11916" x1="121.742" y1="329.956" x2="123.443" y2="334.803" gradientUnits="userSpaceOnUse">
<stop stop-color="#928F8F"/>
<stop offset="1" stop-color="#8C8C8C"/>
</linearGradient>
<linearGradient id="paint44_linear_395_11916" x1="6.19604" y1="31.4924" x2="6.19604" y2="-11.0113" gradientUnits="userSpaceOnUse">
<stop stop-color="#5BCBA9"/>
<stop offset="1" stop-color="#54A2BA"/>
</linearGradient>
<linearGradient id="paint45_linear_395_11916" x1="3.98317" y1="35.016" x2="3.10649" y2="-8.58899" gradientUnits="userSpaceOnUse">
<stop stop-color="#5BCBA9"/>
<stop offset="1" stop-color="#54A2BA"/>
</linearGradient>
<linearGradient id="paint46_linear_395_11916" x1="1.10643" y1="25.7665" x2="0.0105727" y2="-13.8745" gradientUnits="userSpaceOnUse">
<stop stop-color="#5BCBA9"/>
<stop offset="1" stop-color="#54A2BA"/>
</linearGradient>
<linearGradient id="paint47_linear_395_11916" x1="121.742" y1="329.956" x2="123.443" y2="334.803" gradientUnits="userSpaceOnUse">
<stop stop-color="#928F8F"/>
<stop offset="1" stop-color="#8C8C8C"/>
</linearGradient>
<linearGradient id="paint48_linear_395_11916" x1="-13.4338" y1="3.98317" x2="33.4744" y2="3.54483" gradientUnits="userSpaceOnUse">
<stop stop-color="#5BCBA9"/>
<stop offset="1" stop-color="#54A2BA"/>
</linearGradient>
<linearGradient id="paint49_linear_395_11916" x1="6.19604" y1="31.4924" x2="6.19604" y2="-11.0113" gradientUnits="userSpaceOnUse">
<stop stop-color="#5BCBA9"/>
<stop offset="1" stop-color="#54A2BA"/>
</linearGradient>
<linearGradient id="paint50_linear_395_11916" x1="3.98317" y1="35.016" x2="3.10649" y2="-8.58899" gradientUnits="userSpaceOnUse">
<stop stop-color="#5BCBA9"/>
<stop offset="1" stop-color="#54A2BA"/>
</linearGradient>
<linearGradient id="paint51_linear_395_11916" x1="1.10643" y1="25.7665" x2="0.0105727" y2="-13.8745" gradientUnits="userSpaceOnUse">
<stop stop-color="#5BCBA9"/>
<stop offset="1" stop-color="#54A2BA"/>
</linearGradient>
<linearGradient id="paint52_linear_395_11916" x1="59.536" y1="299" x2="156.964" y2="299" gradientUnits="userSpaceOnUse">
<stop stop-color="#5BCBA9"/>
<stop offset="1" stop-color="#54A2BA"/>
</linearGradient>
<linearGradient id="paint53_linear_395_11916" x1="603.253" y1="324.229" x2="637.429" y2="323.467" gradientUnits="userSpaceOnUse">
<stop stop-color="#5BCBA9"/>
<stop offset="1" stop-color="#54A2BA"/>
</linearGradient>
<linearGradient id="paint54_linear_395_11916" x1="6.19604" y1="31.4924" x2="6.19604" y2="-11.0113" gradientUnits="userSpaceOnUse">
<stop stop-color="#5BCBA9"/>
<stop offset="1" stop-color="#54A2BA"/>
</linearGradient>
<linearGradient id="paint55_linear_395_11916" x1="3.98317" y1="35.016" x2="3.10649" y2="-8.58899" gradientUnits="userSpaceOnUse">
<stop stop-color="#5BCBA9"/>
<stop offset="1" stop-color="#54A2BA"/>
</linearGradient>
<linearGradient id="paint56_linear_395_11916" x1="1.10643" y1="25.7665" x2="0.0105727" y2="-13.8745" gradientUnits="userSpaceOnUse">
<stop stop-color="#5BCBA9"/>
<stop offset="1" stop-color="#54A2BA"/>
</linearGradient>
<linearGradient id="paint57_linear_395_11916" x1="629.742" y1="329.956" x2="631.443" y2="334.803" gradientUnits="userSpaceOnUse">
<stop stop-color="#928F8F"/>
<stop offset="1" stop-color="#8C8C8C"/>
</linearGradient>
<linearGradient id="paint58_linear_395_11916" x1="6.19604" y1="31.4924" x2="6.19604" y2="-11.0113" gradientUnits="userSpaceOnUse">
<stop stop-color="#5BCBA9"/>
<stop offset="1" stop-color="#54A2BA"/>
</linearGradient>
<linearGradient id="paint59_linear_395_11916" x1="3.98317" y1="35.016" x2="3.10649" y2="-8.58899" gradientUnits="userSpaceOnUse">
<stop stop-color="#5BCBA9"/>
<stop offset="1" stop-color="#54A2BA"/>
</linearGradient>
<linearGradient id="paint60_linear_395_11916" x1="1.10643" y1="25.7665" x2="0.0105727" y2="-13.8745" gradientUnits="userSpaceOnUse">
<stop stop-color="#5BCBA9"/>
<stop offset="1" stop-color="#54A2BA"/>
</linearGradient>
<linearGradient id="paint61_linear_395_11916" x1="629.742" y1="329.956" x2="631.443" y2="334.803" gradientUnits="userSpaceOnUse">
<stop stop-color="#928F8F"/>
<stop offset="1" stop-color="#8C8C8C"/>
</linearGradient>
<linearGradient id="paint62_linear_395_11916" x1="6.19604" y1="31.4924" x2="6.19604" y2="-11.0113" gradientUnits="userSpaceOnUse">
<stop stop-color="#5BCBA9"/>
<stop offset="1" stop-color="#54A2BA"/>
</linearGradient>
<linearGradient id="paint63_linear_395_11916" x1="3.98317" y1="35.016" x2="3.10649" y2="-8.58899" gradientUnits="userSpaceOnUse">
<stop stop-color="#5BCBA9"/>
<stop offset="1" stop-color="#54A2BA"/>
</linearGradient>
<linearGradient id="paint64_linear_395_11916" x1="1.10643" y1="25.7665" x2="0.0105727" y2="-13.8745" gradientUnits="userSpaceOnUse">
<stop stop-color="#5BCBA9"/>
<stop offset="1" stop-color="#54A2BA"/>
</linearGradient>
<linearGradient id="paint65_linear_395_11916" x1="629.742" y1="329.956" x2="631.443" y2="334.803" gradientUnits="userSpaceOnUse">
<stop stop-color="#928F8F"/>
<stop offset="1" stop-color="#8C8C8C"/>
</linearGradient>
<linearGradient id="paint66_linear_395_11916" x1="-13.4338" y1="3.98317" x2="33.4744" y2="3.54483" gradientUnits="userSpaceOnUse">
<stop stop-color="#5BCBA9"/>
<stop offset="1" stop-color="#54A2BA"/>
</linearGradient>
<linearGradient id="paint67_linear_395_11916" x1="6.19604" y1="31.4924" x2="6.19604" y2="-11.0113" gradientUnits="userSpaceOnUse">
<stop stop-color="#5BCBA9"/>
<stop offset="1" stop-color="#54A2BA"/>
</linearGradient>
<linearGradient id="paint68_linear_395_11916" x1="3.98317" y1="35.016" x2="3.10649" y2="-8.58899" gradientUnits="userSpaceOnUse">
<stop stop-color="#5BCBA9"/>
<stop offset="1" stop-color="#54A2BA"/>
</linearGradient>
<linearGradient id="paint69_linear_395_11916" x1="1.10643" y1="25.7665" x2="0.0105727" y2="-13.8745" gradientUnits="userSpaceOnUse">
<stop stop-color="#5BCBA9"/>
<stop offset="1" stop-color="#54A2BA"/>
</linearGradient>
<linearGradient id="paint70_linear_395_11916" x1="567.536" y1="299" x2="664.964" y2="299" gradientUnits="userSpaceOnUse">
<stop stop-color="#5BCBA9"/>
<stop offset="1" stop-color="#54A2BA"/>
</linearGradient>
<linearGradient id="paint71_linear_395_11916" x1="484.253" y1="100.229" x2="518.429" y2="99.4668" gradientUnits="userSpaceOnUse">
<stop stop-color="#5BCBA9"/>
<stop offset="1" stop-color="#54A2BA"/>
</linearGradient>
<linearGradient id="paint72_linear_395_11916" x1="6.19604" y1="31.4924" x2="6.19604" y2="-11.0113" gradientUnits="userSpaceOnUse">
<stop stop-color="#5BCBA9"/>
<stop offset="1" stop-color="#54A2BA"/>
</linearGradient>
<linearGradient id="paint73_linear_395_11916" x1="3.98317" y1="35.016" x2="3.10649" y2="-8.58899" gradientUnits="userSpaceOnUse">
<stop stop-color="#5BCBA9"/>
<stop offset="1" stop-color="#54A2BA"/>
</linearGradient>
<linearGradient id="paint74_linear_395_11916" x1="1.10643" y1="25.7665" x2="0.0105727" y2="-13.8745" gradientUnits="userSpaceOnUse">
<stop stop-color="#5BCBA9"/>
<stop offset="1" stop-color="#54A2BA"/>
</linearGradient>
<linearGradient id="paint75_linear_395_11916" x1="510.742" y1="105.956" x2="512.443" y2="110.803" gradientUnits="userSpaceOnUse">
<stop stop-color="#928F8F"/>
<stop offset="1" stop-color="#8C8C8C"/>
</linearGradient>
<linearGradient id="paint76_linear_395_11916" x1="6.19604" y1="31.4924" x2="6.19604" y2="-11.0113" gradientUnits="userSpaceOnUse">
<stop stop-color="#5BCBA9"/>
<stop offset="1" stop-color="#54A2BA"/>
</linearGradient>
<linearGradient id="paint77_linear_395_11916" x1="3.98317" y1="35.016" x2="3.10649" y2="-8.58899" gradientUnits="userSpaceOnUse">
<stop stop-color="#5BCBA9"/>
<stop offset="1" stop-color="#54A2BA"/>
</linearGradient>
<linearGradient id="paint78_linear_395_11916" x1="1.10643" y1="25.7665" x2="0.0105727" y2="-13.8745" gradientUnits="userSpaceOnUse">
<stop stop-color="#5BCBA9"/>
<stop offset="1" stop-color="#54A2BA"/>
</linearGradient>
<linearGradient id="paint79_linear_395_11916" x1="510.742" y1="105.956" x2="512.443" y2="110.803" gradientUnits="userSpaceOnUse">
<stop stop-color="#928F8F"/>
<stop offset="1" stop-color="#8C8C8C"/>
</linearGradient>
<linearGradient id="paint80_linear_395_11916" x1="6.19604" y1="31.4924" x2="6.19604" y2="-11.0113" gradientUnits="userSpaceOnUse">
<stop stop-color="#5BCBA9"/>
<stop offset="1" stop-color="#54A2BA"/>
</linearGradient>
<linearGradient id="paint81_linear_395_11916" x1="3.98317" y1="35.016" x2="3.10649" y2="-8.58899" gradientUnits="userSpaceOnUse">
<stop stop-color="#5BCBA9"/>
<stop offset="1" stop-color="#54A2BA"/>
</linearGradient>
<linearGradient id="paint82_linear_395_11916" x1="1.10643" y1="25.7665" x2="0.0105727" y2="-13.8745" gradientUnits="userSpaceOnUse">
<stop stop-color="#5BCBA9"/>
<stop offset="1" stop-color="#54A2BA"/>
</linearGradient>
<linearGradient id="paint83_linear_395_11916" x1="510.742" y1="105.956" x2="512.443" y2="110.803" gradientUnits="userSpaceOnUse">
<stop stop-color="#928F8F"/>
<stop offset="1" stop-color="#8C8C8C"/>
</linearGradient>
<linearGradient id="paint84_linear_395_11916" x1="-13.4338" y1="3.98317" x2="33.4744" y2="3.54483" gradientUnits="userSpaceOnUse">
<stop stop-color="#5BCBA9"/>
<stop offset="1" stop-color="#54A2BA"/>
</linearGradient>
<linearGradient id="paint85_linear_395_11916" x1="6.19604" y1="31.4924" x2="6.19604" y2="-11.0113" gradientUnits="userSpaceOnUse">
<stop stop-color="#5BCBA9"/>
<stop offset="1" stop-color="#54A2BA"/>
</linearGradient>
<linearGradient id="paint86_linear_395_11916" x1="3.98317" y1="35.016" x2="3.10649" y2="-8.58899" gradientUnits="userSpaceOnUse">
<stop stop-color="#5BCBA9"/>
<stop offset="1" stop-color="#54A2BA"/>
</linearGradient>
<linearGradient id="paint87_linear_395_11916" x1="1.10643" y1="25.7665" x2="0.0105727" y2="-13.8745" gradientUnits="userSpaceOnUse">
<stop stop-color="#5BCBA9"/>
<stop offset="1" stop-color="#54A2BA"/>
</linearGradient>
<linearGradient id="paint88_linear_395_11916" x1="448.536" y1="75" x2="545.964" y2="75" gradientUnits="userSpaceOnUse">
<stop stop-color="#5BCBA9"/>
<stop offset="1" stop-color="#54A2BA"/>
</linearGradient>
<clipPath id="clip0_395_11916">
<rect width="77" height="77" fill="white" transform="matrix(0.866025 0.5 -2.20305e-08 1 402.957 342)"/>
</clipPath>
<clipPath id="clip1_395_11916">
<rect width="75" height="75" fill="white" transform="matrix(0.866025 0.5 -2.20305e-08 1 120 334)"/>
</clipPath>
<clipPath id="clip2_395_11916">
<rect width="75" height="75" fill="white" transform="matrix(0.866025 0.5 -2.20305e-08 1 179 89)"/>
</clipPath>
<clipPath id="clip3_395_11916">
<rect width="75" height="75" fill="white" transform="matrix(0.866025 0.5 -2.20305e-08 1 509 109)"/>
</clipPath>
<clipPath id="clip4_395_11916">
<rect width="75" height="75" fill="white" transform="matrix(0.866025 0.5 -2.20305e-08 1 637 334)"/>
</clipPath>
</defs>
</svg>
