<svg width="763" height="469" viewBox="0 0 763 469" fill="none" xmlns="http://www.w3.org/2000/svg">
<rect width="763" height="469" fill="white"/>
<path d="M366 236.281C366 234.531 366.594 233.062 367.781 231.875C369.031 230.625 370.531 230 372.281 230H386.625L384.188 223.062C383.188 220.5 382.188 218.094 381.188 215.844C380.25 213.531 379.156 211.438 377.906 209.562C376.781 207.688 375.5 206.688 374.062 206.562C372.562 206.688 371.219 207.688 370.031 209.562C368.844 211.438 367.75 213.531 366.75 215.844C365.812 218.094 364.844 220.5 363.844 223.062L354.938 247.438C354.312 248.75 353.5 249.844 352.5 250.719C351.562 251.531 350.125 251.938 348.188 251.938C346.375 251.938 344.875 251.312 343.688 250.062C342.562 248.812 342.062 247.312 342.188 245.562C342.25 244.75 342.438 244 342.75 243.312L353.062 216.688C355.938 209.688 358.812 204.031 361.688 199.719C364.5 195.469 368.625 193.312 374.062 193.25C379.438 193.312 383.531 195.469 386.344 199.719C389.219 203.906 392.094 209.562 394.969 216.688L405.281 243.312C405.594 244 405.781 244.75 405.844 245.562C405.969 247.312 405.438 248.812 404.25 250.062C403.125 251.312 401.656 251.938 399.844 251.938C397.781 251.938 396.25 251.531 395.25 250.719C394.312 249.844 393.531 248.75 392.906 247.438L391.125 242.562H372.281C370.531 242.562 369.062 241.938 367.875 240.688C366.625 239.5 366 238.031 366 236.281ZM445.125 252.969C441.875 252.969 438.656 252.594 435.469 251.844C432.344 251.094 429.344 250 426.469 248.562C423.594 247.062 421.062 245.094 418.875 242.656C416.688 240.219 415.5 237.312 415.312 233.938V230V200.094C415.312 198.344 415.938 196.906 417.188 195.781C418.5 194.594 420.031 194 421.781 194C425.531 194.312 427.562 196.344 427.875 200.094V231.031C428 232.969 428.719 234.594 430.031 235.906C431.406 237.156 432.906 238.156 434.531 238.906C436.219 239.656 437.938 240.219 439.688 240.594C441.5 240.969 443.312 241.156 445.125 241.156C446.938 241.156 448.719 240.969 450.469 240.594C452.281 240.219 454 239.656 455.625 238.906C457.312 238.156 458.812 237.156 460.125 235.906C461.5 234.594 462.25 232.969 462.375 231.031V200.094C462.375 198.344 463 196.906 464.25 195.781C465.562 194.594 467.094 194 468.844 194C472.594 194.312 474.656 196.344 475.031 200.094V230V233.938C474.844 237.312 473.625 240.219 471.375 242.656C469.188 245.094 466.656 247.062 463.781 248.562C460.906 250 457.875 251.094 454.688 251.844C451.562 252.594 448.375 252.969 445.125 252.969ZM500.156 246.031C499.781 249.781 497.719 251.812 493.969 252.125C492.219 252.125 490.688 251.562 489.375 250.438C488.125 249.25 487.5 247.781 487.5 246.031V201.594C487.562 199.844 488.219 198.406 489.469 197.281C490.719 196.094 492.219 195.5 493.969 195.5H498.562H510.094H533.25C533.625 195.5 534 195.531 534.375 195.594H534.938C539.312 195.719 542.906 196.719 545.719 198.594C548.531 200.469 550.562 202.625 551.812 205.062C553.062 207.438 553.688 209.844 553.688 212.281C553.688 214.781 553.062 217.25 551.812 219.688C550.625 222.062 548.594 224.188 545.719 226.062C542.906 227.938 539.312 228.938 534.938 229.062H518.438C518.938 232.188 519.969 234.5 521.531 236C523.031 237.5 524.938 238.25 527.25 238.25H547.5C549.25 238.312 550.688 238.969 551.812 240.219C553 241.469 553.594 242.969 553.594 244.719C553.531 246.406 552.906 247.844 551.719 249.031C550.594 250.156 549.188 250.75 547.5 250.812H525.562C520.938 250.875 516.75 249.062 513 245.375C509.25 241.688 506.969 237.312 506.156 232.25C505.031 226.625 504.469 223.469 504.469 222.781C504.469 221.031 505.062 219.562 506.25 218.375C507.5 217.125 509 216.5 510.75 216.5H535.5C536.688 216.438 537.656 216.188 538.406 215.75C539.219 215.25 539.812 214.719 540.188 214.156C540.562 213.531 540.75 212.906 540.75 212.281C540.75 211.656 540.562 211.062 540.188 210.5C539.812 209.875 539.219 209.344 538.406 208.906C537.656 208.406 536.688 208.125 535.5 208.062H510.094H502.594C500.969 208.125 500.156 208.938 500.156 210.5V246.031ZM584.906 236.281C584.906 234.531 585.5 233.062 586.688 231.875C587.938 230.625 589.438 230 591.188 230H605.531L603.094 223.062C602.094 220.5 601.094 218.094 600.094 215.844C599.156 213.531 598.062 211.438 596.812 209.562C595.688 207.688 594.406 206.688 592.969 206.562C591.469 206.688 590.125 207.688 588.938 209.562C587.75 211.438 586.656 213.531 585.656 215.844C584.719 218.094 583.75 220.5 582.75 223.062L573.844 247.438C573.219 248.75 572.406 249.844 571.406 250.719C570.469 251.531 569.031 251.938 567.094 251.938C565.281 251.938 563.781 251.312 562.594 250.062C561.469 248.812 560.969 247.312 561.094 245.562C561.156 244.75 561.344 244 561.656 243.312L571.969 216.688C574.844 209.688 577.719 204.031 580.594 199.719C583.406 195.469 587.531 193.312 592.969 193.25C598.344 193.312 602.438 195.469 605.25 199.719C608.125 203.906 611 209.562 613.875 216.688L624.188 243.312C624.5 244 624.688 244.75 624.75 245.562C624.875 247.312 624.344 248.812 623.156 250.062C622.031 251.312 620.562 251.938 618.75 251.938C616.688 251.938 615.156 251.531 614.156 250.719C613.219 249.844 612.438 248.75 611.812 247.438L610.031 242.562H591.188C589.438 242.562 587.969 241.938 586.781 240.688C585.531 239.5 584.906 238.031 584.906 236.281Z" fill="url(#paint0_linear_380_8924)"/>
<path d="M155 329L160.196 336.5H149.804L155 329Z" fill="white"/>
<path d="M147.641 182.823C150.14 177.391 157.86 177.391 160.359 182.823L236.036 347.324C238.17 351.962 234.782 357.25 229.677 357.25H78.323C73.2182 357.25 69.8301 351.962 71.9636 347.324L147.641 182.823Z" fill="url(#paint1_linear_380_8924)"/>
<path d="M147.641 231.823C150.14 226.391 157.86 226.391 160.359 231.823L236.036 396.324C238.17 400.962 234.782 406.25 229.677 406.25H78.323C73.2182 406.25 69.8301 400.962 71.9636 396.324L147.641 231.823Z" fill="white"/>
<rect x="147" y="277" width="14" height="80" rx="7" fill="url(#paint2_linear_380_8924)"/>
<rect x="191" y="269" width="14" height="74" transform="rotate(90 191 269)" fill="url(#paint3_linear_380_8924)"/>
<rect x="191" y="255" width="14" height="74" transform="rotate(90 191 255)" fill="url(#paint4_linear_380_8924)"/>
<rect x="176" y="248" width="14" height="44" transform="rotate(90 176 248)" fill="url(#paint5_linear_380_8924)"/>
<rect x="122" y="258" width="5" height="16" fill="white"/>
<rect x="130" y="258" width="7" height="16" fill="white"/>
<rect x="140" y="258" width="9" height="16" fill="white"/>
<rect x="171" y="258" width="7" height="16" fill="white"/>
<rect x="159" y="258" width="9" height="16" fill="white"/>
<rect x="181" y="258" width="5" height="16" fill="white"/>
<path d="M122 271L123.732 274H120.268L122 271Z" fill="#5BCBA9"/>
<path d="M186 271L187.732 274H184.268L186 271Z" fill="#55ABB1"/>
<path d="M184.268 258L187.732 258L186 261L184.268 258Z" fill="#61ABB5"/>
<path d="M120 257.732L123.464 257.732L121.732 260.732L120 257.732Z" fill="#5BCBA9"/>
<path d="M343.125 288.781C343.125 287.031 343.719 285.562 344.906 284.375C346.156 283.125 347.656 282.5 349.406 282.5H403.969C405.719 282.5 407.219 283.094 408.469 284.281C409.656 285.531 410.25 287.031 410.25 288.781C410.25 290.531 409.625 292.031 408.375 293.281C407.188 294.469 405.719 295.062 403.969 295.062H383.062V333.031C382.688 336.781 380.625 338.812 376.875 339.125C375.125 339.125 373.594 338.562 372.281 337.438C371.031 336.25 370.406 334.781 370.406 333.031V295.062H349.406C347.656 295.062 346.188 294.438 345 293.188C343.75 292 343.125 290.531 343.125 288.781ZM470.438 282.5C473.625 282.562 476.469 283.562 478.969 285.5C481.469 287.438 483.469 289.75 484.969 292.438C486.531 295.125 487.688 297.969 488.438 300.969C489.188 303.969 489.562 307.031 489.562 310.156C489.562 314.281 488.906 318.344 487.594 322.344C486.344 326.281 484.25 329.781 481.312 332.844C478.438 335.906 474.812 337.562 470.438 337.812H437.719C433.344 337.625 429.688 336 426.75 332.938C423.812 329.875 421.719 326.344 420.469 322.344C419.281 318.344 418.688 314.281 418.688 310.156C418.688 306.031 419.312 302 420.562 298.062C421.812 294.062 423.875 290.531 426.75 287.469C429.688 284.344 433.344 282.688 437.719 282.5H439.5H468.656H470.438ZM467.25 325.25C469.625 325.125 471.594 324.25 473.156 322.625C474.781 320.938 475.938 319 476.625 316.812C477.312 314.625 477.656 312.406 477.656 310.156C477.656 307.906 477.281 305.719 476.531 303.594C475.844 301.406 474.719 299.469 473.156 297.781C471.594 296.094 469.625 295.188 467.25 295.062H440.625C438.25 295.188 436.281 296.094 434.719 297.781C433.156 299.469 432 301.406 431.25 303.594C430.562 305.719 430.219 307.906 430.219 310.156C430.219 312.406 430.562 314.625 431.25 316.812C431.938 319 433.062 320.938 434.625 322.625C436.25 324.25 438.25 325.125 440.625 325.25H467.25ZM519.656 339.969C517.531 339.969 515.406 339.594 513.281 338.844C511.219 338.094 509.219 337 507.281 335.562C505.344 334.062 503.656 332.094 502.219 329.656C500.781 327.219 500 324.312 499.875 320.938V287.094C499.875 285.344 500.5 283.906 501.75 282.781C503.062 281.594 504.594 281 506.344 281C510.094 281.312 512.125 283.344 512.438 287.094V320.188C512.5 321.688 512.812 322.969 513.375 324.031C513.938 325.031 514.562 325.844 515.25 326.469C515.938 327.031 516.625 327.469 517.312 327.781C518.062 328.031 518.812 328.156 519.562 328.156C520.312 328.156 521.062 328.031 521.812 327.781C522.562 327.469 523.281 327.031 523.969 326.469C524.656 325.844 525.281 325.031 525.844 324.031C526.406 322.969 526.688 321.688 526.688 320.188V287.094C526.688 285.344 527.312 283.906 528.562 282.781C529.875 281.594 531.406 281 533.156 281C536.906 281.312 538.969 283.344 539.344 287.094V320.188C539.406 321.688 539.719 322.938 540.281 323.938C540.844 325 541.469 325.844 542.156 326.469C542.844 327.031 543.531 327.469 544.219 327.781C544.969 328.031 545.719 328.156 546.469 328.156C547.219 328.156 547.969 328.031 548.719 327.781C549.469 327.469 550.188 327.031 550.875 326.469C551.562 325.844 552.188 325.031 552.75 324.031C553.312 322.969 553.594 321.688 553.594 320.188V287.094C553.594 285.344 554.219 283.906 555.469 282.781C556.781 281.594 558.312 281 560.062 281C563.812 281.312 565.875 283.344 566.25 287.094V320.938C566.25 324.312 565.5 327.219 564 329.656C562.562 332.094 560.875 334.062 558.938 335.562C557.062 337 555.062 338.094 552.938 338.844C550.875 339.594 548.75 339.969 546.562 339.969C544.438 339.969 542.312 339.594 540.188 338.844C538.125 338.094 536.125 336.969 534.188 335.469C533.812 335.219 533.469 334.938 533.156 334.625C532.781 334.938 532.438 335.219 532.125 335.469C530.188 336.969 528.156 338.094 526.031 338.844C523.969 339.594 521.844 339.969 519.656 339.969ZM595.969 282.5H600.281H632.156C633.906 282.562 635.344 283.219 636.469 284.469C637.656 285.719 638.25 287.219 638.25 288.969C637.938 292.719 635.906 294.75 632.156 295.062H599.156C596.781 295.188 594.812 296.094 593.25 297.781C591.688 299.469 590.531 301.406 589.781 303.594C589.094 305.719 588.75 307.906 588.75 310.156C588.75 312.406 589.094 314.625 589.781 316.812C590.531 318.938 591.688 320.844 593.25 322.531C594.812 324.219 596.781 325.125 599.156 325.25H632.156C633.906 325.312 635.344 325.969 636.469 327.219C637.656 328.469 638.25 329.969 638.25 331.719C638.188 333.406 637.562 334.844 636.375 336.031C635.25 337.156 633.844 337.75 632.156 337.812H597.75H595.969C591.594 337.562 587.969 335.906 585.094 332.844C582.281 329.719 580.25 326.188 579 322.25C577.812 318.312 577.219 314.281 577.219 310.156C577.219 306.031 577.844 302 579.094 298.062C580.344 294.125 582.375 290.625 585.188 287.562C588 284.438 591.594 282.75 595.969 282.5ZM638.062 309.781C638.062 311.531 637.438 313 636.188 314.188C635 315.438 633.531 316.062 631.781 316.062H603.469C601.719 316.062 600.219 315.469 598.969 314.281C597.781 313.031 597.188 311.531 597.188 309.781C597.188 308.031 597.781 306.531 598.969 305.281C600.219 304.094 601.719 303.5 603.469 303.5H631.781C633.531 303.5 635 304.125 636.188 305.375C637.438 306.562 638.062 308.031 638.062 309.781ZM660.281 333.031C659.906 336.781 657.844 338.812 654.094 339.125C652.344 339.125 650.812 338.562 649.5 337.438C648.25 336.25 647.625 334.781 647.625 333.031V288.594C647.688 286.844 648.344 285.406 649.594 284.281C650.844 283.094 652.344 282.5 654.094 282.5H658.688H670.219H693.375C693.75 282.5 694.125 282.531 694.5 282.594H695.062C699.438 282.719 703.031 283.719 705.844 285.594C708.656 287.469 710.688 289.625 711.938 292.062C713.188 294.438 713.812 296.844 713.812 299.281C713.812 301.781 713.188 304.25 711.938 306.688C710.75 309.062 708.719 311.188 705.844 313.062C703.031 314.938 699.438 315.938 695.062 316.062H678.562C679.062 319.188 680.094 321.5 681.656 323C683.156 324.5 685.062 325.25 687.375 325.25H707.625C709.375 325.312 710.812 325.969 711.938 327.219C713.125 328.469 713.719 329.969 713.719 331.719C713.656 333.406 713.031 334.844 711.844 336.031C710.719 337.156 709.312 337.75 707.625 337.812H685.688C681.062 337.875 676.875 336.062 673.125 332.375C669.375 328.688 667.094 324.312 666.281 319.25C665.156 313.625 664.594 310.469 664.594 309.781C664.594 308.031 665.188 306.562 666.375 305.375C667.625 304.125 669.125 303.5 670.875 303.5H695.625C696.812 303.438 697.781 303.188 698.531 302.75C699.344 302.25 699.938 301.719 700.312 301.156C700.688 300.531 700.875 299.906 700.875 299.281C700.875 298.656 700.688 298.062 700.312 297.5C699.938 296.875 699.344 296.344 698.531 295.906C697.781 295.406 696.812 295.125 695.625 295.062H670.219H662.719C661.094 295.125 660.281 295.938 660.281 297.5V333.031Z" fill="url(#paint6_linear_380_8924)"/>
<ellipse cx="239.425" cy="232.398" rx="30" ry="39" transform="rotate(-22 239.425 232.398)" fill="#5BCBA9"/>
<ellipse cx="232.425" cy="232.398" rx="30" ry="39" transform="rotate(-22 232.425 232.398)" fill="white"/>
<ellipse cx="239.425" cy="232.398" rx="30" ry="39" transform="rotate(-22 239.425 232.398)" fill="#54A2BA"/>
<ellipse cx="232.425" cy="232.398" rx="30" ry="39" transform="rotate(-22 232.425 232.398)" fill="white"/>
<ellipse cx="21.1303" cy="28.9329" rx="21.1303" ry="28.9329" transform="matrix(0.917237 -0.398343 0.351842 0.936059 195.877 217.834)" fill="#5BCBA9"/>
<ellipse cx="21.1303" cy="28.9329" rx="21.1303" ry="28.9329" transform="matrix(0.917237 -0.398343 0.351842 0.936059 191 217.834)" fill="white"/>
<ellipse cx="21.1303" cy="28.9329" rx="21.1303" ry="28.9329" transform="matrix(0.917237 -0.398343 0.351842 0.936059 195.877 217.834)" fill="#54A2BA"/>
<ellipse cx="21.1303" cy="28.9329" rx="21.1303" ry="28.9329" transform="matrix(0.917237 -0.398343 0.351842 0.936059 191 217.834)" fill="white"/>
<ellipse cx="30" cy="39" rx="30" ry="39" transform="matrix(-0.927184 -0.374607 -0.374607 0.927184 110.85 207.476)" fill="#5BCBA9"/>
<ellipse cx="30" cy="39" rx="30" ry="39" transform="matrix(-0.927184 -0.374607 -0.374607 0.927184 117.85 207.476)" fill="white"/>
<ellipse cx="30" cy="39" rx="30" ry="39" transform="matrix(-0.927184 -0.374607 -0.374607 0.927184 110.85 207.476)" fill="#5BCBA9"/>
<ellipse cx="30" cy="39" rx="30" ry="39" transform="matrix(-0.927184 -0.374607 -0.374607 0.927184 117.85 207.476)" fill="white"/>
<ellipse cx="21.1303" cy="28.9329" rx="21.1303" ry="28.9329" transform="matrix(-0.917237 -0.398343 -0.351842 0.936059 111.973 217.834)" fill="#5BCBA9"/>
<ellipse cx="21.1303" cy="28.9329" rx="21.1303" ry="28.9329" transform="matrix(-0.917237 -0.398343 -0.351842 0.936059 116.85 217.834)" fill="white"/>
<ellipse cx="21.1303" cy="28.9329" rx="21.1303" ry="28.9329" transform="matrix(-0.917237 -0.398343 -0.351842 0.936059 116.85 217.834)" fill="white"/>
<path d="M117 276L121.33 283.5H112.67L117 276Z" fill="#AAA9A9"/>
<path d="M191 276L186.67 283.5H195.33L191 276Z" fill="url(#paint7_linear_380_8924)"/>
<path d="M123.407 254.807L116.782 258.584L116.321 251.989L123.407 254.807Z" fill="#ABAAAA"/>
<path d="M138.407 247.807L131.782 251.584L131.321 244.989L138.407 247.807Z" fill="#A6A6A6"/>
<path d="M170.266 247.807L176.891 251.584L177.352 244.989L170.266 247.807Z" fill="#9D9999"/>
<path d="M155 329L160.196 336.5H149.804L155 329Z" fill="white"/>
<rect x="147" y="277" width="14" height="80" rx="7" fill="url(#paint8_linear_380_8924)"/>
<rect x="191" y="269" width="14" height="74" transform="rotate(90 191 269)" fill="url(#paint9_linear_380_8924)"/>
<rect x="191" y="255" width="14" height="74" transform="rotate(90 191 255)" fill="url(#paint10_linear_380_8924)"/>
<rect x="176" y="248" width="14" height="44" transform="rotate(90 176 248)" fill="url(#paint11_linear_380_8924)"/>
<rect x="122" y="258" width="5" height="16" fill="white"/>
<rect x="130" y="258" width="7" height="16" fill="white"/>
<rect x="140" y="258" width="9" height="16" fill="white"/>
<rect x="171" y="258" width="7" height="16" fill="white"/>
<rect x="159" y="258" width="9" height="16" fill="white"/>
<rect x="181" y="258" width="5" height="16" fill="white"/>
<path d="M122 271L123.732 274H120.268L122 271Z" fill="#5BCBA9"/>
<path d="M186 271L187.732 274H184.268L186 271Z" fill="#55ABB1"/>
<path d="M184.268 258L187.732 258L186 261L184.268 258Z" fill="#61ABB5"/>
<path d="M120 257.732L123.464 257.732L121.732 260.732L120 257.732Z" fill="#5BCBA9"/>
<ellipse cx="239.425" cy="232.398" rx="30" ry="39" transform="rotate(-22 239.425 232.398)" fill="#5BCBA9"/>
<ellipse cx="232.425" cy="232.398" rx="30" ry="39" transform="rotate(-22 232.425 232.398)" fill="white"/>
<ellipse cx="239.425" cy="232.398" rx="30" ry="39" transform="rotate(-22 239.425 232.398)" fill="#54A2BA"/>
<ellipse cx="232.425" cy="232.398" rx="30" ry="39" transform="rotate(-22 232.425 232.398)" fill="white"/>
<ellipse cx="21.1303" cy="28.9329" rx="21.1303" ry="28.9329" transform="matrix(0.917237 -0.398343 0.351842 0.936059 195.877 217.834)" fill="#5BCBA9"/>
<ellipse cx="21.1303" cy="28.9329" rx="21.1303" ry="28.9329" transform="matrix(0.917237 -0.398343 0.351842 0.936059 191 217.834)" fill="white"/>
<ellipse cx="21.1303" cy="28.9329" rx="21.1303" ry="28.9329" transform="matrix(0.917237 -0.398343 0.351842 0.936059 195.877 217.834)" fill="#54A2BA"/>
<ellipse cx="21.1303" cy="28.9329" rx="21.1303" ry="28.9329" transform="matrix(0.917237 -0.398343 0.351842 0.936059 191 217.834)" fill="white"/>
<ellipse cx="30" cy="39" rx="30" ry="39" transform="matrix(-0.927184 -0.374607 -0.374607 0.927184 110.85 207.476)" fill="#5BCBA9"/>
<ellipse cx="30" cy="39" rx="30" ry="39" transform="matrix(-0.927184 -0.374607 -0.374607 0.927184 117.85 207.476)" fill="white"/>
<ellipse cx="30" cy="39" rx="30" ry="39" transform="matrix(-0.927184 -0.374607 -0.374607 0.927184 110.85 207.476)" fill="#5BCBA9"/>
<ellipse cx="30" cy="39" rx="30" ry="39" transform="matrix(-0.927184 -0.374607 -0.374607 0.927184 117.85 207.476)" fill="white"/>
<ellipse cx="21.1303" cy="28.9329" rx="21.1303" ry="28.9329" transform="matrix(-0.917237 -0.398343 -0.351842 0.936059 111.973 217.834)" fill="#5BCBA9"/>
<ellipse cx="21.1303" cy="28.9329" rx="21.1303" ry="28.9329" transform="matrix(-0.917237 -0.398343 -0.351842 0.936059 116.85 217.834)" fill="white"/>
<ellipse cx="21.1303" cy="28.9329" rx="21.1303" ry="28.9329" transform="matrix(-0.917237 -0.398343 -0.351842 0.936059 116.85 217.834)" fill="white"/>
<path d="M117 276L121.33 283.5H112.67L117 276Z" fill="#AAA9A9"/>
<path d="M191 276L186.67 283.5H195.33L191 276Z" fill="url(#paint12_linear_380_8924)"/>
<path d="M123.407 254.807L116.782 258.584L116.321 251.989L123.407 254.807Z" fill="#ABAAAA"/>
<path d="M138.407 247.807L131.782 251.584L131.321 244.989L138.407 247.807Z" fill="#A6A6A6"/>
<path d="M170.266 247.807L176.891 251.584L177.352 244.989L170.266 247.807Z" fill="#9D9999"/>
<path d="M155 329L160.196 336.5H149.804L155 329Z" fill="white"/>
<path d="M147.641 182.823C150.14 177.391 157.86 177.391 160.359 182.823L236.036 347.324C238.17 351.962 234.782 357.25 229.677 357.25H78.323C73.2182 357.25 69.8301 351.962 71.9636 347.324L147.641 182.823Z" fill="url(#paint13_linear_380_8924)"/>
<path d="M147.641 231.823C150.14 226.391 157.86 226.391 160.359 231.823L236.036 396.324C238.17 400.962 234.782 406.25 229.677 406.25H78.323C73.2182 406.25 69.8301 400.962 71.9636 396.324L147.641 231.823Z" fill="white"/>
<rect x="147" y="277" width="14" height="80" rx="7" fill="url(#paint14_linear_380_8924)"/>
<rect x="191" y="269" width="14" height="74" transform="rotate(90 191 269)" fill="url(#paint15_linear_380_8924)"/>
<rect x="191" y="255" width="14" height="74" transform="rotate(90 191 255)" fill="url(#paint16_linear_380_8924)"/>
<rect x="176" y="248" width="14" height="44" transform="rotate(90 176 248)" fill="url(#paint17_linear_380_8924)"/>
<rect x="122" y="258" width="5" height="16" fill="white"/>
<rect x="130" y="258" width="7" height="16" fill="white"/>
<rect x="140" y="258" width="9" height="16" fill="white"/>
<rect x="171" y="258" width="7" height="16" fill="white"/>
<rect x="159" y="258" width="9" height="16" fill="white"/>
<rect x="181" y="258" width="5" height="16" fill="white"/>
<path d="M122 271L123.732 274H120.268L122 271Z" fill="#5BCBA9"/>
<path d="M186 271L187.732 274H184.268L186 271Z" fill="#55ABB1"/>
<path d="M184.268 258L187.732 258L186 261L184.268 258Z" fill="#61ABB5"/>
<path d="M120 257.732L123.464 257.732L121.732 260.732L120 257.732Z" fill="#5BCBA9"/>
<ellipse cx="239.425" cy="232.398" rx="30" ry="39" transform="rotate(-22 239.425 232.398)" fill="#5BCBA9"/>
<ellipse cx="232.425" cy="232.398" rx="30" ry="39" transform="rotate(-22 232.425 232.398)" fill="white"/>
<ellipse cx="239.425" cy="232.398" rx="30" ry="39" transform="rotate(-22 239.425 232.398)" fill="#54A2BA"/>
<ellipse cx="232.425" cy="232.398" rx="30" ry="39" transform="rotate(-22 232.425 232.398)" fill="white"/>
<ellipse cx="21.1303" cy="28.9329" rx="21.1303" ry="28.9329" transform="matrix(0.917237 -0.398343 0.351842 0.936059 195.877 217.834)" fill="#5BCBA9"/>
<ellipse cx="21.1303" cy="28.9329" rx="21.1303" ry="28.9329" transform="matrix(0.917237 -0.398343 0.351842 0.936059 191 217.834)" fill="white"/>
<ellipse cx="21.1303" cy="28.9329" rx="21.1303" ry="28.9329" transform="matrix(0.917237 -0.398343 0.351842 0.936059 195.877 217.834)" fill="#54A2BA"/>
<ellipse cx="21.1303" cy="28.9329" rx="21.1303" ry="28.9329" transform="matrix(0.917237 -0.398343 0.351842 0.936059 191 217.834)" fill="white"/>
<ellipse cx="30" cy="39" rx="30" ry="39" transform="matrix(-0.927184 -0.374607 -0.374607 0.927184 110.85 207.476)" fill="#5BCBA9"/>
<ellipse cx="30" cy="39" rx="30" ry="39" transform="matrix(-0.927184 -0.374607 -0.374607 0.927184 117.85 207.476)" fill="white"/>
<ellipse cx="30" cy="39" rx="30" ry="39" transform="matrix(-0.927184 -0.374607 -0.374607 0.927184 110.85 207.476)" fill="#5BCBA9"/>
<ellipse cx="30" cy="39" rx="30" ry="39" transform="matrix(-0.927184 -0.374607 -0.374607 0.927184 117.85 207.476)" fill="white"/>
<ellipse cx="21.1303" cy="28.9329" rx="21.1303" ry="28.9329" transform="matrix(-0.917237 -0.398343 -0.351842 0.936059 111.973 217.834)" fill="#5BCBA9"/>
<ellipse cx="21.1303" cy="28.9329" rx="21.1303" ry="28.9329" transform="matrix(-0.917237 -0.398343 -0.351842 0.936059 116.85 217.834)" fill="white"/>
<ellipse cx="21.1303" cy="28.9329" rx="21.1303" ry="28.9329" transform="matrix(-0.917237 -0.398343 -0.351842 0.936059 116.85 217.834)" fill="white"/>
<path d="M117 276L121.33 283.5H112.67L117 276Z" fill="#AAA9A9"/>
<path d="M191 276L186.67 283.5H195.33L191 276Z" fill="url(#paint18_linear_380_8924)"/>
<path d="M123.407 254.807L116.782 258.584L116.321 251.989L123.407 254.807Z" fill="#ABAAAA"/>
<path d="M138.407 247.807L131.782 251.584L131.321 244.989L138.407 247.807Z" fill="#A6A6A6"/>
<path d="M170.266 247.807L176.891 251.584L177.352 244.989L170.266 247.807Z" fill="#9D9999"/>
<path d="M155 329L160.196 336.5H149.804L155 329Z" fill="white"/>
<rect x="147" y="277" width="14" height="80" rx="7" fill="url(#paint19_linear_380_8924)"/>
<rect x="191" y="269" width="14" height="74" transform="rotate(90 191 269)" fill="url(#paint20_linear_380_8924)"/>
<rect x="191" y="255" width="14" height="74" transform="rotate(90 191 255)" fill="url(#paint21_linear_380_8924)"/>
<rect x="176" y="248" width="14" height="44" transform="rotate(90 176 248)" fill="url(#paint22_linear_380_8924)"/>
<rect x="122" y="258" width="5" height="16" fill="white"/>
<rect x="130" y="258" width="7" height="16" fill="white"/>
<rect x="140" y="258" width="9" height="16" fill="white"/>
<rect x="171" y="258" width="7" height="16" fill="white"/>
<rect x="159" y="258" width="9" height="16" fill="white"/>
<rect x="181" y="258" width="5" height="16" fill="white"/>
<path d="M122 271L123.732 274H120.268L122 271Z" fill="#5BCBA9"/>
<path d="M186 271L187.732 274H184.268L186 271Z" fill="#55ABB1"/>
<path d="M184.268 258L187.732 258L186 261L184.268 258Z" fill="#61ABB5"/>
<path d="M120 257.732L123.464 257.732L121.732 260.732L120 257.732Z" fill="#5BCBA9"/>
<ellipse cx="239.425" cy="232.398" rx="30" ry="39" transform="rotate(-22 239.425 232.398)" fill="#5BCBA9"/>
<ellipse cx="232.425" cy="232.398" rx="30" ry="39" transform="rotate(-22 232.425 232.398)" fill="white"/>
<ellipse cx="239.425" cy="232.398" rx="30" ry="39" transform="rotate(-22 239.425 232.398)" fill="#54A2BA"/>
<ellipse cx="232.425" cy="232.398" rx="30" ry="39" transform="rotate(-22 232.425 232.398)" fill="white"/>
<ellipse cx="21.1303" cy="28.9329" rx="21.1303" ry="28.9329" transform="matrix(0.917237 -0.398343 0.351842 0.936059 195.877 217.834)" fill="#5BCBA9"/>
<ellipse cx="21.1303" cy="28.9329" rx="21.1303" ry="28.9329" transform="matrix(0.917237 -0.398343 0.351842 0.936059 191 217.834)" fill="white"/>
<ellipse cx="21.1303" cy="28.9329" rx="21.1303" ry="28.9329" transform="matrix(0.917237 -0.398343 0.351842 0.936059 195.877 217.834)" fill="#54A2BA"/>
<ellipse cx="21.1303" cy="28.9329" rx="21.1303" ry="28.9329" transform="matrix(0.917237 -0.398343 0.351842 0.936059 191 217.834)" fill="white"/>
<ellipse cx="30" cy="39" rx="30" ry="39" transform="matrix(-0.927184 -0.374607 -0.374607 0.927184 110.85 207.476)" fill="#5BCBA9"/>
<ellipse cx="30" cy="39" rx="30" ry="39" transform="matrix(-0.927184 -0.374607 -0.374607 0.927184 117.85 207.476)" fill="white"/>
<ellipse cx="30" cy="39" rx="30" ry="39" transform="matrix(-0.927184 -0.374607 -0.374607 0.927184 110.85 207.476)" fill="#5BCBA9"/>
<ellipse cx="30" cy="39" rx="30" ry="39" transform="matrix(-0.927184 -0.374607 -0.374607 0.927184 117.85 207.476)" fill="white"/>
<ellipse cx="21.1303" cy="28.9329" rx="21.1303" ry="28.9329" transform="matrix(-0.917237 -0.398343 -0.351842 0.936059 111.973 217.834)" fill="#5BCBA9"/>
<ellipse cx="21.1303" cy="28.9329" rx="21.1303" ry="28.9329" transform="matrix(-0.917237 -0.398343 -0.351842 0.936059 116.85 217.834)" fill="white"/>
<ellipse cx="21.1303" cy="28.9329" rx="21.1303" ry="28.9329" transform="matrix(-0.917237 -0.398343 -0.351842 0.936059 116.85 217.834)" fill="white"/>
<path d="M117 276L121.33 283.5H112.67L117 276Z" fill="#AAA9A9"/>
<path d="M191 276L186.67 283.5H195.33L191 276Z" fill="url(#paint23_linear_380_8924)"/>
<path d="M123.407 254.807L116.782 258.584L116.321 251.989L123.407 254.807Z" fill="#ABAAAA"/>
<path d="M138.407 247.807L131.782 251.584L131.321 244.989L138.407 247.807Z" fill="#A6A6A6"/>
<path d="M170.266 247.807L176.891 251.584L177.352 244.989L170.266 247.807Z" fill="#9D9999"/>
<path d="M230.188 94.3125C228.771 94.3125 227.354 94.0625 225.938 93.5625C224.562 93.0625 223.229 92.3333 221.938 91.375C220.646 90.375 219.521 89.0625 218.562 87.4375C217.604 85.8125 217.083 83.875 217 81.625V59.0625C217 57.8958 217.417 56.9375 218.25 56.1875C219.125 55.3958 220.146 55 221.312 55C223.812 55.2083 225.167 56.5625 225.375 59.0625V81.125C225.417 82.125 225.625 82.9792 226 83.6875C226.375 84.3542 226.792 84.8958 227.25 85.3125C227.708 85.6875 228.167 85.9792 228.625 86.1875C229.125 86.3542 229.625 86.4375 230.125 86.4375C230.625 86.4375 231.125 86.3542 231.625 86.1875C232.125 85.9792 232.604 85.6875 233.062 85.3125C233.521 84.8958 233.938 84.3542 234.312 83.6875C234.688 82.9792 234.875 82.125 234.875 81.125V59.0625C234.875 57.8958 235.292 56.9375 236.125 56.1875C237 55.3958 238.021 55 239.188 55C241.688 55.2083 243.062 56.5625 243.312 59.0625V81.125C243.354 82.125 243.562 82.9583 243.938 83.625C244.312 84.3333 244.729 84.8958 245.188 85.3125C245.646 85.6875 246.104 85.9792 246.562 86.1875C247.062 86.3542 247.562 86.4375 248.062 86.4375C248.562 86.4375 249.062 86.3542 249.562 86.1875C250.062 85.9792 250.542 85.6875 251 85.3125C251.458 84.8958 251.875 84.3542 252.25 83.6875C252.625 82.9792 252.812 82.125 252.812 81.125V59.0625C252.812 57.8958 253.229 56.9375 254.062 56.1875C254.938 55.3958 255.958 55 257.125 55C259.625 55.2083 261 56.5625 261.25 59.0625V81.625C261.25 83.875 260.75 85.8125 259.75 87.4375C258.792 89.0625 257.667 90.375 256.375 91.375C255.125 92.3333 253.792 93.0625 252.375 93.5625C251 94.0625 249.583 94.3125 248.125 94.3125C246.708 94.3125 245.292 94.0625 243.875 93.5625C242.5 93.0625 241.167 92.3125 239.875 91.3125C239.625 91.1458 239.396 90.9583 239.188 90.75C238.938 90.9583 238.708 91.1458 238.5 91.3125C237.208 92.3125 235.854 93.0625 234.438 93.5625C233.062 94.0625 231.646 94.3125 230.188 94.3125ZM268.125 88.6875C268.125 87.5208 268.521 86.5417 269.312 85.75C270.146 84.9167 271.146 84.5 272.312 84.5H284.312V64.375H272.312C271.146 64.375 270.167 63.9583 269.375 63.125C268.542 62.3333 268.125 61.3542 268.125 60.1875C268.125 59.0208 268.521 58.0417 269.312 57.25C270.146 56.4167 271.146 56 272.312 56H304.688C305.854 56 306.854 56.3958 307.688 57.1875C308.479 58.0208 308.875 59.0208 308.875 60.1875C308.875 61.3542 308.458 62.3542 307.625 63.1875C306.833 63.9792 305.854 64.375 304.688 64.375H292.75V84.5H304.688C305.854 84.5 306.854 84.8958 307.688 85.6875C308.479 86.5208 308.875 87.5208 308.875 88.6875C308.875 89.8542 308.458 90.8542 307.625 91.6875C306.833 92.4792 305.854 92.875 304.688 92.875H272.312C271.146 92.875 270.167 92.4583 269.375 91.625C268.542 90.8333 268.125 89.8542 268.125 88.6875ZM314.125 60.1875C314.125 59.0208 314.521 58.0417 315.312 57.25C316.146 56.4167 317.146 56 318.312 56H354.688C355.854 56 356.854 56.3958 357.688 57.1875C358.479 58.0208 358.875 59.0208 358.875 60.1875C358.875 61.3542 358.458 62.3542 357.625 63.1875C356.833 63.9792 355.854 64.375 354.688 64.375H340.75V89.6875C340.5 92.1875 339.125 93.5417 336.625 93.75C335.458 93.75 334.438 93.375 333.562 92.625C332.729 91.8333 332.312 90.8542 332.312 89.6875V64.375H318.312C317.146 64.375 316.167 63.9583 315.375 63.125C314.542 62.3333 314.125 61.3542 314.125 60.1875ZM379.5 83.1875C379.5 82.0208 379.896 81.0417 380.688 80.25C381.521 79.4167 382.521 79 383.688 79H393.25L391.625 74.375C390.958 72.6667 390.292 71.0625 389.625 69.5625C389 68.0208 388.271 66.625 387.438 65.375C386.688 64.125 385.833 63.4583 384.875 63.375C383.875 63.4583 382.979 64.125 382.188 65.375C381.396 66.625 380.667 68.0208 380 69.5625C379.375 71.0625 378.729 72.6667 378.062 74.375L372.125 90.625C371.708 91.5 371.167 92.2292 370.5 92.8125C369.875 93.3542 368.917 93.625 367.625 93.625C366.417 93.625 365.417 93.2083 364.625 92.375C363.875 91.5417 363.542 90.5417 363.625 89.375C363.667 88.8333 363.792 88.3333 364 87.875L370.875 70.125C372.792 65.4583 374.708 61.6875 376.625 58.8125C378.5 55.9792 381.25 54.5417 384.875 54.5C388.458 54.5417 391.188 55.9792 393.062 58.8125C394.979 61.6042 396.896 65.375 398.812 70.125L405.688 87.875C405.896 88.3333 406.021 88.8333 406.062 89.375C406.146 90.5417 405.792 91.5417 405 92.375C404.25 93.2083 403.271 93.625 402.062 93.625C400.688 93.625 399.667 93.3542 399 92.8125C398.375 92.2292 397.854 91.5 397.438 90.625L396.25 87.375H383.688C382.521 87.375 381.542 86.9583 380.75 86.125C379.917 85.3333 379.5 84.3542 379.5 83.1875ZM431.375 94.3125C429.208 94.3125 427.062 94.0625 424.938 93.5625C422.854 93.0625 420.854 92.3333 418.938 91.375C417.021 90.375 415.333 89.0625 413.875 87.4375C412.417 85.8125 411.625 83.875 411.5 81.625V79V78.0625C411.5 76.8958 411.917 75.9375 412.75 75.1875C413.625 74.3958 414.646 74 415.812 74C418.312 74.2083 419.667 75.5625 419.875 78.0625V79.6875C419.958 80.9792 420.438 82.0625 421.312 82.9375C422.229 83.7708 423.229 84.4375 424.312 84.9375C425.438 85.4375 426.583 85.8125 427.75 86.0625C428.958 86.3125 430.167 86.4375 431.375 86.4375C432.583 86.4375 433.771 86.3125 434.938 86.0625C436.146 85.8125 437.292 85.4375 438.375 84.9375C439.5 84.4375 440.5 83.7708 441.375 82.9375C442.292 82.0625 442.792 80.9792 442.875 79.6875V59.0625C442.875 57.8958 443.292 56.9375 444.125 56.1875C445 55.3958 446.021 55 447.188 55C449.688 55.2083 451.062 56.5625 451.312 59.0625V79V81.625C451.188 83.875 450.375 85.8125 448.875 87.4375C447.417 89.0625 445.729 90.375 443.812 91.375C441.896 92.3333 439.875 93.0625 437.75 93.5625C435.667 94.0625 433.542 94.3125 431.375 94.3125ZM504.625 94.3125C503.208 94.3125 501.792 94.0625 500.375 93.5625C499 93.0625 497.667 92.3333 496.375 91.375C495.083 90.375 493.958 89.0625 493 87.4375C492.042 85.8125 491.521 83.875 491.438 81.625V59.0625C491.438 57.8958 491.854 56.9375 492.688 56.1875C493.562 55.3958 494.583 55 495.75 55C498.25 55.2083 499.604 56.5625 499.812 59.0625V81.125C499.854 82.125 500.062 82.9792 500.438 83.6875C500.812 84.3542 501.229 84.8958 501.688 85.3125C502.146 85.6875 502.604 85.9792 503.062 86.1875C503.562 86.3542 504.062 86.4375 504.562 86.4375C505.062 86.4375 505.562 86.3542 506.062 86.1875C506.562 85.9792 507.042 85.6875 507.5 85.3125C507.958 84.8958 508.375 84.3542 508.75 83.6875C509.125 82.9792 509.312 82.125 509.312 81.125V59.0625C509.312 57.8958 509.729 56.9375 510.562 56.1875C511.438 55.3958 512.458 55 513.625 55C516.125 55.2083 517.5 56.5625 517.75 59.0625V81.125C517.792 82.125 518 82.9583 518.375 83.625C518.75 84.3333 519.167 84.8958 519.625 85.3125C520.083 85.6875 520.542 85.9792 521 86.1875C521.5 86.3542 522 86.4375 522.5 86.4375C523 86.4375 523.5 86.3542 524 86.1875C524.5 85.9792 524.979 85.6875 525.438 85.3125C525.896 84.8958 526.312 84.3542 526.688 83.6875C527.062 82.9792 527.25 82.125 527.25 81.125V59.0625C527.25 57.8958 527.667 56.9375 528.5 56.1875C529.375 55.3958 530.396 55 531.562 55C534.062 55.2083 535.438 56.5625 535.688 59.0625V81.625C535.688 83.875 535.188 85.8125 534.188 87.4375C533.229 89.0625 532.104 90.375 530.812 91.375C529.562 92.3333 528.229 93.0625 526.812 93.5625C525.438 94.0625 524.021 94.3125 522.562 94.3125C521.146 94.3125 519.729 94.0625 518.312 93.5625C516.938 93.0625 515.604 92.3125 514.312 91.3125C514.062 91.1458 513.833 90.9583 513.625 90.75C513.375 90.9583 513.146 91.1458 512.938 91.3125C511.646 92.3125 510.292 93.0625 508.875 93.5625C507.5 94.0625 506.083 94.3125 504.625 94.3125Z" fill="url(#paint24_linear_380_8924)"/>
<defs>
<linearGradient id="paint0_linear_380_8924" x1="339" y1="215.5" x2="603.043" y2="215.394" gradientUnits="userSpaceOnUse">
<stop stop-color="#B8B8B8"/>
<stop offset="1" stop-color="#494848"/>
</linearGradient>
<linearGradient id="paint1_linear_380_8924" x1="108" y1="188" x2="360.5" y2="290.5" gradientUnits="userSpaceOnUse">
<stop stop-color="#B8B8B8"/>
<stop offset="1" stop-color="#525252"/>
</linearGradient>
<linearGradient id="paint2_linear_380_8924" x1="116.5" y1="286" x2="223" y2="285" gradientUnits="userSpaceOnUse">
<stop stop-color="#5BCBA9"/>
<stop offset="1" stop-color="#54A2BA"/>
</linearGradient>
<linearGradient id="paint3_linear_380_8924" x1="205" y1="340.5" x2="205" y2="244" gradientUnits="userSpaceOnUse">
<stop stop-color="#5BCBA9"/>
<stop offset="1" stop-color="#54A2BA"/>
</linearGradient>
<linearGradient id="paint4_linear_380_8924" x1="200" y1="334.5" x2="198" y2="235.5" gradientUnits="userSpaceOnUse">
<stop stop-color="#5BCBA9"/>
<stop offset="1" stop-color="#54A2BA"/>
</linearGradient>
<linearGradient id="paint5_linear_380_8924" x1="178.5" y1="306.5" x2="176" y2="216.5" gradientUnits="userSpaceOnUse">
<stop stop-color="#5BCBA9"/>
<stop offset="1" stop-color="#54A2BA"/>
</linearGradient>
<linearGradient id="paint6_linear_380_8924" x1="339" y1="291" x2="727" y2="291" gradientUnits="userSpaceOnUse">
<stop stop-color="#5BCBA9"/>
<stop offset="1" stop-color="#54A2BA"/>
</linearGradient>
<linearGradient id="paint7_linear_380_8924" x1="191" y1="276" x2="197" y2="283.5" gradientUnits="userSpaceOnUse">
<stop stop-color="#928F8F"/>
<stop offset="1" stop-color="#8C8C8C"/>
</linearGradient>
<linearGradient id="paint8_linear_380_8924" x1="116.5" y1="286" x2="223" y2="285" gradientUnits="userSpaceOnUse">
<stop stop-color="#5BCBA9"/>
<stop offset="1" stop-color="#54A2BA"/>
</linearGradient>
<linearGradient id="paint9_linear_380_8924" x1="205" y1="340.5" x2="205" y2="244" gradientUnits="userSpaceOnUse">
<stop stop-color="#5BCBA9"/>
<stop offset="1" stop-color="#54A2BA"/>
</linearGradient>
<linearGradient id="paint10_linear_380_8924" x1="200" y1="334.5" x2="198" y2="235.5" gradientUnits="userSpaceOnUse">
<stop stop-color="#5BCBA9"/>
<stop offset="1" stop-color="#54A2BA"/>
</linearGradient>
<linearGradient id="paint11_linear_380_8924" x1="178.5" y1="306.5" x2="176" y2="216.5" gradientUnits="userSpaceOnUse">
<stop stop-color="#5BCBA9"/>
<stop offset="1" stop-color="#54A2BA"/>
</linearGradient>
<linearGradient id="paint12_linear_380_8924" x1="191" y1="276" x2="197" y2="283.5" gradientUnits="userSpaceOnUse">
<stop stop-color="#928F8F"/>
<stop offset="1" stop-color="#8C8C8C"/>
</linearGradient>
<linearGradient id="paint13_linear_380_8924" x1="108" y1="188" x2="360.5" y2="290.5" gradientUnits="userSpaceOnUse">
<stop stop-color="#B8B8B8"/>
<stop offset="1" stop-color="#525252"/>
</linearGradient>
<linearGradient id="paint14_linear_380_8924" x1="116.5" y1="286" x2="223" y2="285" gradientUnits="userSpaceOnUse">
<stop stop-color="#5BCBA9"/>
<stop offset="1" stop-color="#54A2BA"/>
</linearGradient>
<linearGradient id="paint15_linear_380_8924" x1="205" y1="340.5" x2="205" y2="244" gradientUnits="userSpaceOnUse">
<stop stop-color="#5BCBA9"/>
<stop offset="1" stop-color="#54A2BA"/>
</linearGradient>
<linearGradient id="paint16_linear_380_8924" x1="200" y1="334.5" x2="198" y2="235.5" gradientUnits="userSpaceOnUse">
<stop stop-color="#5BCBA9"/>
<stop offset="1" stop-color="#54A2BA"/>
</linearGradient>
<linearGradient id="paint17_linear_380_8924" x1="178.5" y1="306.5" x2="176" y2="216.5" gradientUnits="userSpaceOnUse">
<stop stop-color="#5BCBA9"/>
<stop offset="1" stop-color="#54A2BA"/>
</linearGradient>
<linearGradient id="paint18_linear_380_8924" x1="191" y1="276" x2="197" y2="283.5" gradientUnits="userSpaceOnUse">
<stop stop-color="#928F8F"/>
<stop offset="1" stop-color="#8C8C8C"/>
</linearGradient>
<linearGradient id="paint19_linear_380_8924" x1="116.5" y1="286" x2="223" y2="285" gradientUnits="userSpaceOnUse">
<stop stop-color="#5BCBA9"/>
<stop offset="1" stop-color="#54A2BA"/>
</linearGradient>
<linearGradient id="paint20_linear_380_8924" x1="205" y1="340.5" x2="205" y2="244" gradientUnits="userSpaceOnUse">
<stop stop-color="#5BCBA9"/>
<stop offset="1" stop-color="#54A2BA"/>
</linearGradient>
<linearGradient id="paint21_linear_380_8924" x1="200" y1="334.5" x2="198" y2="235.5" gradientUnits="userSpaceOnUse">
<stop stop-color="#5BCBA9"/>
<stop offset="1" stop-color="#54A2BA"/>
</linearGradient>
<linearGradient id="paint22_linear_380_8924" x1="178.5" y1="306.5" x2="176" y2="216.5" gradientUnits="userSpaceOnUse">
<stop stop-color="#5BCBA9"/>
<stop offset="1" stop-color="#54A2BA"/>
</linearGradient>
<linearGradient id="paint23_linear_380_8924" x1="191" y1="276" x2="197" y2="283.5" gradientUnits="userSpaceOnUse">
<stop stop-color="#928F8F"/>
<stop offset="1" stop-color="#8C8C8C"/>
</linearGradient>
<linearGradient id="paint24_linear_380_8924" x1="213" y1="75.5" x2="683.141" y2="75.173" gradientUnits="userSpaceOnUse">
<stop stop-color="#5BCBA9"/>
<stop offset="1" stop-color="#54A2BA"/>
</linearGradient>
</defs>
</svg>
