<svg width="763" height="469" viewBox="0 0 763 469" fill="none" xmlns="http://www.w3.org/2000/svg">
<path d="M374 243.281C374 241.531 374.594 240.062 375.781 238.875C377.031 237.625 378.531 237 380.281 237H394.625L392.188 230.062C391.188 227.5 390.188 225.094 389.188 222.844C388.25 220.531 387.156 218.438 385.906 216.562C384.781 214.688 383.5 213.688 382.062 213.562C380.562 213.688 379.219 214.688 378.031 216.562C376.844 218.438 375.75 220.531 374.75 222.844C373.812 225.094 372.844 227.5 371.844 230.062L362.938 254.438C362.312 255.75 361.5 256.844 360.5 257.719C359.562 258.531 358.125 258.938 356.188 258.938C354.375 258.938 352.875 258.312 351.688 257.062C350.562 255.812 350.062 254.312 350.188 252.562C350.25 251.75 350.438 251 350.75 250.312L361.062 223.688C363.938 216.688 366.812 211.031 369.688 206.719C372.5 202.469 376.625 200.312 382.062 200.25C387.438 200.312 391.531 202.469 394.344 206.719C397.219 210.906 400.094 216.562 402.969 223.688L413.281 250.312C413.594 251 413.781 251.75 413.844 252.562C413.969 254.312 413.438 255.812 412.25 257.062C411.125 258.312 409.656 258.938 407.844 258.938C405.781 258.938 404.25 258.531 403.25 257.719C402.312 256.844 401.531 255.75 400.906 254.438L399.125 249.562H380.281C378.531 249.562 377.062 248.938 375.875 247.688C374.625 246.5 374 245.031 374 243.281ZM453.125 259.969C449.875 259.969 446.656 259.594 443.469 258.844C440.344 258.094 437.344 257 434.469 255.562C431.594 254.062 429.062 252.094 426.875 249.656C424.688 247.219 423.5 244.312 423.312 240.938V237V207.094C423.312 205.344 423.938 203.906 425.188 202.781C426.5 201.594 428.031 201 429.781 201C433.531 201.312 435.562 203.344 435.875 207.094V238.031C436 239.969 436.719 241.594 438.031 242.906C439.406 244.156 440.906 245.156 442.531 245.906C444.219 246.656 445.938 247.219 447.688 247.594C449.5 247.969 451.312 248.156 453.125 248.156C454.938 248.156 456.719 247.969 458.469 247.594C460.281 247.219 462 246.656 463.625 245.906C465.312 245.156 466.812 244.156 468.125 242.906C469.5 241.594 470.25 239.969 470.375 238.031V207.094C470.375 205.344 471 203.906 472.25 202.781C473.562 201.594 475.094 201 476.844 201C480.594 201.312 482.656 203.344 483.031 207.094V237V240.938C482.844 244.312 481.625 247.219 479.375 249.656C477.188 252.094 474.656 254.062 471.781 255.562C468.906 257 465.875 258.094 462.688 258.844C459.562 259.594 456.375 259.969 453.125 259.969ZM508.156 253.031C507.781 256.781 505.719 258.812 501.969 259.125C500.219 259.125 498.688 258.562 497.375 257.438C496.125 256.25 495.5 254.781 495.5 253.031V208.594C495.562 206.844 496.219 205.406 497.469 204.281C498.719 203.094 500.219 202.5 501.969 202.5H506.562H518.094H541.25C541.625 202.5 542 202.531 542.375 202.594H542.938C547.312 202.719 550.906 203.719 553.719 205.594C556.531 207.469 558.562 209.625 559.812 212.062C561.062 214.438 561.688 216.844 561.688 219.281C561.688 221.781 561.062 224.25 559.812 226.688C558.625 229.062 556.594 231.188 553.719 233.062C550.906 234.938 547.312 235.938 542.938 236.062H526.438C526.938 239.188 527.969 241.5 529.531 243C531.031 244.5 532.938 245.25 535.25 245.25H555.5C557.25 245.312 558.688 245.969 559.812 247.219C561 248.469 561.594 249.969 561.594 251.719C561.531 253.406 560.906 254.844 559.719 256.031C558.594 257.156 557.188 257.75 555.5 257.812H533.562C528.938 257.875 524.75 256.062 521 252.375C517.25 248.688 514.969 244.312 514.156 239.25C513.031 233.625 512.469 230.469 512.469 229.781C512.469 228.031 513.062 226.562 514.25 225.375C515.5 224.125 517 223.5 518.75 223.5H543.5C544.688 223.438 545.656 223.188 546.406 222.75C547.219 222.25 547.812 221.719 548.188 221.156C548.562 220.531 548.75 219.906 548.75 219.281C548.75 218.656 548.562 218.062 548.188 217.5C547.812 216.875 547.219 216.344 546.406 215.906C545.656 215.406 544.688 215.125 543.5 215.062H518.094H510.594C508.969 215.125 508.156 215.938 508.156 217.5V253.031ZM592.906 243.281C592.906 241.531 593.5 240.062 594.688 238.875C595.938 237.625 597.438 237 599.188 237H613.531L611.094 230.062C610.094 227.5 609.094 225.094 608.094 222.844C607.156 220.531 606.062 218.438 604.812 216.562C603.688 214.688 602.406 213.688 600.969 213.562C599.469 213.688 598.125 214.688 596.938 216.562C595.75 218.438 594.656 220.531 593.656 222.844C592.719 225.094 591.75 227.5 590.75 230.062L581.844 254.438C581.219 255.75 580.406 256.844 579.406 257.719C578.469 258.531 577.031 258.938 575.094 258.938C573.281 258.938 571.781 258.312 570.594 257.062C569.469 255.812 568.969 254.312 569.094 252.562C569.156 251.75 569.344 251 569.656 250.312L579.969 223.688C582.844 216.688 585.719 211.031 588.594 206.719C591.406 202.469 595.531 200.312 600.969 200.25C606.344 200.312 610.438 202.469 613.25 206.719C616.125 210.906 619 216.562 621.875 223.688L632.188 250.312C632.5 251 632.688 251.75 632.75 252.562C632.875 254.312 632.344 255.812 631.156 257.062C630.031 258.312 628.562 258.938 626.75 258.938C624.688 258.938 623.156 258.531 622.156 257.719C621.219 256.844 620.438 255.75 619.812 254.438L618.031 249.562H599.188C597.438 249.562 595.969 248.938 594.781 247.688C593.531 246.5 592.906 245.031 592.906 243.281Z" fill="url(#paint0_linear_386_10270)"/>
<path fill-rule="evenodd" clip-rule="evenodd" d="M168.359 189.823C165.86 184.391 158.14 184.391 155.641 189.823L79.9636 354.324C77.8301 358.962 81.2181 364.25 86.3229 364.25H97.9394L155.641 238.823C158.14 233.391 165.86 233.391 168.359 238.823L226.061 364.25H237.677C242.782 364.25 246.17 358.962 244.036 354.324L168.359 189.823Z" fill="url(#paint1_linear_386_10270)"/>
<rect x="155" y="284" width="14" height="80" rx="7" fill="url(#paint2_linear_386_10270)"/>
<rect x="199" y="276" width="14" height="74" transform="rotate(90 199 276)" fill="url(#paint3_linear_386_10270)"/>
<rect x="199" y="262" width="14" height="74" transform="rotate(90 199 262)" fill="url(#paint4_linear_386_10270)"/>
<rect x="184" y="255" width="14" height="44" transform="rotate(90 184 255)" fill="url(#paint5_linear_386_10270)"/>
<rect x="130" y="265" width="5" height="16" fill="white"/>
<rect x="138" y="265" width="7" height="16" fill="white"/>
<rect x="148" y="265" width="9" height="16" fill="white"/>
<rect x="179" y="265" width="7" height="16" fill="white"/>
<rect x="167" y="265" width="9" height="16" fill="white"/>
<rect x="189" y="265" width="5" height="16" fill="white"/>
<path d="M130 278L131.732 281H128.268L130 278Z" fill="#5BCBA9"/>
<path d="M194 278L195.732 281H192.268L194 278Z" fill="#55ABB1"/>
<path d="M192.268 265L195.732 265L194 268L192.268 265Z" fill="#61ABB5"/>
<path d="M128 264.732L131.464 264.732L129.732 267.732L128 264.732Z" fill="#5BCBA9"/>
<path d="M351.125 295.781C351.125 294.031 351.719 292.562 352.906 291.375C354.156 290.125 355.656 289.5 357.406 289.5H411.969C413.719 289.5 415.219 290.094 416.469 291.281C417.656 292.531 418.25 294.031 418.25 295.781C418.25 297.531 417.625 299.031 416.375 300.281C415.188 301.469 413.719 302.062 411.969 302.062H391.062V340.031C390.688 343.781 388.625 345.812 384.875 346.125C383.125 346.125 381.594 345.562 380.281 344.438C379.031 343.25 378.406 341.781 378.406 340.031V302.062H357.406C355.656 302.062 354.188 301.438 353 300.188C351.75 299 351.125 297.531 351.125 295.781ZM478.438 289.5C481.625 289.562 484.469 290.562 486.969 292.5C489.469 294.438 491.469 296.75 492.969 299.438C494.531 302.125 495.688 304.969 496.438 307.969C497.188 310.969 497.562 314.031 497.562 317.156C497.562 321.281 496.906 325.344 495.594 329.344C494.344 333.281 492.25 336.781 489.312 339.844C486.438 342.906 482.812 344.562 478.438 344.812H445.719C441.344 344.625 437.688 343 434.75 339.938C431.812 336.875 429.719 333.344 428.469 329.344C427.281 325.344 426.688 321.281 426.688 317.156C426.688 313.031 427.312 309 428.562 305.062C429.812 301.062 431.875 297.531 434.75 294.469C437.688 291.344 441.344 289.688 445.719 289.5H447.5H476.656H478.438ZM475.25 332.25C477.625 332.125 479.594 331.25 481.156 329.625C482.781 327.938 483.938 326 484.625 323.812C485.312 321.625 485.656 319.406 485.656 317.156C485.656 314.906 485.281 312.719 484.531 310.594C483.844 308.406 482.719 306.469 481.156 304.781C479.594 303.094 477.625 302.188 475.25 302.062H448.625C446.25 302.188 444.281 303.094 442.719 304.781C441.156 306.469 440 308.406 439.25 310.594C438.562 312.719 438.219 314.906 438.219 317.156C438.219 319.406 438.562 321.625 439.25 323.812C439.938 326 441.062 327.938 442.625 329.625C444.25 331.25 446.25 332.125 448.625 332.25H475.25ZM527.656 346.969C525.531 346.969 523.406 346.594 521.281 345.844C519.219 345.094 517.219 344 515.281 342.562C513.344 341.062 511.656 339.094 510.219 336.656C508.781 334.219 508 331.312 507.875 327.938V294.094C507.875 292.344 508.5 290.906 509.75 289.781C511.062 288.594 512.594 288 514.344 288C518.094 288.312 520.125 290.344 520.438 294.094V327.188C520.5 328.688 520.812 329.969 521.375 331.031C521.938 332.031 522.562 332.844 523.25 333.469C523.938 334.031 524.625 334.469 525.312 334.781C526.062 335.031 526.812 335.156 527.562 335.156C528.312 335.156 529.062 335.031 529.812 334.781C530.562 334.469 531.281 334.031 531.969 333.469C532.656 332.844 533.281 332.031 533.844 331.031C534.406 329.969 534.688 328.688 534.688 327.188V294.094C534.688 292.344 535.312 290.906 536.562 289.781C537.875 288.594 539.406 288 541.156 288C544.906 288.312 546.969 290.344 547.344 294.094V327.188C547.406 328.688 547.719 329.938 548.281 330.938C548.844 332 549.469 332.844 550.156 333.469C550.844 334.031 551.531 334.469 552.219 334.781C552.969 335.031 553.719 335.156 554.469 335.156C555.219 335.156 555.969 335.031 556.719 334.781C557.469 334.469 558.188 334.031 558.875 333.469C559.562 332.844 560.188 332.031 560.75 331.031C561.312 329.969 561.594 328.688 561.594 327.188V294.094C561.594 292.344 562.219 290.906 563.469 289.781C564.781 288.594 566.312 288 568.062 288C571.812 288.312 573.875 290.344 574.25 294.094V327.938C574.25 331.312 573.5 334.219 572 336.656C570.562 339.094 568.875 341.062 566.938 342.562C565.062 344 563.062 345.094 560.938 345.844C558.875 346.594 556.75 346.969 554.562 346.969C552.438 346.969 550.312 346.594 548.188 345.844C546.125 345.094 544.125 343.969 542.188 342.469C541.812 342.219 541.469 341.938 541.156 341.625C540.781 341.938 540.438 342.219 540.125 342.469C538.188 343.969 536.156 345.094 534.031 345.844C531.969 346.594 529.844 346.969 527.656 346.969ZM603.969 289.5H608.281H640.156C641.906 289.562 643.344 290.219 644.469 291.469C645.656 292.719 646.25 294.219 646.25 295.969C645.938 299.719 643.906 301.75 640.156 302.062H607.156C604.781 302.188 602.812 303.094 601.25 304.781C599.688 306.469 598.531 308.406 597.781 310.594C597.094 312.719 596.75 314.906 596.75 317.156C596.75 319.406 597.094 321.625 597.781 323.812C598.531 325.938 599.688 327.844 601.25 329.531C602.812 331.219 604.781 332.125 607.156 332.25H640.156C641.906 332.312 643.344 332.969 644.469 334.219C645.656 335.469 646.25 336.969 646.25 338.719C646.188 340.406 645.562 341.844 644.375 343.031C643.25 344.156 641.844 344.75 640.156 344.812H605.75H603.969C599.594 344.562 595.969 342.906 593.094 339.844C590.281 336.719 588.25 333.188 587 329.25C585.812 325.312 585.219 321.281 585.219 317.156C585.219 313.031 585.844 309 587.094 305.062C588.344 301.125 590.375 297.625 593.188 294.562C596 291.438 599.594 289.75 603.969 289.5ZM646.062 316.781C646.062 318.531 645.438 320 644.188 321.188C643 322.438 641.531 323.062 639.781 323.062H611.469C609.719 323.062 608.219 322.469 606.969 321.281C605.781 320.031 605.188 318.531 605.188 316.781C605.188 315.031 605.781 313.531 606.969 312.281C608.219 311.094 609.719 310.5 611.469 310.5H639.781C641.531 310.5 643 311.125 644.188 312.375C645.438 313.562 646.062 315.031 646.062 316.781ZM668.281 340.031C667.906 343.781 665.844 345.812 662.094 346.125C660.344 346.125 658.812 345.562 657.5 344.438C656.25 343.25 655.625 341.781 655.625 340.031V295.594C655.688 293.844 656.344 292.406 657.594 291.281C658.844 290.094 660.344 289.5 662.094 289.5H666.688H678.219H701.375C701.75 289.5 702.125 289.531 702.5 289.594H703.062C707.438 289.719 711.031 290.719 713.844 292.594C716.656 294.469 718.688 296.625 719.938 299.062C721.188 301.438 721.812 303.844 721.812 306.281C721.812 308.781 721.188 311.25 719.938 313.688C718.75 316.062 716.719 318.188 713.844 320.062C711.031 321.938 707.438 322.938 703.062 323.062H686.562C687.062 326.188 688.094 328.5 689.656 330C691.156 331.5 693.062 332.25 695.375 332.25H715.625C717.375 332.312 718.812 332.969 719.938 334.219C721.125 335.469 721.719 336.969 721.719 338.719C721.656 340.406 721.031 341.844 719.844 343.031C718.719 344.156 717.312 344.75 715.625 344.812H693.688C689.062 344.875 684.875 343.062 681.125 339.375C677.375 335.688 675.094 331.312 674.281 326.25C673.156 320.625 672.594 317.469 672.594 316.781C672.594 315.031 673.188 313.562 674.375 312.375C675.625 311.125 677.125 310.5 678.875 310.5H703.625C704.812 310.438 705.781 310.188 706.531 309.75C707.344 309.25 707.938 308.719 708.312 308.156C708.688 307.531 708.875 306.906 708.875 306.281C708.875 305.656 708.688 305.062 708.312 304.5C707.938 303.875 707.344 303.344 706.531 302.906C705.781 302.406 704.812 302.125 703.625 302.062H678.219H670.719C669.094 302.125 668.281 302.938 668.281 304.5V340.031Z" fill="url(#paint6_linear_386_10270)"/>
<path fill-rule="evenodd" clip-rule="evenodd" d="M255.035 275.559C270.397 269.352 276.309 248.131 268.241 228.16C262.269 213.38 250.313 203.427 238.274 201.768C252.429 199.733 268.106 210.501 275.241 228.16C283.309 248.131 277.397 269.352 262.035 275.559C258.042 277.172 253.804 277.612 249.577 277.029C251.43 276.763 253.257 276.277 255.035 275.559Z" fill="#54A2BA"/>
<path fill-rule="evenodd" clip-rule="evenodd" d="M238.741 270.583C249.445 265.934 253.565 250.04 247.943 235.083C243.782 224.013 235.451 216.558 227.062 215.316C236.925 213.792 247.849 221.857 252.82 235.083C258.442 250.04 254.323 265.934 243.619 270.583C240.837 271.791 237.884 272.121 234.938 271.684C236.229 271.485 237.502 271.121 238.741 270.583Z" fill="#54A2BA"/>
<path fill-rule="evenodd" clip-rule="evenodd" d="M61.8156 275.559C46.4535 269.352 40.541 248.131 48.6097 228.16C55.7444 210.501 71.4217 199.733 85.5765 201.768C73.5375 203.427 61.5813 213.38 55.6097 228.16C47.541 248.131 53.4535 269.352 68.8156 275.559C70.5939 276.277 72.4209 276.763 74.2739 277.029C70.0462 277.612 65.8082 277.172 61.8156 275.559Z" fill="#5BCBA9"/>
<path fill-rule="evenodd" clip-rule="evenodd" d="M80.2317 270.583C69.5277 265.934 65.4079 250.04 71.0301 235.083C76.0014 221.857 86.9251 213.792 96.7881 215.316C88.3995 216.558 80.0686 224.013 75.9077 235.083C70.2855 250.04 74.4052 265.934 85.1093 270.583C86.3484 271.121 87.6214 271.485 88.9126 271.684C85.9667 272.121 83.0138 271.791 80.2317 270.583Z" fill="#5BCBA9"/>
<path d="M125 283L129.33 290.5H120.67L125 283Z" fill="#AAA9A9"/>
<path d="M199 283L194.67 290.5H203.33L199 283Z" fill="url(#paint7_linear_386_10270)"/>
<path d="M131.407 261.807L124.782 265.584L124.321 258.989L131.407 261.807Z" fill="#ABAAAA"/>
<path d="M146.407 254.807L139.782 258.584L139.321 251.989L146.407 254.807Z" fill="#A6A6A6"/>
<path d="M178.266 254.807L184.891 258.584L185.352 251.989L178.266 254.807Z" fill="#9D9999"/>
<rect x="155" y="284" width="14" height="80" rx="7" fill="url(#paint8_linear_386_10270)"/>
<rect x="199" y="276" width="14" height="74" transform="rotate(90 199 276)" fill="url(#paint9_linear_386_10270)"/>
<rect x="199" y="262" width="14" height="74" transform="rotate(90 199 262)" fill="url(#paint10_linear_386_10270)"/>
<rect x="184" y="255" width="14" height="44" transform="rotate(90 184 255)" fill="url(#paint11_linear_386_10270)"/>
<rect x="130" y="265" width="5" height="16" fill="white"/>
<rect x="138" y="265" width="7" height="16" fill="white"/>
<rect x="148" y="265" width="9" height="16" fill="white"/>
<rect x="179" y="265" width="7" height="16" fill="white"/>
<rect x="167" y="265" width="9" height="16" fill="white"/>
<rect x="189" y="265" width="5" height="16" fill="white"/>
<path d="M130 278L131.732 281H128.268L130 278Z" fill="#5BCBA9"/>
<path d="M194 278L195.732 281H192.268L194 278Z" fill="#55ABB1"/>
<path d="M192.268 265L195.732 265L194 268L192.268 265Z" fill="#61ABB5"/>
<path d="M128 264.732L131.464 264.732L129.732 267.732L128 264.732Z" fill="#5BCBA9"/>
<path d="M125 283L129.33 290.5H120.67L125 283Z" fill="#AAA9A9"/>
<path d="M199 283L194.67 290.5H203.33L199 283Z" fill="url(#paint12_linear_386_10270)"/>
<path d="M131.407 261.807L124.782 265.584L124.321 258.989L131.407 261.807Z" fill="#ABAAAA"/>
<path d="M146.407 254.807L139.782 258.584L139.321 251.989L146.407 254.807Z" fill="#A6A6A6"/>
<path d="M178.266 254.807L184.891 258.584L185.352 251.989L178.266 254.807Z" fill="#9D9999"/>
<rect x="155" y="284" width="14" height="80" rx="7" fill="url(#paint13_linear_386_10270)"/>
<rect x="199" y="276" width="14" height="74" transform="rotate(90 199 276)" fill="url(#paint14_linear_386_10270)"/>
<rect x="199" y="262" width="14" height="74" transform="rotate(90 199 262)" fill="url(#paint15_linear_386_10270)"/>
<rect x="184" y="255" width="14" height="44" transform="rotate(90 184 255)" fill="url(#paint16_linear_386_10270)"/>
<rect x="130" y="265" width="5" height="16" fill="white"/>
<rect x="138" y="265" width="7" height="16" fill="white"/>
<rect x="148" y="265" width="9" height="16" fill="white"/>
<rect x="179" y="265" width="7" height="16" fill="white"/>
<rect x="167" y="265" width="9" height="16" fill="white"/>
<rect x="189" y="265" width="5" height="16" fill="white"/>
<path d="M130 278L131.732 281H128.268L130 278Z" fill="#5BCBA9"/>
<path d="M194 278L195.732 281H192.268L194 278Z" fill="#55ABB1"/>
<path d="M192.268 265L195.732 265L194 268L192.268 265Z" fill="#61ABB5"/>
<path d="M128 264.732L131.464 264.732L129.732 267.732L128 264.732Z" fill="#5BCBA9"/>
<path d="M125 283L129.33 290.5H120.67L125 283Z" fill="#AAA9A9"/>
<path d="M199 283L194.67 290.5H203.33L199 283Z" fill="url(#paint17_linear_386_10270)"/>
<path d="M131.407 261.807L124.782 265.584L124.321 258.989L131.407 261.807Z" fill="#ABAAAA"/>
<path d="M146.407 254.807L139.782 258.584L139.321 251.989L146.407 254.807Z" fill="#A6A6A6"/>
<path d="M178.266 254.807L184.891 258.584L185.352 251.989L178.266 254.807Z" fill="#9D9999"/>
<rect x="155" y="284" width="14" height="80" rx="7" fill="url(#paint18_linear_386_10270)"/>
<rect x="199" y="276" width="14" height="74" transform="rotate(90 199 276)" fill="url(#paint19_linear_386_10270)"/>
<rect x="199" y="262" width="14" height="74" transform="rotate(90 199 262)" fill="url(#paint20_linear_386_10270)"/>
<rect x="184" y="255" width="14" height="44" transform="rotate(90 184 255)" fill="url(#paint21_linear_386_10270)"/>
<rect x="130" y="265" width="5" height="16" fill="white"/>
<rect x="138" y="265" width="7" height="16" fill="white"/>
<rect x="148" y="265" width="9" height="16" fill="white"/>
<rect x="179" y="265" width="7" height="16" fill="white"/>
<rect x="167" y="265" width="9" height="16" fill="white"/>
<rect x="189" y="265" width="5" height="16" fill="white"/>
<path d="M130 278L131.732 281H128.268L130 278Z" fill="#5BCBA9"/>
<path d="M194 278L195.732 281H192.268L194 278Z" fill="#55ABB1"/>
<path d="M192.268 265L195.732 265L194 268L192.268 265Z" fill="#61ABB5"/>
<path d="M128 264.732L131.464 264.732L129.732 267.732L128 264.732Z" fill="#5BCBA9"/>
<path d="M125 283L129.33 290.5H120.67L125 283Z" fill="#AAA9A9"/>
<path d="M199 283L194.67 290.5H203.33L199 283Z" fill="url(#paint22_linear_386_10270)"/>
<path d="M131.407 261.807L124.782 265.584L124.321 258.989L131.407 261.807Z" fill="#ABAAAA"/>
<path d="M193.252 262.01L199.406 265.577L199.842 259.334L193.252 262.01Z" fill="#939393"/>
<path d="M146.407 254.807L139.782 258.584L139.321 251.989L146.407 254.807Z" fill="#A6A6A6"/>
<path d="M178.266 254.807L184.891 258.584L185.352 251.989L178.266 254.807Z" fill="#9D9999"/>
<path d="M234.188 100.312C232.771 100.312 231.354 100.062 229.938 99.5625C228.562 99.0625 227.229 98.3333 225.938 97.375C224.646 96.375 223.521 95.0625 222.562 93.4375C221.604 91.8125 221.083 89.875 221 87.625V65.0625C221 63.8958 221.417 62.9375 222.25 62.1875C223.125 61.3958 224.146 61 225.312 61C227.812 61.2083 229.167 62.5625 229.375 65.0625V87.125C229.417 88.125 229.625 88.9792 230 89.6875C230.375 90.3542 230.792 90.8958 231.25 91.3125C231.708 91.6875 232.167 91.9792 232.625 92.1875C233.125 92.3542 233.625 92.4375 234.125 92.4375C234.625 92.4375 235.125 92.3542 235.625 92.1875C236.125 91.9792 236.604 91.6875 237.062 91.3125C237.521 90.8958 237.938 90.3542 238.312 89.6875C238.688 88.9792 238.875 88.125 238.875 87.125V65.0625C238.875 63.8958 239.292 62.9375 240.125 62.1875C241 61.3958 242.021 61 243.188 61C245.688 61.2083 247.062 62.5625 247.312 65.0625V87.125C247.354 88.125 247.562 88.9583 247.938 89.625C248.312 90.3333 248.729 90.8958 249.188 91.3125C249.646 91.6875 250.104 91.9792 250.562 92.1875C251.062 92.3542 251.562 92.4375 252.062 92.4375C252.562 92.4375 253.062 92.3542 253.562 92.1875C254.062 91.9792 254.542 91.6875 255 91.3125C255.458 90.8958 255.875 90.3542 256.25 89.6875C256.625 88.9792 256.812 88.125 256.812 87.125V65.0625C256.812 63.8958 257.229 62.9375 258.062 62.1875C258.938 61.3958 259.958 61 261.125 61C263.625 61.2083 265 62.5625 265.25 65.0625V87.625C265.25 89.875 264.75 91.8125 263.75 93.4375C262.792 95.0625 261.667 96.375 260.375 97.375C259.125 98.3333 257.792 99.0625 256.375 99.5625C255 100.062 253.583 100.312 252.125 100.312C250.708 100.312 249.292 100.062 247.875 99.5625C246.5 99.0625 245.167 98.3125 243.875 97.3125C243.625 97.1458 243.396 96.9583 243.188 96.75C242.938 96.9583 242.708 97.1458 242.5 97.3125C241.208 98.3125 239.854 99.0625 238.438 99.5625C237.062 100.062 235.646 100.312 234.188 100.312ZM272.125 94.6875C272.125 93.5208 272.521 92.5417 273.312 91.75C274.146 90.9167 275.146 90.5 276.312 90.5H288.312V70.375H276.312C275.146 70.375 274.167 69.9583 273.375 69.125C272.542 68.3333 272.125 67.3542 272.125 66.1875C272.125 65.0208 272.521 64.0417 273.312 63.25C274.146 62.4167 275.146 62 276.312 62H308.688C309.854 62 310.854 62.3958 311.688 63.1875C312.479 64.0208 312.875 65.0208 312.875 66.1875C312.875 67.3542 312.458 68.3542 311.625 69.1875C310.833 69.9792 309.854 70.375 308.688 70.375H296.75V90.5H308.688C309.854 90.5 310.854 90.8958 311.688 91.6875C312.479 92.5208 312.875 93.5208 312.875 94.6875C312.875 95.8542 312.458 96.8542 311.625 97.6875C310.833 98.4792 309.854 98.875 308.688 98.875H276.312C275.146 98.875 274.167 98.4583 273.375 97.625C272.542 96.8333 272.125 95.8542 272.125 94.6875ZM318.125 66.1875C318.125 65.0208 318.521 64.0417 319.312 63.25C320.146 62.4167 321.146 62 322.312 62H358.688C359.854 62 360.854 62.3958 361.688 63.1875C362.479 64.0208 362.875 65.0208 362.875 66.1875C362.875 67.3542 362.458 68.3542 361.625 69.1875C360.833 69.9792 359.854 70.375 358.688 70.375H344.75V95.6875C344.5 98.1875 343.125 99.5417 340.625 99.75C339.458 99.75 338.438 99.375 337.562 98.625C336.729 97.8333 336.312 96.8542 336.312 95.6875V70.375H322.312C321.146 70.375 320.167 69.9583 319.375 69.125C318.542 68.3333 318.125 67.3542 318.125 66.1875ZM383.5 89.1875C383.5 88.0208 383.896 87.0417 384.688 86.25C385.521 85.4167 386.521 85 387.688 85H397.25L395.625 80.375C394.958 78.6667 394.292 77.0625 393.625 75.5625C393 74.0208 392.271 72.625 391.438 71.375C390.688 70.125 389.833 69.4583 388.875 69.375C387.875 69.4583 386.979 70.125 386.188 71.375C385.396 72.625 384.667 74.0208 384 75.5625C383.375 77.0625 382.729 78.6667 382.062 80.375L376.125 96.625C375.708 97.5 375.167 98.2292 374.5 98.8125C373.875 99.3542 372.917 99.625 371.625 99.625C370.417 99.625 369.417 99.2083 368.625 98.375C367.875 97.5417 367.542 96.5417 367.625 95.375C367.667 94.8333 367.792 94.3333 368 93.875L374.875 76.125C376.792 71.4583 378.708 67.6875 380.625 64.8125C382.5 61.9792 385.25 60.5417 388.875 60.5C392.458 60.5417 395.188 61.9792 397.062 64.8125C398.979 67.6042 400.896 71.375 402.812 76.125L409.688 93.875C409.896 94.3333 410.021 94.8333 410.062 95.375C410.146 96.5417 409.792 97.5417 409 98.375C408.25 99.2083 407.271 99.625 406.062 99.625C404.688 99.625 403.667 99.3542 403 98.8125C402.375 98.2292 401.854 97.5 401.438 96.625L400.25 93.375H387.688C386.521 93.375 385.542 92.9583 384.75 92.125C383.917 91.3333 383.5 90.3542 383.5 89.1875ZM435.375 100.312C433.208 100.312 431.062 100.062 428.938 99.5625C426.854 99.0625 424.854 98.3333 422.938 97.375C421.021 96.375 419.333 95.0625 417.875 93.4375C416.417 91.8125 415.625 89.875 415.5 87.625V85V84.0625C415.5 82.8958 415.917 81.9375 416.75 81.1875C417.625 80.3958 418.646 80 419.812 80C422.312 80.2083 423.667 81.5625 423.875 84.0625V85.6875C423.958 86.9792 424.438 88.0625 425.312 88.9375C426.229 89.7708 427.229 90.4375 428.312 90.9375C429.438 91.4375 430.583 91.8125 431.75 92.0625C432.958 92.3125 434.167 92.4375 435.375 92.4375C436.583 92.4375 437.771 92.3125 438.938 92.0625C440.146 91.8125 441.292 91.4375 442.375 90.9375C443.5 90.4375 444.5 89.7708 445.375 88.9375C446.292 88.0625 446.792 86.9792 446.875 85.6875V65.0625C446.875 63.8958 447.292 62.9375 448.125 62.1875C449 61.3958 450.021 61 451.188 61C453.688 61.2083 455.062 62.5625 455.312 65.0625V85V87.625C455.188 89.875 454.375 91.8125 452.875 93.4375C451.417 95.0625 449.729 96.375 447.812 97.375C445.896 98.3333 443.875 99.0625 441.75 99.5625C439.667 100.062 437.542 100.312 435.375 100.312ZM508.625 100.312C507.208 100.312 505.792 100.062 504.375 99.5625C503 99.0625 501.667 98.3333 500.375 97.375C499.083 96.375 497.958 95.0625 497 93.4375C496.042 91.8125 495.521 89.875 495.438 87.625V65.0625C495.438 63.8958 495.854 62.9375 496.688 62.1875C497.562 61.3958 498.583 61 499.75 61C502.25 61.2083 503.604 62.5625 503.812 65.0625V87.125C503.854 88.125 504.062 88.9792 504.438 89.6875C504.812 90.3542 505.229 90.8958 505.688 91.3125C506.146 91.6875 506.604 91.9792 507.062 92.1875C507.562 92.3542 508.062 92.4375 508.562 92.4375C509.062 92.4375 509.562 92.3542 510.062 92.1875C510.562 91.9792 511.042 91.6875 511.5 91.3125C511.958 90.8958 512.375 90.3542 512.75 89.6875C513.125 88.9792 513.312 88.125 513.312 87.125V65.0625C513.312 63.8958 513.729 62.9375 514.562 62.1875C515.438 61.3958 516.458 61 517.625 61C520.125 61.2083 521.5 62.5625 521.75 65.0625V87.125C521.792 88.125 522 88.9583 522.375 89.625C522.75 90.3333 523.167 90.8958 523.625 91.3125C524.083 91.6875 524.542 91.9792 525 92.1875C525.5 92.3542 526 92.4375 526.5 92.4375C527 92.4375 527.5 92.3542 528 92.1875C528.5 91.9792 528.979 91.6875 529.438 91.3125C529.896 90.8958 530.312 90.3542 530.688 89.6875C531.062 88.9792 531.25 88.125 531.25 87.125V65.0625C531.25 63.8958 531.667 62.9375 532.5 62.1875C533.375 61.3958 534.396 61 535.562 61C538.062 61.2083 539.438 62.5625 539.688 65.0625V87.625C539.688 89.875 539.188 91.8125 538.188 93.4375C537.229 95.0625 536.104 96.375 534.812 97.375C533.562 98.3333 532.229 99.0625 530.812 99.5625C529.438 100.062 528.021 100.312 526.562 100.312C525.146 100.312 523.729 100.062 522.312 99.5625C520.938 99.0625 519.604 98.3125 518.312 97.3125C518.062 97.1458 517.833 96.9583 517.625 96.75C517.375 96.9583 517.146 97.1458 516.938 97.3125C515.646 98.3125 514.292 99.0625 512.875 99.5625C511.5 100.062 510.083 100.312 508.625 100.312Z" fill="url(#paint23_linear_386_10270)"/>
<defs>
<linearGradient id="paint0_linear_386_10270" x1="347" y1="222.5" x2="742.998" y2="223.572" gradientUnits="userSpaceOnUse">
<stop stop-color="#B8B8B8"/>
<stop offset="1" stop-color="#494848"/>
</linearGradient>
<linearGradient id="paint1_linear_386_10270" x1="116" y1="195" x2="368.5" y2="297.5" gradientUnits="userSpaceOnUse">
<stop stop-color="#B8B8B8"/>
<stop offset="1" stop-color="#525252"/>
</linearGradient>
<linearGradient id="paint2_linear_386_10270" x1="124.5" y1="293" x2="231" y2="292" gradientUnits="userSpaceOnUse">
<stop stop-color="#5BCBA9"/>
<stop offset="1" stop-color="#54A2BA"/>
</linearGradient>
<linearGradient id="paint3_linear_386_10270" x1="213" y1="347.5" x2="213" y2="251" gradientUnits="userSpaceOnUse">
<stop stop-color="#5BCBA9"/>
<stop offset="1" stop-color="#54A2BA"/>
</linearGradient>
<linearGradient id="paint4_linear_386_10270" x1="208" y1="341.5" x2="206" y2="242.5" gradientUnits="userSpaceOnUse">
<stop stop-color="#5BCBA9"/>
<stop offset="1" stop-color="#54A2BA"/>
</linearGradient>
<linearGradient id="paint5_linear_386_10270" x1="186.5" y1="313.5" x2="184" y2="223.5" gradientUnits="userSpaceOnUse">
<stop stop-color="#5BCBA9"/>
<stop offset="1" stop-color="#54A2BA"/>
</linearGradient>
<linearGradient id="paint6_linear_386_10270" x1="347" y1="298" x2="679.739" y2="298" gradientUnits="userSpaceOnUse">
<stop stop-color="#5BCBA9"/>
<stop offset="1" stop-color="#54A2BA"/>
</linearGradient>
<linearGradient id="paint7_linear_386_10270" x1="199" y1="283" x2="205" y2="290.5" gradientUnits="userSpaceOnUse">
<stop stop-color="#928F8F"/>
<stop offset="1" stop-color="#8C8C8C"/>
</linearGradient>
<linearGradient id="paint8_linear_386_10270" x1="124.5" y1="293" x2="231" y2="292" gradientUnits="userSpaceOnUse">
<stop stop-color="#5BCBA9"/>
<stop offset="1" stop-color="#54A2BA"/>
</linearGradient>
<linearGradient id="paint9_linear_386_10270" x1="213" y1="347.5" x2="213" y2="251" gradientUnits="userSpaceOnUse">
<stop stop-color="#5BCBA9"/>
<stop offset="1" stop-color="#54A2BA"/>
</linearGradient>
<linearGradient id="paint10_linear_386_10270" x1="208" y1="341.5" x2="206" y2="242.5" gradientUnits="userSpaceOnUse">
<stop stop-color="#5BCBA9"/>
<stop offset="1" stop-color="#54A2BA"/>
</linearGradient>
<linearGradient id="paint11_linear_386_10270" x1="186.5" y1="313.5" x2="184" y2="223.5" gradientUnits="userSpaceOnUse">
<stop stop-color="#5BCBA9"/>
<stop offset="1" stop-color="#54A2BA"/>
</linearGradient>
<linearGradient id="paint12_linear_386_10270" x1="199" y1="283" x2="205" y2="290.5" gradientUnits="userSpaceOnUse">
<stop stop-color="#928F8F"/>
<stop offset="1" stop-color="#8C8C8C"/>
</linearGradient>
<linearGradient id="paint13_linear_386_10270" x1="124.5" y1="293" x2="231" y2="292" gradientUnits="userSpaceOnUse">
<stop stop-color="#5BCBA9"/>
<stop offset="1" stop-color="#54A2BA"/>
</linearGradient>
<linearGradient id="paint14_linear_386_10270" x1="213" y1="347.5" x2="213" y2="251" gradientUnits="userSpaceOnUse">
<stop stop-color="#5BCBA9"/>
<stop offset="1" stop-color="#54A2BA"/>
</linearGradient>
<linearGradient id="paint15_linear_386_10270" x1="208" y1="341.5" x2="206" y2="242.5" gradientUnits="userSpaceOnUse">
<stop stop-color="#5BCBA9"/>
<stop offset="1" stop-color="#54A2BA"/>
</linearGradient>
<linearGradient id="paint16_linear_386_10270" x1="186.5" y1="313.5" x2="184" y2="223.5" gradientUnits="userSpaceOnUse">
<stop stop-color="#5BCBA9"/>
<stop offset="1" stop-color="#54A2BA"/>
</linearGradient>
<linearGradient id="paint17_linear_386_10270" x1="199" y1="283" x2="205" y2="290.5" gradientUnits="userSpaceOnUse">
<stop stop-color="#928F8F"/>
<stop offset="1" stop-color="#8C8C8C"/>
</linearGradient>
<linearGradient id="paint18_linear_386_10270" x1="124.5" y1="293" x2="231" y2="292" gradientUnits="userSpaceOnUse">
<stop stop-color="#5BCBA9"/>
<stop offset="1" stop-color="#54A2BA"/>
</linearGradient>
<linearGradient id="paint19_linear_386_10270" x1="213" y1="347.5" x2="213" y2="251" gradientUnits="userSpaceOnUse">
<stop stop-color="#5BCBA9"/>
<stop offset="1" stop-color="#54A2BA"/>
</linearGradient>
<linearGradient id="paint20_linear_386_10270" x1="208" y1="341.5" x2="206" y2="242.5" gradientUnits="userSpaceOnUse">
<stop stop-color="#5BCBA9"/>
<stop offset="1" stop-color="#54A2BA"/>
</linearGradient>
<linearGradient id="paint21_linear_386_10270" x1="186.5" y1="313.5" x2="184" y2="223.5" gradientUnits="userSpaceOnUse">
<stop stop-color="#5BCBA9"/>
<stop offset="1" stop-color="#54A2BA"/>
</linearGradient>
<linearGradient id="paint22_linear_386_10270" x1="199" y1="283" x2="205" y2="290.5" gradientUnits="userSpaceOnUse">
<stop stop-color="#928F8F"/>
<stop offset="1" stop-color="#8C8C8C"/>
</linearGradient>
<linearGradient id="paint23_linear_386_10270" x1="217" y1="81.5" x2="687.141" y2="81.173" gradientUnits="userSpaceOnUse">
<stop stop-color="#5BCBA9"/>
<stop offset="1" stop-color="#54A2BA"/>
</linearGradient>
</defs>
</svg>
