<svg width="763" height="469" viewBox="0 0 763 469" fill="none" xmlns="http://www.w3.org/2000/svg">
<path d="M374 243.281C374 241.531 374.594 240.062 375.781 238.875C377.031 237.625 378.531 237 380.281 237H394.625L392.188 230.062C391.188 227.5 390.188 225.094 389.188 222.844C388.25 220.531 387.156 218.438 385.906 216.562C384.781 214.688 383.5 213.688 382.062 213.562C380.562 213.688 379.219 214.688 378.031 216.562C376.844 218.438 375.75 220.531 374.75 222.844C373.812 225.094 372.844 227.5 371.844 230.062L362.938 254.438C362.312 255.75 361.5 256.844 360.5 257.719C359.562 258.531 358.125 258.938 356.188 258.938C354.375 258.938 352.875 258.312 351.688 257.062C350.562 255.812 350.062 254.312 350.188 252.562C350.25 251.75 350.438 251 350.75 250.312L361.062 223.688C363.938 216.688 366.812 211.031 369.688 206.719C372.5 202.469 376.625 200.312 382.062 200.25C387.438 200.312 391.531 202.469 394.344 206.719C397.219 210.906 400.094 216.562 402.969 223.688L413.281 250.312C413.594 251 413.781 251.75 413.844 252.562C413.969 254.312 413.438 255.812 412.25 257.062C411.125 258.312 409.656 258.938 407.844 258.938C405.781 258.938 404.25 258.531 403.25 257.719C402.312 256.844 401.531 255.75 400.906 254.438L399.125 249.562H380.281C378.531 249.562 377.062 248.938 375.875 247.688C374.625 246.5 374 245.031 374 243.281ZM453.125 259.969C449.875 259.969 446.656 259.594 443.469 258.844C440.344 258.094 437.344 257 434.469 255.562C431.594 254.062 429.062 252.094 426.875 249.656C424.688 247.219 423.5 244.312 423.312 240.938V237V207.094C423.312 205.344 423.938 203.906 425.188 202.781C426.5 201.594 428.031 201 429.781 201C433.531 201.312 435.562 203.344 435.875 207.094V238.031C436 239.969 436.719 241.594 438.031 242.906C439.406 244.156 440.906 245.156 442.531 245.906C444.219 246.656 445.938 247.219 447.688 247.594C449.5 247.969 451.312 248.156 453.125 248.156C454.938 248.156 456.719 247.969 458.469 247.594C460.281 247.219 462 246.656 463.625 245.906C465.312 245.156 466.812 244.156 468.125 242.906C469.5 241.594 470.25 239.969 470.375 238.031V207.094C470.375 205.344 471 203.906 472.25 202.781C473.562 201.594 475.094 201 476.844 201C480.594 201.312 482.656 203.344 483.031 207.094V237V240.938C482.844 244.312 481.625 247.219 479.375 249.656C477.188 252.094 474.656 254.062 471.781 255.562C468.906 257 465.875 258.094 462.688 258.844C459.562 259.594 456.375 259.969 453.125 259.969ZM508.156 253.031C507.781 256.781 505.719 258.812 501.969 259.125C500.219 259.125 498.688 258.562 497.375 257.438C496.125 256.25 495.5 254.781 495.5 253.031V208.594C495.562 206.844 496.219 205.406 497.469 204.281C498.719 203.094 500.219 202.5 501.969 202.5H506.562H518.094H541.25C541.625 202.5 542 202.531 542.375 202.594H542.938C547.312 202.719 550.906 203.719 553.719 205.594C556.531 207.469 558.562 209.625 559.812 212.062C561.062 214.438 561.688 216.844 561.688 219.281C561.688 221.781 561.062 224.25 559.812 226.688C558.625 229.062 556.594 231.188 553.719 233.062C550.906 234.938 547.312 235.938 542.938 236.062H526.438C526.938 239.188 527.969 241.5 529.531 243C531.031 244.5 532.938 245.25 535.25 245.25H555.5C557.25 245.312 558.688 245.969 559.812 247.219C561 248.469 561.594 249.969 561.594 251.719C561.531 253.406 560.906 254.844 559.719 256.031C558.594 257.156 557.188 257.75 555.5 257.812H533.562C528.938 257.875 524.75 256.062 521 252.375C517.25 248.688 514.969 244.312 514.156 239.25C513.031 233.625 512.469 230.469 512.469 229.781C512.469 228.031 513.062 226.562 514.25 225.375C515.5 224.125 517 223.5 518.75 223.5H543.5C544.688 223.438 545.656 223.188 546.406 222.75C547.219 222.25 547.812 221.719 548.188 221.156C548.562 220.531 548.75 219.906 548.75 219.281C548.75 218.656 548.562 218.062 548.188 217.5C547.812 216.875 547.219 216.344 546.406 215.906C545.656 215.406 544.688 215.125 543.5 215.062H518.094H510.594C508.969 215.125 508.156 215.938 508.156 217.5V253.031ZM592.906 243.281C592.906 241.531 593.5 240.062 594.688 238.875C595.938 237.625 597.438 237 599.188 237H613.531L611.094 230.062C610.094 227.5 609.094 225.094 608.094 222.844C607.156 220.531 606.062 218.438 604.812 216.562C603.688 214.688 602.406 213.688 600.969 213.562C599.469 213.688 598.125 214.688 596.938 216.562C595.75 218.438 594.656 220.531 593.656 222.844C592.719 225.094 591.75 227.5 590.75 230.062L581.844 254.438C581.219 255.75 580.406 256.844 579.406 257.719C578.469 258.531 577.031 258.938 575.094 258.938C573.281 258.938 571.781 258.312 570.594 257.062C569.469 255.812 568.969 254.312 569.094 252.562C569.156 251.75 569.344 251 569.656 250.312L579.969 223.688C582.844 216.688 585.719 211.031 588.594 206.719C591.406 202.469 595.531 200.312 600.969 200.25C606.344 200.312 610.438 202.469 613.25 206.719C616.125 210.906 619 216.562 621.875 223.688L632.188 250.312C632.5 251 632.688 251.75 632.75 252.562C632.875 254.312 632.344 255.812 631.156 257.062C630.031 258.312 628.562 258.938 626.75 258.938C624.688 258.938 623.156 258.531 622.156 257.719C621.219 256.844 620.438 255.75 619.812 254.438L618.031 249.562H599.188C597.438 249.562 595.969 248.938 594.781 247.688C593.531 246.5 592.906 245.031 592.906 243.281Z" fill="url(#paint0_linear_386_10270)"/>
<path fill-rule="evenodd" clip-rule="evenodd" d="M168.359 189.823C165.86 184.391 158.14 184.391 155.641 189.823L79.9636 354.324C77.8301 358.962 81.2181 364.25 86.3229 364.25H97.9394L155.641 238.823C158.14 233.391 165.86 233.391 168.359 238.823L226.061 364.25H237.677C242.782 364.25 246.17 358.962 244.036 354.324L168.359 189.823Z" fill="url(#paint1_linear_386_10270)"/>
<rect x="155" y="284" width="14" height="80" rx="7" fill="url(#paint2_linear_386_10270)"/>
<rect x="199" y="276" width="14" height="74" transform="rotate(90 199 276)" fill="url(#paint3_linear_386_10270)"/>
<rect x="199" y="262" width="14" height="74" transform="rotate(90 199 262)" fill="url(#paint4_linear_386_10270)"/>
<rect x="184" y="255" width="14" height="44" transform="rotate(90 184 255)" fill="url(#paint5_linear_386_10270)"/>
<rect x="130" y="265" width="5" height="16" fill="white"/>
<rect x="138" y="265" width="7" height="16" fill="white"/>
<rect x="148" y="265" width="9" height="16" fill="white"/>
<rect x="179" y="265" width="7" height="16" fill="white"/>
<rect x="167" y="265" width="9" height="16" fill="white"/>
<rect x="189" y="265" width="5" height="16" fill="white"/>
<path d="M130 278L131.732 281H128.268L130 278Z" fill="#5BCBA9"/>
<path d="M194 278L195.732 281H192.268L194 278Z" fill="#55ABB1"/>
<path d="M192.268 265L195.732 265L194 268L192.268 265Z" fill="#61ABB5"/>
<path d="M128 264.732L131.464 264.732L129.732 267.732L128 264.732Z" fill="#5BCBA9"/>
<path d="M351.125 295.781C351.125 294.031 351.719 292.562 352.906 291.375C354.156 290.125 355.656 289.5 357.406 289.5H411.969C413.719 289.5 415.219 290.094 416.469 291.281C417.656 292.531 418.25 294.031 418.25 295.781C418.25 297.531 417.625 299.031 416.375 300.281C415.188 301.469 413.719 302.062 411.969 302.062H391.062V340.031C390.688 343.781 388.625 345.812 384.875 346.125C383.125 346.125 381.594 345.562 380.281 344.438C379.031 343.25 378.406 341.781 378.406 340.031V302.062H357.406C355.656 302.062 354.188 301.438 353 300.188C351.75 299 351.125 297.531 351.125 295.781ZM478.438 289.5C481.625 289.562 484.469 290.562 486.969 292.5C489.469 294.438 491.469 296.75 492.969 299.438C494.531 302.125 495.688 304.969 496.438 307.969C497.188 310.969 497.562 314.031 497.562 317.156C497.562 321.281 496.906 325.344 495.594 329.344C494.344 333.281 492.25 336.781 489.312 339.844C486.438 342.906 482.812 344.562 478.438 344.812H445.719C441.344 344.625 437.688 343 434.75 339.938C431.812 336.875 429.719 333.344 428.469 329.344C427.281 325.344 426.688 321.281 426.688 317.156C426.688 313.031 427.312 309 428.562 305.062C429.812 301.062 431.875 297.531 434.75 294.469C437.688 291.344 441.344 289.688 445.719 289.5H447.5H476.656H478.438ZM475.25 332.25C477.625 332.125 479.594 331.25 481.156 329.625C482.781 327.938 483.938 326 484.625 323.812C485.312 321.625 485.656 319.406 485.656 317.156C485.656 314.906 485.281 312.719 484.531 310.594C483.844 308.406 482.719 306.469 481.156 304.781C479.594 303.094 477.625 302.188 475.25 302.062H448.625C446.25 302.188 444.281 303.094 442.719 304.781C441.156 306.469 440 308.406 439.25 310.594C438.562 312.719 438.219 314.906 438.219 317.156C438.219 319.406 438.562 321.625 439.25 323.812C439.938 326 441.062 327.938 442.625 329.625C444.25 331.25 446.25 332.125 448.625 332.25H475.25ZM527.656 346.969C525.531 346.969 523.406 346.594 521.281 345.844C519.219 345.094 517.219 344 515.281 342.562C513.344 341.062 511.656 339.094 510.219 336.656C508.781 334.219 508 331.312 507.875 327.938V294.094C507.875 292.344 508.5 290.906 509.75 289.781C511.062 288.594 512.594 288 514.344 288C518.094 288.312 520.125 290.344 520.438 294.094V327.188C520.5 328.688 520.812 329.969 521.375 331.031C521.938 332.031 522.562 332.844 523.25 333.469C523.938 334.031 524.625 334.469 525.312 334.781C526.062 335.031 526.812 335.156 527.562 335.156C528.312 335.156 529.062 335.031 529.812 334.781C530.562 334.469 531.281 334.031 531.969 333.469C532.656 332.844 533.281 332.031 533.844 331.031C534.406 329.969 534.688 328.688 534.688 327.188V294.094C534.688 292.344 535.312 290.906 536.562 289.781C537.875 288.594 539.406 288 541.156 288C544.906 288.312 546.969 290.344 547.344 294.094V327.188C547.406 328.688 547.719 329.938 548.281 330.938C548.844 332 549.469 332.844 550.156 333.469C550.844 334.031 551.531 334.469 552.219 334.781C552.969 335.031 553.719 335.156 554.469 335.156C555.219 335.156 555.969 335.031 556.719 334.781C557.469 334.469 558.188 334.031 558.875 333.469C559.562 332.844 560.188 332.031 560.75 331.031C561.312 329.969 561.594 328.688 561.594 327.188V294.094C561.594 292.344 562.219 290.906 563.469 289.781C564.781 288.594 566.312 288 568.062 288C571.812 288.312 573.875 290.344 574.25 294.094V327.938C574.25 331.312 573.5 334.219 572 336.656C570.562 339.094 568.875 341.062 566.938 342.562C565.062 344 563.062 345.094 560.938 345.844C558.875 346.594 556.75 346.969 554.562 346.969C552.438 346.969 550.312 346.594 548.188 345.844C546.125 345.094 544.125 343.969 542.188 342.469C541.812 342.219 541.469 341.938 541.156 341.625C540.781 341.938 540.438 342.219 540.125 342.469C538.188 343.969 536.156 345.094 534.031 345.844C531.969 346.594 529.844 346.969 527.656 346.969ZM603.969 289.5H608.281H640.156C641.906 289.562 643.344 290.219 644.469 291.469C645.656 292.719 646.25 294.219 646.25 295.969C645.938 299.719 643.906 301.75 640.156 302.062H607.156C604.781 302.188 602.812 303.094 601.25 304.781C599.688 306.469 598.531 308.406 597.781 310.594C597.094 312.719 596.75 314.906 596.75 317.156C596.75 319.406 597.094 321.625 597.781 323.812C598.531 325.938 599.688 327.844 601.25 329.531C602.812 331.219 604.781 332.125 607.156 332.25H640.156C641.906 332.312 643.344 332.969 644.469 334.219C645.656 335.469 646.25 336.969 646.25 338.719C646.188 340.406 645.562 341.844 644.375 343.031C643.25 344.156 641.844 344.75 640.156 344.812H605.75H603.969C599.594 344.562 595.969 342.906 593.094 339.844C590.281 336.719 588.25 333.188 587 329.25C585.812 325.312 585.219 321.281 585.219 317.156C585.219 313.031 585.844 309 587.094 305.062C588.344 301.125 590.375 297.625 593.188 294.562C596 291.438 599.594 289.75 603.969 289.5ZM646.062 316.781C646.062 318.531 645.438 320 644.188 321.188C643 322.438 641.531 323.062 639.781 323.062H611.469C609.719 323.062 608.219 322.469 606.969 321.281C605.781 320.031 605.188 318.531 605.188 316.781C605.188 315.031 605.781 313.531 606.969 312.281C608.219 311.094 609.719 310.5 611.469 310.5H639.781C641.531 310.5 643 311.125 644.188 312.375C645.438 313.562 646.062 315.031 646.062 316.781ZM668.281 340.031C667.906 343.781 665.844 345.812 662.094 346.125C660.344 346.125 658.812 345.562 657.5 344.438C656.25 343.25 655.625 341.781 655.625 340.031V295.594C655.688 293.844 656.344 292.406 657.594 291.281C658.844 290.094 660.344 289.5 662.094 289.5H666.688H678.219H701.375C701.75 289.5 702.125 289.531 702.5 289.594H703.062C707.438 289.719 711.031 290.719 713.844 292.594C716.656 294.469 718.688 296.625 719.938 299.062C721.188 301.438 721.812 303.844 721.812 306.281C721.812 308.781 721.188 311.25 719.938 313.688C718.75 316.062 716.719 318.188 713.844 320.062C711.031 321.938 707.438 322.938 703.062 323.062H686.562C687.062 326.188 688.094 328.5 689.656 330C691.156 331.5 693.062 332.25 695.375 332.25H715.625C717.375 332.312 718.812 332.969 719.938 334.219C721.125 335.469 721.719 336.969 721.719 338.719C721.656 340.406 721.031 341.844 719.844 343.031C718.719 344.156 717.312 344.75 715.625 344.812H693.688C689.062 344.875 684.875 343.062 681.125 339.375C677.375 335.688 675.094 331.312 674.281 326.25C673.156 320.625 672.594 317.469 672.594 316.781C672.594 315.031 673.188 313.562 674.375 312.375C675.625 311.125 677.125 310.5 678.875 310.5H703.625C704.812 310.438 705.781 310.188 706.531 309.75C707.344 309.25 707.938 308.719 708.312 308.156C708.688 307.531 708.875 306.906 708.875 306.281C708.875 305.656 708.688 305.062 708.312 304.5C707.938 303.875 707.344 303.344 706.531 302.906C705.781 302.406 704.812 302.125 703.625 302.062H678.219H670.719C669.094 302.125 668.281 302.938 668.281 304.5V340.031Z" fill="url(#paint6_linear_386_10270)"/>
<path fill-rule="evenodd" clip-rule="evenodd" d="M255.035 275.559C270.397 269.352 276.309 248.131 268.241 228.16C262.269 213.38 250.313 203.427 238.274 201.768C252.429 199.733 268.106 210.501 275.241 228.16C283.309 248.131 277.397 269.352 262.035 275.559C258.042 277.172 253.804 277.612 249.577 277.029C251.43 276.763 253.257 276.277 255.035 275.559Z" fill="#54A2BA"/>
<path fill-rule="evenodd" clip-rule="evenodd" d="M238.741 270.583C249.445 265.934 253.565 250.04 247.943 235.083C243.782 224.013 235.451 216.558 227.062 215.316C236.925 213.792 247.849 221.857 252.82 235.083C258.442 250.04 254.323 265.934 243.619 270.583C240.837 271.791 237.884 272.121 234.938 271.684C236.229 271.485 237.502 271.121 238.741 270.583Z" fill="#54A2BA"/>
<path fill-rule="evenodd" clip-rule="evenodd" d="M61.8156 275.559C46.4535 269.352 40.541 248.131 48.6097 228.16C55.7444 210.501 71.4217 199.733 85.5765 201.768C73.5375 203.427 61.5813 213.38 55.6097 228.16C47.541 248.131 53.4535 269.352 68.8156 275.559C70.5939 276.277 72.4209 276.763 74.2739 277.029C70.0462 277.612 65.8082 277.172 61.8156 275.559Z" fill="#5BCBA9"/>
<path fill-rule="evenodd" clip-rule="evenodd" d="M80.2317 270.583C69.5277 265.934 65.4079 250.04 71.0301 235.083C76.0014 221.857 86.9251 213.792 96.7881 215.316C88.3995 216.558 80.0686 224.013 75.9077 235.083C70.2855 250.04 74.4052 265.934 85.1093 270.583C86.3484 271.121 87.6214 271.485 88.9126 271.684C85.9667 272.121 83.0138 271.791 80.2317 270.583Z" fill="#5BCBA9"/>
<path d="M125 283L129.33 290.5H120.67L125 283Z" fill="#AAA9A9"/>
<path d="M199 283L194.67 290.5H203.33L199 283Z" fill="url(#paint7_linear_386_10270)"/>
<path d="M131.407 261.807L124.782 265.584L124.321 258.989L131.407 261.807Z" fill="#ABAAAA"/>
<path d="M146.407 254.807L139.782 258.584L139.321 251.989L146.407 254.807Z" fill="#A6A6A6"/>
<path d="M178.266 254.807L184.891 258.584L185.352 251.989L178.266 254.807Z" fill="#9D9999"/>
<rect x="155" y="284" width="14" height="80" rx="7" fill="url(#paint8_linear_386_10270)"/>
<rect x="199" y="276" width="14" height="74" transform="rotate(90 199 276)" fill="url(#paint9_linear_386_10270)"/>
<rect x="199" y="262" width="14" height="74" transform="rotate(90 199 262)" fill="url(#paint10_linear_386_10270)"/>
<rect x="184" y="255" width="14" height="44" transform="rotate(90 184 255)" fill="url(#paint11_linear_386_10270)"/>
<rect x="130" y="265" width="5" height="16" fill="white"/>
<rect x="138" y="265" width="7" height="16" fill="white"/>
<rect x="148" y="265" width="9" height="16" fill="white"/>
<rect x="179" y="265" width="7" height="16" fill="white"/>
<rect x="167" y="265" width="9" height="16" fill="white"/>
<rect x="189" y="265" width="5" height="16" fill="white"/>
<path d="M130 278L131.732 281H128.268L130 278Z" fill="#5BCBA9"/>
<path d="M194 278L195.732 281H192.268L194 278Z" fill="#55ABB1"/>
<path d="M192.268 265L195.732 265L194 268L192.268 265Z" fill="#61ABB5"/>
<path d="M128 264.732L131.464 264.732L129.732 267.732L128 264.732Z" fill="#5BCBA9"/>
<path d="M125 283L129.33 290.5H120.67L125 283Z" fill="#AAA9A9"/>
<path d="M199 283L194.67 290.5H203.33L199 283Z" fill="url(#paint12_linear_386_10270)"/>
<path d="M131.407 261.807L124.782 265.584L124.321 258.989L131.407 261.807Z" fill="#ABAAAA"/>
<path d="M146.407 254.807L139.782 258.584L139.321 251.989L146.407 254.807Z" fill="#A6A6A6"/>
<path d="M178.266 254.807L184.891 258.584L185.352 251.989L178.266 254.807Z" fill="#9D9999"/>
<rect x="155" y="284" width="14" height="80" rx="7" fill="url(#paint13_linear_386_10270)"/>
<rect x="199" y="276" width="14" height="74" transform="rotate(90 199 276)" fill="url(#paint14_linear_386_10270)"/>
<rect x="199" y="262" width="14" height="74" transform="rotate(90 199 262)" fill="url(#paint15_linear_386_10270)"/>
<rect x="184" y="255" width="14" height="44" transform="rotate(90 184 255)" fill="url(#paint16_linear_386_10270)"/>
<rect x="130" y="265" width="5" height="16" fill="white"/>
<rect x="138" y="265" width="7" height="16" fill="white"/>
<rect x="148" y="265" width="9" height="16" fill="white"/>
<rect x="179" y="265" width="7" height="16" fill="white"/>
<rect x="167" y="265" width="9" height="16" fill="white"/>
<rect x="189" y="265" width="5" height="16" fill="white"/>
<path d="M130 278L131.732 281H128.268L130 278Z" fill="#5BCBA9"/>
<path d="M194 278L195.732 281H192.268L194 278Z" fill="#55ABB1"/>
<path d="M192.268 265L195.732 265L194 268L192.268 265Z" fill="#61ABB5"/>
<path d="M128 264.732L131.464 264.732L129.732 267.732L128 264.732Z" fill="#5BCBA9"/>
<path d="M125 283L129.33 290.5H120.67L125 283Z" fill="#AAA9A9"/>
<path d="M199 283L194.67 290.5H203.33L199 283Z" fill="url(#paint17_linear_386_10270)"/>
<path d="M131.407 261.807L124.782 265.584L124.321 258.989L131.407 261.807Z" fill="#ABAAAA"/>
<path d="M146.407 254.807L139.782 258.584L139.321 251.989L146.407 254.807Z" fill="#A6A6A6"/>
<path d="M178.266 254.807L184.891 258.584L185.352 251.989L178.266 254.807Z" fill="#9D9999"/>
<rect x="155" y="284" width="14" height="80" rx="7" fill="url(#paint18_linear_386_10270)"/>
<rect x="199" y="276" width="14" height="74" transform="rotate(90 199 276)" fill="url(#paint19_linear_386_10270)"/>
<rect x="199" y="262" width="14" height="74" transform="rotate(90 199 262)" fill="url(#paint20_linear_386_10270)"/>
<rect x="184" y="255" width="14" height="44" transform="rotate(90 184 255)" fill="url(#paint21_linear_386_10270)"/>
<rect x="130" y="265" width="5" height="16" fill="white"/>
<rect x="138" y="265" width="7" height="16" fill="white"/>
<rect x="148" y="265" width="9" height="16" fill="white"/>
<rect x="179" y="265" width="7" height="16" fill="white"/>
<rect x="167" y="265" width="9" height="16" fill="white"/>
<rect x="189" y="265" width="5" height="16" fill="white"/>
<path d="M130 278L131.732 281H128.268L130 278Z" fill="#5BCBA9"/>
<path d="M194 278L195.732 281H192.268L194 278Z" fill="#55ABB1"/>
<path d="M192.268 265L195.732 265L194 268L192.268 265Z" fill="#61ABB5"/>
<path d="M128 264.732L131.464 264.732L129.732 267.732L128 264.732Z" fill="#5BCBA9"/>
<path d="M125 283L129.33 290.5H120.67L125 283Z" fill="#AAA9A9"/>
<path d="M199 283L194.67 290.5H203.33L199 283Z" fill="url(#paint22_linear_386_10270)"/>
<path d="M131.407 261.807L124.782 265.584L124.321 258.989L131.407 261.807Z" fill="#ABAAAA"/>
<path d="M193.252 262.01L199.406 265.577L199.842 259.334L193.252 262.01Z" fill="#939393"/>
<path d="M146.407 254.807L139.782 258.584L139.321 251.989L146.407 254.807Z" fill="#A6A6A6"/>
<path d="M178.266 254.807L184.891 258.584L185.352 251.989L178.266 254.807Z" fill="#9D9999"/>
<path d="M172.188 88.3125C170.771 88.3125 169.354 88.0625 167.938 87.5625C166.562 87.0625 165.229 86.3333 163.938 85.375C162.646 84.375 161.521 83.0625 160.562 81.4375C159.604 79.8125 159.083 77.875 159 75.625V53.0625C159 51.8958 159.417 50.9375 160.25 50.1875C161.125 49.3958 162.146 49 163.312 49C165.812 49.2083 167.167 50.5625 167.375 53.0625V75.125C167.417 76.125 167.625 76.9792 168 77.6875C168.375 78.3542 168.792 78.8958 169.25 79.3125C169.708 79.6875 170.167 79.9792 170.625 80.1875C171.125 80.3542 171.625 80.4375 172.125 80.4375C172.625 80.4375 173.125 80.3542 173.625 80.1875C174.125 79.9792 174.604 79.6875 175.062 79.3125C175.521 78.8958 175.938 78.3542 176.312 77.6875C176.688 76.9792 176.875 76.125 176.875 75.125V53.0625C176.875 51.8958 177.292 50.9375 178.125 50.1875C179 49.3958 180.021 49 181.188 49C183.688 49.2083 185.062 50.5625 185.312 53.0625V75.125C185.354 76.125 185.562 76.9583 185.938 77.625C186.312 78.3333 186.729 78.8958 187.188 79.3125C187.646 79.6875 188.104 79.9792 188.562 80.1875C189.062 80.3542 189.562 80.4375 190.062 80.4375C190.562 80.4375 191.062 80.3542 191.562 80.1875C192.062 79.9792 192.542 79.6875 193 79.3125C193.458 78.8958 193.875 78.3542 194.25 77.6875C194.625 76.9792 194.812 76.125 194.812 75.125V53.0625C194.812 51.8958 195.229 50.9375 196.062 50.1875C196.938 49.3958 197.958 49 199.125 49C201.625 49.2083 203 50.5625 203.25 53.0625V75.625C203.25 77.875 202.75 79.8125 201.75 81.4375C200.792 83.0625 199.667 84.375 198.375 85.375C197.125 86.3333 195.792 87.0625 194.375 87.5625C193 88.0625 191.583 88.3125 190.125 88.3125C188.708 88.3125 187.292 88.0625 185.875 87.5625C184.5 87.0625 183.167 86.3125 181.875 85.3125C181.625 85.1458 181.396 84.9583 181.188 84.75C180.938 84.9583 180.708 85.1458 180.5 85.3125C179.208 86.3125 177.854 87.0625 176.438 87.5625C175.062 88.0625 173.646 88.3125 172.188 88.3125ZM223.062 50H225.938H247.188C248.354 50.0417 249.312 50.4792 250.062 51.3125C250.854 52.1458 251.25 53.1458 251.25 54.3125C251.042 56.8125 249.688 58.1667 247.188 58.375H225.188C223.604 58.4583 222.292 59.0625 221.25 60.1875C220.208 61.3125 219.438 62.6042 218.938 64.0625C218.479 65.4792 218.25 66.9375 218.25 68.4375C218.25 69.9375 218.479 71.4167 218.938 72.875C219.438 74.2917 220.208 75.5625 221.25 76.6875C222.292 77.8125 223.604 78.4167 225.188 78.5H247.188C248.354 78.5417 249.312 78.9792 250.062 79.8125C250.854 80.6458 251.25 81.6458 251.25 82.8125C251.208 83.9375 250.792 84.8958 250 85.6875C249.25 86.4375 248.312 86.8333 247.188 86.875H224.25H223.062C220.146 86.7083 217.729 85.6042 215.812 83.5625C213.938 81.4792 212.583 79.125 211.75 76.5C210.958 73.875 210.562 71.1875 210.562 68.4375C210.562 65.6875 210.979 63 211.812 60.375C212.646 57.75 214 55.4167 215.875 53.375C217.75 51.2917 220.146 50.1667 223.062 50ZM251.125 68.1875C251.125 69.3542 250.708 70.3333 249.875 71.125C249.083 71.9583 248.104 72.375 246.938 72.375H228.062C226.896 72.375 225.896 71.9792 225.062 71.1875C224.271 70.3542 223.875 69.3542 223.875 68.1875C223.875 67.0208 224.271 66.0208 225.062 65.1875C225.896 64.3958 226.896 64 228.062 64H246.938C248.104 64 249.083 64.4167 249.875 65.25C250.708 66.0417 251.125 67.0208 251.125 68.1875ZM261.688 49C262.854 49 263.854 49.3958 264.688 50.1875C265.521 50.9375 265.958 51.8958 266 53.0625V68.125C265.958 69.8333 266.062 71.4167 266.312 72.875C266.604 74.2917 267.271 75.5625 268.312 76.6875C269.354 77.8125 270.667 78.4167 272.25 78.5H292.25C293.417 78.5417 294.375 78.9792 295.125 79.8125C295.917 80.6458 296.312 81.6458 296.312 82.8125C296.271 83.9375 295.854 84.8958 295.062 85.6875C294.312 86.4375 293.375 86.8333 292.25 86.875H270.125C267.208 86.7083 264.792 85.7292 262.875 83.9375C261 82.1042 259.646 79.875 258.812 77.25C258.021 74.625 257.604 71.8333 257.562 68.875V53.0625C257.604 51.9375 258.021 51 258.812 50.25C259.604 49.4583 260.562 49.0417 261.688 49ZM316.5 58.375C314.917 58.4583 313.583 59.0625 312.5 60.1875C311.458 61.3125 310.708 62.6042 310.25 64.0625C309.792 65.4792 309.562 66.9375 309.562 68.4375C309.562 69.9375 309.771 71.4167 310.188 72.875C310.646 74.3333 311.417 75.625 312.5 76.75C313.583 77.8333 314.917 78.4167 316.5 78.5H337.125C339.75 78.75 341.188 80.1875 341.438 82.8125C341.396 83.9792 340.958 84.9583 340.125 85.75C339.292 86.5 338.292 86.875 337.125 86.875H317.188H314.312C311.396 86.7083 309 85.6042 307.125 83.5625C305.25 81.4792 303.896 79.125 303.062 76.5C302.271 73.875 301.875 71.1875 301.875 68.4375C301.875 66.3958 302.104 64.375 302.562 62.375C303.021 60.375 303.729 58.4792 304.688 56.6875C305.688 54.8542 307 53.2917 308.625 52C310.292 50.7083 312.188 50.0417 314.312 50H315.5H337.125C339.75 50.25 341.188 51.6875 341.438 54.3125C341.438 55.4792 341 56.4583 340.125 57.25C339.292 58 338.292 58.375 337.125 58.375H316.5ZM380.75 50C382.875 50.0417 384.771 50.7083 386.438 52C388.104 53.2917 389.438 54.8333 390.438 56.625C391.479 58.4167 392.25 60.3125 392.75 62.3125C393.25 64.3125 393.5 66.3542 393.5 68.4375C393.5 71.1875 393.062 73.8958 392.188 76.5625C391.354 79.1875 389.958 81.5208 388 83.5625C386.083 85.6042 383.667 86.7083 380.75 86.875H358.938C356.021 86.75 353.583 85.6667 351.625 83.625C349.667 81.5833 348.271 79.2292 347.438 76.5625C346.646 73.8958 346.25 71.1875 346.25 68.4375C346.25 65.6875 346.667 63 347.5 60.375C348.333 57.7083 349.708 55.3542 351.625 53.3125C353.583 51.2292 356.021 50.125 358.938 50H360.125H379.562H380.75ZM378.625 78.5C380.208 78.4167 381.521 77.8333 382.562 76.75C383.646 75.625 384.417 74.3333 384.875 72.875C385.333 71.4167 385.562 69.9375 385.562 68.4375C385.562 66.9375 385.312 65.4792 384.812 64.0625C384.354 62.6042 383.604 61.3125 382.562 60.1875C381.521 59.0625 380.208 58.4583 378.625 58.375H360.875C359.292 58.4583 357.979 59.0625 356.938 60.1875C355.896 61.3125 355.125 62.6042 354.625 64.0625C354.167 65.4792 353.938 66.9375 353.938 68.4375C353.938 69.9375 354.167 71.4167 354.625 72.875C355.083 74.3333 355.833 75.625 356.875 76.75C357.958 77.8333 359.292 78.4167 360.875 78.5H378.625ZM413.562 48.3125C415.021 48.3125 416.438 48.5625 417.812 49.0625C419.229 49.5625 420.583 50.2917 421.875 51.25C422.083 51.4583 422.312 51.6667 422.562 51.875C422.771 51.6667 423 51.4583 423.25 51.25C424.542 50.2917 425.875 49.5625 427.25 49.0625C428.667 48.5625 430.083 48.3125 431.5 48.3125C432.958 48.3125 434.375 48.5625 435.75 49.0625C437.167 49.5625 438.5 50.3125 439.75 51.3125C441.042 52.2708 442.167 53.5625 443.125 55.1875C444.125 56.8125 444.625 58.75 444.625 61V83.5625C444.375 86.0625 443 87.4167 440.5 87.625C439.333 87.625 438.312 87.25 437.438 86.5C436.604 85.7083 436.188 84.7292 436.188 83.5625V61.5C436.188 60.5 436 59.6667 435.625 59C435.25 58.2917 434.833 57.75 434.375 57.375C433.917 56.9583 433.438 56.6667 432.938 56.5C432.438 56.2917 431.938 56.1875 431.438 56.1875C430.938 56.1875 430.438 56.2917 429.938 56.5C429.479 56.6667 429.021 56.9583 428.562 57.375C428.104 57.75 427.688 58.2917 427.312 59C426.938 59.6667 426.729 60.5 426.688 61.5V83.5625C426.438 86.0625 425.062 87.4167 422.562 87.625C421.396 87.625 420.375 87.25 419.5 86.5C418.667 85.7083 418.25 84.7292 418.25 83.5625V61.5C418.25 60.5 418.062 59.6667 417.688 59C417.312 58.2917 416.896 57.75 416.438 57.375C415.979 56.9583 415.5 56.6667 415 56.5C414.5 56.2917 414 56.1875 413.5 56.1875C413 56.1875 412.5 56.2917 412 56.5C411.542 56.6667 411.083 56.9583 410.625 57.375C410.167 57.75 409.75 58.2917 409.375 59C409 59.6667 408.792 60.5 408.75 61.5V83.5625C408.542 86.0625 407.188 87.4167 404.688 87.625C403.521 87.625 402.5 87.25 401.625 86.5C400.792 85.7083 400.375 84.7292 400.375 83.5625V61C400.458 58.75 400.979 56.8125 401.938 55.1875C402.896 53.5625 404.021 52.2708 405.312 51.3125C406.604 50.3125 407.938 49.5625 409.312 49.0625C410.729 48.5625 412.146 48.3125 413.562 48.3125ZM464.125 50H467H488.25C489.417 50.0417 490.375 50.4792 491.125 51.3125C491.917 52.1458 492.312 53.1458 492.312 54.3125C492.104 56.8125 490.75 58.1667 488.25 58.375H466.25C464.667 58.4583 463.354 59.0625 462.312 60.1875C461.271 61.3125 460.5 62.6042 460 64.0625C459.542 65.4792 459.312 66.9375 459.312 68.4375C459.312 69.9375 459.542 71.4167 460 72.875C460.5 74.2917 461.271 75.5625 462.312 76.6875C463.354 77.8125 464.667 78.4167 466.25 78.5H488.25C489.417 78.5417 490.375 78.9792 491.125 79.8125C491.917 80.6458 492.312 81.6458 492.312 82.8125C492.271 83.9375 491.854 84.8958 491.062 85.6875C490.312 86.4375 489.375 86.8333 488.25 86.875H465.312H464.125C461.208 86.7083 458.792 85.6042 456.875 83.5625C455 81.4792 453.646 79.125 452.812 76.5C452.021 73.875 451.625 71.1875 451.625 68.4375C451.625 65.6875 452.042 63 452.875 60.375C453.708 57.75 455.062 55.4167 456.938 53.375C458.812 51.2917 461.208 50.1667 464.125 50ZM492.188 68.1875C492.188 69.3542 491.771 70.3333 490.938 71.125C490.146 71.9583 489.167 72.375 488 72.375H469.125C467.958 72.375 466.958 71.9792 466.125 71.1875C465.333 70.3542 464.938 69.3542 464.938 68.1875C464.938 67.0208 465.333 66.0208 466.125 65.1875C466.958 64.3958 467.958 64 469.125 64H488C489.167 64 490.146 64.4167 490.938 65.25C491.771 66.0417 492.188 67.0208 492.188 68.1875ZM529.375 54.1875C529.375 53.0208 529.771 52.0417 530.562 51.25C531.396 50.4167 532.396 50 533.562 50H569.938C571.104 50 572.104 50.3958 572.938 51.1875C573.729 52.0208 574.125 53.0208 574.125 54.1875C574.125 55.3542 573.708 56.3542 572.875 57.1875C572.083 57.9792 571.104 58.375 569.938 58.375H556V83.6875C555.75 86.1875 554.375 87.5417 551.875 87.75C550.708 87.75 549.688 87.375 548.812 86.625C547.979 85.8333 547.562 84.8542 547.562 83.6875V58.375H533.562C532.396 58.375 531.417 57.9583 530.625 57.125C529.792 56.3333 529.375 55.3542 529.375 54.1875ZM614.25 50C616.375 50.0417 618.271 50.7083 619.938 52C621.604 53.2917 622.938 54.8333 623.938 56.625C624.979 58.4167 625.75 60.3125 626.25 62.3125C626.75 64.3125 627 66.3542 627 68.4375C627 71.1875 626.562 73.8958 625.688 76.5625C624.854 79.1875 623.458 81.5208 621.5 83.5625C619.583 85.6042 617.167 86.7083 614.25 86.875H592.438C589.521 86.75 587.083 85.6667 585.125 83.625C583.167 81.5833 581.771 79.2292 580.938 76.5625C580.146 73.8958 579.75 71.1875 579.75 68.4375C579.75 65.6875 580.167 63 581 60.375C581.833 57.7083 583.208 55.3542 585.125 53.3125C587.083 51.2292 589.521 50.125 592.438 50H593.625H613.062H614.25ZM612.125 78.5C613.708 78.4167 615.021 77.8333 616.062 76.75C617.146 75.625 617.917 74.3333 618.375 72.875C618.833 71.4167 619.062 69.9375 619.062 68.4375C619.062 66.9375 618.812 65.4792 618.312 64.0625C617.854 62.6042 617.104 61.3125 616.062 60.1875C615.021 59.0625 613.708 58.4583 612.125 58.375H594.375C592.792 58.4583 591.479 59.0625 590.438 60.1875C589.396 61.3125 588.625 62.6042 588.125 64.0625C587.667 65.4792 587.438 66.9375 587.438 68.4375C587.438 69.9375 587.667 71.4167 588.125 72.875C588.583 74.3333 589.333 75.625 590.375 76.75C591.458 77.8333 592.792 78.4167 594.375 78.5H612.125Z" fill="url(#paint23_linear_386_10270)"/>
<defs>
<linearGradient id="paint0_linear_386_10270" x1="347" y1="222.5" x2="742.998" y2="223.572" gradientUnits="userSpaceOnUse">
<stop stop-color="#B8B8B8"/>
<stop offset="1" stop-color="#494848"/>
</linearGradient>
<linearGradient id="paint1_linear_386_10270" x1="116" y1="195" x2="368.5" y2="297.5" gradientUnits="userSpaceOnUse">
<stop stop-color="#B8B8B8"/>
<stop offset="1" stop-color="#525252"/>
</linearGradient>
<linearGradient id="paint2_linear_386_10270" x1="124.5" y1="293" x2="231" y2="292" gradientUnits="userSpaceOnUse">
<stop stop-color="#5BCBA9"/>
<stop offset="1" stop-color="#54A2BA"/>
</linearGradient>
<linearGradient id="paint3_linear_386_10270" x1="213" y1="347.5" x2="213" y2="251" gradientUnits="userSpaceOnUse">
<stop stop-color="#5BCBA9"/>
<stop offset="1" stop-color="#54A2BA"/>
</linearGradient>
<linearGradient id="paint4_linear_386_10270" x1="208" y1="341.5" x2="206" y2="242.5" gradientUnits="userSpaceOnUse">
<stop stop-color="#5BCBA9"/>
<stop offset="1" stop-color="#54A2BA"/>
</linearGradient>
<linearGradient id="paint5_linear_386_10270" x1="186.5" y1="313.5" x2="184" y2="223.5" gradientUnits="userSpaceOnUse">
<stop stop-color="#5BCBA9"/>
<stop offset="1" stop-color="#54A2BA"/>
</linearGradient>
<linearGradient id="paint6_linear_386_10270" x1="347" y1="298" x2="679.739" y2="298" gradientUnits="userSpaceOnUse">
<stop stop-color="#5BCBA9"/>
<stop offset="1" stop-color="#54A2BA"/>
</linearGradient>
<linearGradient id="paint7_linear_386_10270" x1="199" y1="283" x2="205" y2="290.5" gradientUnits="userSpaceOnUse">
<stop stop-color="#928F8F"/>
<stop offset="1" stop-color="#8C8C8C"/>
</linearGradient>
<linearGradient id="paint8_linear_386_10270" x1="124.5" y1="293" x2="231" y2="292" gradientUnits="userSpaceOnUse">
<stop stop-color="#5BCBA9"/>
<stop offset="1" stop-color="#54A2BA"/>
</linearGradient>
<linearGradient id="paint9_linear_386_10270" x1="213" y1="347.5" x2="213" y2="251" gradientUnits="userSpaceOnUse">
<stop stop-color="#5BCBA9"/>
<stop offset="1" stop-color="#54A2BA"/>
</linearGradient>
<linearGradient id="paint10_linear_386_10270" x1="208" y1="341.5" x2="206" y2="242.5" gradientUnits="userSpaceOnUse">
<stop stop-color="#5BCBA9"/>
<stop offset="1" stop-color="#54A2BA"/>
</linearGradient>
<linearGradient id="paint11_linear_386_10270" x1="186.5" y1="313.5" x2="184" y2="223.5" gradientUnits="userSpaceOnUse">
<stop stop-color="#5BCBA9"/>
<stop offset="1" stop-color="#54A2BA"/>
</linearGradient>
<linearGradient id="paint12_linear_386_10270" x1="199" y1="283" x2="205" y2="290.5" gradientUnits="userSpaceOnUse">
<stop stop-color="#928F8F"/>
<stop offset="1" stop-color="#8C8C8C"/>
</linearGradient>
<linearGradient id="paint13_linear_386_10270" x1="124.5" y1="293" x2="231" y2="292" gradientUnits="userSpaceOnUse">
<stop stop-color="#5BCBA9"/>
<stop offset="1" stop-color="#54A2BA"/>
</linearGradient>
<linearGradient id="paint14_linear_386_10270" x1="213" y1="347.5" x2="213" y2="251" gradientUnits="userSpaceOnUse">
<stop stop-color="#5BCBA9"/>
<stop offset="1" stop-color="#54A2BA"/>
</linearGradient>
<linearGradient id="paint15_linear_386_10270" x1="208" y1="341.5" x2="206" y2="242.5" gradientUnits="userSpaceOnUse">
<stop stop-color="#5BCBA9"/>
<stop offset="1" stop-color="#54A2BA"/>
</linearGradient>
<linearGradient id="paint16_linear_386_10270" x1="186.5" y1="313.5" x2="184" y2="223.5" gradientUnits="userSpaceOnUse">
<stop stop-color="#5BCBA9"/>
<stop offset="1" stop-color="#54A2BA"/>
</linearGradient>
<linearGradient id="paint17_linear_386_10270" x1="199" y1="283" x2="205" y2="290.5" gradientUnits="userSpaceOnUse">
<stop stop-color="#928F8F"/>
<stop offset="1" stop-color="#8C8C8C"/>
</linearGradient>
<linearGradient id="paint18_linear_386_10270" x1="124.5" y1="293" x2="231" y2="292" gradientUnits="userSpaceOnUse">
<stop stop-color="#5BCBA9"/>
<stop offset="1" stop-color="#54A2BA"/>
</linearGradient>
<linearGradient id="paint19_linear_386_10270" x1="213" y1="347.5" x2="213" y2="251" gradientUnits="userSpaceOnUse">
<stop stop-color="#5BCBA9"/>
<stop offset="1" stop-color="#54A2BA"/>
</linearGradient>
<linearGradient id="paint20_linear_386_10270" x1="208" y1="341.5" x2="206" y2="242.5" gradientUnits="userSpaceOnUse">
<stop stop-color="#5BCBA9"/>
<stop offset="1" stop-color="#54A2BA"/>
</linearGradient>
<linearGradient id="paint21_linear_386_10270" x1="186.5" y1="313.5" x2="184" y2="223.5" gradientUnits="userSpaceOnUse">
<stop stop-color="#5BCBA9"/>
<stop offset="1" stop-color="#54A2BA"/>
</linearGradient>
<linearGradient id="paint22_linear_386_10270" x1="199" y1="283" x2="205" y2="290.5" gradientUnits="userSpaceOnUse">
<stop stop-color="#928F8F"/>
<stop offset="1" stop-color="#8C8C8C"/>
</linearGradient>
<linearGradient id="paint23_linear_386_10270" x1="155" y1="69.5" x2="835.992" y2="68.8139" gradientUnits="userSpaceOnUse">
<stop stop-color="#5BCBA9"/>
<stop offset="1" stop-color="#54A2BA"/>
</linearGradient>
</defs>
</svg>
