<svg width="763" height="469" viewBox="0 0 763 469" fill="none" xmlns="http://www.w3.org/2000/svg">
<rect x="5.19615" y="9" width="341" height="209" rx="9" transform="matrix(0.866025 0.5 -2.20305e-08 1 242.696 20.4019)" stroke="url(#paint0_linear_391_9364)" stroke-width="12"/>
<rect x="5.19615" y="9" width="215" height="130" rx="9" transform="matrix(0.866025 0.5 -2.20305e-08 1 38.6962 146.402)" stroke="url(#paint1_linear_391_9364)" stroke-width="12"/>
<rect x="5.19615" y="9" width="57" height="96" rx="9" transform="matrix(0.866025 0.5 -2.20305e-08 1 604.696 253.402)" stroke="url(#paint2_linear_391_9364)" stroke-width="12"/>
<rect width="31" height="40" transform="matrix(0.866025 0.5 -2.20305e-08 1 368 314)" fill="url(#paint3_linear_391_9364)"/>
<rect width="207" height="11" rx="5.5" transform="matrix(0.866025 0.5 -2.20305e-08 1 291 306)" fill="url(#paint4_linear_391_9364)"/>
<circle cx="58.5" cy="242.5" r="2.5" fill="#5BCBA9"/>
<path d="M622 277L647.115 291.5L647.115 294.5C647.115 296.157 645.952 296.828 644.517 296L624.598 284.5C623.163 283.672 622 281.657 622 280L622 277Z" fill="url(#paint5_linear_391_9364)"/>
<path fill-rule="evenodd" clip-rule="evenodd" d="M444.042 249.866C452.091 250.758 455.189 239.708 450.961 225.185C447.833 214.437 441.569 204.799 435.261 200.154C442.677 203.205 450.891 214.461 454.629 227.303C458.856 241.825 455.759 252.875 447.71 251.983C445.618 251.751 443.398 250.736 441.183 249.104C442.154 249.504 443.111 249.762 444.042 249.866Z" fill="#54A2BA"/>
<path fill-rule="evenodd" clip-rule="evenodd" d="M435.506 241.927C441.114 242.352 443.272 233.983 440.327 223.234C438.147 215.278 433.782 208.248 429.387 204.959C434.554 207.02 440.278 215.204 442.882 224.709C445.828 235.459 443.669 243.828 438.061 243.402C436.604 243.292 435.057 242.598 433.513 241.443C434.19 241.713 434.857 241.878 435.506 241.927Z" fill="#54A2BA"/>
<path fill-rule="evenodd" clip-rule="evenodd" d="M342.81 191.419C334.762 183.017 331.664 168.391 335.891 158.75C339.629 150.225 347.843 148.452 355.259 153.965C348.952 151.327 342.687 153.732 339.559 160.867C335.331 170.508 338.429 185.135 346.478 193.537C347.409 194.509 348.366 195.356 349.337 196.077C347.122 195.151 344.902 193.603 342.81 191.419Z" fill="#5BCBA9"/>
<path fill-rule="evenodd" clip-rule="evenodd" d="M352.459 193.98C346.851 187.93 344.692 177.068 347.638 169.72C350.242 163.222 355.966 161.647 361.133 165.552C356.738 163.767 352.373 165.757 350.193 171.195C347.248 178.543 349.406 189.405 355.014 195.455C355.663 196.155 356.33 196.761 357.007 197.272C355.464 196.645 353.916 195.552 352.459 193.98Z" fill="#5BCBA9"/>
<path fill-rule="evenodd" clip-rule="evenodd" d="M389.792 172.137C391.956 167.954 398.642 171.814 400.806 178.496L436.718 289.368C438.566 295.072 435.631 298.666 431.211 296.114L428.862 294.758L400.806 208.14C398.642 201.458 391.956 197.598 389.792 201.781L361.736 256.002L359.388 254.647C354.967 252.094 352.033 245.112 353.88 241.541L389.792 172.137Z" fill="url(#paint6_linear_391_9364)"/>
<rect width="8.46967" height="44.7683" transform="matrix(-2.20305e-08 1 -0.866025 -0.5 414.684 233.183)" fill="url(#paint7_linear_391_9364)"/>
<rect width="8.46967" height="44.7683" transform="matrix(-2.20305e-08 1 -0.866025 -0.5 414.684 224.713)" fill="url(#paint8_linear_391_9364)"/>
<rect width="8.46967" height="26.619" transform="matrix(-2.20305e-08 1 -0.866025 -0.5 406.825 215.941)" fill="url(#paint9_linear_391_9364)"/>
<rect width="3.02488" height="9.67962" transform="matrix(0.866025 0.5 -2.20305e-08 1 378.534 205.656)" fill="white"/>
<rect width="4.23484" height="9.67962" transform="matrix(0.866025 0.5 -2.20305e-08 1 382.725 208.076)" fill="white"/>
<rect width="5.44478" height="9.67962" transform="matrix(0.866025 0.5 -2.20305e-08 1 387.964 211.101)" fill="white"/>
<rect width="4.23483" height="9.67962" transform="matrix(0.866025 0.5 -2.20305e-08 1 404.206 220.478)" fill="white"/>
<rect width="5.44479" height="9.67962" transform="matrix(0.866025 0.5 -2.20305e-08 1 397.919 216.849)" fill="white"/>
<rect width="3.02488" height="9.67962" transform="matrix(0.866025 0.5 -2.20305e-08 1 409.445 223.503)" fill="white"/>
<path d="M378.534 213.521L379.441 215.86L377.626 214.812L378.534 213.521Z" fill="#5BCBA9"/>
<path d="M412.065 232.88L412.972 235.219L411.157 234.171L412.065 232.88Z" fill="#55ABB1"/>
<path d="M411.157 224.492L412.972 225.54L412.065 226.831L411.157 224.492Z" fill="#61ABB5"/>
<path d="M377.486 204.889L379.301 205.937L378.393 207.228L377.486 204.889Z" fill="#5BCBA9"/>
<path d="M375.914 215.034L378.183 220.881L373.645 218.261L375.914 215.034Z" fill="#AAA9A9"/>
<path d="M414.684 237.418L412.416 240.645L416.953 243.265L414.684 237.418Z" fill="url(#paint10_linear_391_9364)"/>
<path d="M379.271 204.151L375.8 204.431L375.558 200.302L379.271 204.151Z" fill="#ABAAAA"/>
<path d="M387.13 204.453L383.659 204.734L383.417 200.605L387.13 204.453Z" fill="#A6A6A6"/>
<path d="M403.821 214.09L407.292 218.379L407.534 214.529L403.821 214.09Z" fill="#9D9999"/>
<rect width="8.46967" height="44.7683" transform="matrix(-2.20305e-08 1 -0.866025 -0.5 414.684 233.183)" fill="url(#paint11_linear_391_9364)"/>
<rect width="8.46967" height="44.7683" transform="matrix(-2.20305e-08 1 -0.866025 -0.5 414.684 224.713)" fill="url(#paint12_linear_391_9364)"/>
<rect width="8.46967" height="26.619" transform="matrix(-2.20305e-08 1 -0.866025 -0.5 406.825 215.941)" fill="url(#paint13_linear_391_9364)"/>
<rect width="3.02488" height="9.67962" transform="matrix(0.866025 0.5 -2.20305e-08 1 378.534 205.656)" fill="white"/>
<rect width="4.23484" height="9.67962" transform="matrix(0.866025 0.5 -2.20305e-08 1 382.725 208.076)" fill="white"/>
<rect width="5.44478" height="9.67962" transform="matrix(0.866025 0.5 -2.20305e-08 1 387.964 211.101)" fill="white"/>
<rect width="4.23483" height="9.67962" transform="matrix(0.866025 0.5 -2.20305e-08 1 404.206 220.478)" fill="white"/>
<rect width="5.44479" height="9.67962" transform="matrix(0.866025 0.5 -2.20305e-08 1 397.919 216.849)" fill="white"/>
<rect width="3.02488" height="9.67962" transform="matrix(0.866025 0.5 -2.20305e-08 1 409.445 223.503)" fill="white"/>
<path d="M378.534 213.521L379.441 215.86L377.626 214.812L378.534 213.521Z" fill="#5BCBA9"/>
<path d="M412.065 232.88L412.972 235.219L411.157 234.171L412.065 232.88Z" fill="#55ABB1"/>
<path d="M411.157 224.492L412.972 225.54L412.065 226.831L411.157 224.492Z" fill="#61ABB5"/>
<path d="M377.486 204.889L379.301 205.937L378.393 207.228L377.486 204.889Z" fill="#5BCBA9"/>
<path d="M375.914 215.034L378.183 220.881L373.645 218.261L375.914 215.034Z" fill="#AAA9A9"/>
<path d="M414.684 237.418L412.416 240.645L416.953 243.265L414.684 237.418Z" fill="url(#paint14_linear_391_9364)"/>
<path d="M379.271 204.151L375.8 204.431L375.558 200.302L379.271 204.151Z" fill="#ABAAAA"/>
<path d="M387.13 204.453L383.659 204.734L383.417 200.605L387.13 204.453Z" fill="#A6A6A6"/>
<path d="M403.821 214.09L407.292 218.379L407.534 214.529L403.821 214.09Z" fill="#9D9999"/>
<rect width="8.46967" height="44.7683" transform="matrix(-2.20305e-08 1 -0.866025 -0.5 414.684 233.183)" fill="url(#paint15_linear_391_9364)"/>
<rect width="8.46967" height="44.7683" transform="matrix(-2.20305e-08 1 -0.866025 -0.5 414.684 224.713)" fill="url(#paint16_linear_391_9364)"/>
<rect width="8.46967" height="26.619" transform="matrix(-2.20305e-08 1 -0.866025 -0.5 406.825 215.941)" fill="url(#paint17_linear_391_9364)"/>
<rect width="3.02488" height="9.67962" transform="matrix(0.866025 0.5 -2.20305e-08 1 378.534 205.656)" fill="white"/>
<rect width="4.23484" height="9.67962" transform="matrix(0.866025 0.5 -2.20305e-08 1 382.725 208.076)" fill="white"/>
<rect width="5.44478" height="9.67962" transform="matrix(0.866025 0.5 -2.20305e-08 1 387.964 211.101)" fill="white"/>
<rect width="4.23483" height="9.67962" transform="matrix(0.866025 0.5 -2.20305e-08 1 404.206 220.478)" fill="white"/>
<rect width="5.44479" height="9.67962" transform="matrix(0.866025 0.5 -2.20305e-08 1 397.919 216.849)" fill="white"/>
<rect width="3.02488" height="9.67962" transform="matrix(0.866025 0.5 -2.20305e-08 1 409.445 223.503)" fill="white"/>
<path d="M378.534 213.521L379.441 215.86L377.626 214.812L378.534 213.521Z" fill="#5BCBA9"/>
<path d="M412.065 232.88L412.972 235.219L411.157 234.171L412.065 232.88Z" fill="#55ABB1"/>
<path d="M411.157 224.492L412.972 225.54L412.065 226.831L411.157 224.492Z" fill="#61ABB5"/>
<path d="M377.486 204.889L379.301 205.937L378.393 207.228L377.486 204.889Z" fill="#5BCBA9"/>
<path d="M375.914 215.034L378.183 220.881L373.645 218.261L375.914 215.034Z" fill="#AAA9A9"/>
<path d="M414.684 237.418L412.416 240.645L416.953 243.265L414.684 237.418Z" fill="url(#paint18_linear_391_9364)"/>
<path d="M379.271 204.151L375.8 204.431L375.558 200.302L379.271 204.151Z" fill="#ABAAAA"/>
<path d="M387.13 204.453L383.659 204.734L383.417 200.605L387.13 204.453Z" fill="#A6A6A6"/>
<path d="M403.821 214.09L407.292 218.379L407.534 214.529L403.821 214.09Z" fill="#9D9999"/>
<rect width="8.46967" height="48.3981" rx="4.23483" transform="matrix(0.866025 0.5 -2.20305e-08 1 391.632 224.713)" fill="url(#paint19_linear_391_9364)"/>
<rect width="8.46967" height="44.7683" transform="matrix(-2.20305e-08 1 -0.866025 -0.5 414.684 233.183)" fill="url(#paint20_linear_391_9364)"/>
<rect width="8.46967" height="44.7683" transform="matrix(-2.20305e-08 1 -0.866025 -0.5 414.684 224.713)" fill="url(#paint21_linear_391_9364)"/>
<rect width="8.46967" height="26.619" transform="matrix(-2.20305e-08 1 -0.866025 -0.5 406.825 215.941)" fill="url(#paint22_linear_391_9364)"/>
<rect width="3.02488" height="9.67962" transform="matrix(0.866025 0.5 -2.20305e-08 1 378.534 205.656)" fill="white"/>
<rect width="4.23484" height="9.67962" transform="matrix(0.866025 0.5 -2.20305e-08 1 382.725 208.076)" fill="white"/>
<rect width="5.44478" height="9.67962" transform="matrix(0.866025 0.5 -2.20305e-08 1 387.964 211.101)" fill="white"/>
<rect width="4.23483" height="9.67962" transform="matrix(0.866025 0.5 -2.20305e-08 1 404.206 220.478)" fill="white"/>
<rect width="5.44479" height="9.67962" transform="matrix(0.866025 0.5 -2.20305e-08 1 397.919 216.849)" fill="white"/>
<rect width="3.02488" height="9.67962" transform="matrix(0.866025 0.5 -2.20305e-08 1 409.445 223.503)" fill="white"/>
<path d="M378.534 213.521L379.441 215.86L377.626 214.812L378.534 213.521Z" fill="#5BCBA9"/>
<path d="M412.065 232.88L412.972 235.219L411.157 234.171L412.065 232.88Z" fill="#55ABB1"/>
<path d="M411.157 224.492L412.972 225.54L412.065 226.831L411.157 224.492Z" fill="#61ABB5"/>
<path d="M377.486 204.889L379.301 205.937L378.393 207.228L377.486 204.889Z" fill="#5BCBA9"/>
<path d="M375.914 215.034L378.183 220.881L373.645 218.261L375.914 215.034Z" fill="#AAA9A9"/>
<path d="M414.684 237.418L412.416 240.645L416.953 243.265L414.684 237.418Z" fill="url(#paint23_linear_391_9364)"/>
<path d="M379.271 204.151L375.8 204.431L375.558 200.302L379.271 204.151Z" fill="#ABAAAA"/>
<path d="M411.673 222.981L414.897 227L415.126 223.355L411.673 222.981Z" fill="#929292"/>
<path d="M387.13 204.453L383.659 204.734L383.417 200.605L387.13 204.453Z" fill="#A6A6A6"/>
<path d="M403.821 214.09L407.292 218.379L407.534 214.529L403.821 214.09Z" fill="#9D9999"/>
<defs>
<linearGradient id="paint0_linear_391_9364" x1="-1.89416e-06" y1="119.5" x2="353" y2="111" gradientUnits="userSpaceOnUse">
<stop stop-color="#5BCBA9"/>
<stop offset="1" stop-color="#54A2BA"/>
</linearGradient>
<linearGradient id="paint1_linear_391_9364" x1="-1.21806e-06" y1="76.7828" x2="227" y2="71.3123" gradientUnits="userSpaceOnUse">
<stop stop-color="#5BCBA9"/>
<stop offset="1" stop-color="#54A2BA"/>
</linearGradient>
<linearGradient id="paint2_linear_391_9364" x1="-3.70246e-07" y1="58.3982" x2="69.0336" y2="57.7333" gradientUnits="userSpaceOnUse">
<stop stop-color="#5BCBA9"/>
<stop offset="1" stop-color="#54A2BA"/>
</linearGradient>
<linearGradient id="paint3_linear_391_9364" x1="-159" y1="40" x2="193.5" y2="40" gradientUnits="userSpaceOnUse">
<stop stop-color="#5BCBA9"/>
<stop offset="1" stop-color="#54A2BA"/>
</linearGradient>
<linearGradient id="paint4_linear_391_9364" x1="-71.5" y1="11" x2="279" y2="11" gradientUnits="userSpaceOnUse">
<stop stop-color="#5BCBA9"/>
<stop offset="1" stop-color="#54A2BA"/>
</linearGradient>
<linearGradient id="paint5_linear_391_9364" x1="604.679" y1="271.5" x2="665.086" y2="271.878" gradientUnits="userSpaceOnUse">
<stop stop-color="#5BCBA9"/>
<stop offset="1" stop-color="#54A2BA"/>
</linearGradient>
<linearGradient id="paint6_linear_391_9364" x1="371.944" y1="163.155" x2="528.663" y2="232.706" gradientUnits="userSpaceOnUse">
<stop stop-color="#B8B8B8"/>
<stop offset="1" stop-color="#525252"/>
</linearGradient>
<linearGradient id="paint7_linear_391_9364" x1="8.46967" y1="43.2558" x2="8.46967" y2="-15.1244" gradientUnits="userSpaceOnUse">
<stop stop-color="#5BCBA9"/>
<stop offset="1" stop-color="#54A2BA"/>
</linearGradient>
<linearGradient id="paint8_linear_391_9364" x1="5.44479" y1="48.0956" x2="4.23483" y2="-11.797" gradientUnits="userSpaceOnUse">
<stop stop-color="#5BCBA9"/>
<stop offset="1" stop-color="#54A2BA"/>
</linearGradient>
<linearGradient id="paint9_linear_391_9364" x1="1.51243" y1="35.3911" x2="-6.84844e-06" y2="-19.0568" gradientUnits="userSpaceOnUse">
<stop stop-color="#5BCBA9"/>
<stop offset="1" stop-color="#54A2BA"/>
</linearGradient>
<linearGradient id="paint10_linear_391_9364" x1="414.684" y1="237.418" x2="416.986" y2="244.062" gradientUnits="userSpaceOnUse">
<stop stop-color="#928F8F"/>
<stop offset="1" stop-color="#8C8C8C"/>
</linearGradient>
<linearGradient id="paint11_linear_391_9364" x1="8.46967" y1="43.2558" x2="8.46967" y2="-15.1244" gradientUnits="userSpaceOnUse">
<stop stop-color="#5BCBA9"/>
<stop offset="1" stop-color="#54A2BA"/>
</linearGradient>
<linearGradient id="paint12_linear_391_9364" x1="5.44479" y1="48.0956" x2="4.23483" y2="-11.797" gradientUnits="userSpaceOnUse">
<stop stop-color="#5BCBA9"/>
<stop offset="1" stop-color="#54A2BA"/>
</linearGradient>
<linearGradient id="paint13_linear_391_9364" x1="1.51243" y1="35.3911" x2="-6.84844e-06" y2="-19.0568" gradientUnits="userSpaceOnUse">
<stop stop-color="#5BCBA9"/>
<stop offset="1" stop-color="#54A2BA"/>
</linearGradient>
<linearGradient id="paint14_linear_391_9364" x1="414.684" y1="237.418" x2="416.986" y2="244.062" gradientUnits="userSpaceOnUse">
<stop stop-color="#928F8F"/>
<stop offset="1" stop-color="#8C8C8C"/>
</linearGradient>
<linearGradient id="paint15_linear_391_9364" x1="8.46967" y1="43.2558" x2="8.46967" y2="-15.1244" gradientUnits="userSpaceOnUse">
<stop stop-color="#5BCBA9"/>
<stop offset="1" stop-color="#54A2BA"/>
</linearGradient>
<linearGradient id="paint16_linear_391_9364" x1="5.44479" y1="48.0956" x2="4.23483" y2="-11.797" gradientUnits="userSpaceOnUse">
<stop stop-color="#5BCBA9"/>
<stop offset="1" stop-color="#54A2BA"/>
</linearGradient>
<linearGradient id="paint17_linear_391_9364" x1="1.51243" y1="35.3911" x2="-6.84844e-06" y2="-19.0568" gradientUnits="userSpaceOnUse">
<stop stop-color="#5BCBA9"/>
<stop offset="1" stop-color="#54A2BA"/>
</linearGradient>
<linearGradient id="paint18_linear_391_9364" x1="414.684" y1="237.418" x2="416.986" y2="244.062" gradientUnits="userSpaceOnUse">
<stop stop-color="#928F8F"/>
<stop offset="1" stop-color="#8C8C8C"/>
</linearGradient>
<linearGradient id="paint19_linear_391_9364" x1="-18.4518" y1="5.44479" x2="45.9782" y2="4.83981" gradientUnits="userSpaceOnUse">
<stop stop-color="#5BCBA9"/>
<stop offset="1" stop-color="#54A2BA"/>
</linearGradient>
<linearGradient id="paint20_linear_391_9364" x1="8.46967" y1="43.2558" x2="8.46967" y2="-15.1244" gradientUnits="userSpaceOnUse">
<stop stop-color="#5BCBA9"/>
<stop offset="1" stop-color="#54A2BA"/>
</linearGradient>
<linearGradient id="paint21_linear_391_9364" x1="5.44479" y1="48.0956" x2="4.23483" y2="-11.797" gradientUnits="userSpaceOnUse">
<stop stop-color="#5BCBA9"/>
<stop offset="1" stop-color="#54A2BA"/>
</linearGradient>
<linearGradient id="paint22_linear_391_9364" x1="1.51243" y1="35.3911" x2="-6.84844e-06" y2="-19.0568" gradientUnits="userSpaceOnUse">
<stop stop-color="#5BCBA9"/>
<stop offset="1" stop-color="#54A2BA"/>
</linearGradient>
<linearGradient id="paint23_linear_391_9364" x1="414.684" y1="237.418" x2="416.986" y2="244.062" gradientUnits="userSpaceOnUse">
<stop stop-color="#928F8F"/>
<stop offset="1" stop-color="#8C8C8C"/>
</linearGradient>
</defs>
</svg>
